<mxfile host="app.diagrams.net" modified="2022-05-09T00:28:59.864Z" agent="5.0 (Windows NT 10.0; Win64; x64) AppleWebKit/537.36 (KHTML, like Gecko) Chrome/101.0.4951.54 Safari/537.36" etag="f_737F-QO_NVqzju0QMx" version="18.0.2" type="github">
  <diagram id="WNJ7Y0WAoTBtyWd2qSeR" name="Page-1">
    <mxGraphModel dx="547" dy="290" grid="1" gridSize="10" guides="1" tooltips="1" connect="1" arrows="1" fold="1" page="1" pageScale="1" pageWidth="850" pageHeight="1100" math="0" shadow="0">
      <root>
        <mxCell id="0" />
        <mxCell id="1" parent="0" />
        <mxCell id="iLgsF8AlWTpj_OLjQBRI-19" value="" style="rounded=1;whiteSpace=wrap;html=1;" vertex="1" parent="1">
          <mxGeometry y="200" width="840" height="220" as="geometry" />
        </mxCell>
        <mxCell id="iLgsF8AlWTpj_OLjQBRI-7" value="" style="edgeStyle=orthogonalEdgeStyle;rounded=0;orthogonalLoop=1;jettySize=auto;html=1;" edge="1" parent="1" source="iLgsF8AlWTpj_OLjQBRI-1" target="iLgsF8AlWTpj_OLjQBRI-2">
          <mxGeometry relative="1" as="geometry" />
        </mxCell>
        <mxCell id="iLgsF8AlWTpj_OLjQBRI-1" value="Create Visual Asset" style="rounded=0;whiteSpace=wrap;html=1;" vertex="1" parent="1">
          <mxGeometry x="40" y="300" width="120" height="60" as="geometry" />
        </mxCell>
        <mxCell id="iLgsF8AlWTpj_OLjQBRI-11" style="edgeStyle=orthogonalEdgeStyle;rounded=0;orthogonalLoop=1;jettySize=auto;html=1;" edge="1" parent="1" source="iLgsF8AlWTpj_OLjQBRI-2" target="iLgsF8AlWTpj_OLjQBRI-3">
          <mxGeometry relative="1" as="geometry" />
        </mxCell>
        <mxCell id="iLgsF8AlWTpj_OLjQBRI-2" value="Export Asset" style="rounded=0;whiteSpace=wrap;html=1;" vertex="1" parent="1">
          <mxGeometry x="200" y="300" width="120" height="60" as="geometry" />
        </mxCell>
        <mxCell id="iLgsF8AlWTpj_OLjQBRI-12" style="edgeStyle=orthogonalEdgeStyle;rounded=0;orthogonalLoop=1;jettySize=auto;html=1;" edge="1" parent="1" source="iLgsF8AlWTpj_OLjQBRI-3" target="iLgsF8AlWTpj_OLjQBRI-4">
          <mxGeometry relative="1" as="geometry" />
        </mxCell>
        <mxCell id="iLgsF8AlWTpj_OLjQBRI-3" value="Push to GitHub" style="rounded=0;whiteSpace=wrap;html=1;" vertex="1" parent="1">
          <mxGeometry x="360" y="300" width="120" height="60" as="geometry" />
        </mxCell>
        <mxCell id="iLgsF8AlWTpj_OLjQBRI-14" value="Pass" style="edgeStyle=orthogonalEdgeStyle;rounded=0;orthogonalLoop=1;jettySize=auto;html=1;entryX=0;entryY=0.5;entryDx=0;entryDy=0;" edge="1" parent="1" source="iLgsF8AlWTpj_OLjQBRI-4" target="iLgsF8AlWTpj_OLjQBRI-5">
          <mxGeometry relative="1" as="geometry" />
        </mxCell>
        <mxCell id="iLgsF8AlWTpj_OLjQBRI-15" value="Fail" style="edgeStyle=orthogonalEdgeStyle;rounded=0;orthogonalLoop=1;jettySize=auto;html=1;entryX=0.5;entryY=0;entryDx=0;entryDy=0;" edge="1" parent="1" source="iLgsF8AlWTpj_OLjQBRI-4" target="iLgsF8AlWTpj_OLjQBRI-1">
          <mxGeometry relative="1" as="geometry">
            <Array as="points">
              <mxPoint x="580" y="280" />
              <mxPoint x="100" y="280" />
            </Array>
          </mxGeometry>
        </mxCell>
        <mxCell id="iLgsF8AlWTpj_OLjQBRI-4" value="Testing" style="rounded=0;whiteSpace=wrap;html=1;" vertex="1" parent="1">
          <mxGeometry x="520" y="300" width="120" height="60" as="geometry" />
        </mxCell>
        <mxCell id="iLgsF8AlWTpj_OLjQBRI-5" value="Ready for Use" style="rounded=0;whiteSpace=wrap;html=1;" vertex="1" parent="1">
          <mxGeometry x="680" y="300" width="120" height="60" as="geometry" />
        </mxCell>
        <mxCell id="iLgsF8AlWTpj_OLjQBRI-6" value="Visual Assets will be &lt;br&gt;created in Adobe Illustrator" style="text;html=1;align=left;verticalAlign=middle;resizable=0;points=[];autosize=1;strokeColor=none;fillColor=none;" vertex="1" parent="1">
          <mxGeometry x="40" y="360" width="160" height="30" as="geometry" />
        </mxCell>
        <mxCell id="iLgsF8AlWTpj_OLjQBRI-8" value="Items are exported to an&amp;nbsp;&lt;br&gt;appopriate format and&amp;nbsp;&lt;br&gt;naming format" style="text;html=1;align=left;verticalAlign=middle;resizable=0;points=[];autosize=1;strokeColor=none;fillColor=none;" vertex="1" parent="1">
          <mxGeometry x="200" y="360" width="150" height="50" as="geometry" />
        </mxCell>
        <mxCell id="iLgsF8AlWTpj_OLjQBRI-9" value="Push to GitHub where &lt;br&gt;checks will be innated.&amp;nbsp;" style="text;html=1;align=left;verticalAlign=middle;resizable=0;points=[];autosize=1;strokeColor=none;fillColor=none;" vertex="1" parent="1">
          <mxGeometry x="360" y="360" width="140" height="30" as="geometry" />
        </mxCell>
        <mxCell id="iLgsF8AlWTpj_OLjQBRI-13" value="Automated test will occur&lt;br&gt;to check fort he appropriate&amp;nbsp;&lt;br&gt;naming and file format." style="text;html=1;align=left;verticalAlign=middle;resizable=0;points=[];autosize=1;strokeColor=none;fillColor=none;" vertex="1" parent="1">
          <mxGeometry x="520" y="360" width="160" height="50" as="geometry" />
        </mxCell>
        <mxCell id="iLgsF8AlWTpj_OLjQBRI-16" value="Item will be placed into main&lt;br&gt;repo to be used as an asset&lt;br&gt;in game" style="text;html=1;align=left;verticalAlign=middle;resizable=0;points=[];autosize=1;strokeColor=none;fillColor=none;" vertex="1" parent="1">
          <mxGeometry x="680" y="360" width="170" height="50" as="geometry" />
        </mxCell>
        <mxCell id="iLgsF8AlWTpj_OLjQBRI-17" value="Next: How to Auto Import Assets" style="rounded=0;whiteSpace=wrap;html=1;" vertex="1" parent="1">
          <mxGeometry x="870" y="300" width="120" height="60" as="geometry" />
        </mxCell>
        <mxCell id="iLgsF8AlWTpj_OLjQBRI-18" value="Art Asset Automation" style="text;html=1;align=center;verticalAlign=middle;resizable=0;points=[];autosize=1;strokeColor=none;fillColor=none;fontSize=20;" vertex="1" parent="1">
          <mxGeometry x="320" y="210" width="200" height="30" as="geometry" />
        </mxCell>
        <mxCell id="iLgsF8AlWTpj_OLjQBRI-20" value="" style="shape=image;verticalLabelPosition=bottom;labelBackgroundColor=default;verticalAlign=top;aspect=fixed;imageAspect=0;image=data:image/png,iVBORw0KGgoAAAANSUhEUgAACDUAAAgACAYAAAA8fZpMAAAABGdBTUEAALGPC/xhBQAAACBjSFJNAAB6JgAAgIQAAPoAAACA6AAAdTAAAOpgAAA6mAAAF3CculE8AAAABmJLR0QA/wD/AP+gvaeTAACAAElEQVR42uzdeZiddWH3/899ZslGVkhCEgj7GhKSTBb2TZaguGDBtVq1PtbaWrpqa1u11bq1ttWntb/HtlbRSiu41LorouwQwiooiuACRAHZISSZzPn9MShbllnOmbnPfb9e15WLGCYzZ97nHJzkfOZ7FwGgbVYn0/qTGc3Hf3QlM/L4zzP4Y3KS6Um6H/9nbzOZ0kimNJPex3+tkaQrybStfIidkvQoDQAAAACwTZuTPLyVX38wyZYkA0keaCYbkzxaJI8k2ZTkgST9j//z0ST3F8n9Se7f8vjPi+T+7uT+KwbfFwBtUEgAMHSHJ5P6k3n9ydyuZM5AMrdI5iaZnWTXIpnbHPz5nCQzMzhIAAAAAACg2gaS3Jvk7iK5u5n8LMnP8/jPG8nPtyR3dyc/n5Lc+a3kMckAhsaoAeBxfUnPQDK7SOYVyd5J5ieZl6f+fM8YKgAAAAAAMDr3JVnfTO5sJLcmWT+Q3Nk1+PNbB5Kfrhs8YQKg9owagFpZlPROTnZLsveWZO/Hxwt7D/6r7J/By0AAAAAAAMB4W99MbmwktzYfHzs0k1s3JjffuPXLaQBUklEDUEkrk137k0VdyUHNwcHCgUn2TbLAf/sAAAAAAOhgzSS3J7klyc3N5DtJvtuT3HjF4CUvACrFC3tAR1udzN2SLGkmBxfJwc3k4Az+mKUOAAAAAAA1c2+SG5vJTUVyUyO5aWNy/fXJXdIAncqoAegYy5L5RdLXSPqaSV8Gxwt7KwMAAAAAANu1vpncWAyOHdYVybq1yU0ZPPUBoNSMGoBSWpnsPZAclsHxwrLHf8xQBgAAAAAAWuK+JNckubZIrmokl1+Z3CYLUDZGDcC4W5TsNDFZmsEBw5FJjk0yRxkAAAAAABhTDzSTtY3kkoFk3YTkkssGL2kBMG6MGoAxtzTZrzs5JsmRzWR1kgOTNJQBAAAAAIBSGUjy3WZyRZKLk1x0dXKLLMBYMmoA2m5lsveW5MQkRxWDY4Y9VAEAAAAAgI70syQXJbmkmVx89eAlLAZkAdrFqAFo+X9XliVLiuT4YvAyEkcl2UUWAAAAAACopLuL5KJmcmEzueDq5IYkTVmAVjFqAEZtdTK3PzmmSE5sJs9OspsqAAAAAABQS3cn+VYz+UZX8uW1yU8lAUbDqAEYtr5kciM5YmDwkhInJlnuvycAAAAAAMBW3Fok32gm30jytXXJA5IAw+FFSGBIlib7dSenNZPTkhydpEcVAAAAAABgGDY1kwuL5AtJvrAu+aEkwI4YNQBbdWbSdWtyeAZHDCcm6VMFAAAAAABooVuTfKGR/O+jyYU3JpskAZ7OqAH4laXJjEbynEby3GZySpIZqgAAAAAAAGPgvmby1SL53yRfdJkK4JeMGqDmDk9mbR68rMSZSU5O0qsKAAAAAAAwjrYkuTzJuY3kv9cmP5ME6suoAWpoWTK7Kzn18SHDKUl6VAEAAAAAAEroVwOH/uS865I7JIF6MWqAmjg0WdCdvLhIzmgmq5M0VAEAAAAAADrIQJLLmsl5zeRT1yR3SgLVZ9QAFbY0mdGdPO/xExnWJOlWBQAAAAAAqICBJJclOTfJf65L7pEEqsmoASrmuGTig8lJRfKKJM9P0qsKAAAAAABQYRuTfL1Izt2UfPr65BFJoDqMGqAaGiuSZyV5ZXNwyDBVEgAAAAAAoIYeTPK5geTsa5ILMniiA9DBjBqgg61Mdh9IXpbkt5LspQgAAAAAAMCv3JHkE0n+dV3yQzmgMxk1QIc5Lpn4UPLcZvK6YvB0Bs9jAAAAAACA7VvXTD68MfnkjcnDckDn8GIodIgVyZEDyWuK5My4vAQAAAAAAMBIPJjkUwPJR65JLpMDys+oAUrsyGTqhuSlRfKGJIcqAgAAAAAA0DLfS/LRTcmHb0jukwPKyagBSmh5clCRvD7Ja5LspAgAAAAAAEDbPFQk5xTJv6xNrpUDysWoAUpi32TC9OR5zeR1RXKiIgAAAAAAAGNuXTP5cJF8Yl3yqBww/owaYJz1JQubye8UyWuTzFIEAAAAAABg3P0iyb81kn9em/xUDhg/Rg0wTpYnfUnOKpKXJOlRBAAAAAAAoHQGknypkXxgbfINOWDsGTXAGFqU9E5Mnt9Mfr9IjlAEAAAAAACgY1xdJB9oJuesSzbLAWPDqAHGQF+yS5LXJ3lDknmKAAAAAAAAdKw7msmHupP/d+XgZSqANjJqgDZaluzRSP4wyWuTTFYEAAAAAACgMh5J8u9J3r8u+Ykc0B5GDdAGfcniZvInRfKSJD2KAAAAAAAAVNbmZvJfXcl71yY3ygGtZdQALdSXHJXkzUme4/kFAAAAAABQK80kXyyS91yVXCIHtIYXXaEFz6PlyWmN5M+ayeFyAAAAAAAA1N7FSd6zLvmiFDA6Rg0wCiuTE7ck7yqSlWoAAAAAAADwNNcneee65LwMnuQADJNRA4zgefP4yQxvbSYr5AAAAAAAAGAHbkjyDuMGGD6jBhjG82V5clqRvD3JcjkAAAAAAAAYphuK5O+uSj6RZEAO2DGjBhjC86QvOSPJW5McIgcAAAAAAACjdF0z+aurk8/FyQ2wXUYNsB0rkxMHkvck6VMDAAAAAACAVmoma5O84+rkf9WArTNqgK3oS1YneVeSE9QAAAAAAACgzS4ZSN5yTXKhFPBURg3wJMuSgxvJ2zN4uQnPDwAAAAAAAMZMM/lGV/Ina5Nr1YBBXrSFJCuTvQeSv07y0iQNRQAAAAAAABgnA83kP7uTt12Z3CYHdWfUQK0tTmb2Jm9OclaSiYoAAAAAAABQEpuT/MuW5G3XJvfLQV0ZNVBLfUlPM3l1kbwzyWxFAAAAAAAAKKl7k7zvgeQfb0k2ykHdGDVQO8uT5xbJ3yfZVw0AAAAAAAA6xA+S/Pm65FwpqBOjBmpjWbKiK3l/MzlGDQAAAAAAADrU5Y3kj9Yml0pBHRg1UHnLkvldyXubycs95gEAAAAAAKiAZpKPN5I3r01+JgdV1iUBVdWX9MxP3lgkn06yMgYNAAAAAAAAVEOR5NBm8tsLkt7JyWX3JltkoaoPdqic5ckJRfLBJIvUAAAAAAAAoOK+XyS/f1XyZSmoGqMGKmV1stvm5F1F8go1AAAAAAAAqJkvdCW/d2VymxRUhVEDlXB4Mmlz8uZm8qYkkxQBAAAAAACgph5N8t6pyfu+lTwmB53OqIGOtyI5rpn8S5ID1QAAAAAAAIAkyQ+TvGFd8jUp6GRGDXSs1cnczcnfutQEAAAAAAAAbNO5m5PfvT65Swo6UZcEdKBiRfLKgeTzRXKYHAAAAAAAALBNi7qS/zM/eWx9sjZJUxI6iZMa6Cirkv23JP9fkuPVAAAAAAAAgGG5pJH81trkRinoFE5qoCMcl0zcOfnrZvKJJPsoAgAAAAAAAMO2sJm8dn4yYUpy6b3JFkkoOyc1UHrLksMbyb8nOUgNAAAAAAAAaIlbBpLfvCa5UArKzKiB0jo8mbQpeVuSP45TRQAAAAAAAKDVBork3zYlf3h98ogclJFRA6W0IjmyOXg6wwFqAAAAAAAAQFvdmuS165ILpKBsjBoolb5kcpK3JvmTJA1FAAAAAAAAYEw0i+RfJyR/fEnykByUhVEDpbE8OaEYPJ1hTzUAAAAAAABgXNxWJK+5KvmWFJSBUQPj7rhk4kPJ2+N0BgAAAAAAACiDZpH8azP5g3XJo3IwnowaGFd9yeIkH09yqBoAAAAAAABQKjclecW65GopGC9dEjAezky6JiVvSnJOkgWKAAAAAAAAQOnMTvKaBUnXkclFNyVNSRhrTmpgzK1K9tqSfCzJ0WoAAAAAAABAR7h8S/LKa5MfSMFYclIDY2pF8lsDyeeS7KsGAAAAAAAAdIzdGsmrFiR33ZlcIwdjxUkNjIm+ZHoz+f+K5CVqAAAAAAAAQOcqks9sTF57Q3KfGozB4w3aqy9ZneSTSfZWAwAAAAAAACrhJ0levi65WArayeUnaKeiLzkryTlJdpEDAAAAAAAAKmN6klcuSLqOTC66KWlKQjs4qYG2WJ3M7U/OTnKyGgAAAAAAAFBpF/Qnr7guuUMKWq0hAa22Inlef3JjDBoAAAAAAACgDo7vTq7pS54jBa3m8hO0zHFJ9y7JW5vJh5JMUQQAAAAAAABqY0qSl85PZs1Pzl+fDEhCK7j8BC2xJJnTm3yymTxLDQAAAAAAAKivIrmwmbxkXbJeDVrweILRWZkcO5Cck2SeGgAAAAAAAECSuxvJy9Ym35CC0XD5CUaj6EvOaiafSDJdDgAAAAAAAOBxU5rJyxckjTuTC5M0JWEknNTAiPQNjhj+I8npagAAAAAAAADb8YVNyStvSO6TguEyamDYViTLmslnk+yhBgAAAAAAADAEtzaT069OrpeC4WhIwHCsSF7STC6OQQMAAAAAAAAwdHsXyRUrkldIwXB0ScBQnJl0TUreneTvk/QqAgAAAAAAAAxTd5IXzE8mHZVccFPSlIQdcfkJdujwZNam5JwkJ6sBAAAAAAAAjFaRfGVj8rIbkvvUYAePFdi2FckBzeR/khygBgAAAAAAANBCtxTJ6Vcl35GCbWlIwLasSH6tmVwVgwYAAAAAAACg9fZtJpf2JS+Qgm3pkoCt6UvOSvJvSSaoAQAAAAAAALTJhCQvXpAUdybfkoOnc/kJnmLfZML05MNJXqkGAAAAAAAAMFaayX9NS179reQxNfglowZ+ZVWyc3/y6SI5Vg0AAAAAAABgrDWTS/uT069P7lKDxKiBxy1N9utKvpBkfzUAAAAAAACAcXRrMznt6uS7UtCQgBXJSV3JlTFoAAAAAAAAAMbf3kVyxYrk2VLQJUG99SVvSPKJJJPVAAAAAAAAAEpiQpIXz0t+vj5ZJ0d9GTXUV7EieXuS98WJHQAAAAAAAED5NIrkufOTWeuTr8pRT4UE9bMo6Z2YfCTJy9UAAAAAAAAAOsDZSV67LtksRb0YNdTMomSnScm5zWSNGgAAAAAAAECnKJLzu5IXXpE8qEat7nfqoi+Zl+SLSZapAQAAAAAAAHSgG7qTZ1+R3C5FPRg11MSy5OBG8qUke6gBAAAAAAAAdLAfJTl1XfI9KaqvIUH19SVHNZKLY9AAAAAAAAAAdL49k1y8LDlciuozaqi4Zcmzknw5yUw1AAAAAAAAgIrYuZF8Y3myRopqM2qosOXJ6Y3ki0l2UgMAAAAAAAComMlF8j/LkxdJUV1dElRTX/L6IvlYkh41AAAAAAAAgIrqKpIXzkvWr0+ulqOCd7AE1dOXvDnJP8RJHAAAAAAAAED1NYrktAXJhjuTS+SoFqOGaimWJ+8tkrclKeQAAAAAAAAAaqJIctL8ZNL65Hw5qsOooToafcmHi+SNUgAAAAAAAAA1ddT8ZO765MtJmnJ0PqOGCjgz6ZqUfCTJa9QAAAAAAAAAam7F/GS/A5LP/ygZkKOzGTV0uDOTrtuSjyZ5pRoAAAAAAAAASZLFm5MD9k8+9yPDho5WSNC5+pKeZnJOkfyaGgAAAAAAAADPcF6Sl61LNkvRmRoSdKZFSW+STxk0AAAAAAAAAGzTGUk+u28yQYrO5KSGDrQo6Z2QnFskz1MDAAAAAAAAYPuayZenJS/8VvKYGp3FqKHDHJ5M2pR8LsnJagAAAAAAAAAM2Vd7k9MvSzZI0TlcfqKDLEp6NyXnxqABAAAAAAAAYLhO2ZT8z3HJRCk6h1FDh1iU9E5KzkvyHDUAAAAAAAAARuSkh5PP7ptMkKIzuPxEB+hLejJ4QsPz1QAAAAAAAAAYtc8ledG6ZLMU5eakhpI7M+lqJmfHoAEAAAAAAACgVV7QTM45LumWoty6JCivM5OuW5OPFcnL1AAAAAAAAABonSI5eFNy0AHJZ3+UDChSTkYN5dWYmHy0SH5dCgAAAAAAAIC2WLQp2WN98vkkTTnKx6ihnIq+5MNF8mopAAAAAAAAANpq6fxk7vrkS1KUj1FDCa1I3pfkjUoAAAAAAAAAjIkV85Pe9cn5UpSLUUPJLE/ekuQvlQAAAAAAAAAYU0cvSDbcmVwiRXkYNZRIX/L6Ivl7JQAAAAAAAADGxYnzkvXrk3VSlINRQ0ksT15YJP+RpKEGAAAAAAAAwLgoiuQ585Kb1yc3ylGCO0SC8bciOamZ/G+SCWoAAAAAAAAAjLvNRfL8q5IvSzG+jBrGWV9yVJKvJpmsBgAAAAAAAEBpPNJITl6bXCrF+DFqGEfLkoMbycVJZqoBAAAAAAAAUDr3JjlyXfI9KcaHUcM4WZbMbwwuevZQAwAAAAAAAKC0bu9ODr8iuV2KsdeQYOytTqY1ki/GoAEAAAAAAACg7HbrT760NJkhxdgzahhjfUlPf3JekqVqAAAAAAAAAHSExV3JZ/ZNJkgxtowaxlbRTP49yUlSAAAAAAAAAHSU46cn/5GkkGLsdEkwdvqSvy2S31YCAAAAAAAAoCMtXpD03Jl8U4qxYdQwRlYkv5vknUoAAAAAAAAAdLSjFyQ/uzNZJ0X7ORZjDCxPTimSLyTpVgMAAAAAAACg4/UXybOvSr4uRXsZNbTZ8uSgIrk0yQw1AAAAAAAAACrjwSI58qrkO1K0j1FDG/UluyS5PMk+agAAAAAAAABUzm2bk8OuT+6Soj0aErTHccnEZvI/MWgAAAAAAAAAqKq9epJP75tMkKI9jBrao3g4+dciOUIKAAAAAAAAgEo7akbysbhSQlt0SdB6fclbk5ylBAAAAAAAAEAtHDIv2bQ+uUiK1rIUabEVyRnN5FPaAgAAAAAAANRKs5n82tXJZ6VoHS+8t9DyZEmRXJpkihoAAAAAAAAAtfNwkRx+VfIdKVrDqKFFDk9mbUquTLKPGgAAAAAAAAC19aMkK9cl90gxeg0JRu/MpGtz8p8xaAAAAAAAAACouz2TfPLMpEuK0ROxBSYm70/yCiUAAAAAAAAASLLPfcmE9ck3pBgdo4ZRWp68vEj+VgkAAAAAAAAAnuTIBcn370y+I8XIFRKM3IpkWTO5OMlkNQAAAAAAAAB4mg3N5Oirk3VSjIxRwwj1Jbtk8IG3UA0AAAAAAAAAtuG2TUnfDcl9UgxfQ4KRdSuSj8egAQAAAAAAAIDt26t38PVlr8+PQJcEw7c8eWuS1yoBAAAAAAAAwBDsPz/ZuD65WIrhcfmJYVqenFAkX4tBCAAAAAAAAABDN1Aka65Kvi7F0Bk1DMPqZLf+5Ooks9UAAAAAAAAAYJh+3p/0XZfcIcXQuGbHEPUlPf3JOTFoAAAAAAAAAGBk5vYk5/YlPVIMjUsoDNGC5P1JXqQEAAAAAAAAAKOwezOZsD75hhQ75vITQ7A8Ob1IPq0XAAAAAAAAAC3QbCbPuzr5ghTb50X6HVid7NafXJtkZzUAAAAAAAAAaJH7kixdl/xEim1rSLD9Pv3J2TFoAAAAAAAAAKC1ZjaTs89MuqTYNnG2oy95e5JXKQEAAAAAAABAqxXJnvcnm+5MLlJjm43YmuXJ0UVyQQw/AAAAAAAAAGif/iI57qrkEimeyahhKxYnM3uTa5LsoQYAAAAAAAAAbfbT3mTpZcm9UjxVQ4Jn6k0+EoMGAAAAAAAAAMbG7huTD8vwTC6t8DR9yRuS/JESAAAAAAAAAIyVIjl4XnLn+uRqNZ7ShV/qS/ZJcm2SndQAAAAAAAAAYIw90pUsvzL5vhSDXH7icccl3Un+MwYNAAAAAAAAAIyPKQPJR8901YVfEeJxs5K/LJJfVwIAAAAAAACAcbT7vcnG9clFUrj8RJKkL1me5PIkPWoAAAAAAAAAMM76G8kRa5O1dQ9R+8tPHJdMTHJ2DBoAAAAAAAAAKIfugeRjhyeT6h6i9pefmJX8Q5Gc5jkBAAAAAAAAQInM7k8mr0++WucItb78xMrkxIHka3EZDgAAAAAAAADKZyDJieuSC+oaoLYv5q9OpvUnNyRZ6HkAAAAAAAAAQEn9eGKy+JLkoTp+8o263uubk/fFoAEAAAAAAACActtjY/Luun7ytTypoS85Psn5cdkJAAAAAAAAAMpvoJGcsDb5dt0+8dq9qN+XTE5yfZJ9PO4BAAAAAAAA6BC3bU4WX588UqdPunaXn2gm741BAwAAAAAAAACdZa+e5K/r9knX6qSGlckRA8lFqeGYAwAAAAAAAICON5Dk2HXJxXX5hGszajg8mbQpuS7Jfh7nAAAAAAAAAHSom6cmS7+VPFaHT7arLvfqrsm7kjzX4xsAAAAAAACADrbLxqRYn3yzDp9sLU5q6EsWJ1mXpMfjGwAAAAAAAIAO1z+QrLhm8GoFldaowZ3ZKJL/F4MGAAAAAAAAAKqhu5H8U2pwkEHlLz+xPHlDkt/ymAYAAAAAAACgQhbOS+5Yn1xd5U+y0quNlcmuA8l3k8zweAYAAAAAAACgYu7bnBx4fXJXVT/BSl9+YiD5YAwaAAAAAAAAAKimmb3J+6v8CVb2pIblyZoi+bLHMAAAAAAAAABVViQnX5V8vaKfW/X0JZOTfCfJXh6+AAAAAAAAAFTcLb3JksuSDVX7xCp5+Yki+fMYNAAAAAAAAABQD/tuTN5UxU+scic19CX7ZPCUhoketwAAAAAAAADUxIauZNGVyW1V+qSqeFLDB2LQAAAAAAAAAEC9TBpI/q5qn1SlTmroS05O8lWPVQAAAAAAAADqqJmcenXylap8PpUZNSxKeicmNyTZ38MUAAAAAAAAgJr6wQPJ4luSjVX4ZCpz+YkJyR/HoAEAAAAAAACAettvevK7VflkKnFSw+pkt/7ku0l28vgEAAAAAAAAoOYeGkgOvCa5s9M/kUqc1LA5+dsYNAAAAAAAAABAkkxtJO+uwifS8Sc1LE8OK5JLU5FTJwAAAAAAAACgBZqNZPXaZG0nfxKdflJDUSR/F4MGAAAAAAAAAHiyopl8IB3+enpHjxqWJy9KcqTHIgAAAAAAAAA8VTM5fHnygk7+HDp2kbEo6Z2Y3JRkHw9FAAAAAAAAANiqWx9IDr4l2diJN75jT2qYkJwVgwYAAAAAAAAA2J69pyev79Qb35EnNSxOZvYmtySZ5fEHAAAAAAAAANt1X1ey35XJLzrthnfkSQ29yV/FoAEAAAAAAAAAhmLmluQtnXjDO+6khqXJfl3JjUl6PO4AAAAAAAAAYEg2NZKD1ia3dtKN7riTGrqTd8SgAQAAAAAAAACGo7c5eFWEjtJRJzUsT5YUyTXp0MtmAAAAAAAAAMA4GhhIll+TXNcpN7ijxgGN5L0xaAAAAAAAAACAkWgUyV930g3umJMa+pKjklzkMQYAAAAAAAAAI9dIjlybXNoht7UzNJN3emgBAAAAAAAAwOgMJO/plNvaEaOG5clzi+RYDy0AAAAAAAAAGLWj+5KTO+GGdsKooeOu6QEAAAAAAAAAJfeuJEXZb2TpRw0rkhcnWerxBAAAAAAAAAAt07cieWHZb2TZRw2NZvIWjyUAAAAAAAAAaK1m8lcp+W6g1DduRfKiJId4KAEAAAAAAABAyy1anrygzDewzKMGpzQAAAAAAAAAQBsVJT+tobQ3bHlyRpLFHkIAAAAAAAAA0DaH9CXPK+uNK+uooSiSP/fYAQAAAAAAAIC2e1uSoow3rJSjhhXJryVZ4nEDAAAAAAAAAG23dEXy3DLesDKOGopm8hceMwAAAAAAAAAwNprJ21PC0xpKN2pYnrwgyaEeMgAAAAAAAAAwZpYtT55TthtVulFDkbzJYwUAAAAAAAAAxlZRwqsqlGrUsDw5IclhHioAAAAAAAAAMOZW9yVHlekGlWrUUCRv9hgBAAAAAAAAgHFTqtfti7LckGXJoY3kmjLdJgAAAAAAAAComWYjWb42ubYMN6Y0JzU0krfEoAEAAAAAAAAAxlPRTP6oNDemDDdiZbL3QHJzkm6PDwAAAAAAAAAYV/1bkv2uTX403jekFCc1bEneFIMGAAAAAAAAACiD7q7kD8twQ8b9pIbVydz+wXXHRI8LAAAAAAAAACiFR5PssS65ZzxvxLif1NCfvCEGDQAAAAAAAABQJpOTvH68b8S4ntSwbzJh+uApDbt6PAAAAAAAAABAqax/LNnzxmTTeN2AcT2pYVry0hg0AAAAAAAAAEAZzZuQvGg8b0BjnD/473gMAAAAAAAAAEA5FckfjOfHH7dRw8rk2GaywkMAAAAAAAAAAEpr+YrkyPH64OM2ahhIznLfAwAAAAAAAEC5Ncfx9f1iPD7o0mTPruSWJF3ufgAAAAAAAAAotS1dyX5XJreN9Qcel5MaGsnvxaABAAAAAAAAADpB10Dy2+Pxgcf8pIa+ZHKSO5LMcL8DAAAAAAAAQEe4rzdZcFmyYSw/6Jif1FAkL41BAwAAAAAAAAB0kpkbkxeP9Qcdj8tPvN59DQAAAAAAAACdpUh+axw+5thZkSxrJle7qwEAAAAAAACgI/WtG8PX/cf0pIaB5HfdvwAAAAAAAADQmZrJ68by443ZSQ19yfQkdySZ4m4GAAAAAAAAgI70cHey4IrkwbH4YGN5UsNvxKABAAAAAAAAADrZTv3Jy8fqg43lqOF17lsAAAAAAAAA6HivH6sPNCajhmXJMUkWuV8BAAAAAAAAoOMtWZYcPhYfqDFGH+Q33acAAAAAAAAAUA2N5DVj8XGKdn+ARclOE5P1SXZytwIAAAAAAABAJTz8WDLvxuThdn6Qtp/UMCl5cQwaAAAAAAAAAKBKdpqUnN7uD9L2UUMzebX7EgAAAAAAAACqZSz2AG29/MTSZL+u5OaMwWUuAAAAAAAAAIAx1Uyy37rkh+36AG09qaFrcJVh0AAAAAAAAAAA1VMUySva+QEabX7fv+4+BAAAAAAAAIBqaiavShu3B217x8uTk5Ps7i4EAAAAAAAAgMraY1lyfLveedtGDUXySvcdAAAAAAAAAFRbo42XoCja8U6XJFN6kp8l2cndBwAAAAAAAACV9lBvMveyZEOr33FbTmroTl4QgwYAAAAAAAAAqIOpm5LT2vGO2zJqKJKXus8AAAAAAAAAoDbashNo+eUnDk9mbUrWJ+l1nwEAAAAAAABALWzqTeZdltzbynfa8pMaNiUvjkEDAAAAAAAAANRJ7+bk9Fa/03ZcfuJl7isAAAAAAAAAqJ2WX4KipZef6EsWJvlR2nBZCwAAAAAAAACg1Ab6k4XXJXe06h229KSGInlJDBoAAAAAAAAAoI4aXcmZLX2HLb6BZ7qPAAAAAAAAAKCeiuSMFr+/1liZ7D6Q/DhOagAAAAAAAACAuhoYSHa/JrmzFe+sZSc1NAfXFgYNAAAAAAAAAFBfjUbygpa9s1a9o2byQvcNAAAAAAAAANTer7XqHbXkZIXVydz+5I4kXe4bAAAAAAAAAKi1LQPJvGuSu0f7jlpyUkP/4CkNBg0AAAAAAAAAQFcjeX4r3lFLRg1FC4+OAAAAAAAAAAA6W6t2BKO+/MSqZOctyc+SdLtbAAAAAAAAAIAkmzclc29I7hvNOxn1SQ1bktNi0AAAAAAAAAAAPKGnJ3n2aN/JqEcNzeS57gsAAAAAAAAA4MmK5DkteB8jtyjpnZjck2SquwMAAAAAAAAAeJIHksxel2we6TsY1UkNk5JjY9AAAAAAAAAAADzT9EZyxGjewahGDc0WHBUBAAAAAAAAAFTTaHcFjVF+fKMGAAAAAAAAAGCrmslpo/n9Ix41LEsOTrKvuwAAAAAAAAAA2IaDlo9iWzDiUUPXKNcUAAAAAAAAAED1FaO4CsRoLj/h0hMAAAAAAAAAwI6MeF9QjOQ3rU6m9Se/SNKtPQAAAAAAAACwHRs3Jztfnzwy3N84opMatiTHx6ABAAAAAAAAANixCb3JMSP5jSO9/MRJmgMAAAAAAAAAQzEwwp3BiEYNTaMGAAAAAAAAAGCIihHuDIrh/oa+ZGGSH0sOAAAAAAAAAAxRM8mCdcn64fymYZ/UUDilAQAAAAAAAAAYnmIke4ORXH7CqAEAAAAAAAAAGK62jxoazeQEnQEAAAAAAACA4WgOjhqK4fyeYY0a+pKlSWZLDQAAAAAAAAAM09zlyeLh/IbhntTglAYAAAAAAAAAYESK5PjhvH1jmO/8GIkBAAAAAAAAgJFoJkcP5+2HM2poNJMjJQYAAAAAAAAARuLxwxSKob79kEcNywavazFLYgAAAAAAAABghGYvSw4a6hs3hvGGLj0BAAAAAAAAAIzKcPYHw7n8hFEDAAAAAAAAADBaRw/1DYc6aiiG804BAAAAAAAAALbh+KG+4ZBGDcuTA5PM1RUAAAAAAAAAGKV5fck+Q3nDoZ7U4JQGAAAAAAAAAKAlmskxQ3m7IY0aiuRISQEAAAAAAACAViiSI4bydkM9qWG1pAAAAAAAAABAixw2lDcqdvQGS5MZXcm9Q3lbAAAAAAAAAIAhGOhOZl6RPLi9N9rhSQ2NwXWEQQMAAAAAAAAA0CqNTcnKHb7REN6RS08AAAAAAAAAAC3VNYRLUBg1AAAAAAAAAADjYYd7hB2NGooiWaUjAAAAAAAAANBKzdGe1LAq2S/JzlICAAAAAAAAAC02e2Wy9/beYLujhn6nNAAAAAAAAAAAbTKwg9MatjtqKJKVEgIAAAAAAAAA7dBMVmzv3zd28PuXSQgAAAAAAAAAtEORLN3ev29s//dmiYQAAAAAAAAAQJssy+A+Yau2OWpYnuyTZLp+AAAAAAAAAECbzFia7LGtf7nNUUPh0hMAAAAAAAAAQJs1trNP2N7lJ4waAAAAAAAAAIC2KkYyanBSAwAAAAAAAAAwBoY/amgmS3UDAAAAAAAAANpseKOGZcn8JLvqBgAAAAAAAAC02YLVydyt/YutjhqKZLFmAAAAAAAAAMBY2JQcsrVf39aoYZFkAAAAAAAAAMBYaCQHb+PXt+pgyQAAAAAAAACAMTL0UUNh1AAAAAAAAAAAjJFiOKOGZnKQZAAAAAAAAADAWGgmi7b2688YNRyaLEgyQzIAAAAAAAAAYIzsvCSZ8/RffMaooXsb6wcAAAAAAAAAgHbp2cpe4RmjhuY2rlMBAAAAAAAAANAuW9srPGPUUBg1AAAAAAAAAABjrBjKqCHJgVIBAAAAAAAAAGPsoKf/wtZGDfvqBAAAAAAAAACMsX2e/gvFk//HkmRKT/LQ038dAAAAAAAAAKDNBnqTnS5LNvzyF55yUkPX4CkNBg0AAAAAAAAAwFhrPJbs9ZRfePL/KLZylAMAAAAAAAAAwFh4+m6h8bT/sa9EAAAAAAAAAMB4ePpuofG0f++kBgAAAAAAAABgvGz7pIamkxoAAAAAAAAAgHHS3MFJDUYNAAAAAAAAAMB4ecpuoXjSr06YnjyaZw4dAAAAAAAAAADGQv/UZNK3kv7kSQOG6cluMWgAAAAAAAAAAMZP90PJ/F/+j1+NGIpkd20AAAAAAAAAgPH05P3Ck09mMGoAAAAAAAAAAMbbwl/+5FejhgGjBgAAAAAAAABg/D3zpAaXnwAAAAAAAAAAxtuAy08AAAAAAAAAAGVUGDUAAAAAAAAAACVl1AAAAAAAAAAAlNLCX/6kSJIlyZSe5GFdAAAAAAAAAIBx1uxNplyWbGgkSSOZrwkAAAAAAAAAUAJFfzIvefzyE93JHE0AAAAAAAAAgDLY8viOoZEkA8lcSQAAAAAAAACAMmg8vmNoJElh1AAAAAAAAAAAlMTAk09qaLr8BAAAAAAAAABQEoWTGgAAAAAAAACAknripAajBgAAAAAAAACgRJ44qcHlJwAAAAAAAACAEnnipIY4qQEAAAAAAAAAKI8nTmpIsoseAAAAAAAAAEBJzE4GRw2NJNP1AAAAAAAAAABKYkaSoliazOhK7tMDAAAAAAAAACiLicm0RgbXDQAAAAAAAAAApbEpmdHoTmZKAQAAAAAAAACUyUAyo9F0UgMAAAAAAAAAUDJNowYAAAAAAAAAoKRmNGLUAAAAAAAAAACUTCOZ2WgYNQAAAAAAAAAAJdN8/KSG6VIAAAAAAAAAACUzo9FMpugAAAAAAAAAAJTM5EaSyToAAAAAAAAAACVj1AAAAAAAAAAAlJJRAwAAAAAAAABQSpMbRTJJBwAAAAAAAACgZCY5qQEAAAAAAAAAKCOXnwAAAAAAAAAASmlyo2nUAAAAAAAAAACUz+RGkkk6AAAAAAAAAAAlM6mRZKIOAAAAAAAAAEDJTGok6dEBAAAAAAAAACiZ7kaSLh0AAAAAAAAAgJLpMmoAAAAAAAAAAMrIqAEAAAAAAAAAKCWXnwAAAAAAAAAASslJDQAAAAAAAABAKRk1AAAAAAAAAACl5PITAAAAAAAAAEApOakBAAAAAAAAACilrkaSQgcAAAAAAAAAoGQaDQ0AAAAAAAAAgDIyagAAAAAAAAAASsmoAQAAAAAAAAAoJaMGAAAAAAAAAKCUjBoAAAAAAAAAgFIyagAAAAAAAAAASsmoAQAAAAAAAAAoJaMGAAAAAAAAAKCUjBoAAAAAAAAAgFIyagAAAAAAAAAASsmoAQAAAAAAAAAoJaMGAAAAAAAAAKCUjBoAAAAAAAAAgFIyagAAAAAAAAAASsmoAQAAAAAAAAAoJaMGAAAAAAAAAKCUjBoAAAAAAAAAgFIyagAAAAAAAAAASsmoAQAAAAAAAAAoJaMGAAAAAAAAAKCUjBoAAAAAAAAAgFIyagAAAAAAAAAASsmoAQAAAAAAAAAoJaMGAAAAAAAAAKCUjBoAAAAAAAAAgFIyagAAAAAAAAAASsmoAQAAAAAAAAAoJaMGAAAAAAAAAKCUjBoAAAAAAAAAgFIyagAAAAAAAAAASsmoAQAAAAAAAAAoJaMGAAAAAAAAAKCUjBoAAAAAAAAAgFIyagAAAAAAAAAASsmoAQAAAAAAAAAoJaMGAAAAAAAAAKCUjBoAAAAAAAAAgFIyagAAAAAAAAAASsmoAQAAAAAAAAAoJaMGAAAAAAAAAKCUjBoAAAAAAAAAgFIyagAAAAAAAAAASsmoAQAAAAAAAAAoJaMGAAAAAAAAAKCUjBoAAAAAAAAAgFIyagAAAAAAAAAASsmoAQAAAAAAAAAoJaMGAAAAAAAAAKCUjBoAAAAAAAAAgFIyagAAAAAAAAAASsmoAQAAAAAAAAAoJaMGAAAAAAAAAKCUjBoAAAAAAAAAgFIyagAAAAAAAAAASsmoAQAAAAAAAAAoJaMGAAAAAAAAAKCUjBoAAAAAAAAAgFIyagAAAAAAAAAASsmoAQAAAAAAAAAoJaMGAAAAAAAAAKCUjBoAAAAAAAAAgFIyagAAAAAAAAAASsmoAQAAAAAAAAAoJaMGAAAAAAAAAKCUjBoAAAAAAAAAgFIyagAAAAAAAAAASsmoAQAAAAAAAAAoJaMGAAAAAAAAAKCUjBoAAAAAAAAAgFIyagAAAAAAAAAASsmoAQAAAAAAAAAoJaMGAAAAAAAAAKCUjBoAAAAAAAAAgFIyagAAAAAAAAAASsmoAQAAAAAAAAAoJaMGAAAAAAAAAKCUjBoAAAAAAAAAgFIyagAAAAAAAAAASsmoAQAAAAAAAAAoJaMGAAAAAAAAAKCUjBoAAAAAAAAAgFLqlgAAAAAAgLqYNS2ZOzPZZXoybUoybfIT/5w6OentGXy7aZO3/vs3bEw2bxn8+cZNycMbkoc2JA8/Ovjzhzck9z+c3Ptgctf9g/8bAICRM2oAAAAAAKAyiiKZt3Oy567JPvMH/7lgdjJnZrLrzCdGC2PlsU3JXfcl9zyY/OwXyU/vSn788yf++ehj7jMAgO1+fdeXNGUAAAAAAKDTNBrJ3vOSg/dMFu05+M+95iUTezvnc7jngeTWO5Pv/eSJHz+9K2n6m3sAgCRGDQAAAAAAdIjenmTJ3smKA5O+/ZMDFyaTJlTv83zkseTmnybX/iBZ9/3k+h8OXvYCAKCOjBoAAAAAACit/XdPjlo8OGQ4dJ9kQk/9GvRvSW76cXL195Mrb0qu/sHgrwEA1IFRAwAAAAAApdFoDJ7GcPSS5PhlycK5mjzdho3JVTcnF12ffPva5BcPagIAVJdRAwAAAAAA46pRJMv2T55z2OCQYepkTYZqYGDw5IYvX5Gcvy55eIMmAEC1GDUAAAAAADAu9pqXnLRicMywYLYeo7WpP7nipuSLlyXfvi7Z3K8JAND5jBoAAAAAABgzPd3JsYcmLzwmWXWQHu3y0KPJFy9PPvn15M5f6AEAdC6jBgAAAAAA2m7OjOQFRydnHpfMnKrHWBloJld9L/mv85OLbkiaXhEAADqMUQMAAAAAAG1zwMLkVWuSZ/UljUKP8fTDO5L/+HLytauSgQE9AIDOYNQAAAAAAEDLLd03+Y01yVGLk8KYoVTuvCc55/zk099ONvXrAQCUm1EDAAAAAAAts3z/5A0vGBw1UG53/iL58OeTL10+eJkKAIAyMmoAAAAAAGDU9p6fvO65yYl9WnSaW9cnHzwvufgGLQCA8jFqAAAAAABgxBbMTn77+cnJK5OGy0x0tEtuSD5w3uDIAQCgLIwaAAAAAAAYtgk9yW+sSV61Junt0aMqtgwk534r+efPJhs26gEAjD+jBgAAAAAAhuWYJckfvySZv4sWVXXH3cl7PplcdqMWAMD4MmoAAAAAAGBI5u+cvPllyZGLtaiLL12e/N1/JQ8+qgUAMD6MGgAAAAAA2K6iSE4/Ovn9M5LJE/Wom5/fm7ztP5KrbtYCABiHr0WNGgAAAAAA2JZ5Oyd/+cpk1UFa1Fmzmfz3BckHzks29+sBAIwdowYAAAAAALbq9KOTPzjT6Qw84Xs/Sf7sw8lP79ICABgbRg0AAAAAADzF5InJn/96csoqLXimRx5L3vqR5NvXagEAtJ9RAwAAAAAAv3LgwuTdr0t2n6MF29ZsJmd/NfnnzyYDXmUAANrIqAEAAAAAgCTJi09Izjoj6e3WgqH55tXJ2/8jeXSjFgBAexg1AAAAAADUXG938qcvT553pBYM3w9uT876YHLX/VoAAK1n1AAAAAAAUGMzdkre99vJ8v20YOTuvCd54weTH/9MCwCgtYwaAAAAAABqav/dkvf/TjJvZy0YvQcfSf7gn5PrbtECAGidhgQAAAAAAPVzzJLkI39q0EDrTJuS/NNZyaoDtQAAWseoAQAAAACgZp592OAlJyb2akFrTZqQ/MMbk9UHawEAtIZRAwAAAABAjbz0WcnbX510d2lBe0zoSf7hd5Ojl2gBAIyeUQMAAAAAQA0URXLWGckfvThpFHrQXr3dyXt/KzlikRYAwOgYNQAAAAAAVFxRJH/84uQVJ2vB2OntSf72DcmSvbUAAEbOqAEAAAAAoMKKYvB0hhefoAVjb0JP8ve/myycowUAMDJGDQAAAAAAFfbGFyYvMWhgHM3YKfngWcnMqVoAAMNn1AAAAAAAUFF/+KLklafowPjbbXbyvtcnvd1aAADDY9QAAAAAAFBBr3l28rITdaA8lu2X/MUrdQAAhseoAQAAAACgYtasSn77+TpQPs8+LHnhMToAAENn1AAAAAAAUCErD0ze9qqkKLSgnN700mTpvjoAAENj1AAAAAAAUBEHLEze/4akp1sLyqu7K3nX/0lmTdMCANgxowYAAAAAgAqYOXVw0DB5ohaU35yZyTtekzScKAIA7IBRAwAAAABAh+tqJO95XbLrLC3oHKsPTl52og4AwPYZNQAAAAAAdLg/eFHSd4AOdJ43nD542RQAgG0xagAAAAAA6GDPPix5yQk60Jl6u5N3/mYysVcLAGDrjBoAAAAAADrUXvOSt/y6DnT+4/j3fk0HAGDrjBoAAAAAADqQ73CnSs44Llm2nw4AwDMZNQAAAAAAdKDfOT05YKEOVEOjSP7ylUlvjxYAwNO+TpAAAAAAAKCzrD44eemJOlAtC+cmr32ODgDAUxk1AAAAAAB0kGmTk7969eB3tkPVvPKUZL/ddAAAnmDUAAAAAADQQc46I9llug5UU3dX8mcvTwqjHQDgcUYNAAAAAAAdYvn+yfOO1IFqW7JPctIKHQCAQUYNAAAAAAAdoLc7ecuv+w526uH3z0gm9uoAABg1AAAAAAB0hNc9L9lzVx2ohzkzk1ecrAMAYNQAAAAAAFB6C+ckLz9RB+rlN9Yks2foAAB1Z9QAAAAAAFByv39m0tOtA/UysTd59ak6AEDdGTUAAAAAAJTYigOSYw7VgXo6/ehk/i46AECdGTUAAAAAAJRUoxg8pQHqqqc7ec2zdQCAWn9NLAEAAAAAQDmddkRy4EIdqLfnHpEsnKMDANSVUQMAAAAAQAl1dyWvPU0H6GokrzpVBwCoK6MGAAAAAIASeu4RyfyddYAkefZhyZyZOgBAHRk1AAAAAACUTHdX8mrfmQ5PeU68+HgdAKCOjBoAAAAAAErmuUck83fRAZ7sjOOSnSbpAAB1Y9QAAAAAAFAijUbyqjU6wNNNmZg870gdAKB2Xx9LAAAAAABQHscemiyYrQNszYuPTxqFDgBQJ0YNAAAAAAAl8tJnaQDbsmB2suJAHQCgTowaAAAAAABKYp8FybL9dIDteeExGgBAnRg1AAAAAACUxMtPTApH68N2Hbc02WW6DgBQF90SAABA+/X2JIv2THp8BQ7j7rGNyWObkgceTe6+LxloagJAOUybnKxZpQPsSHdXctrhyUe/ogUA1OL/+yUAAID2mb9z8trTkpNWJJMm6AFl89im5NY7k8tuTL5+VXLLHZoAMH5OXjk4hgV27LQjjBoAoC6KvsT3pAAAQBs894jkT1+eTPAX09ARms3kW9cmf/+pZP0v9ABg7H3sz5JFe+kAQ/XSv05+cLsOAFB1DQkAAKD1Xn5S8rZXGTRAJymK5PhlydlvSZbsrQcAY2uPXQ0aYLhOWqEBANSBUQMAALTY6oOTs87QATrVzKnJ+38n2XWWFgCMnecfqQEM1ykrB4epAEC1GTUAAEALdTWSP31Z0vAXa9DRZk5N3vhCHQAYG0WRrFmlAwzXgtnJwXvqAABVZ9QAAAAtdMQhye5zdIAqOGllMnuGDgC036I9kzkzdYCROPZQDQCg6owaAACghY5arAFU5g/MRXLkIToA0H7HL9MA/BkMANgWowYAAGihhXM1gCo5aYUGALTfcUs1gJHabzcnnQBA1Rk1AABAC20Z0ACqZOVBLkEBQHvtPS/ZY1cdYKQKp2sBQOUZNQAAQAs9+IgGUKk/NBdOawCgvY5aogGM+nnkEhQAUGlGDQAA0MovsH2FDZWzZpUGALTP6oM0gNFacaA/iwFAlfm/eQAAaOUX2IUGUDUH7+lYcADao6c7WbKPDjBaUyYm+++mAwBUlVEDAAC0UJevsKGSTlmpAQCtt2SfZNIEHaAVlu+vAQBUlb9yBQCAFurq0gCq6NTVSeEkFgBabOWBGkCrLN1XAwCoKqMGAABo5RfYvsKGStp9TnLQHjoA0ForDtAAWmXZfkaoAFBV/soVAABaqMtfokFlrVmlAQAt/LqxYTAHrTRzarLbbB0AoIqMGgAAoIUKX2FDZZ2yymksALTOPguSCT06QCsdsLsGAFBF/joGAABaaKK/mIbK2nmaa58D0DoHO6UBWu6AhRoAQBUZNQAAQAv5bjuotlNXawBAaxy8pwbQakYNAFBNRg0AANBCvUYNUGknLDNeAqA1DnRSA7Scy08AQDUZNQAAQAtN6NUAqmzyxOToJToAMDqNItl7ng7QajtPS2ZN1QEAKvf1swQAANA6E30HN1SeS1AAMFpzZyUTjWGhLXafqwEAVI1RAwAAtJDLT0D1HXFIMn2KDgCM3B5edIW22X22BgBQNUYNAADQQkYNUH093cmz+nQAYOT22FUDaJfd5mgAAFVj1AAAAC3S0530dusAdbBmlQYAjJyTGqB9nNQAANVj1AAAAC2y0yQNoC6W7ZfM31kHAEZmNy+6Qtvs7qQGAKgcowYAAGgRowaoj6JITlyhAwAjM3uGBtAuu3h+AUDlGDUAAECLTJmoAdTJmtUaADAyRg3QPjtPSxqFDgBQJUYNAADQIk5qgHrZf7dknwU6ADA83V3JtCk6QLt0NTzHAKBqjBoAAKBFphg1QO2sWaUBAMOz83TfRQ5j8TwDAKrDqAEAAFrESQ1QP6euTgovTAEwDDtP0wDa/jybqgEAVIlRAwAAtMh0R5xC7ew6Kzl0Hx0AGLqpkzWAtj/P/NkMACrFqAEAAFpkxk4aQB2tWa0BAEM3eYIG0G6TejUAgCoxagAAgBYxaoB6OnlF0tOtAwBDM3miBtBuk4yHAKBSjBoAAKBFjBqgnqZNSQ47WAcAhsZJDdB+Rg0AUC1GDQAA0CIzp2oAdbVmlQYADI0XW6H9Jrr8BABUilEDAAC0iJMaoL6OXeo7bwEYml6XLIK2M2oAgGoxagAAgBZxUgPU18Te5LhlOgAAlMFAUwMAqBKjBgAAaIGuRjJtsg5QZ2tWawDAjnmtFcbgeeaJBgCVYtQAAAAtsMuMpOGra6i11Qcls6bpAMD2ebEVPM8AgOHx164AANACs6drAHXX1UhO7NMBgO3zYit4ngEAw2PUAAAALTBnpgZAcqpLUACwA15sBQCA4TFqAACAFtjFSQ1AksV7Jwvn6ADAtrlkGQAADPNraAkAAGD0Zs/QABh00koNAADGU1FoAABVYtQAAAAtMGeGBsAgl6AAYHsaXmwFAIDhfQ0tAQAAjN7smRoAg/bcNTloDx0A2DrfQQ7t5zIvAFCx/2+XAAAARm/BzhoATzhllQYAbJ1RA4zB80wCAKgUowYAABjtF9WNZO4sHYAnnLLSdwgCsHXNpgbQ9ueZBABQKf6KBQAARmnuzKS7SwfgCbNnJH376wDAMz22SQNotw0bNQCAKjFqAACAUZq/iwbAM526WgMAnsmoATzPAIDhMWoAAIBRmr+zBsAzPasvmdCjAwBP5TvIwfMMABgeowYAABglJzUAWzNlYnLkYh0AeKoNvoMc2s5JDQBQLUYNAAAwSguMGoBtWLNKAwCeyneQg+cZADA8Rg0AADBKe+6qAbB1Ry1Jpk7WAYAnPPCIBtD259nDGgBAlRg1AADAKO0+RwNg63q7kxOW6wDAE+59UANot3s8zwCgUowaAABgFHae5ruwge1zCQoAnuwXXmyFtjMeAoBqMWoAAIBR2MOlJ4Ad6DsgmTNTBwAGbdqcPPKYDtDO59jDG3QAgCoxagAAgFHY06gB2NEfvIvk5BU6APAEpzVA+7j0BABUj1EDAACMwh5zNQB2bM1qDQB4wj33awBte349oAEAVI1RAwAAjILLTwBDceDCZK95OgAw6Pa7NYC2Pb/u0gAAqsaoAQAARmG/BRoAQ7NmlQYADDJqAM8vAGDojBoAAGCEpk5O5szUARiaNauSotABAC+6gucXADAcRg0AADBC+y3wAiUwdAtmJ4v30gEAx+OD5xcAMBxGDQAAMEL77qYBMDxrVmsAQPJT30kObeOkBgCoHqMGAAAYoX0XaAAMz0krku4uHQDq7qFHk7vu1wFa7d6HBn8AANVi1AAAACNk1AAM18ypyaqDdAAg+f5PNYBW+95PNACAKjJqAACAEejtcfkJYGROdQkKAGLUAO1ws1EDAFSSUQMAAIzAYQcnkyfoAAzfcUv99wMAowZoB6MGAKgmowYAABiBE5ZrAIzMpAnJ0YfqAFB3379dA2i1m42FAKCSjBoAAGCYuruSY5boAIzcmlUaANTd7XclDz2qA7TKg48md9ytAwBUkVEDAAAMU98BybQpOgAjd8QhyaypOgDU2UAzueFWHaBVrrtl8HkFAFSPUQMAAAzTCcs0AEanq+EyNgAk1/xAA/B8AgB2xKgBAACG8wV0kRy7VAdg9E5drQFA3XkRFjyfAIAdM2oAAIBhWLJPsst0HYDW/Pdk/i46ANTZTT9KNm3WAUZr4+bkez/RAQCqyqgBAACG4TiXngBapCiSU1bqAFBnm/qT7/xIBxit636YbO7XAQCqyqgBAACG4ZglGgCt8+zDNACou8tv1ABG69IbNACAKjNqAACAIdp9TrJwrg5A6+w1L9l/Nx0A6uxiL8bCqF3keQQAlWbUAAAAQ3TsoRoArbdmtQYAdfaD25O77tcBRuqOu5Mf/0wHAKgyowYAABiiY4wagDZYszppFDoA1FWzmVz6HR1gpC68XgMAqDqjBgAAGIJpU5JD99UBaL05M5Kl++kAUGeXODofPH8AgG0yagAAgCE48pCky1fPQJuc6hIUALV22Y3Joxt1gOG6/+Hkqpt1AICq89eyAAAwBEct1gBon2f1Jb3dOgDU1WObkosdoQ/Ddv66pH+LDgBQdUYNAACwoy+aG8nhi3QA2mfa5OTwQ3QAqLOvrdUAhuurnjcAUAtGDQAAsANL90mmTdEBaC+XoACot0u/kzy8QQcYqrvvT669RQcAqAOjBgAA2IGjlmgAtN8xS5KdJukAUFeb+pNvX6sDDNXX1iYDAzoAQB0YNQAAwA4ctVgDoP16e5Ljl+kAUGdfvEwDGKovXaEBANSFUQMAAGzHrrOSvefrAIyNNas0AKiztTcnP7lLB9iR63+Y3PwTHQCgLowaAABgO445VANg7Kw8KJkzQweAumo2k89frAPsyHnf1gAA6sSoAQAAtsOlJ4Ax/UN6kZy4QgeAOvv8pUn/Fh1gWx58NPnm1ToAQJ0YNQAAwDZM6EmW768DMLZcggKg3u59MLnwOh1gWz5/SfLYJh0AoE6MGgAAYBtWHZRM7NUBGFsH75nssasOAHX2qQs0gK0ZGEjO/ZYOAFA3Rg0AALANLj0BjJdTVmoAUGdX3ZzceJsO8HTfWJfccbcOAFA3Rg0AALANRxyiATA+nn1YUhQ6ANTZOedrAE939lc1AIA6MmoAAICt2HdBMm9nHYDxsdvs5KA9dACos69flaz/hQ7wS1fclHzvJzoAQB0ZNQAAwFYcvUQDYHyduloDgDrbMpD81zd1gF/62Fc0AIC6MmoAAICtOOZQDYDxdfLKpOFP7QC19pkLk3sf0gFuvC1Ze7MOAFBX/noEAACeZsHs5JC9dADG187TklUH6gBQZxs2Jh//qg7wfz+TNJs6AEBdGTUAAMDTnLIyKQodgPG3xiUoAGrvvy9I7rpfB+rr0huTq5zSAAC1ZtQAAABPc8pKDYByOGFZMrFXB4A627Q5OfsrOlBPzWbyoc/qAAB1Z9QAAABPste8ZJ8FOgDlMHlicvQSHQDq7jMXJj+/Vwfq5xvrku/9RAcAqDujBgAAeJJTHfUOlMyaVRoA1N2m/uSfP6cDNXvcb07+ySkNAECMGgAA4ClOWqEBUC5HHJJMn6IDQN19+Yrkult0oD4++pXkjrt1AACMGgAA4FcO2SvZfY4OQLn0dCfP6tMBoO6azeQfzxv8J1Tdz+9NPv41HQCAQUYNAADwuFMc8Q6U1BqXxgEgyQ23Dp7YAFX3/k8lGzbqAAAMMmoAAIAkjcJ3QgPltWzfZP7OOgCQ/NNnkke92EuFXX5T8s2rdQAAnmDUAAAASfoOSObM0AEop6JITlyhAwDJXfcnH/qsDlTTho3Ju/9TBwDgqYwaAAAgLj0BlN+pLkEBwOM+dUFy3S06UD3/cG5yx906AABPZdQAAEDtdXclxy/TASi3/XZL9l2gAwDJQDN5x9nJpn4tqI6130s+e5EOAMAzGTUAAFB7RyxKpk/RASg/p8oA8Es/+lnysa/oQDVs2Jj8zceTZlMLAOCZjBoAAKg9LxICneLU1UlR6ADAoP/4UvL923Wg873/v5PbXXYCANgGowYAAGptYm9y9KE6AJ1h11nJofvoAMCgTf3JX/xr8tgmLehcX78q+dzFOgAA22bUAABArR1zaDJ5gg5A51izWgMAnnDr+uQD5+lAZ7r97uSdZ+sAAGyfUQMAALV2ykoNgM5y8oqkp1sHAJ5w7reSC6/Tgc7SvyX5i39LHnlMCwBg+4waAACoramTk8MP0QHoLNOmJIcdrAMAT/WOs5N7HtCBzvGB85Lv3KYDALBjRg0AANTW8cuSXt/tDHSgU12CAoCnue+h5E3/kmzu14Ly+9LlyTnn6wAADI1RAwAAtbVmlQZAZzrm0GTyBB0AeKrrb03+4VwdKLfv/jj5m4/rAAAMnVEDAAC1NGtq0neADkBnmtibHLdMBwCe6VMXJJ+/RAfK6Z4Hkj/652TjZi0AgKEzagAAoJZOWpl0+WoY6GBrXIICgG14zyeTm36sA+WyaXPyRx9K7rpfCwBgePw1LgAAtXSKS08AHW71QcmsaToA8EybNid/8i/J3fdrQTkMDCR/8e/JjbdpAQAMn1EDAAC1s+usZPFeOgCdrauRnLRCBwC27uf3Jr/7geThDVow/t7/qeSbV+sAAIyMUQMAALWzZlVSFDoA1fjvGQBsyw/vGDyxYXO/Foyff/mf5L+/qQMAMHJGDQAA1I5LTwBVsXjvZOEcHQDYtrXfS97zSR0YH+d9O/n3L+oAAIyOUQMAALWy567JfrvpAFTHySs1AGD7/ufi5IOfTppNLRg7X7o8eZ9BDQDQAkYNAADUyqmrNQCqZY3/rgEwBGd/NXn7R5MtA1rQfl+5cvDxNmBIAwC0gFEDAAC1cpLvaAYqZs9dkwMX6gDAjn3xsuRPPpRs3KwF7fO5i5O3/nsyYEADALSIUQMAALVx8J6uPQ9Uk1NoABiqC69P3viPyUOPakHrnfft5G8+7oQGAKC1jBoAAKiNNas0AKrplFVJw5/wARiiq3+QvOa9yU/v0oLW+ciXkvd+MmkaNAAALeavPAAAqMcXvkVy4godgGraZXqyYn8dABi629Ynv/Hu5MrvacHoDAwk7/nP5EOfM2gAANrDqAEAgFpYtn8yZ4YOQHWtcQkKAIbpwUcGL0XxX9/UgpHZsDH5ow8NXnYCAKBdjBoAAKiFU1ZqAFTbs/qSCT06ADA8WwaSv/uv5N3/mWzq14Ohu/v+5HV/l1x0vRYAQHsZNQAAUHndXckJy3UAqm3KxOTIxToAMDKf/nby6vckP71LC3bsmh8kr/ib5Ls/1gIAaD+jBgAAKm/1wcmMnXQAqm/NKg0AGLmbf5L8+juTr63Vgm37zIXJb/99cs8DWgAAY6NbAgAAqs6lJ4C6OHpJMm3K4DXSAWAkHnksecu/Jtfekpx1hksb8YRHNybv+Fjy9au0AADGlpMaAACotN6e5NilOgD10NOdHL9MBwBG71MXJC9/R3LjbVqQ3PSjwctNGDQAAOPBqAEAgEo7ZsngdeYB6uLU1RoA0Bo/+lnymvcm//czyaZ+Pepoy0Dysa8kv/m+5Mc/0wMAGB9GDQAAVNopri8P1Mzy/ZM5M3UAoDV++aL2q96V3PwTPerkp3clr33f4Khls1ELADCOjBoAAKisKROTIw7RAajZH/SL5OQVOgDQWt+/PXnFu5L3/3fyyGN6VNmWgeQTX09e9o7khlv1AADGn1EDAACVdcLyZEKPDkD9uAQFAO0wMJCcc37ywr9IvnR50mxqUjXf/XHy6ncn/3husmGjHgBAORg1AABQWS49AdTVAQuTvefrAEB7/OLB5K0fSX7nH5Jb7tCjCh58JHnXJ5LfeFdy04/1AADKpWt+8nYZAAComplTkze/bPAYdoA6evCR5KqbdQCgfe64J/nMhcmdv0gOWpjsNEmTTrO5P/nUBcmf/r/kmh8kDt8AAMqo6PN1CgAAFfSi45M3vVQHoL7W/yJ53lscDQ7A2OjpTs44Nnndc5Opk/Uou2YzOf/q5J8+k9x+tx4AQLl1SwAAQBWdslIDoN7m7Zws3iu5/lYtAGi/zf3JOecnX7w8eckJyUuelUwzbiilK7+b/NNnk5t+pAUA0Bmc1AAAQOXMnZV84d1J4dITQM196oLkfefoAMDYmzwhef5RyW+sSXaZrsd4azaTi29IPvKl5AaDRwCgwxg1AABQOa88Jfm9X9MB4L6HklPflPRv0QKA8TGxd3Dc8OLjk4Vz9RhrAwPJ165KPvrl5JY79AAAOpNRAwAAlfPJv0z2310HgCT5vQ8ml35HBwDGV1EkKw9MXnhMcsKypNHQpJ0eenTwUiCf/EZy5z16AACdrVsCAACqZM9dDRoAnuzU1UYNAIy/ZjO58ruDP3afk5x+dPLsw1yaotWuvzU594Lk/HXJpn49AIBqcFIDAACV8lvPS/7PaToA/NKGjckpf5w8ulELAMql0UgOOyh5zuHJccuSCT2ajMTP7k2+emXy5StcYgIAqCYnNQAAUCmnrNQA4MkmTUiOPnTwxQ4AKJOBgeTSGwd/TJmYHL9scNxw2MHJxF59tueBR5JvXJV85crk2lsGT8IAAKgqowYAACrjwIXJwrk6ADzdqauNGgAot0ceS75w2eCPib2Dw4bjliVHLU5m7KRPkty2Prno+uTiG5Lrbkm2DGgCANSDUQMAAJVxyioNALbm8EXJrKnJvQ9pAUD5PbYp/z97fxLkdYH/f56vb5KZbIIIgqIIgoiyypKL+8aSSfU/JqKjY27dhz71YSLmMBNz6ZjLzKEj5jK3ib7N3GZiYmIO0zEx/S9LESjFjSXZBEFRUVFREVEQWTLnkL8qrRIlv8k3v9/P8nhEVFRFlSI805JvfvOVn3d2j4z/q6uRPPpQ0v9Y0v94smlVMmt6PTpc/Gl8vPDuyfEhwxff+HsDAKinxpbEg6kAACj/C9tG8j/9D8niBVoA3Mr/6f+e/L926wBAuU3rStY+nKxdnqxeNv6fl943/vlAmY2NJee+TY6cSQ6dTkZOJx9/5awEAEDiSQ0AAFTExpUGDQB/ZnjAqAGA8rs5Ov6F/yNnfv3v7po5PnBY8UDy8P3JsvvG/3Xf/GL+Gi5dTj7/Jjn1eXLqs+T0f/z75as+vgAAt2LUAABAJTg9AfDnNjySPHDv+HeBAkCV/PRz8t7J8X/91szp48PnRfOSe+9OFv7Hv8+fm8ydlczoHf9jZs9IZs9Murpu/eM3ksyZ9ec/h7Gx5Mefk5+uJN//mPxwefx8xMWfkvPfJ+e+S774dvyExE8/+5gBADTDqAEAgNKb1pW8vFkHgD/TaIw/reH/+v/TAoB6+PmX5My58X+1ypxZ4yOHf/jxZyciAACmWpcEAACU3eDqZP4cHQBuZ+egBgBwJ368klz6zb8MGgAApp5RAwAApef0BMDELF+crFqiAwAAAFAeRg0AAJRab0/ywkYdACZq2NMaAAAAgBIxagAAoNSeXZ/cNVMHgInaOZh0eTcAAAAAKAlvYwAAUGrDTk8ANGXhvGTTozoAAAAA5WDUAABAac2akTyzXgeAZhmEAQAAAGVh1AAAQGm9tCmZ3qMDQLO2bkl6u3UAAAAAis+oAQCA0hrq14D2e+No8vohHSi3ubOSp9fpAAAAABSfUQMAAKU0765kYLUOtNfPvyT/2/9L8r/7H5PPzutBuQ0PagAAAAAUn1EDAACltG1L0j1NB9rrxKfJzdHx//zWcT0ot+c3JHfN1AEAAAAoNqMGAABKaWhAA9rv2Me//ud9x/Sg3Hp7kpc26QAAAAAUm1EDAACls3Be8sRKHWi/344a3juZ/HJdE8pt2EAMAAAAKDijBgAASmeoP+lq6ED7HTvz63/+5Xpy6LQmlFv/6mTRPB0AAACA4jJqAACgdJyeoBO+uZicv/iv/50TFJRdVyPZ1qcDAAAAUFxGDQAAlMqShcnqZTrQfkfP/P6/e+u4LpTf8KAGAAAAQHEZNQAAUCo7ffGNDjn28e//u4+/TL74RhvKbc2yZNn9OgAAAADFZNQAAECpbO/XgM44dubW//3b72tD+Q35ZysAAABQUEYNAACUxqqHkhWLdaD9RkeTk2dv/b/tc4KCCvjLk0mjoQMAAABQPEYNAACUxvCABnTGh18kV3659f/27onk2g2NKLclC5M1D+sAAAAAFI9RAwAApdBoJNv6dKAzjn38x//bz78kRz7SiPIzHAMAAACKyKgBAIBS2PBI8sACHeiMPxs1JMm+YxpRfkMDyTTvEgAAAAAF4+0KAABKYahfAzrHqIE6mD8nGVitAwAAAFAsRg0AABT/RWtXsm2LDnTGj1eST7788z/mwy+Sry9oRfk5QQEAAAAUjVEDAACFN/B4Mn+uDnTG0TPJ6Njt/7i339eK8ntpUzKjVwcAAACgOIwaAAAovCHfOUwHHf5oYn/cm05QUAGzZiTPbdABAAAAKA6jBgAACq23O3lxow50zpEJjhreeT+5cVMvym/noAYAAABAcRg1AABQaM+sT+bM0oHOGB1Njn88sT/28tXxUxVQdk+vS+6erQMAAABQDEYNAAAUmtMTdNKpz5Mrv0z8j3/ruGaUX/e0ZOsWHQAAAIBiMGoAAKCwZk5PnlmnA51z+MPm/vg3j2lGNQw7QQEAAAAUhFEDAACF9dKm8WEDdMqRJs9JnPos+fYH3Si/TSuTBxboAAAAAHSeUQMAAIW1o18DOuvIR8398WNjydvv60b5NRrJdv8MBgAAAArAqAEAgEKaOysZXK0DnfPNxeTL75r/8/Y5QUFFDA9oAAAAAHSeUQMAAIW0rS/p6daBzhn5cHJ/3tvHk9FR/Si/R5ckKx/UAQAAAOgsowYAAAppyGPP6bCjZyb35126khz7RD+qYXhQAwAAAKCzjBoAACice+9ONj2qA511+KPJ/7lvOUFBRQwPJI2GDgAAAEDnGDUAAFA4O/qTLq9U6aBfrienPpv8n/+mUQMVcf/8ZONKHQAAAIDO8VYxAACFMzygAZ117Exy/cbk//yTnyYXftQR/0wGAAAAuFNGDQAAFMqShcnqZTrQWQdP39mfPzqWvPO+jlTD9r6kp1sHAAAAoDOMGgAAKJQh99spgEOn7/zHeOu4jlTD3NnJU2t0AAAAADrDqAEAgEIZ6teAzro5mhz7+M5/nH3Hxp/YAFUwPKgBAAAA0BlGDQAAFMbKB5MVD+hAZ538NLly9c5/nIs/jf9YUAXPP5HMmqEDAAAA0H5GDQAAFIbvBKYIDp5u3Y+1zwkKKmJGb/LiRh0AAACA9jNqAACgEBqNZEefDnTeoRaOGt4yaqBCDM8AAACATjBqAACgENYvTx64Vwc6a2wsOfxh6368o2eSS5d1pRoGVyfz5+oAAAAAtJdRAwAAhTA0oAGd99G55IcWjhBGR5P3TupKNUzrSrZ7og4AAADQZkYNAAB0/kVpI3l5sw503sFTrf8xnaCgSnY6QQEAAAC0mVEDAAAd1/d4snCeDnTeyIet/zH3HR8/awFVsG55snSRDgAAAED7GDUAANBxQ/0aUAyHTrf+xzz/fXLmnLZUxw7/zAYAAADayKgBAICO6ulOXtqkA5332fnkm4tT82Pvc4KCCvnLUxoAAAAA7WPUAABARz21Npk7Wwc6byqe0vAPbxk1UCFLFyWrl+kAAAAAtIdRAwAAHTU8oAHFcODU1P3Yh04nV37RGP/sBgAAAGiWUQMAAB0zozd5doMOFMPBKRw1XL+RHPhAY6pjaCDp8o4CAAAA0AbeggAAoGNe2JjMmq4Dnff5N8mX303tX8MJCqrk3ruTvlU6AAAAAFPPqAEAgI4Z6teAYtjfhqcovHFUZ6pleFADAAAAYOoZNQAA0BFzZyVPrtWBYth/cur/Gue+TT47rzXVsXVLMr1HBwAAAGBqGTUAANARL29Oert1oBgOnmrPX8cJCqpk9ozkmfU6AAAAAFPLqAEAgI4YGtCAYvj0q+T8xfb8tYwaqJqdTlAAAAAAU8yoAQCAtlswN9mySgeKYf8H7f1rXbuhOdXx7Ppk7mwdAAAAgKlj1AAAQNvt6E+6vBKlINo5avj5l2TkQ82pjp7u5KVNOgAAAABTx1vJAAC0ndMTFMXYWHLgVHv/mm87QUHFOEEBAAAATCWjBgAA2urBhcnah3WgGM6cSy5cau9fc98x3amWzauSRffoAAAAAEwNowYAANpqqD9pNHSgGNp5euIfPvwi+fqC9lRHV2P8n+0AAAAAU8GoAQCAtvKFL4qkE6OGJHn7fe2plmFnhQAAAIApYtQAAEDbLF+cPPKgDhTD6Fhy6HRn/tpvHdefanlsabLiAR0AAACA1jNqAACgbXYOakBxnP4sufhTZ/7a75xIbo76GFAtntYAAAAATAWjBgAA2mZbnwYUxzsnOvfX/vFKcuyMjwHVsnMwaTR0AAAAAFrLqAEAgLZYuzxZukgHiuPt9zv713eCgqpZvCBZv1wHAAAAoLWMGgAAaIuhfg0ojmvXk8MfdvbnsM+ogQoadmYIAAAAaDGjBgAApv5FZ8PpCYrl0Onkl+ud/Tmc/DS58KOPBdWyvS/pnqYDAAAA0DpGDQAATLnNq5JF83SgON450fmfw+hY8s77PhZUyz1zksE1OgAAAACtY9QAAMCUGxrQgGJ5uyBjgrecoKCChv0zHwAAAGghowYAAKZU97Tk5c06UBwXf0o+/LwYP5e3jo8/sQGq5MWNyazpOgAAAACt0S0BAABT6am1yd2zdaA43nm/OEOC739MTn2WPL7Ux4XqmDk9ef6J5D+/qwXAVLl/frJ+RbLonuSumUmvd3kpoZujyQ+Xx0fHRz5KPjuvCQBwa17uAgAwpZyeoGjeOVGsn8++Y0YNVM/woFEDQKvNmZX8l88l/8sXk8UL9KB6vrqQ/H/eSP4fryU//awHAPAr5ycAAJgyM3rHv1sXiqRoo4a3j/uYUD1PrU3mz9EBoFU2rkz+3//H5H/9Xxk0UF33z0/+u/9F8j/9D8kz6/UAAH5l1AAAwJR5boO76hTLJ18lX18o1s/p8Ee+E43qmdaVbOvTAaAVBtck/+P/Jpk/VwvqYe7s5P/8v0r+01NaAADjjBoAAJgyw05PUDDvvF+8n9PN0eTdEz42+D0AgN+7Z07yf/hvkx5HhKmZaV3Jf/9fJyse0AIAMGoAAGCKzJ4x/vhxKJIijhqSZN8xHxuqZ/2K5IF7dQC4E//NjuTeu3Wgnnp7kv/9f6MDAGDUAADAFNm6ZfxNKCiKGzeT/aeK+XPbdzwZG/MxoloaDU9rALgTPd3Jf3paB+ptwyPJ6mU6AEDdGTUAADAlfCGLohn5MLlytZg/t/PfJ2fO+RhRPTsHNQCYrCceSebP0QH+01MaAEDdGTUAANBy8+ckWx7TgWIp+omHN52goIKWL05WPaQDwGT47nQYt+ERDQCg7owaAABoue39yTSvNCmYoo8a9hk1UFGe3AMwOY8u0QCSZOWDSW+3DgBQZ95qBgCg5Yb6NaBYzn+ffFTw8w4jHyaXr/pYUT07B5Mu7z4ANO0epycgSdLTnSy4WwcAqDNvKwAA0FL3z0/Wr9CBYtl3PBkbK/bP8cbNZP9JHyuqZ+G8ZNOjOgA0a/ZMDeAf7vL/BwCoNaMGAABaamggaTR0oFjKctrhTScoqCgnKACaN3u6BvAPRg0AUG9GDQAAtNSQL1xRMDdHk/dK8gQEowaqausWt7ABmuV0D/xqmv8/AEC9XxtLAABAqzx8f7JqiQ4Uy+GPkh+vlOPn+vWF5MyXPmZUz9xZydPrdAAAAACaZ9QAAEDLDA9qQPHsO1qun+9bntZARe30ewQAAAAwCUYNAAC0zI4+DSiefcfL9fN1goKqem6De9gAAABA84waAABoiTXLkqX36UCxfHcpOf15uX7Oh04nV37xsaN6enuSlzbpAAAAADTHqAEAgJYYGtCA4nnzaDI2Vq6f8/UbyYEPfOyoJicoAAAAgGYZNQAAcOcvKhvJdqcnKKB9x/y8oUj6Hk8WzdMBAAAAmDijBgAA7tjGlcmie3SgWG6OJu+eKOfP/U2jBiqqq5FsM4IDAAAAmmDUAADAHRv2OHEK6NDp5NKVcv7cz32bfPqVjyF+zwAAAAAwagAA4I5M60pe3KQDxbP3cLl//vuO+xhSTWuWJcvu1wEAAACYGKMGAADuyJNrk/lzdKB43jhS8p//UR9Dqmt4QAMAAABgYowaAAC4I0P9GlA8n36VnD1f7l/DgQ+Sn372saSadg4mjYYOAAAAwO0ZNQAAMGm9PckLG3WgePYeKf+v4cbN5N0TPpZU05KFyZqHdQAAAABuz6gBAIBJe35DMnuGDhTP3w9X5NdxxMeS6to5qAEAAABwe0YNAABM2pCb6BTQpcvJ4Y+q8Wt542gyOupjSjXt6E+meVcCAAAAuA1vHwAAMCmzZyRPr9OB4nnzWHKzIkOA739Mjn3iY0o1zZ+TDKzWAQAAAPhzRg0AAEzKS5uS6T06UDxVO9nwhhMUVNiwJ/4AAAAAt2HUAADApDg9QRHduJm8dbxav6a/GzVQYS9tSmb06gAAAAD8MaMGAACado9HhlNQh04nP16p1q/p9OfJue98bKmmWTOS55/QAQAAAPhjRg0AADRt25ZkmleSFFBVn2rgBAVV5gQFAAAA8Ge8FQ0AQNOcnqCoqvrF/zeO+thSXU+vS+6erQMAAABwa0YNAAA05b75yYZHdKB4PvkqOXu+mr+2/R8kP//iY0w1dU9LtvXpAAAAANyaUQMAAE0Z6k+6GjpQPLsOVvfXdu168s4JH2Mq/HuLJwABAAAAf8CoAQCApgz1a0Ax7T5U7V/f34/4GFNdm1YmDyzQAQAAAPg9owYAACZs2f3JY0t1oHjOX0xOnK32r/Hvh5PRMR9rqqnRSLYbzQEAAAC3YNQAAMCEeUoDRfX6wWSs4l/wv/BjcvJTH2uq6794SgMAAADg94waAACYsO19GlBMrx+qx6/TCQqqbMXiZOWDOgAAAAD/yqgBAIAJeXxpsnyxDhTPD5eTQ6fr8Wvda9RAxQ0PagAAAAD8K6MGAAAmZGhAA4pp7+Hk5mg9fq2nPkvOf+9jTnUNDyRdDR0AAACAXxk1AABwW42G0xMU1+6R+vxax8acoKDa7p+fbFypAwAAAPArowYAAG5r48rxLzRB0Vy9lrzzfr1+zXtGfNypNk8GAgAAAH7LqAEAgNvyBSaKat+x8WFDnez/ILl81cee6trel/R06wAAAACMM2oAAOBPTetKXt6sA8X0+qH6/Zqv3Rgfc0BVzZ2dPLVGBwAAAGCcUQMAAH9qcHUyf44OFM+Nm8mbR+v5a3eCgqobHtQAAAAAGGfUAADAn9rh9AQFtf+D5NKVev7a3ziaXL/h7wGq68WNyewZOgAAAABGDQAA/InenvEvLEER7T5U31/7Tz8nB0/5e4CK//6zSQcAAADAqAEAgD/x7Prkrpk6UDxjY8neI/VusOewvw+otmFPCgIAAABi1AAAwJ8Y6teAYjrxaXL++3o32H1ofNwBVTW4OlkwVwcAAACoO6MGAABuadaM5NkNOlBMu0c0OH8xOXlWB6qrqyvZ3qcDAAAA1J1RAwAAt/TixmR6jw4Uk9ML/9FhRAOqbXhQAwAAAKg7owYAAG7JLXOK6vNvko++0CHxxAqqb93yZOl9OgAAAECdGTUAAPA78+5KBlbrQDF5OsGvPvwi+eIbHai2oX4NAAAAoM6MGgAA+J2tW5LuaTpQTEYN/9bDKQ4q7i9PagAAAAB1ZtQAAMDvDDk9QUH9cDk5/JEOv+UEBVX30KJk9TIdAAAAoK6MGgAA+BcL5yUbV+pAMf39SHJzVIffGvkwufiTDlTbzkENAAAAoK6MGgAA+BdD/UlXQweKyemJ3xsdHR97QJXt6E+6vIMBAAAAteQtAQAA/oXTExTVtRvJOyd0uBVjD6ru3ruTvlU6AAAAQB0ZNQAA8E9LFrpbTnG9835y5aoOt/L2+8nVazpQbcNOUAAAAEAtGTUAAPBPw57SQIHtPazBH7l6LXnXUyyouK1bkt4eHQAAAKBujBoAAPinHUYNFNTomFHD7bx+SAOqbfaM5LkNOgAAAEDdGDUAAJAkWfVQsmKxDhTTsTPJd5d0+DN7Dyc3R3Wg2jxRCAAAAOrHqAEAgCTJUL8GFNfuEQ1u54fLyYFTOlBtz65P5s7WAQAAAOrEqAEAgDQayXajBgpsj9MTE7LbCQoqrqc7eXmTDgAAAFAnRg0AAGT9iuSBBTpQTGfPJ59+pcNEvH4oGR3TgWobHtQAAAAA6sSoAQAAN8opNE8fmLhvLibHP9aBatu8Kll0jw4AAABQF0YNAAB1f0HYlWzbogPFtXtEg2a8bgRC1X/faiRDTiYBAABAbRg1AADUXP/jyfy5OlBMF35MjnnyQFNePaAB1bfTCQoAAACoDaMGAICa892uFNnfDyejozo049y3yenPdaDaVj2UrHhABwAAAKgDowYAgBrr6U5e3KgDxbVnRIPJcIKCOhge0AAAAADqwKgBAKDGnlmXzJ2tA8V09Vry7kkdJsOogTrYOZg0GjoAAABA1Rk1AADU2JDvcqXA3jo+Pmygeac/T85+rQPVtnhBsn6FDgAAAFB1Rg0AADU1c3ry7HodKC6nJ+7Mbv2oAScoAAAAoPqMGgAAaurFjePDBiii0dHkjaM63IndTlBQA9v7ku5pOgAAAECVGTUAANSU0xMU2chHycWfdLgTRz9Ozn+vA9V2z5xkcI0OAAAAUGVGDQAANTR3VjK4WgeKy+mJOzc25gQF9bBzUAMAAACoMqMGAIAa2taX9HTrQHH9/bAGreAEBXXw4sZklnNKAAAAUFlGDQAANTTUrwHFdeZccva8Dq2w/5QzHlTfjN7k+Sd0AAAAgKoyagAAqJl77042PaoDxeVkQuuMjiZ/P6ID1ecEBQAAAFSXUQMAQM3s6E+6vAqkwPY6PdFSrztBQQ0MrknumaMDAAAAVJG3swEAasbpCYrsm4vJ8U90aKW3jydXrupAtXVPS7Zt0QEAAACqyKgBAKBGHlyYrHlYB4pr7+FkbEyHVrp2I3nruA5UnxMUAAAAUE1GDQAANTLUnzQaOlBce0Y0mAq7daUG1q8YH+8BAAAA1WLUAABQI05PUGRXfkn2n9JhKvz9SHL9hg5UW6Ph9zkAAACoIqMGAICaWPlg8siDOlBc+44l167rMBV++jk5YDBCDThBAQAAANVj1AAAUBNDAxpQbE5PTK3dhzSg+pYvTlY9pAMAAABUiVEDAEBNbNuiAcV1czR586gOU2nP4WR0TAeqz9MaAAAAoFqMGgAAamD9iuShRTpQXAdPJZeu6DCVvrmYHP9YB6pveCDp8m4HAAAAVIZP8wEAasDpCYrO6Yn22K0zNbBwXrLpUR0AAACgKowaAACq/oKvkWzdrAPFtveIBu3w+kENqAcnKAAAAKA6jBoAACqu77Hx71qFojr1WXLuWx3a4ez55MyXOlB9Wzcnvd06AAAAQBUYNQAAVJzTExSdkwht7n1IA6pvzqzkmfU6AAAAQBUYNQAAVFhPd/LSJh0otj2HNWgnowbqYtioDwAAACrBqAEAoMKeWpvMna0DxXX+4vj5CdrnxNnk6ws6UH3PbRh/YgMAAABQbkYNAAAV5rtUKbrdh5KxMR3aaWzM0zGoh94eTysCAACAKjBqAACoqBm9ybMbdKDYdo9o0AmvO0FBTRj3AQAAQPkZNQAAVNQLG5NZ03WguH76OTl0WodOOHAqufiTDlRf3+PJonk6AAAAQJkZNQAAVNRQvwYU25tHk+s3dOiE0dHx/lB1XY1kW58OAAAAUOrP7yUAAKieObOSJ9fqQLHtOaxBJzlBQV3sHNQAAAAAysyoAQCggl7enPR260Bx3biZvHVch05663jy8y86UH2rlyUrFusAAAAAZWXUAABQQUMDGlBs751MfryiQyf9cj1554QO1MN2J5kAAACgtIwaAAAqZsHcpG+VDhTbnhENisAJCupi52DSaOgAAAAAZWTUAABQMdv7ki6v8iiwsbFk7xEdimDv4fFTIFB1SxYmax/WAQAAAMrI290AABXj9ARFd+Jscv57HYrgxyvJwdM6UA/DgxoAAABAGRk1AABUyOIFybrlOlBsTk8Uy24nKKiJHf3JNO+CAAAAQOn4dB4AoEKGB9wMp/iMGopl96HxkyBQdfPnJAOrdQAAAICyMWoAAKgQpycounPfJR9+oUORnL+YnPhUB+ph2O+TAAAAUDpGDQAAFbF8cbLyQR0oNqcOCvpxGdGAenh5czJzug4AAABQJkYNAAAVsXNQA4pvz2ENiuh1YxNqYub05LkNOgAAAECZGDUAAFTEtj4NKLZLl5OR0zoU0cdfJp9+pQP14AQFAAAAlItRAwBABax5OFm6SAeK7Y2jyc1RHYrKCQrq4qm1yd2zdQAAAICyMGoAAKgA33VKGfiiebE5QUFd9HQnW7foAAAAAGVh1AAAUPYXdA2nJyi+azeSt9/XociOf5Kc/14H6mHnoAYAAABQFkYNAAAlt3lVsmieDhTbO+8nV67qUGRjY8neIzpQDxtXJg8s0AEAAADKwKgBAKDkhpyeoAT2jGhQBk5QUBeNRrKjXwcAAAAoA6MGAIAS656WvLxZB4ptdCz5uycAlMKBD5JLV3SgHv7ylAYAAABQBkYNAAAl9uSa5O7ZOlBsx84k313SoQxu3EzePKoD9bBicbLyQR0AAACg6IwaAABKzOkJymD3iAZl4gQFdbJzUAMAAAAoOqMGAICSmtGbvLBRB4pvz2ENymTfseTqNR2oh+GBpKuhAwAAABSZUQMAQEk9tyGZNV0Hiu3s+eTTr3Qok6vXkndP6EA93Dc/eWKlDgAAAFBkRg0AACW1o18Dim+3Uwbl/LiNaEB9OEEBAAAAxWbUAABQQrNnJM+s04HiM2oopz0jyc1RHaiHbX1Jb7cOAAAAUFRGDQAAJbR1S9LbowPFduFScuxjHcroh8vJyGkdqIe5s5In1+oAAAAARWXUAABQQkNOT1ACew4no2M6lJUTFNTJ8IAGAAAAUFRGDQAAJXPPnKTvcR0ovj0jGpTZ7pFkzCiFmnhxY3LXTB0AAACgiIwaAABKZntfMs2rOAru51+Sd0/qUGZffpd88JkO1ENvT/LCRh0AAACgiLwdDgBQMh6RTRm8dTy5dl2Hstt9SAP8/goAAAB0llEDAECJ3D8/Wb9CB4pv94gGVfC6jyM1Mrg6WTBXBwAAACgaowYAgBIZGkgaDR0ottHRZN8xHargoy+Ss1/rQD10dY2feAIAAAAK9jm7BAAA5THk0diUwMHTycWfdKgKT92gToYHNQAAAICiMWoAACiJh+9PVi3RgeLbM6JBlRg1UCfrlidL79MBAAAAisSoAQCgJHz3KGWx57AGVXLsTPLtDzpQH0P9GgAAAECRGDUAAJTEDne+KYFTnyfnvtWhSkbHkr2GKtTIX57UAAAAAIrEqAEAoATWLPM4bMrB6Ylqev2QBtTHQ4vGf98FAAAAisGoAQCgBHYMaEA5GDVU03snkx+v6EB9OPkEAAAAxWHUAABQ9BdsDacnKIfzF5MPPtOhim7cTPYd04H62NGfdHnHBAAAAArBp+gAAAW3cWWy6B4dKL7dh5KxMR2qygkK6uTeu5O+x3QAAACAIjBqAAAouCGnJyiJ3SMaVNm+Y8m16zpQH8N+/wUAAIBCMGoAACiwaV3JS5t1oPh++jk5dFqHKrvyS/LOCR2oj61bkuk9OgAAAECnGTUAABTY4Jpk/hwdKL43jibXb+hQdZ7GQZ3MnpE8u0EHAAAA6DSjBgCAAvPoa8piz4gGdfk43xzVgfrYOagBAAAAdJpRAwBAQfX2JM8/oQPFd+1Gsu+YDnVw8afk8Ec6UB/PrEvmztYBAAAAOsmoAQCgoJ7bkNw1UweKb/8HyeWrOtTF7kMaUB893cnLm3QAAACATjJqAAAoqKF+DSiHvSMa1MluH29qxgkKAAAA6CyjBgCAApo9I3lmvQ4U3+hYsuewDnVy7tvk1Gc6UB+bViX3zdcBAAAAOsWoAQCggF7alEzv0YHiO/Zx8s1FHerG0xqok66GpycBAABARz83lwAAoHiGBjSgHHYf0qCOXvdxp2aG/b4MAAAAHWPUAABQMPfMSQZW60A5+I79ejr9eXL2vA7Ux6qHkkce1AEAAAA6wagBAKBgtm1JpnmVRgmcOZec/VqHutp7WAPqxQkKAAAA6AxvlwMAFIzTE5SFEwT15vQIdbNzMGk0dAAAAIB2M2oAACiQ++YnGx7RgXIwaqi3Ix8l313SgfpYvCBZv0IHAAAAaDejBgCAAhnqT7p8Fygl8OV3yQef6VBno2NOUFA/Owc1AAAAgHYzagAAKJAd7nVTErtHkrExHerO0zqom+19Sfc0HQAAAKCdjBoAAArioUXJ40t1oBx2j2hAsv9kcvmqDtTHvLuSwTU6AAAAQDsZNQAAFIRHWlMWP1xORk7rQHLtRvLmUR3w+zUAAAAwdYwaAAAKYlufBpTDnpHk5qgOjPPUDurmxY3JrOk6AAAAQLsYNQAAFMBjS5MVi3WgHHYf0oBfvXEkuXZdB+pjRm/ywkYdAAAAoF2MGgAACmCoXwPK4eq15N2TOvCrK78k7/l7gpoZHtAAAAAA2sWoAQCgwxoNpycoj33HxocN8FtOUFA3T65N5s/VAQAAANrBqAEAoMOeeCR5YIEOlMPrTk9wC3tGktFRHaiPaV3Jti06AAAAQDsYNQAAdNgOpycoiRs3kzeP6sDvXfgxOXpGB+pleFADAAAAaAejBgCADvKdnpTJ/g+SS1d04Nb2HNaAelm/PHlwoQ4AAAAw1YwaAAA6aGC1m9yUx26nJ/D3B/xTo5EMedoSAAAATDmjBgCADhoa0IByGBtL9h7RgT929nzy6Vc6UC9/eVIDAAAAmGpGDQAAHdLbk7y4UQfK4djHyfnvdeDPOUFB3Tx8f/LYUh0AAABgKhk1AAB0yLPrk7tm6kA5vO60ABOw16iBGhr21CUAAACYUkYNAAAd4g43ZeI78JmIIx8lFy7pQL0MDyRd3l0BAACAKePTbgCADpg1I3l2gw6Uw5lzyadf6cDtjY4lbx7TgXpZOC/Z/KgOAAAAMFWMGgAAOuDFjcn0Hh0oh90jGjBxTlBQR8ODGgAAAMBUMWoAAOgApycok9cPacDEvf1+cu26DtTLti1Jr7EiAAAATAmjBgCANps7OxlYrQPlcP775ORZHZi4n39J3j2pA/Vy18zkmXU6AAAAwFQwagAAaLNtW5Kebh0oh12HkrExHWiOExTU0U4nKAAAAGBKGDUAALTZ8IAGlMdupyeYhL8fMYahfp5dn8yZpQMAAAC0mlEDAEAbLZyXbFypA+Xww+Xk0GkdaN43F5P3P9GBeuntSV7apAMAAAC0mlEDAEAb7ehPurwCoyT2Hk5ujurAJP/+OaIB9TPsBAUAAAC0nLfUAQDaaMjpCUrkdacnuAN7RjSgfvoeSxbN0wEAAABayagBAKBNHlqUrFmmA+Vw7Xry7gkdmLwPv0jOfasD9dLVSLb36wAAAAAt/XxbAgCA9hjyRQ5K5ODp5Oo1Hbgzew5rQP0MeyoTAAAAtJRRAwBAm+wwaqBE3jquAXdur1EDNbR6WbJisQ4AAADQKkYNAABtsGpJsuIBHSgPowZa4eCp5NIVHagfJygAAACgdYwaAADaYMijqCmR898nZ87pwJ27OZrsO6YD9bNzMGk0dAAAAIBWMGoAAJhijYbv2KRc9nlKAy3kBAV1tGRhsvZhHQAAAKAVjBoAAKbY+hXJAwt0oDycnqCV3jyaXL+hA/Wzc1ADAAAAaAWjBgCAKTbs9AQlMjqavHdSB1rn8tXk4CkdqJ8d/ck077oAAADAHfPpNQDAVL7Y6kq2bdGB8jhyJrl0WQdaa+8RDaife+YkA6t1AAAAgDtl1AAAMIX6H0/mz9WB8nB6gqmwZyQZG9OB+nGCAgAAAO6cUQMAwBQa6teAcjFqYCp8dSE5/bkO1M9Lm5KZ03UAAACAO2HUAAAwRXq6kxc36kB5XPwpOfmpDkyNPYc1oH5mTk+e26ADAAAA3AmjBgCAKfL0umTubB0oj7ffT0adCGCK7DVqoKaGBzQAAACAO2HUAAAwRZyeoGycnmAqnTybnP9eB+rn6XXJvLt0AAAAgMkyagAAmAIeN03ZjI0l77yvA1P799jeIzpQP93Tkq1bdAAAAIDJMmoAAJgCLzwxPmyAsvjgs+TbH3Rgau0d0YB6coICAAAAJs+oAQBgCuxweoKScXqCdtj/QXLlqg7Uz8aVyeIFOgAAAMBkGDUAALTY3FnJU2t1oFz2HdOAqXfthgEN9dRoJEMGjwAAADApRg0AAC22dUvS060D5XHpSnLkIx1ojz2HNaCe/vKUBgAAADAZRg0AAC025G42JfP28eTmqA60xxtH/f1GPa1YnDy6RAcAAABollEDAEAL3Xt3svlRHSiXN52eoI0uXU4Of6gD9TRs+AgAAABNM2oAAGihHf1Jl1dYlMjoWPLWcR1or71OUFBTwwNJV0MHAAAAaIa33AEAWmhHvwaUy4lPkguXdKC99hg1UFP3zU82rtQBAAAAmmHUAADQIg8uTNY+rAPl4vQEnfDZ+eTMOR2op+FBDQAAAKAZRg0AAC0y1J80PFKaknnjqAZ0xuuHNKCetvUlvd06AAAAwEQZNQAAtMiQ0xOUzPc/Jic/1YHOMGqgrubOSp5cqwMAAABMlFEDAEALrHwweeRBHSiXN48lo2M60BknzybnvtWBehoe0AAAAAAmyqgBAKAFhnxxghJ60+kJOmz3iAbU04sbk7tm6gAAAAATYdQAANAC27ZoQLmMjibvnNCBztrtBAU11duTvLBRBwAAAJgIowYAgDu0bnny0CIdKJeRj5JLl3Wgw38ffph8d0kH6mnnoAYAAAAwEUYNAAB3yOkJymif0xMUwOhY8vcjOlBPA48nC+bqAAAAALdj1AAAcCcvphrJVqcnKKE3jBooiNedoKCuryG6ku19OgAAAMBtP4eWAABg8rY8liyapwPlcv775KNzOlAM751ILl/VgXpyggIAAABuz6gBAOAOOD1BGe09koyN6UAxXLuRvOnJIdTU2uXJ0vt0AAAAgD9j1AAAMEnd05KXNulA+fz9iAYUixMU1NmwgSQAAAD8KaMGAIBJenptcvdsHSiXq9eSAx/oQLG8eTS5dl0H6skJCgAAAPhzRg0AAJPk9ARl9M7748MGKJIrvyTvntSBenpoUbJmmQ4AAADwR4waAAAmYUZv8twTOlA+e52eoKCcoKDOhj2tAQAAAP6QUQMAwCQ8/0Qya7oOlMvYWLLvmA4U0+5Dyc1RHainoYGkyzs0AAAAcEs+ZQYAmIRhpycoofc/Sb65qAPF9MPl5PCHOlBPC+YmfY/pAAAAALdi1AAA0KQ5s5In1+pA+Tg9QdE5QUGd7XSCAgAAAG7JqAEAoEkvbUp6u3WgfN44qgHF9vqh8TMpUEcvb06m9+gAAAAA/86oAQCgScO+k5IS+vpCcuozHSi2ry6Mn0mBOpo9I3lugw4AAADw74waAACaMH9OsmWVDpTP34/6DnjK4bWDGlBfhpMAAADwe0YNAABN2NGfTPMKihLae1gDyuHVAwY41Ncz65K7Z+sAAAAAv+UteQCAJgwNaED5/PxLsv8DHSiHc98mHziVQk31dCcvb9YBAAAAfsuoAQBggu6fn6xbrgPl886J5Np1HSiPXU5QUGPDBpQAAADwL4waAAAmaHggaTR0oHycnqBsXt2vAfW1aVVy33wdAAAA4B+MGgAAJmiH75ykhEbHkjeP6kC5nD2ffPiFDtRTVyMZ6tcBAAAA/vm5sgQAALf38P3JqiU6UD7HP06+u6QD5fPaAQ2oLycoAAAA4FdGDQAAE7BzUAPKac+IBpTTawc1oL5WPZQ88qAOAAAAkBg1AABMyHaPgaakdo9oQDmdOZd8/KUO1JcTFAAAADDOqAEA4DbWPJwsXaQD5XP2fPLJVzpQXp7WQJ3tHEwaDR0AAADAqAEA4Dbctaasdh/SgHLbdUAD6mvxgmTDIzoAAACAUQMAwJ+9WGok2/p0oJycnqDsTn2efOppI9SYYSUAAAAYNQAA/KlNq5JF83SgfC78mBz7WAfKb5cnjlBjQ/1JT7cOAAAA1JtRAwDAnxjq14By2ns4GR3VgfLbdVAD6mvu7GRwtQ4AAADUm1EDAMAf6J6WbN2iA+W0Z0QDquHEp8nn3+hAfQ0PagAAAEC9GTUAAPyBJ9ckd8/WgfL5+ZfknRM6UB2e1kCdvbgxmTVdBwAAAOrLqAEA4A/scHqCknr7/eTadR2ojteMGqixGb3Ji5t0AAAAoL6MGgAAbqG3J3lhow6U0+4RDaiW4x87QUG9DQ9oAAAAQH0ZNQAA3MILTySzZ+hA+YyOJm8e1YHqcYKCOhtck8yfqwMAAAD1ZNQAAHALQ74jkpI6dDq5+JMOVM8r72lAfU3rSrZt0QEAAIB6MmoAAPg3s2ckT6/VgXLac1gDqunk2eTseR2or+FBDQAAAKgnowYAgH/z8uakt0cHymn3iAZU16v7NaC+1i9PHlyoAwAAAPVj1AAA8G+cnqCsTnyanPtWB6rLCQrqrNFIhr1GAQAAoIaMGgAAfuOeOUn/4zpQTrsOakC1ffhFcuZLHaivnU5QAAAAUENGDQAAv7G9L5nmFRIlteuQBlSfExTU2cP3J48t1QEAAIB68ZY9AMBvDPVrQDmd/jz59CsdqL6/OkFBzXlaAwAAAHVj1AAA8B/um59seEQHysnpCeri06/GRzxQV0P9SZd3cwAAAKgRnwYDAPyHof6k0dCBcnrNqIEa+ZsTFNTYwnnJ5kd1AAAAoD6MGgAA/sPwgAaU09mvkzPndKA+/vpeMjamA/XlBAUAAAB1YtQAAJDk4fuTVQ/pQDm9ekAD6uWLb5KTZ3Wgvrb1Jb09OgAAAFAPRg0AAEmGPKWBEnN6gjpygoI6mz0jeWadDgAAANSDUQMAQJKhfg0op3PfJh/4jnVqyAkK6s4JCgAAAOrCqAEAqL3Vy5Kl9+lAOTk9QV19fSE59rEO1Nez65M5s3QAAACg+owaAIDa2+EpDZTYLqcnqDEnKKiz3p7kpU06AAAAUH1GDQBArTUaybYtOlBO579Pjn+iA/X16gEnKKi3YScoAAAAqAGjBgCg1jatTBYv0IFy8gVd6u7898n7n+hAffU9liyapwMAAADVZtQAANTa0IAGlJfTE5C85v8H1FhXI9nujBYAAABV//xXAgCgrqZ1JS9t1oFy+u5ScuSMDuCJJdTdsIEmAAAAFWfUAADU1uCaZP4cHSinXQeT0VEd4Ny3yanPdKC+Vi9LVizWAQAAgOoyagAAamvI45opMacn4FdOUFB3OzytAQAAgAozagAAaqm3J3lhow6U08WfkoOndIB/ePWABtTb8EDSaOgAAABANRk1AAC19Oz65K6ZOlBOu0eSm05PwD+d/Tr56AsdqK8lC5N1y3UAAACgmowaAIBaGvaYZkpsl+9Kh99xggKvbTQAAACgmowaAIDamTUjeWa9DpTTj1eS9z7QAf6dUQN1t6M/meZdHgAAACrIp7sAQO28tCmZ3qMD5bTncHL9hg7w7z76IvnkKx2or3vmJIOrdQAAAKB6jBoAgNoZ8nhmSszpCfiT/394WgM1NzyoAQAAANVj1AAA1Mq8u5KBx3WgnK78krx9Qgf4I05QUHcvbUpmTtcBAACAajFqAABqZduWpHuaDpTT3w8n167rAH/kg7PJ59/oQH3NnJ48t0EHAAAAqsWoAQCoFacnKDPfhQ635wQFdbfTCQoAAAAqxqgBAKiNRfckT6zUgXK6ei1567gOcDvGP9TdU2vHz20BAABAVRg1AAC1MdSfdDV0oJz2HUt+/kUHuJ33P0nOf68D9dU9Ldm6RQcAAACqw6gBAKiNHf0aUF6vHtAAJmJsLNlzWAfqzQkKAAAAqsSoAQCohYcWJauX6UA5Xb2W/P2IDjBRe0Y0oN6eeCR54F4dAP83Sc4AAGi+SURBVAAAqAajBgCgFnzHImW2Z8TpCWjG/g+SS1d0oL4ajfGzWwAAAFAFRg0AQC1s69OA8vrruxpAM27cTPYd04F62/mkBgAAAFSDUQMAUHmPLU1WLNaBcvrxSvL2+zpAs5ygoO5WLE4eXaIDAAAA5WfUAABUnscvU2a7DibXbugAzXrzaHLtug7U2/CABgAAAJSfUQMAUGmNhtMTlJvTEzA5V35J3jupA/U2PJB0NXQAAACg3IwaAIBK2/BI8sACHSinCz8mB07pAJO157AG1Nt985ONK3UAAACg3IwaAIBKc3qCMvvbe8nNUR1gsnaPJKNjOlBvw4MaAAAAUG5GDQBAdV/odCXbtuhAeTk9AXfmwqXk2BkdqLdtfUlvtw4AAACUl1EDAFBZA48n8+fqQDl9dSE5+rEOcKd2j2hAvc2dlTy5VgcAAADKy6gBAKisoQENKK+/vpuMeWw+3LHdhzSAnU5QAAAAUGJGDQBAJfV2Jy9u1IHycnoCWuPs+eTjL3Wg3l54Irlrpg4AAACUk1EDAFBJz6xP5szSgXL65Kvk1Oc6QKs4QUHd9fYYewIAAFBeRg0AQCXt6NeA8nrlPQ2glfYe1gCGnaAAAACgpIwaAIDKmTUjeW6DDpTXf3Z6Alrq+MfJhUs6UG8DjycL5uoAAABA+Rg1AACV8+LGZEavDpTTiU+Ts1/rAK00OpbsO64D9dbV5UlWAAAAlPRzWgkAgKoZ8oY9Jeb0BEyNN45oAMMDGgAAAFA+Rg0AQKXMnZ0MrNaBchobS149oANMhbeOJ9dv6EC9rV2eLL1PBwAAAMrFqAEAqJRtW5Kebh0op5EPky+/0wGmwuWr4/8fg7rztAYAAADKxqgBAKgUb9RTZk5PwNR646gGsHMwaTR0AAAAoDyMGgCAylg4L9m4UgfK6eZo8tpBHWAq/f2IBvDQomT1Mh0AAAAoD6MGAKAydvQnXV7dUFLvnkguXNIBptLZr5Oz53UAT7YCAACgTLztDwBUxlC/BpSX0xPQHm94WgNkeDCZ5h0hAAAASsKnsABAJSxZ6FHKlNe1G8nuER2gHYwaIJk/J+l7XAcAAADKwagBAKiEoYGk0dCBcnrzaPLjFR2gHQ6eTn76WQdwggIAAICyMGoAACrB6QnK7K/vagDtcuNm8s77OsDLm5PpPToAAABQfEYNAEDpPbokWfGADpTTz78kbx7TAdrpjaMawOwZyXMbdAAAAKD4uiUAAMpuh6c0UGLnvk12DuoA7XTPHA0gGf/959UDOgAAAFBsRg0AQKk1Gk5PUG6PPJj89/+1DgC039PrkrtnJz9c1gIAAIDicn4CACi19cuTB+7VAQCgWT3dycubdQAAAKDYjBoAgFIbGtAAAGCynEACAACg6IwaAIDyvpBp+O5CAIA7senRZPECHQAAACguowYAoLT6Hk8WztMBAGCyGo1ke58OAAAAFJdRAwBQWsNOTwAA3PlrKicoAAAAKDCjBgCglHq6kxc36gAAcKdWLUkeeVAHAAAAismoAQAopafXJXNn6wAA0ApD/RoAAABQTEYNAEApeeMdAKB1dg4mjYYOAAAAFI9RAwBQOjOnJ89t0AEAoFUWL0g2PKIDAAAAxWPUAACUzgtPjA8bAABonZ2DGgAAAFA8Rg0AQOkMDWgAANBqO/qSnm4dAAAAKBajBgCgVObOSp5cowMAQMtfZ81OBlfrAAAAQLEYNQAApfLyZt9BCAAwVZygAAAAoGiMGgCAUnF6AgBg6rywMZk1XQcAAACKw6gBACiNBXOTLat0AACYKjN6kxc36QAAAEBxGDUAAKWxoz/p8uoFAGBKDXsyFgAAAAXiywIAQGk4PQEAMPUG1yTz5+oAAABAMRg1AACl8ODCZO3DOgAATLVpXcm2LToAAABQDEYNAEApDPUnjYYOAADtMDyoAQAAAMVg1AAAlMJQvwYAAO2yYUWydJEOAAAAdJ5RAwBQeMsXJ488qAMAQDttNyoFAACgAIwaAIDC2+nxxwAAXoMBAABQS0YNAEDhbe/TAACg3R6+P3lsqQ4AAAB0llEDAFBo65YnD7nnDADQEZ7WAAAAQKcZNQAAhTY0oAEAQMdei/UnXd49AgAAoIN8WgoAFPeFSiPZukUHAIBOWTgv2bJKBwAAADrHqAEAKKwtjyWL5ukAANBJw56cBQAAQAcZNQAAheX0BABA523rS6b36AAAAEBnGDUAAIXUPS15aZMOAACdNntG8sx6HQAAAOgMowYAoJCeXpvcPVsHAIAicIICAACATjFqAAAKaYc3zgEACuPZ9cmcWToAAADQfkYNAEDhzOhNnn9CBwCAoujtcRoMAACAzjBqAAAK5/knklnTdQAAKJKdgxoAAADQfkYNAEDhDPVrAABQNFseSxbN0wEAAID2MmoAAAplzqzkqXU6AAAUTVcj2W58CgAAQLs/H5UAACiSlzYlvd06AAAUkRMUAAAAtJtRAwBQKMMDGgAAFNXjS5MVD+gAAABA+xg1AACFMX/O+K1mAACKa4cTFAAAALSRUQMAUBjb+5NpXp0AABTa8EDSaOgAAABAe/iyAQBQGENOTwAAFN6Shcm65ToAAADQHkYNAEAh3D8/We/NcQCAUtg5qAEAAADtYdQAABSCxxgDAJTH9j5nwwAAAGgPn34CAIXg9AQAQHncMycZXK0DAAAAU8+oAQDouIfvTx5dogMAQJkMO0EBAABAGxg1AAAd5yYzAED5vLQpmTldBwAAAKaWUQMA0HHb+zUAACibmdOT5zboAAAAwNQyagAAOmrNw8nSRToAAJSRJ24BAAAw1YwaAICOGvKUBgCA0npqbTLvLh0AAACYOkYNAEDnXog0ku19OgAAlFX3tGTbFh0AAACYOkYNAEDHbHw0WXSPDgAAZTbsBAUAAABTyKgBAOiY4QENAADK7olHkgfu1QEAAICpYdQAAHRE97Tk5c06AACUXaORDPXrAAAAwNQwagAAOmJwTTLvLh0AAKrgL09qAAAAwNQwagAAOsJ38wEAVMfyxcmjS3QAAACg9YwaAIC26+1JXtioAwBAlewc1AAAAIDWM2oAANru+Q3J7Bk6AABUyVB/0tXQAQAAgNYyagAA2m5oQAMAgKq5b36y8VEdAAAAaC2jBgCgrWbPSJ5epwMAQBUNG68CAADQYkYNAEBbvbw5md6jAwBAFW3rS3q7dQAAAKB1jBoAgLZyegIAoLrmzkqe8lQuAAAAWsioAQBom3vmJP2P6wAAUGVOUAAAANBKRg0AQNts70umefUBAFBpLzyR3DVTBwAAAFrDlxUAgLYZ6tcAAKDqenuSFzfqAAAAQGsYNQAAbXHf/GTDIzoAANTBzkENAAAAaA2jBgCgLYb6k0ZDBwCAOuhfnSycpwMAAAB3zqgBAGgLpycAAOqjq5Fs26IDAAAALfgcUwIAYKotuz95bKkOAAB14gQFAAAArWDUAABMOU9pAAConzUPj49bAQAA4E4YNQAAU257nwYAAHVk3AoAAMCdMmoAAKbU40uT5Yt1AACoo52DSaOhAwAAAJNn1AAATKmhAQ0AAOrqoUXJ6mU6AAAAMHlGDQDAlGk0km1bdAAAqLNhI1cAAADugFEDADBlNq5MFi/QAQCgzoYHk2negQIAAGCSfEoJAEwZpycAAJg/J+l7XAcAAAAmx6gBAJgS07qSlzfrAABAsnNQAwAAACbHqAEAmBKDq8e/Kw8AAF7elEzv0QEAAIDmGTUAAFPC6QkAAP5h1ozkuQ06AAAA0DyjBgCg5Xp7khc26gAAwK+coAAAAGAyjBoAgJZ7dn1y10wdAAD41dPrkrtn6wAAAEBzjBoAgJYbdnoCAIB/09OdbN2iAwAAAM0xagAAWmrWjOSZ9ToAAPB7xq8AAAA0y6gBAGiplzYl03t0AADg9zY9mjywQAcAAAAmzqgBAGipId99BwDAH2g0km19OgAAADBxRg0AQMvMuysZeFwHAAD+2PCgBgAAAEycUQMA0DJbtyTd03QAAOCPrVqSPPKgDgAAAEyMUQMA0DJOTwAAMBHDXjcCAAAwQUYNAEBLLJyXbFypAwAAt7dzMGk0dAAAAOD2jBoAgJYY6k+6vDENAMAE3D8/eeIRHQAAALg9owYAoCWcngAAoBnDgxoAAABwe0YNAMAdW7IwWb1MBwAAJm5HX9LTrQMAAAB/zqgBALhjO32XHQAATZo7O3lyjQ4AAAD8OaMGAOCObe/XAACA5g07YQYAAMBtGDUAAHdk1UPJisU6AADQvBc2JrOm6wAAAMAfM2oAAO6I764DAGCyZvQmL27SAQAAgD9m1AAATFqjkWzr0wEAgMkzkgUAAODPGDUAAJO24ZHkgQU6AAAweYNrkvlzdQAAAODWjBoAgEkb6tcAAIA7M60r2bZFBwAAAG7NqAEAmNyLCG8+AwDQIjsHNQAAAODWjBoAgEkZeNxjggEAaI31K5Kli3QAAADg94waAIBJGRrQAACA1tnutBkAAAC3YNQAADSttzt5caMOAAC0jhMUAAAA3IpRAwDQtKfXJXNm6QAAQOs8fH/y+FIdAAAA+FdGDQBA05yeAABgKgx7WgMAAAD/xqgBAGjKzOnJs+t1AACg9Yb6ky7vVgEAAPAbPk0EAJry4sbxYQMAALTawnnJllU6AAAA8CujBgCgKU5PAAAwlXY6QQEAAMBvGDUAABM2d1YyuFoHAACmztYtyfQeHQAAABhn1AAATNi2vqSnWwcAAKbO7BnJM+t1AAAAYJxRAwAwYUP9GgAAMPWGnTwDAADgPxg1AAATcu/dyaZHdQAAYOo9uyGZM0sHAAAAjBoAgAna0Z90eeUAAEAb9HYnL2/WAQAAAKMGAGCCPAIYAACvPwEAAGg3owYA4LaWLExWL9MBAID22fJYsugeHQAAAOrOqAEAuK2hgaTR0AEAgPbpaiQ7+nQAAACo/eeHEgAAtzPUrwEAAO03PKgBAABA3Rk1AAB/6tElyYoHdAAAoP0eX+q1KAAAQN0ZNQAAf2poQAMAADr4etRTwwAAAGrNqAEA+EMNd4wBAOiw4YHx16UAAADUk1EDAPCH1i9PHrhXBwAAOufBhcm65ToAAADUlVEDAPCHdjg9AQBAAewc1AAAAKCujBoAgFu/SGgkWzfrAABA523vS7qn6QAAAFBHRg0AwC31PZYsnKcDAACdd8+cZGC1DgAAAHVk1AAA3NKQ0xMAABTIsNenAAAAtWTUAAD8Tk938tImHQAAKI6XNiWzpusAAABQN0YNAMDvPLU2mTtbBwAAimPm9OS5J3QAAACoG6MGAOB3PNoXAACvUwEAACgCowYA4F/M6E2e3aADAADF8/S6ZP4cHQAAAOrEqAEA+BcvbHSrGACAYprWlby8WQcAAIA6MWoAAP7FUL8GAAAU185BDQAAAOrEqAEA+Ke5s5In1+oAAEBxbXgkeeBeHQAAAOrCqAEA+KeXNye93ToAAFBcjYaniwEAANSJUQMA8E9DAxoAAFB8f3lSAwAAgLowagAAkiQL5iZbVukAAEDxLV+crFqiAwAAQB0YNQAASZId/UmXVwYAAJTE8KAGAAAAdeBLFwBAEqcnAAAol+HBpKuhAwAAQNUZNQAAWbwgWfuwDgAAlMeiecnGR3UAAACoOqMGACA7B5OG73IDAKCEr2MBAACoNqMGACA7+jUAAKB8tm5Jert1AAAAqDKjBgCoueWLk5UP6gAAQPnMnZU8tU4HAACAKjNqAICa88heAAC8ngUAAKCojBoAoOa29WkAAEB5Pb8huWumDgAAAFVl1AAANbZ2ebJ0kQ4AAJRXb0/y0iYdAAAAqsqoAQBqbKhfAwAAym94QAMAAICqMmoAgLq+CGg4PQEAQDX0r04WzdMBAACgiowaAKCmNq/yxi8AANVgsAsAAFDhz/kkAIB6GvKIXgAAKsQJCgAAgGoyagCAGuqelry8WQcAAKpjzcPJsvt1AAAAqBqjBgCooafWJnfP1gEAgGoZ6tcAAACgaowaAKCGnJ4AAKCK/vJk0mjoAAAAUCVGDQBQMzN6k+ef0AEAgOpZsjBZvUwHAACAKjFqAICaef6JZNZ0HQAAqKadgxoAAABUiVEDANSMO8MAAFT69e5AMs07XgAAAJXhUzwAqJHZM5Kn1uoAAEB1zZ+T9D+uAwAAQFUYNQBAjWzdkvT26AAAQLUNO0EBAABQGUYNAFAjTk8AAFAHL29KZvTqAAAAUAVGDQBQE/fMSfo8hhcAgBqYNSN5boMOAAAAVWDUAAA1sb0vmeZ3fgAAamJ4QAMAAIAq8KUNAKgJb+oCAFAnT69L7p6tAwAAQNkZNQBADdw/P1m/QgcAAOqjpzvZukUHAACAsjNqAIAaGBpIGg0dAACol+FBDQAAAMrOqAEAamDI6QkAAGpo08rkgQU6AAAAlJlRAwBU3MP3J6uW6AAAQP00Gsm2Ph0AAADKzKgBACrOI3cBAKiznV4PAwAAlJpRAwBU3A7fmQYAQI09uiRZ+aAOAAAAZWXUAAAVtmZZsvQ+HQAAqLehAQ0AAADKyqgBACrMm7cAADB+gqLR0AEAAKCMjBoAoKq/yTeS7U5PAABA7p+fPPGIDgAAAGVk1AAAFbXx0WTRPToAAECSDA9qAAAAUEZGDQBQUcNOTwAAwD/t6Et6unUAAAAoG6MGAKigaV3Ji5t0AACAf5g7O3lyjQ4AAABlY9QAABX05Npk/hwdAADgt3Y6QQEAAFA6Rg0AUEFD/RoAAMC/e/6JZNZ0HQAAAMrEqAEAKqa3J3lhow4AAPDvZvQ60wYAAFA2Rg0AUDHPbUhmz9ABAABuZdgJCgAAgFIxagCAinF6AgAA/tjg6mT+XB0AAADKwqgBACpk9ozkmfU6AADAH5nWlWzv0wEAAKAsuiUAgOp4cVMyvUcHqu+Ds8n/7X/WAeAf+h9P/qsXdICJGh5I/p+7dAAAACgDowYAqJDhAQ2oh//vW8mrB3QA+IfDHyX/5fNJV0MLmIj1K5Kli5Kz57UAAAAoOucnAKAi7pmTDKzWgeobG0teP6QDwG99czEZ+VAHaMaOfg0AAADKwKgBACpi25bx+8BQde9/knx1QQeAf/e39zSAZgwPagAAAFAGvvQBABUx5PQENbHLUxoAbunVA8nNUR1goh6+P3l8qQ4AAABFZ9QAABVw3/xkwyM6UA+7RzQAuJXvf0zePaEDNGOnpzUAAAAUnlEDAFTAUH/S1dCB6jv9efLpVzoA/JG/7dcAmnodPZB0eXcMAACg0HzaBgAVMNSvAfWw66AGAH/mtQPJtes6wETde3fSt0oHAACAIjNqAICSW3Z/8phbwNTErkMaAPyZy1eTt47rAM0YdoICAACg0IwaAKDkPKWBujh7PvnoCx0Abuev72kAzdi6JZneowMAAEBRGTUAQMlt79OAenjtgAYAE7H3cHLlFx1gombPSJ5ZrwMAAEBRGTUAQIk9vjRZvlgH6mHXQQ0AJuLqteSNIzpAM4YHNAAAACgqowYAKLEhb75SE+e+S06e1QFgol5xggKa8tyGZO5sHQAAAIrIqAEASqrRSLZt0YF6eP1gMjamA8BEvXksuXRZB5ionu7kpU06AAAAFJFRAwCU1MaVyeIFOlAPuw5pANCM6zeS3SM6QDOcoAAAACgmowYAKKkd/RpQD99dSo5+pANAs/62XwNoxpbHkkX36AAAAFA0Rg0AUELTupKtm3WgHnYdTEadngBo2rsnkgs/6gAT1dVIdvTpAAAAULjP1yQAgPIZWJ3Mn6sD9bDroAYAk3Fz1D9DoVk7BzUAAAAoGqMGACihIfd+qYkfLicHT+kAMFmvvKsBNOOxpcmKB3QAAAAoEqMGACiZ3p7kxY06UA+7D41/pzEAkzPyYXL+ex2gGUP9GgAAABSJUQMAlMyz65O7ZupAPew6pAHAnRgdS/62Xwdoxl+eTBoNHQAAAIrCqAEASsZ3jlEXV64m753UAeBOvWLUAE1ZvCBZv1wHAACAojBqAIASmTUjeXaDDtTDnsPJtes6ANyp4x8nn53XAZoxPKgBAABAURg1AECJvLgxmd6jA/Ww66AGAK3iBAU0Z3tf0j1NBwAAgCIwagCAEhke0IB6uHoteft9HQBa5ZX3NIBm3DMnGVitAwAAQBEYNQBAScy7yxur1Me+Y8nPv+gA0CoffpGcOacDNGOnExQAAACFYNQAACWxdYtH4FIfrzk9AdByntYAzXlxYzJrug4AAACdZtQAACUx5PQENXHtRvLGER0AWu0/v5uMjekAEzVzevLcEzoAAAB0mlEDAJTAwnnJxpU6UA/vvJ9cvqoDQKt9/k1y4qwO0AwnKAAAADrPqAEASmCoP+lq6EA9vH5IA4Cp8jcnKKApT61N5s/RAQAAoJOMGgCgBJyeoC5ujiZ7D+sAMFVe2Z+MOkEBEzatK9m6RQcAAIBOMmoAgIJbsjBZvUwH6uHAB8nFn3QAmCpfX0iOfKQDNGPYwBgAAKCjjBoAoOC8iUqdvHZQA4Cp9ooTFNCUDY8kD9yrAwAAQKcYNQBAwe3o14B6GB1L9ozoADDV/rZ//NwPMDGNhqExAABAJxk1AECBrVqSrHhAB+rh8IfJtz/oADDVvv8x2X9SB2jGzkENAAAAOsWoAQAKbMh3hFEjrx/SAKBdXtmvATRj+eLxwTEAAADtZ9QAAAXVaCTbnZ6gJsbGjBoA2mnXweTaDR2gGcOe1gAAANARRg0AUFDrVyQPLNCBejjxafLldzoAtMuPV5K3j+sAzdg5mHR5Jw0AAKDtfCoGAAU17PQENfLaQQ0A2u2V9zSAZiycl2x6VAcAAIB2M2oAgCL+Bt2VbNuiA/Wxe0QDgHbbczj5+RcdoBmGxwAAAO1n1AAABdT/eDJ/rg7Uw+nPk0+/0gGg3X7+JXnjqA7QjK1bkt5uHQAAANrJqAEACmioXwPq4/VDGgB0ihMU0Jy5s5Kn1+kAAADQTkYNAFAwPd3Jixt1oD5eO6gBQKe8eTT56WcdoBnDgxoAAAC0k1EDABTMM+uSubN1oB7Onk8++kIHgE65diPZPaIDNOP5DcldM3UAAABoF6MGACiYoQENqI/XDmgA0GlOUEBzenuSlzbpAAAA0C5GDQBQIDOnJ8+u14H6eN3pCYCOe+f95MKPOkAzhg2RAQAA2saoAQAK5MWN48MGqIOvLyQnzuoA0Gk3R43MoFn9q5NF83QAAABoB6MGACgQpyeok9cOJmNjOgAUwSv7NYBmdDWSbX06AAAAtOVzMAkAoBjmzkoGV+tAfbzmu4IBCuPQqeT8RR2gGcODGgAAALSDUQMAFMS2vqSnWwfq4btLydGPdAAoitGx5FVPa4CmrFmWLLtfBwAAgKlm1AAABbGjXwPqY9fB8S+gAVAcr7ynATRryGt4AACAKWfUAAAFcO/dyeZHdaA+Xnd6AqBwjn2cfHZeB2jGX55MGg0dAAAAppJRAwAUwI7+pMvvytTED5eTA6d0ACiiVw9oAM1YsjBZ87AOAAAAU8mXTwCgADy2ljrZM5LcHNUBoIj+5gQFNG14QAMAAICpZNQAAB32oO/uomZec3oCoLBOfZ6c+VIHaMbQQDLNO2wAAABTxqdcANBhQ/3u8FIfV64m753UAaDIPK0BmjN/TtL/uA4AAABTxagBADrM6QnqZM/h5Np1HQCK7H9+RwNo1s5BDQAAAKaKUQMAdNDKB5NHHtSB+nj9kAYARff5N8nJszpAM17alMzo1QEAAGAqGDUAQAcNDWhAfVy9lrx1XAeAMnjFCQpoyqwZyXMbdAAAAJgKRg0A0EHbtmhAfew7lvz8iw4AZfDX95KxMR2gGU5QAAAATA2jBgDokPUrkocW6UB9vHZQA4Cy+PpCcuQjHaAZT69L7p6tAwAAQKsZNQBAhzg9QZ1cu5G8cUQHgDJ5Zb8G0IzuaclWT2IDAABoOaMGAOjEb8CNZOtmHaiPd08kl6/qAFAmf3svuTmqAzRj2AkKAACAljNqAIAO6HssWThPB+pjl9MTAKVz4cfkwCkdoBmbViYPLNABAACglYwaAKADnJ6gTm6OJnsP6wBQRq+8qwE0o9FItvfrAAAA0EpGDQDQZj3dyUubdKA+DnyQXPxJB4Ay2nUwuX5DB2jGsAEzAABASxk1AECbPbU2mTtbB+rD6QmA8rp0JXn7fR2gGY8uSVY+qAMAAECrGDUAQJsNeRwtNTI6luxxegKg1P62XwNo1vCgBgAAAK1i1AAAbTSjN3nuCR2ojyMfJd9c1AGgzHaPJFev6QDNGB5IGg0dAAAAWsGoAQDa6PknklnTdaA+nJ4AKL8rV5M3juoAzbh/fvLEIzoAAAC0glEDALTR8IAG1MfYWPL6IR0AquCV9zSAZu10ggIAAKAljBoAoE3mzEqeXKsD9XHi0+TL73QAqII3jiY//awDNGN7X9LTrQMAAMCdMmoAgDZ5eXPS601NasTpCYDquHY92XtYB2jG3NnJU2t0AAAAuFNGDQDQJkNOT1Azr49oAFAlf3WCApo27AQFAADAHTNqAIA2WDA36VulA/Xx4RfJp1/pAFAl77yf/HBZB2jG808ks2boAAAAcCeMGgCgDbb3JV1+16VGnJ4AqJ4bN5PXDugAzZjRm7y4UQcAAIA74csrANAGTk9QN68ZNQBU0t/2awDNcoICAADgzhg1AMAUW7wgWbdcB+rj7Pnkoy90AKiiAx8k5y/qAM0YXJ3Mn6sDAADAZBk1AMAUGx5IGg0dqA+nJwCqa3TMCQpo1rSu8XN0AAAATI5RAwBMMacnqJtdvtgFUGl/e08DaNZOJygAAAAmzagBAKbQ8sXJygd1oD6+vpCcOKsDQJUd/Tg5950O0Ix1y5Oli3QAAACYDKMGAJhCviOLunntYDI2pgNAlY2NeVoDTMaOfg0AAAAmw6gBAKbQNrdzqZldBzUAqIO/GjVA0/7ylAYAAACTYdQAAFNkrUfMUjMXLiVHzugAUAenPkvOfKkDNGPpomT1Mh0AAACaZdQAAFNkyONlqZldh5LRUR0A6uLV/RpAs4YHNAAAAGiWUQMATMVvsA2nJ6ifXQc0AKgTJyigeUMDSZd34wAAAJri0ygAmAKbViWL5ulAffxwOTlwSgeAOvn0q/EzFMDE3Xt30rdKBwAAgGYYNQDAFHB6grrZM5LcdHoCoHY8rQGaNzyoAQAAQDOMGgCgxbqnJVu36EC97DqoAUAd/fXdZGxMB2jG1i3J9B4dAAAAJsqoAQBa7Mk1yd2zdaA+rlxN3j2pA0AdfXUhOfqxDtCM2TOSZ9brAAAAMFFGDQDQYkMDGlAve48k167rAFBXf3OCApq20wkKAACACTNqAIAWmtGbvLBRB+rF6QmAenvlvWR0VAdoxrPrk7me7gYAADAhRg0A0ELPbUhmTdeB+rh6LXnruA4AdfbdpeTAKR2gGT3dyUubdAAAAJgIowYAaCGnJ6ibfceSn3/RAaDu/rZfA2iWExQAAAATY9QAAC0ye0by9FodqBenJwBIklf3J9dv6ADN2LwqWXSPDgAAALdj1AAALbJ1S9LbowP1ce1G8sZRHQBILl1J3j2hAzSjq5EM9esAAABw28+fJACA1vCGJHXz7onkp591AGDcX9/TAJo17HwdAADAbRk1AEAL3DMn6XtcB+rF6QkAfmv3SPLLdR2gGY8tTVY8oAMAAMCfMWoAgBbY3pdM87sqNTI6muw9rAMAv7pyNXnTWSJomqc1AAAA/DlffgGAFvBGJHWz/1Ry8ScdAPhXrzhBAU3bOZg0GjoAAAD8EaMGALhD989P1q/QgXrZdUADAH5v75Hk8lUdoBmLFyTrl+sAAADwR4waAOAODQ34zirqZXQs2eP0BAC3cO16smdEB2jW8KAGAAAAf8SoAQDu0JDTE9TMkY+Sby7qAMCt/W2/BtCs7X1J9zQdAAAAbsWoAQDuwMP3J6uW6EC97DqoAQB/7K3jyQ+XdYBm3DMnGVyjAwAAwK0YNQDAHfCUBupo94gGAPyxGzeT1w/pAM0a9rkFAADALRk1AMAdGOrXgHp5/9Pk3Lc6APDnXnlXA2jWixuTWdN1AAAA+HdGDQAwSauXJUvv04F62XVAAwBub/8HyTcXdYBmzJyePP+EDgAAAP/OqAEAJsnpCero9RENALi90bFk10EdoFnDgxoAAAD8O6MGAJiERiPZulkH6uXDL5JPv9IBgIl5Zb8G0Kyn1ibz5+gAAADwW0YNADAJm1YmixfoQL34jlsAmnHko+TcdzpAM6Z1JVu36AAAAPBbRg0AMAlOT1BHRg0ANGNsLHnV0xqgaTudoAAAAPgXRg0A0KRpXclLTk9QM2fPj5+fAIBmvPKeBtCs9SuSB+7VAQAA4B+MGgCgSYNr3LmlfjylAYDJOHk2+fhLHaAZjUYy7MlwAAAA/2TUAABN8gYjdbTrgAYATM6rfg+BpjlBAQAA8CujBgBoQm9P8vwTOlAv579PTpzVAYDJ+eu7GkCzli9OVj2kAwAAQGLUAABNeW5DctdMHaiXVw8kY2M6ADA5n3yVnPpcB2iWJ8QBAACMM2oAgCYM9WtA/ew6qAEAd+Zv72kAzdo5mHR55w4AAMCoAQAmavaM5Jn1OlAvFy4lR87oAMCd+et7nvoDzVo4L9n0qA4AAABGDQAwQS9tSqb36EC97DqUjI7qAMCdOfdtcvwTHaBZTlAAAAAYNQDAhA15Q5EacnoCgFZ5xQkKaNrWLUlvtw4AAEC9GTUAwATcMycZWK0D9fLD5eTABzoA0BqvvOfpP9CsubOSp9fpAAAA1JtRAwBMwLYtyTS/a1Ize0aSm774BECLfPtDcui0DtCsnYMaAAAA9ebLMwAwATv6NaB+nJ4AoNVe2a8BNOu5DcldM3UAAADqy6gBAG7jvvnJEyt1oF6uXE3ePakDAK312oHkxk0doBm9PclLm3QAAADqy6gBAG5jR1/S1dCBetl7JLl2XQcAWuviT8m7J3SAZjlBAQAA1JlRAwDcxtCABtSP0xMATJVX3tMAmtX3eLJong4AAEA9GTUAwJ94aFHy+FIdqJer15K3jusAwNR4/VDyi6cBQVO6Gsm2Ph0A+P+3d+fxlteFff9f5wwgiLjGhTEaRYwrsgxLXOMuJtosjemv+WVt9vaXNm3TNGkevzZJm6Rp01+XrE0esVmsWpdsLlE2UYIIM3eGRcAFEBEZFoVhG2CWe35/XDRIWObO3OV7znk+Hw8eDMOde895ne94He77fr4AMKd/JpIAAB6cY16ZRx//ZN11jw4ArI477176XAMsz6n+bAIAAMwpowYAeAi+G4p55NYTAKw2t6CA5Xv+N9Q3PEUHAABg/hg1AMCDeM7T66gjdWC+7N5T5/ruWQBW2TkX106nAsGynXqyBgAAwPwxagCAB/GGkzRg/px/ed2+UwcAVtfdu+pjF+kAy/XGU2o00gEAAJgvRg0A8ABGI7eeYD659QQAa8UtKGD5vv6J9fxn6AAAAMwXowYAeADHPqs2PkEH5svi4tJx4ACwFs67tG67UwdYrjeeogEAADBfjBoA4AG8wb1qmUNbPlO33K4DAGtj9576yDYdYLlef1Jt8F/0AACAOeKPQABwPxvG9ZoTdGD+nLWgAQBr67QtGsByPf6IOvl5OgAAAPPDqAEA7ufk59XjH60D82VxUh+9SAcA1tbmT9XNt+kAy3Wqk+UAAIA5YtQAAPfj1hPMo0uurJt26ADA2lpcrDOcFATL9qrj69BDdAAAAOaDUQMA3MchB9crj9OB+XPmVg0AWB+nbdYAluuRh9YrjtUBAACYD0YNAHAfLzumHnWYDsyfsy/UAID1cdGVtf3LOsByuQUFAAAwL4waAOA+Xn+SBsyfyz5f131JBwDWx2TiFhSwP17ywnrM4ToAAACzz6gBAO71yEOXTmqAeXOWLyQBsM5OdwsKWLaDNtRrNukAAADMPqMGALjXK4+rQw/RgfnzkQs1AGB9Xfb5uuYGHWC5Tj1FAwAAYPYZNQDAvd7g1hPMoSu/WJ+/XgcA1t9pWzSA5Tr+6Nr4BB0AAIDZZtQAANWjD6+Tn6cD8+fMrRoAMAwfOl8DWK7RqF5nnA0AAMw4owYAqF67qQ4+SAfmz1lGDQAMxNXX1xVf1AGW61tfrAEAADDbjBoAoDr1ZA2YP9fc6ItHAAzLaZs1gOU66sg6+qk6AAAAs8uoAYC598TH1nFH68D8cUoDAEPz4c01megAy3XqKRoAAACzy6gBgLn3+pNq7DMic8ioAYCh+eJNddnVOsBynXpyjUc6AAAAs8mXcACYe29w6wnm0I231OWf1wGA4TltiwawXE95fB3r9DkAAGBGGTUAMNe+/on1vKfrwPw5Y8Hx3gAM02mba9HnKFi2U421AQCAGWXUAMBcO/XkGjmmlTnk1hMADNVNO+rCK3SA5XrdiXXwQToAAACzx6gBgLn2+pM0YP7cfFtdfJUOAAzXaRdoAMv16MPrxc/XAQAAmD1GDQDMrW/8+jpqow7Mn49sq8VFHQAYrjMWaq/PVbBsp56iAQAAMHuMGgCYW29wz1nm1JluPQHAwO24oy64XAdYrlceV4cfqgMAADBbjBoAmEujUb3OrSeYQ7feWQuf1gGA4Tt9iwawXIccXN98nA4AAMBsMWoAYC4dc1RtfIIOzJ+PXug4bwCmw5kLtWu3DrBcb3QLCgAAYMYYNQAwl97glAbm1FluPQHAlLjz7vr4pTrAcp3yvHrCo3UAAABmh1EDAPP3yW9crz1RB+bPzrvrgk/pAMD0OG2zBrA/f955nT/vAAAAs/TnHAkAmDcnPsd3LjGfzrnYMd4ATJePXVQ779EBlutUt6AAAABmiFEDAHPn1JM1YD6d6dYTAEyZu3fV31ysAyzXC59ZT3+yDgAAwGwwagBgrhx8UL3yOB2YP3fvqvPclxyAKfRht6CA/fKGkzQAAABmg1EDAHPlJS+sRx+uA/Pn45+suxzfDcCUfg677U4dYLne+E0aAAAAs8GoAYC54ruVmFcf2aYBANNp9546+0IdYLme/qR63jfoAAAATD+jBgDmxmGPqJe/SAfmz569de4lOgAwvU7fogHsjzeeogEAADD9jBoAmBvffOzSsAHmzfmX1W07dQBgel1wed18mw6wXK8/qcb+6x8AADDl/LEGgLnxhpM1YD6duVUDAKbb3kWfz2B/fN1j6sRv1AEAAJhuRg0AzIVHP7K+6fk6MH8WF+uci3UAYPqdvlkD2B+nugUFAAAw5YwaAJgLr9lUBx+kA/Nny2fqltt1AGD6bbuirr9ZB9ifPws94mAdAACA6WXUAMBccOsJ5tVHHNUNwIyYTOrMBR1guQ4/tF72Ih0AAIDpZdQAwMz7usfUCc/WgfmzOKmzL9QBgNnxYbeggP1yqpE3AAAwxYwaAJh5rz+pxj7jMYcuubJu2qEDALPjsqvrmht1gOV62TH16MN1AAAAppMv8QAw895wkgbMpzPdegKAGXTGFg1guQ4+qF59vA4AAMB0MmoAYKY99Yn1/GfowHxy6wkAZtFpbkEB++XUUzQAAACmk1EDADPtDSfVaKQD8+fyz9d1X9IBgNlzxRfrqut0gOU64RvrSY/TAQAAmD5GDQDMNLeeYF6d5dYTAMywDzutAZZtPPLnIwAAYEr/PCMBALPqmUfWs56qA/PpI9s0AGB2ffiCmkx0gOV6o1tQAAAAU8ioAYCZ5T/YMa+u/GJdfb0OAMyua2+qy6/RAZbrG59WR23UAQAAmC5GDQDMrNedqAHz6Uy3ngBgDpzuFhSwX049WQMAAGC6GDUAMJNe+Mx62pN0YD659QQA8+C0LbXoFhSwbG88pUYjHQAAgOlh1ADATHqD7z5iTn3hxvrstToAMPtuuLkuukIHWK4jn1DHHKUDAAAwPYwaAJi9T26jes0mHZhPZ7n1BABz5PQtGsD+cAsKAABgmhg1ADBzNj2nnvRYHZhPZxo1ADBHTt9Sexd1gOV63Yl10AYdAACA6WDUAMDMcesJ5tWNt9Tln9cBgPlxy+215VM6wHI97og65fk6AAAA08GoAYCZctCGetXxOjCfzlioyUQHAObLhzdrAPvjjadoAAAATAejBgBmykteUI85XAfm00e2aQDAfH7+27VHB1iuVx5Xj3yEDgAAwPAZNQAwU9x6gnl182110ZU6ADB/bt9Zn7hUB1iuQw+pVxyrAwAAMHxGDQDMjEMPqZf7j3LMqY9sq8VFHQCYT6e5BQXsF7egAAAApoFRAwAz4xXHOj6V+XXmVg0AmF8fvajuukcHWK5vekE9/ggdAACAYTNqAGBmnOrWE8yp23fW1s/oAMD8uuueOudiHWC5NozrNZt0AAAAhs2oAYCZcMQjl77LCObR2RfWnr06ADDfTt+iAewPt6AAAACGzqgBgJnw6hPqkIN0YD6d5dYTANC5l9Qdd+kAy3XMUfXUJ+oAAAAMl1EDADPhDW49wZzaeXedf7kOALBrz9LpRcDyjEb1hpN0AAAAhsuoAYCp9/gjatM36sB8Oufi2rVbBwCoOu0CDWB/uAUFAAAwZEYNAEy9151UG3xGY06d6dYTAPBV519eN9+uAyzXM4+sb3yaDgAAwDD5EhAAU8+tJ5hX9+yu8y7VAQC+Yu9ifcTgD/aL0xoAAIChMmoAYKo95fF1zDN1YD59/JN11z06AMB9nbZFA9gfp55cY/+lEAAAGCB/VAFgqp16co1GOjCfzvKdqADwd2z7TN24QwdYric+to5/tg4AAMDwGDUAMNXceoJ5tWdvnXuJDgBwf4uTOsNpDbBf3IICAAAYIqMGAKbWM55Sz/56HZhP519Wt+3UAQAeyGmbNYD98ZoT6pCDdAAAAIbFqAGAqeW7iJhnZ23TAAAezCc/V1+4UQdYriMeWS89RgcAAGBYjBoAmFqvO0kD5tPiYn3sIh0A4KGcsaAB7I9T3eIPAAAYGKMGAKbS859RT3+SDsynhc/ULbfrAAAPxS0oYP+8/EVLJzYAAAAMhVEDAFPpNSdowPz6iFtPAMDD+uy1ddV2HWC5Djm4XnW8DgAAwHAYNQAwlY45SgPm0+LEqAEA9tXpTmuA/eIWFAAAwJAYNQAwfZ+8RvWcp+vAfPrkVXXTDh0AYF982KgB9suJz6lHHaYDAAAwDEYNAEydpz+5Dj9UB+bTmVs1AIB9dc0N9alrdIDlGo/rBc/UAQAAGMifUSQAYNo8/ckaML/cegIAluc0pzXAfjnGqAEAABgIowYAps5jDteA+fSZL9R1X9IBAJbjtM01megAy/X8Z2gAAAAMg1EDAFPniEdqwHxy6wkAWL7rb66LrtQBluuJj9Vgvdljgd8PAMASowYAps5hj9CA+bPz7nrvR3UAgP3xvo9rAMv1uCM0WG933qUBfMVd92gAAPPMqAGAqbPzbg2YP287vXbcoQMA7I/TN/v/kLBcjzxUg/V2u1EDfJXP4wAw34waAJg6X7hRA+bLtTctjRoAgP2z8576ww/qAMvx5Vs1WG+3GjXD13wuBwDml1EDAFPnkqtq76IOzIe7d9XP/q7vSgGAA/X2M+qq7TrAvrr+Zg3W22ev1QCqdu2pm2/TAQDmmVEDAFPn1jvr45/Ugdm3d7F++Y/rM/5jJgAcsN176md+Z+n/SwIPb9tnNVhvl1ylAVRdfX3t2asDAMwzowYAptLv/uXSf5iGWXX3rqUvvJy2WQsAWCnX3FD/8rfrTicgwUPaeU/9xTk6rLfLrnbkPlRdYegPAHPPqAGAqfSZL9Svv70mEy2YPVd+sX7sN+qci7UAgJV24RX1Q79W196kBTyQyaT+4/+um2/XYr3ds7s+cJ4OcK7TOgFg7m3YWL8oAwDT6FPX1GWfr+OfXY86TA+m320763f/YumWEzfcogcArJZb7qj3fbwO2lDP/4ba4Fs+oFq6Pcsv/q/6sNPCBuO6L9V3vbJGIy2YTzvvqV/5U7efAIB5N9pUvscVgKl2yEH12hPrVcfXsc+qxz9aE6bHbTvrkivrA5+osy+sXbs1AYC1tPHr6s0vqVNPrqc9SQ/mz+07a+tn6vzLl04FcHuW4fnpt9T3vk4H5tM7z6rfeKcOADDvjBoAmDmHHFyPPbwe86il776DIXnUYUvfZbV3sb5wQ924QxMAGIrHHF7PPLIeeejSd4TecZfbnTG7bt9Zt925NLJl2A4+qP7Xz9Vzn64F8+WmHfWWf7f0+RgAmG9GDQAAAAAAA/bYR9V/+cd17NFaMB923lM//ZtLJ8kAAGzYWL8oAwAAAADAMN29qz50wdLJb895Wm0Ya8LsumlH/fPfqouu0AIAWOKkBgAAAACAKbHxCfWDb6xXHFtf9xg9mB033lLv+Wi9/YylIQ8AwFcYNQAAAAAATKGjNtYLnrF0e4rHHbF0kgNMi7t31Y476ku31sVX1tXXawIAPDCjBgAAAAAAAABgkNx9DQAAAAAAAAAYJKMGAAAAAAAAAGCQjBoAAAAAAAAAgEEyagAAAAAAAAAABsmoAQAAAAAAAAAYJKMGAAAAAAAAAGCQjBoAAAAAAAAAgEEyagAAAAAAAAAABsmoAQAAAAAAAAAYJKMGAAAAAAAAAGCQjBoAAAAAAAAAgEEyagAAAAAAAAAABsmoAQAAAAAAAAAYJKMGAAAAAAAAAGCQjBoAAAAAAAAAgEEyagAAAAAAAAAABsmoAQAAAAAAAAAYJKMGAAAAAAAAAGCQjBoAAAAAAAAAgEEyagAAAAAAAAAABsmoAQAAAAAAAAAYJKMGAAAAAAAAAGCQjBoAAAAAAAAAgEEyagAAAAAAAAAABsmoAQAAAAAAAAAYJKMGAAAAAAAAAGCQjBoAAAAAAAAAgEEyagAAAAAAAAAABsmoAQAAAAAAAAAYJKMGAAAAAAAAAGCQjBoAAAAAAAAAgEEyagAAAAAAAAAABsmoAQAAAAAAAAAYJKMGAAAAAAAAAGCQjBoAAAAAAAAAgEEyagAAAAAAAAAABsmoAQAAAAAAAAAYJKMGAAAAAAAAAGCQjBoAAAAAAAAAgEEyagAAAAAAAAAABsmoAQAAAAAAAAAYJKMGAAAAAAAAAGCQjBoAAAAAAAAAgEEyagAAAAAAAAAABsmoAQAAAAAAAAAYJKMGAAAAAAAAAGCQjBoAAAAAAAAAgEEyagAAAAAAAAAABsmoAQAAAAAAAAAYJKMGAAAAAAAAAGCQjBoAAAAAAAAAgEEyagAAAAAAAAAABsmoAQAAAAAAAAAYJKMGAAAAAAAAAGCQjBoAAAAAAAAAgEEyagAAAAAAAAAABsmoAQAAAAAAAAAYJKMGAAAAAAAAAGCQjBoAAAAAAAAAgEEyagAAAAAAAAAABsmoAQAAAAAAAAAYJKMGAAAAAAAAAGCQjBoAAAAAAAAAgEEyagAAAAAAAAAABsmoAQAAAAAAAAAYJKMGAAAAAAAAAGCQjBoAAAAAAAAAgEEyagAAAAAAAAAABsmoAQAAAAAAAAAYJKMGAAAAAAAAAGCQjBoAAAAAAAAAgEEyagAAAAAAAAAABsmoAQAAAAAAAAAYJKMGAAAAAAAAAGCQjBoAAAAAAAAAgEEyagAAAAAAAAAABsmoAQAAAAAAAAAYJKMGAAAAAAAAAGCQjBoAAAAAAAAAgEEyagAAAAAAAAAABsmoAQAAAAAAAAAYJKMGAAAAAAAAAGCQjBoAAAAAAAAAgEEyagAAAAAAAAAABsmoAQAAAAAAAAAYJKMGAAAAAAAAAGCQjBoAAAAAAAAAgEEyagAAAAAAAAAABsmoAQAAAAAAAAAYJKMGAAAAAAAAAGCQjBoAAAAAAAAAgEEyagAAAAAAAAAABsmoAQAAAAAAAAAYJKMGAAAAAAAAAGCQjBoAAAAAAAAAgEEyagAAAAAAAAAABsmoAQAAAAAAAAAYJKMGAAAAAAAAAGCQjBoAAAAAAAAAgEEyagAAAAAAAAAABsmoAQAAAAAAAAAYJKMGAAAAAAAAAGCQjBoAAAAAAAAAgEEyagAAAAAAAAAABsmoAQAAAAAAAAAYJKMGAAAAAAAAAGCQjBoAAAAAAAAAgEEyagAAAAAAAAAABsmoAQAAAAAAAAAYJKMGAAAAAAAAAGCQjBoAAAAAAAAAgEEyagAAAAAAAAAABsmoAQAAAAAAAAAYJKMGAAAAAAAAAGCQjBoAAAAAAAAAgEEyagAAAAAAAAAABsmoAQAAAAAAAAAYJKMGAAAAAAAAAGCQjBoAAAAAAAAAgEEyagAAAAAAAAAABsmoAQAAAAAAAAAYJKMGAAAAAAAAAGCQjBoAAAAAAAAAgEEyagAAAAAAAAAABsmoAQAAAAAAAAAYJKMGAAAAAAAAAGCQjBoAAAAAAAAAgEEyagAAAAAAAAAABsmoAQAAAAAAAAAYJKMGAAAAAAAAAGCQjBoAAAAAAAAAgEEyagAAAAAAAAAABsmoAQAAAAAAAAAYJKMGAAAAAAAAAGCQjBoAAAAAAAAAgEEyagAAAAAAAAAABsmoAQAAAAAAAAAYJKMGAAAAAAAAAGCQjBoAAAAAAAAAgEEyagAAAAAAAAAABsmoAQAAAAAAAAAYJKMGAAAAAAAAAGCQjBoAAAAAAAAAgEEyagAAAAAAAAAABsmoAQAAAAAAAAAYJKMGAAAAAAAAAGCQjBoAAAAAAAAAgEEyagAAAAAAAAAABsmoAQAAAAAAAAAYJKMGAAAAAAAAAGCQjBoAAAAAAAAAgEEyagAAAAAAAAAABsmoAQAAAAAAAAAYJKMGAAAAAAAAAGCQjBoAAAAAAAAAgEEyagAAAAAAAAAABsmoAQAAAAAAAAAYJKMGAAAAAAAAAGCQjBoAAAAAAAAAgEEyagAAAAAAAAAABsmoAQAAAAAAAAAYJKMGAAAAAAAAAGCQjBoAAAAAAAAAgEEyagAAAAAAAAAABsmoAQAAAAAAAAAYJKMGAAAAAAAAAGCQjBoAAAAAAAAAgEEyagAAAAAAAAAABsmoAQAAAAAAAAAYJKMGAAAAAAAAAGCQjBoAAAAAAAAAgEEyagAAAAAAAAAABsmoAQAAAAAAAAAYJKMGAAAAAAAAAGCQjBoAAAAAAAAAgEEyagAAAAAAAAAABsmoAQAAAAAAAAAYJKMGAAAAAAAAAGCQjBoAAAAAAAAAgEEyagAAAAAAAAAABsmoAQAAAAAAAAAYJKMGAAAAAAAAAGCQjBoAAAAAAAAAgEEyagAAAAAAAAAABsmoAQAAAAAAAAAYJKMGAAAAAAAAAGCQjBoAAAAAAAAAgEEyagAAAAAAAAAABsmoAQAAAAAAAAAYJKMGAAAAAAAAAGCQjBoAAAAAAAAAgEEyagAAAAAAAAAABsmoAQAAAAAAAAAYJKMGAAAAAAAAAGCQjBoAAAAAAAAAgEEyagAAAAAAAAAABsmoAQAAAAAAAAAYJKMGAAAAAAAAAGCQjBoAAAAAAAAAgEEyagAAAAAAAAAABsmoAQAAAAAAAAAYJKMGAAAAAAAAAGCQjBoAAAAAAAAAgEEyagAAAAAAAAAABsmoAQAAAAAAAAAYJKMGAAAAAAAAAGCQjBoAAAAAAAAAgEEyagAAAAAAAAAABsmoAQAAAAAAAAAYJKMGAAAAAAAAAGCQjBoAAAAAAAAAgEEyagAAAAAAAAAABsmoAQAAAAAAAAAYJKMGAAAAAAAAAGCQjBoAAAAAAAAAgEEyagAAAAAAAAAABsmoAQAAAAAAAAAYJKMGAAAAAAAAAGCQjBoAAAAAAAAAgEEyagAAAAAAAAAABsmoAQAAAAAAAAAYJKMGAAAAAAAAAGCQjBoAAAAAAAAAgEEyagAAAAAAAAAABsmoAQAAAAAAAAAYJKMGAAAAAAAAAGCQjBoAAAAAAAAAgEEaVxMZAAAAAAAAAICBWRxXe3UAAAAAAAAAAAZmr1EDAAAAAAAAADBERg0AAAAAAAAAwCDtMWoAAAAAAAAAAIbISQ0AAAAAAAAAwCAZNQAAAAAAAAAAg+T2EwAAAAAAAADAIDmpAQAAAAAAAAAYpL3jarcOAAAAAAAAAMDA7BlXd+sAAAAAAAAAAAzMXePqLh0AAAAAAAAAgIG5azyqnToAAAAAAAAAAAOzc5xRAwAAAAAAAAAwPEYNAAAAAAAAAMAg7RxP6i4dAAAAAAAAAICBuctJDQAAAAAAAADAELn9BAAAAAAAAAAwSEYNAAAAAAAAAMAg7RxP6g4dAAAAAAAAAICBuXNc3aoDAAAAAAAAADAwO8bVDh0AAAAAAAAAgCGZ1C3jkVEDAAAAAAAAADA8O8bjukUHAAAAAAAAAGBIRrVjvMdJDQAAAAAAAADAwIxqxzijBgAAAAAAAABgYHbXLeOxUQMAAAAAAAAAMDCT2jGqRptqd7VBEgAAAAAAAABgAHYv1CHjalLdpgcAAAAAAAAAMBC3Vo3v/Yeb9AAAAAAAAAAABuLG+ttRww16AAAAAAAAAAADcUMZNQAAAAAAAAAAAzO630kNN0oCAAAAAAAAAAzBxEkNAAAAAAAAAMAQfc1JDSOjBgAAAAAAAABgIL7mpIZFt58AAAAAAAAAAAbia05q2OCkBgAAAAAAAABgIO5/UoNRAwAAAAAAAAAwCHvvO2rYXddLAgAAAAAAAAAMwOSw+44aLq47q5t1AQAAAAAAAADW2U3n1V1176jhXl/QBQAAAAAAAABYZ1/dLxg1AAAAAAAAAABD8oCjhmt0AQAAAAAAAADW2Vf3C05qAAAAAAAAAACG5O+e1DAxagAAAAAAAAAA1tnEqAEAAAAAAAAAGKINDzRqONioAQAAAAAAAABYZ+O65j4/XnJnfbHaKw8AAAAAAAAAsE72HFbXf+UfvjpquLR2VdfqAwAAAAAAAACsk6vPrj1f+Yfxff/NqK7QBwAAAAAAAABYD/ffLXzNqGHRqAEAAAAAAAAAWCeLDzVqqK6UCAAAAAAAAABYJ1+zWzBqAAAAAAAAAACG4iFHDW4/AQAAAAAAAACslwe//cRo6V9ONAIAAAAAAAAA1tjio+tz9/2Jrxk1LNTO6nqdAAAAAAAAAIA1du3Zdfd9f+L+t59oVJ/VCQAAAAAAAABYY1fc/yfGD/BGn9IJAAAAAAAAAFhLo7r8/j/3d0YNk7pMKgAAAAAAAABgLT3QXuGBbj9h1AAAAAAAAAAArKnRvowadhs1AAAAAAAAAABrbNcD7BVGD/SGm+rm6nGSAQAAAAAAAABr4EsL9cT7/+T4gd5yUpfrBQAAAAAAAACshUld+kA//4CjhpFbUAAAAAAAAAAAa+TBdgpGDQAAAAAAAADAulrWqOHBjnUAAAAAAAAAAFhpi8sZNRxUF0kGAAAAAAAAAKyFUV38QD//gKOG8+uG6nrZAAAAAAAAAIBV9oWF+tID/Yvxg/2KSW3TDQAAAAAAAABYTQ+1Txg/xL8wagAAAAAAAAAAVtV4f0YNGTUAAAAAAAAAAKtsUhc+2L970FHDqLZKBwAAAAAAAACspsWHOHRh9BC/brSpbq4eKyEAAAAAAAAAsApuWagnVJMH+pcPdfuJyaQu0g8AAAAAAAAAWCXbepBBQz30qKHxQxzxAAAAAAAAAABwgB5yl/CQo4bFWtAPAAAAAAAAAFgNo4fZJYwf5td/QkIAAAAAAAAAYDWMH2aXMHqYXz/aVDdWXyclAAAAAAAAALCCblyoJz/UGzzcSQ2T6gIdAQAAAAAAAIAVdt7DvcF4H97J+ToCAAAAAAAAACvsYfcI+zJq+ISOAAAAAAAAAMAKe9g9wr6e1LCoJQAAAAAAAACwQhYPqoWHe6OHHTUs1K3Vp/UEAAAAAAAAAFbIJ8+v2x7ujcb7+M7O1xMAAAAAAAAAWAmjfbj1RO3jqGFSH5cUAAAAAAAAAFgJi3XevrzdeB/f6GOSAgAAAAAAAAArYcM+7hBG+/oON9V11ZHSAgAAAAAAAAAH4NqFetq+vOF4Ge/0b3QFAAAAAAAAAA7QR/f1Dfd51DByCwoAAAAAAAAA4ACN6px9fdt9HjUsGjUAAAAAAAAAAAdoOfuD0TLe72hT3VQ9QWIAAAAAAAAAYD/ctFBPrib78sbjZbzjyaTO1RcAAAAAAAAA2E8fbR8HDbW8UUMjt6AAAAAAAAAAAPbfOct54+WOGs7SFwAAAAAAAADYTx9ZzhuPlvnOR5vq+upJOgMAAAAAAAAAy3D9Qm1stW4/UU0mTmsAAAAAAAAAAJbvtJYxaKjljxoa1+k6AwAAAAAAAADLMdmPvcGyRw0blpYTAAAAAAAAAAD7ajKqM5f7i5Y9aji/rq0+rTcAAAAAAAAAsI8uWajty/1F4/35SBO3oAAAAAAAAAAA9t1+7QzG+/mLjBoAAAAAAAAAgH0yWctRwyPqI9Vu2QEAAAAAAACAh3HPqM7Zn1+4X6OGc+v2pb8BAAAAAAAAADyksxdq5/78wvEBfND36w4AAAAAAAAAPIwP7O8v3O9Rw8ioAQAAAAAAAAB4eB/c31+436OGLfXp6rPaAwAAAAAAAAAP4tKFunJ/f/GB3H6iidMaAAAAAAAAAIAHd0C7ggMdNXxAfwAAAAAAAADggRzormB8gL/4Y9UOLwMAAAAAAAAAcD83P7rOO5B3cECjhoXaXZ3udQAAAAAAAAAA7uevz649B/IOxgf6CEYHeP8LAAAAAAAAAGAmffBA38EBjxr21F9Vu7wWAAAAAAAAAMC9du+qvz7Qd3LAo4YLa0f1Ua8HAAAAAAAAAHCv0y6pWw70nYxX4pGM6r1eDwAAAAAAAACgarJCO4IVGTVsqL+o9npZAAAAAAAAAGDu7RnV+1biHa3IqOH8umFU53pdAAAAAAAAAGC+TershfrSSryv8Qo+qD/z0gAAAAAAAADAfBut0K0nagVHDQctPaiJlwcAAAAAAAAA5tZi9Zcr9c5WbNRwfl1bbfb6AAAAAAAAAMDcOnehtq/UOxuv5COb1Hu8PgAAAAAAAAAwt967ku9sRUcNG+qdLR0lAQAAAAAAAADMl8XFevdKvsMVHTVsri+M6m+8TgAAAAAAAAAwd87cVtet5Dscr/QjnNQ7vE4AAAAAAAAAMF9WYy+w4qOGQ+pd1S4vFwAAAAAAAADMjbsX689X+p2u+KjhvLq5Os3rBQAAAAAAAADzYVIfuLB2rPT7Ha/S43ULCgAAAAAAAACYE+NV2gms1qjhL6o7vGwAAAAAAAAAMPNuO7g+uBrveFVGDQu1s/orrxsAAAAAAAAAzLZRvfe8ums13vdqndTQpP7USwcAAAAAAAAAs22x3rZa73u0io97vKmurp7mJQQAAAAAAACAmXT1Qj2rWlyNdz5exQe+OHJaAwAAAAAAAADMrEn9Uas0aKjVHTW0Z+nBT7yMAAAAAAAAADBzJhtW+bCDVR01XFifrc71OgIAAAAAAADAzPnI5rpqNT/AeLWfwaj+l9cRAAAAAAAAAGbLZA32AKPV/gAvqsMPru3VEV5SAAAAAAAAAJgJt1VHLtTO1fwgq35Sw8V1Z/VerycAAAAAAAAAzIZRvXO1Bw21BqOGqkm91UsKAAAAAAAAALNhcQ1uPVFrcPuJr9hUl1Qv9NICAAAAAAAAwFS7eKGOXYsPNF7DJ/X7XlcAAAAAAAAAmHq/u1YfaC1HDX9S3em1BQAAAAAAAICpdcdB9fa1+mBrNmpYqFurd3h9AQAAAAAAAGBqve38um2tPthantTQuH7b6wsAAAAAAAAA02lUv7+WH29NRw2b68JJbfYyAwAAAAAAAMB0GdV5W2rbWn7M8Vo/yXH9npcaAAAAAAAAAKbLpP7nWn/M8To8yXdWt3i5AQAAAAAAAGBq3HxIvWutP+iajxoWamf1Vq83AAAAAAAAAEyNPziv7lrrDzpej2e6WL9Z7fGaAwAAAAAAAMDg7al+Zz0+8LqMGrbV5yf1l153AAAAAAAAABi2Ub13oa5Zj489Xsfn/d+99AAAAAAAAAAwbHvX8ev7o/V84ifUBaM6ySUAAAAAAAAAAMMzqi1b1vHr+ut5UkPj+i2XAAAAAAAAAAAM1v+3nh98XU9qeEEdcmhdXR3pOgAAAAAAAACAQbmuesZC7V6vB7CuJzVcWruq33MdAAAAAAAAAMDg/NZ6DhpqnU9qqDq+njiuz1eHuR4AAAAAAAAAYBDuPKSefl7dvJ4PYrzeFbbVTaN6q+sBAAAAAAAAAIZhUr+/3oOGGsCo4d4H8V+qPS4LAAAAAAAAAFh3u0f134bwQAYxarigPle9y3UBAAAAAAAAAOvufy/UNUN4IOOhFJnUry/9DQAAAAAAAABYJ5Nx/cZQHsxgRg1b6+JJfcj1AQAAAAAAAADr5q8216VDeTDjIZXZsHRaAwAAAAAAAACwDsb1n4b0eEZDC3RCnTuql7hUAAAAAAAAAGDtjOpjW+qbh/SYxkOLNLTVBwAAAAAAAADMicHdXWE0wEijE+uCSZ3oegEAAAAAAACANbGwUCdVkyE9qPEAQ00W61ddLwAAAAAAAACwZv5dAxs01DBPaqgabapt1bGuGwAAAAAAAABYVVsXlu6mMLhRw3igwSaj+veuGwAAAAAAAABYXZP6xQY4aKjhntRQS6c1XFi9yCUEAAAAAAAAAKti20JtaqCjhvGAw02q/+D6AQAAAAAAAIDVMapfaqCDhnsf37D7baqLqmNcSgAAAAAAAACwoi5cqBMa8KhhPPCAk4nTGgAAAAAAAABgNQz6lIYa/kkNtXRaw5aW1iEAAAAAAAAAwAGa1OatdUoDHzWMp6HlpH7BJQUAAAAAAAAAK2NSP9/ABw01HSc1VLWpzqpe5dICAAAAAAAAgP03qTO21uum4bGOpyXqqH6uKViJAAAAAAAAAMDA/b/T8kCnZtSwpS6oPuDaAgAAAAAAAID9M6o/21qfmJbHO56yvv+mWnSZAQAAAAAAAMCy7R3Vv52mBzxVo4aFuqR6p+sMAAAAAAAAAJbtbZvr0ml6wKNpK7ypnlVdVh3iegMAAAAAAACAfXLP3nruhXX1ND3oabv9RAt15aR+2/UGAAAAAAAAAPtmUv/9wikbNNQUntRQdUw97pD6bPUElx4AAAAAAAAAPKQvVUcv1K3T9sA3TGPtG+vuI2vXqE517QEAAAAAAADAg5vUz26tc6bxsY+mNfqmOri6tHq2SxAAAAAAAAAAHtCnq2MWavc0PvjxtFZfqN2T+jnXHwAAAAAAAAA8sEn9zLQOGmqKT2r4ik31serlLkUAAAAAAAAA+BpnL9SrpvkJjKf9FRjVz1QT1yIAAAAAAAAAfNXiZOnr6VNt6kcNW+qCUf1v1yMAAAAAAAAALJnUH22thWl/HqNZeDFOqqcs1qerR7s0AQAAAAAAAJhzt1XPXajt0/5ENszCq3Fd3fHUWqxe59oEAAAAAAAAYM7964U6YxaeyGhWXpEX1CGH1kXVc12fAAAAAAAAAMypy6rjFmr3LDyZ8ay8KpfWrnH9lOsTAAAAAAAAgDn2z2dl0FAzNGqo2rx0fMZfukYBAAAAAAAAmEPvXqjTZukJjWfwRfqn1U7XKgAAAAAAAABz5K699bOz9qQ2zNoT2l63bqxHVN/smgUAAAAAAABgHozql7bW+2bwec2eF9dhu+qS6lkuXQAAAAAAAABm3GePqBedXXfP2hObxdtPdF7dVf1j1y0AAAAAAAAAs26xfvLsGRw01IyOGqoW6rTqHS5fAAAAAAAAAGbYH2+rM2f1yY1m+ZU7pZ68py6vHuc6BgAAAAAAAGDG3Ly7nndx3TirT3DDLL96X6w7n1o7qje5lgEAAAAAAACYJZP6JxfWubP8HEdz8DqON9XHqpe6pAEAAAAAAACYBaP62JZ6ZTWZ5ec5noPXcnFUP1HtdlkDAAAAAAAAMAN2LS59HXwy6090wzy8mtfVjRvrkdXLXNsAAAAAAAAATLlf2VrvnocnOpqXV/ToesRjamv1fNc3AAAAAAAAAFPq8iPqhLPr7nl4suN5eVWvqHsm9cPVXtc4AAAAAAAAAFNo77h+4Ow5GTTUnNx+4iu217VH1mNH9WLXOgAAAAAAAABT5j9vqT+Zpyc8mrdXeFM9srqwerbrHQAAAAAAAIAp8ZlD6rjz6q55etLjeXuVF2rnuH6wWnTNAwAAAAAAADAFFif1I/M2aKg5u/3EV1xXX9hYT65Ocu0DAAAAAAAAMHD/Y2v9/jw+8dG8vuIvqsMProuro1z/AAAAAAAAAAzU1XfXMZfWHfP45Mfz+qpfXHdO6kdzGwoAAAAAAAAAhmlxVD80r4OGmtPbT3zF9vrcU+tx1Tf5vQAAAAAAAADAkIzqN7bUH8x5g/l2dD3iMbW5OsZvCQAAAAAAAAAG4rIjatPZdfc8RxjP+1VwRd0zqh+odvk9AQAAAAAAAMAA3LNY33P2nA8aas5vP/EV19X1T61J9Wo1AAAAAAAAAFhPo/qFrfVnSrj9xH2NT6yPTOoVUgAAAAAAAACwTs49qr753bVXCqOGr3FSHbVYF1ZHqAEAAAAAAADAGrtjUsdvrSukWOL2E/dxXd1yZH15VG9WAwAAAAAAAIC1NKmf2FpnKfG3jBruZ3stHFnPHdUL1QAAAAAAAABgjbx7a/2CDF9rLMHftVg/WV2tBAAAAAAAAABr4KrqR2X4u4waHsCFtWNU/6DarQYAAAAAAAAAq2jPYn3vQt0qxd/l9hMP4rr64sYaVa9SAwAAAAAAAIBV8gtb650yPLCRBA9pvKlOr14tBQAAAAAAAAAr7Oyj6rXvrr1SPDCjhodxbD31oLqw+jo1AAAAAAAAAFghNy3WcdvqOike3FiCh3ZRfXFUP1xN1AAAAAAAAABgBUxG9YMGDQ9vgwQP77r69MZ6VPUSNQAAAAAAAAA4EKP6tS31P5V4eE5q2EdH1M+P6mNKAAAAAAAAAHAAzn5m/VsZ9s1Ign13Sj15T22rjlQDAAAAAAAAgGW6oTp+obZLsW+c1LAM59cNo/qeao8aAAAAAAAAACzDnsX6boOG5dkgwfJcV1cfWXtH9Ro1AAAAAAAAANhH/3prvUOG5XH7if3stqn+rPp2KQAAAAAAAAB4KKN635b6tmqixvK4/cT+mRxSP1xdLQUAAAAAAAAAD+HKPfX9GTTsF6OG/XRe3by4dFLDnWoAAAAAAAAA8ADuqL7jwtohxf4xajgA2+qiiUUNAAAAAAAAAH/XZFI/vFCXSLH/NkhwYLbX5UfWI0f1UjUAAAAAAAAAqJrUr26t31TiwBg1rIDtddbGOql6thoAAAAAAAAAc++0Z9WPXubU/wM2kmBlHFOPO6QuqI5WAwAAAAAAAGBufWZvnXJh7ZDiwI0lWBmX1C3Vm6vb1AAAAAAAAACYS7eP6zsvNGhYMUYNK2ihPjWpH8oRIgAAAAAAAADzZnFU37e5LpVi5WyQYGVtr8s31t7q1WoAAAAAAAAAzI2fX6g/lGFlGTWsgu11zpF11KiOVQMAAAAAAABg5v3RQv0rGVae20+sjsmofrg6WwoAAAAAAACAmXbOrfUTMqyOkQSr5+R6wt76RHW0GgAAAAAAAAAz56rF+qZtdZMUq8NJDavogvpy9eZqhxoAAAAAAAAAM+XmUX2LQcPqMmpYZQv1qVF9d7VHDQAAAAAAAICZsHuxvntLfVqK1bVBgtV3XV21cWmd8yY1AAAAAAAAAKbbqH58a71XidVn1LBGtteWjfWI6uVqAAAAAAAAAEynUf3SlvqvSqwNo4Y1tL3O2ljfUB2nBgAAAAAAAMB0GdXbttRPK7F2xhKsqUn1Y9WHpQAAAAAAAACYHpP660fVDy39kLUykmDtvbSOuLs+Wh2vBgAAAAAAAMDgLdxdr7y07pBibRk1rJNNdWT18eoZagAAAAAAAAAM1ufG9ZLNdb0Ua8+oYR2dUEePloYNT1QDAAAAAAAAYHC+PKqXbqlPS7E+xhKsn611xai+o9qpBgAAAAAAAMCg3DGpNxk0rC+jhnW2pc4d17dV96gBAAAAAAAAMAi7JvWWrfUJKdaXUcMAbK4zJvUPqz1qAAAAAAAAAKyrvdX3bq0PSbH+NkgwDNvrUxvrmpZObRgpAgAAAAAAALDmJtWPL9TbpBgGo4YB2V4Xbawd1alqAAAAAAAAAKy5n12o35JhOIwaBmZ7nb+xDq1epgYAAAAAAADAmvn3C/UrMgyLUcMAba+zjqynjOpENQAAAAAAAABW16h+e6H+lRLDY9QwUNvrAxtrY7VJDQAAAAAAAIBV80cL9ZPVRIrhGUswWJOj6idH9TYpAAAAAAAAAFbFu46qH6kWpRgmJzUM2GU1eWn91S317OoYRQAAAAAAAABWzHuOqO/5YO2VYriMGgbuspq8rP7ilnpu9QJFAAAAAAAAAA7Yn1f/8LzaI8WwjSSYDi+oQw6r90zqzWoAAAAAAAAA7J9RfWhHffsVdY8awzeWYDpcWrvuqu+qPqAGAAAAAAAAwH45/VH1HQYN08OoYYpcWrsOqbdUH1YDAAAAAAAAYN+N6kOH1LedXXerMT02SDBdrq09j693HVTHVM9VBAAAAAAAAOBhffCI+s6/MWiYOkYNU+im2vv4+vOD6wXV8xQBAAAAAAAAeFDvv7X+/la3nJhKbj8xpS6tXc+s7x7V29QAAAAAAAAAeEDvqr7zCoOGqeWkhil2WU1eWn91Sz2jOlYRAAAAAAAAgK96xxH1fefVHimml1HDlLusJi+r9+2op1XHKwIAAAAAAADQHy7UD11de6WYbkYNM+CymlxX79tYT65OVAQAAAAAAACYV6P67YX6yWqixvQzapgdk+31gY11d/VaOQAAAAAAAIA59OsL9S9kmB1GDTNme527sW6pTq1GigAAAAAAAABzYFL97EL9shSzxahhBm2v859an6veXI0VAQAAAAAAAGbY3urHF+q3pJg9vpN/hp1Y3zapd1aHqgEAAAAAAADMoF2j+r+31HukmE1GDTPuhHr1qP6iOkINAAAAAAAAYIbcWX3nQp0mxewyapgDx9eLx/W+6glqAAAAAAAAADPgS9WbFup8KWabUcOc2FTPqj5UHa0GAAAAAAAAMMU+N6o3bqlPSzH7xhLMh4W6clwvX/ohAAAAAAAAwPQZ1ZaD6sUGDfPDqGGObK7r765XVh9UAwAAAAAAAJgypz+iXn1+3SDF/NggwXy5qXY9p961q46sNikCAAAAAAAATIE/qv7h+XWXFPPFqGEOXV2L2+v9T136x1cqAgAAAAAAAAzYry/UT22vRSnmj1HDHLuuzj6yrhvVqa4FAAAAAAAAYGB2TepHt9ZvSDG/RhJwfL1mXO+uHqcGAAAAAAAAMAC3VH9/oT4ixXwzaqCqE+roUb2/eo4aAAAAAAAAwDq6snrTQn1KCsYSULW1rjikXlKdrQYAAAAAAACwTs5drBcbNPAVGyTgK66tux5f7zionlYdpwgAAAAAAACwVib11nvquy+u29XgK4wa+Bo31d7t9Zcba0f1+tyiBAAAAAAAAFhdk1H98kL9i5tqrxzcly9Y86A21bdXf1IdoQYAAAAAAACwCm6b1PdurfdJwQMxauAhnVzfuLf+onqeGgAAAAAAAMAK+uxiffu2ukwKHsxYAh7KBfWZg+qbqr9UAwAAAAAAAFghH9xbJxs08HA2SMDD+WLds73+z8a6q3pNTvgAAAAAAAAA9s+k+k8L9SPXL339ER6SL06zLCfW35vUn1aPVgMAAAAAAABYhjtG9YNb6r1SsK+MGli2E+pFo/rz6ig1AAAAAAAAgH3w2XF9x+a6VAqWYywBy7W1Lj6ojq/eowYAAAAAAADwUCb1V3vrZIMG9scGCdgfX6x7ttd7NtYt1WtcSwAAAAAAAMD97Kn+zdb6qevrbjnYH24/wQE7oV4+qndWG9UAAAAAAAAAqi+O6h9sqXOl4EC4/QQHbGuds1jHVaerAQAAAAAAAHPv7HGdaNDASnDLAFbE9bXzZfX2HTWpXpFTQAAAAAAAAGDeTKr/dFT94Ol1uxysBF94ZsWdWN8yqT+qnqgGAAAAAAAAzIUbJvUDW+vDUrCSjBpYFS+qJx1SfzypU9UAAAAAAACA2TWqM/fW92+r69Rgpbn9BKvihrrzunr7xrqlerVrDQAAAAAAAGbOnlH9+y31I9fXbXKwGpzUwKo7qU5arHdUz1IDAAAAAAAAZsLnx/U9m+vjUrCaxhKw2jbX5oPqhOrtagAAAAAAAMDUe8/eOs6ggbXgpAbW1In1w5P6b9Wj1AAAAAAAAICpclv1Txfqj6VgrRg1sOaOq2ccVH88qVeoAQAAAAAAAMM3qvMW6/u31hVqsJY2SMBau752XFd/srFuqV5VHaQKAAAAAAAADNLuUf2HZ9YPnllfloO15qQG1tWJ9cJJ/Wl1nBoAAAAAAAAwKJeO6vu21DYpWC9OamBdXVc3Pqf+eFcdXL24GqsCAAAAAAAA62pS/eat9ZZP1rVysJ6c1MBgnFivnNRbq2eqAQAAAAAAAOviqsX6oW31MSkYAic1MBjX1dXPqN/fWwfl1AYAAAAAAABYS5NR/cHd9R0X12flYCic1MAgnVQvWaw/rJ6rBgAAAAAAAKyqK0f1I1vqbCkYGic1MEjX1ReeU3+4qw7OqQ0AAAAAAACwGvZUv1V914LTGRgoJzUweCfVcYv11up4NQAAAAAAAGBFfHJc/2hzbZaCIXNSA4N3XV1/eP3RoTVp6dQG1y0AAAAAAADsn3sm9R/uqe+7sL4gB0PnpAamynH17HH9zqheqwYAAAAAAADsu1F9bG/95La6TA2m6LqF6btuT6zvm9RvVE+UAwAAAAAAAB7SLZP6ua31By2djg5TwzH+TKXr6qJn1B8u1uOqEzLQAQAAAAAAgPubTOptk3rztjpHDqaRLwQz9Y6vV4zr96rnqQEAAAAAAABVXTGun9xcZ0jBNHNSA1Pv+vr8c+oPd9U91TdVB6sCAAAAAADAnLpzUr90W33fJ+uzcjDtnNTATDm2nrqhfm1U36cGAAAAAAAAc+b9i/X/bKvPS8GsMGpgJp1Yr5zU/6iOUQMAAAAAAIAZ9+lJ/bOt9WEpmDVjCZhFW+rsI+qE6qerWxUBAAAAAABgBu2ofu7uepFBA7PKSQ3MvFPqyXvr1yb1AxnyAAAAAAAAMP0Wq7furl+4uG6Ug1lm1MDc2LR0csNvVK9SAwAAAAAAgCl11qh+Zkttk4J5YNTA3DmpXrtY/7V6oRoAAAAAAABMiU9X/+9CvVsK5omj+Jk7m+uMI+r4Sf14dYMiAAAAAAAADNiXq58+ol5o0MA8clIDc+0F9ajD6mcm9a+rQxUBAAAAAABgIHZVv1f924W6VQ7mlVEDVMfXN4zrl6rvrTYoAgAAAAAAwDrZO6k/HtUvLdQ1cjDvjBrgPjbVc6tfrr7L7w8AAAAAAADW0qTOqP7l1rpYDVjii7bwAE6qkxbr31ZvUgMAAAAAAIDVNKkzJvXz22qLGvC1jBrgIWyql1W/Wr1cDQAAAAAAAFbY+ZP6N1vrLCnggRk1wD78PtlU31b9u+o4OQAAAAAAADhAC5P6pa31PingoRk1wDKcVK/dW786qpPUAAAAAAAAYJkuqn5lod5TTeSAh2fUAPvBuAEAAAAAAIBlMGaA/WTUAAfgpHrtYv1KdbIaAAAAAAAA3M+F1a8aM8D+M2qAFXBifcukfq56uRoAAAAAAABz7+xJ/cet9WEp4MAYNcAK2lQnTOqnR/U91QZFAAAAAAAA5sZi9cHF+tVtdZ4csDKMGmAVnFBHj+qnqh+rDlUEAAAAAABgZu2a1P+Z1H/cVpfJASvLqAFW0Un1lEn9xKR+unqMIgAAAAAAADPjjuqtB9V/Pr+ulQNWh1EDrIFj6nGHLJ3a8E+qpykCAAAAAAAwta6Z1G8t1h9cWDvkgNVl1ABra3xCfWv1T0f1WjkAAAAAAACmxsKo/sej6u1n1x45YG0YNcA6OaE2Vf9sVP9XdbAiAAAAAAAAg7O3+utx/drm+rgcsPaMGmCdnVJfv2fpthQ/Un2dIgAAAAAAAOvuS9Uf7Knfvqi+KAesH6MGGIij6xGPqb83qR8b1Wv8/gQAAAAAAFhzC5P6/VG9baF2ygHrzxdNYYA21XOrH6x+tHq8IgAAAAAAAKvmtlG9c2/9zra6SA4YFqMGGLBX1qF31HdP6p9VJygCAAAAAACwYhYm9fv31NsvrTvkgGEyaoApcWKdvFj/aFT/oHqsIgAAAAAAAMt2S/XOxXrrttoiBwyfUQNMmaPrEY+pv1d9f/XGaoMqAAAAAAAAD2qxOm9SfzKqty3UTklgehg1wBQ7tp56UH1v9SPV0YoAAAAAAAB81Reqt2+o/3lBfU4OmE5GDTAjv5dPrG+uvn9S31k9RhIAAAAAAGAO7ajeu1h/sq3OqSaSwHQzaoAZc3Q94tH1+uoto6WBw+GqAAAAAAAAM+zu6oxRvXtS73F7CZgtRg0wwzbVI6tvrb6/ekN1sCoAAAAAAMAM2Ft9YlJ/cnC98/y6TRKYTUYNMCdOqSfvqe8e1XdN6mXVWBUAAAAAAGCK7J3U34zrPbvqXRfXjZLA7DNqgDl0cj1hsb51Um9p6VYVh6gCAAAAAAAM0N7qE9W7q3ct1HZJYL4YNcCcO6Ye94h686Te1NKtKh6pCgAAAAAAsI7umdQ5o3r/7nqHExlgvhk1AF91Sj16b33LvQOHU6snqAIAAAAAAKyBL43qQ4v1/sPqg+fW7ZIAZdQAPIi31IYr67jx357icIL/zQAAAAAAAFbQVdX7x/W+xfroQu2WBLg/X6AE9slx9Yxxfeu43jSpV1aHqgIAAAAAACzDXZM6e7Q0Yvjgtvq8JMDDMWoAlu3Fddieeulivbalv46vxsoAAAAAAAD3c9Wozlis9z+6Tj+77pYEWA6jBuCAHV9PHNcrR/XaSZ1aPV0VAAAAAACYSzdUH5vUGXvrAxfVFyUBDoRRA7DiTqoXLNarq5dXr6ierAoAAAAAAMyk61saMXysOmtrXS4JsJKMGoBVd1IdNamXVS+d1OuqZ6oCAAAAAABTaXv1N9W5k/qbrbW1msgCrBajBmDNHVfPOKhesVgvGdWLqxdUG5QBAAAAAIBB2VNdWp03qo/vrY9tq8/LAqwlowZg3b2oDj+4jq82TWrTaOm2Fc9QBgAAAAAA1tT11ZZRLSwu/XXOhbVDFmA9GTUAg3R8fcOGevG9I4fjJ0ujh8crAwAAAAAAK+LLk9o2rm2LtTCq8xbqGlmAoTFqAKbG8bVxtDRyeP6kXjCqTdXz/G8ZAAAAAAA8pO0tDRcWJnXpuC7bXJdVE2mAofOFQGCqvbgev6uOrZ5bvbClkcMLqiepAwAAAADAnLmhunRUl0/u/fs9ddEldYs0wLQyagBm0sn1hEm9cLGeN1kaOTx3VEdXT6s2KAQAAAAAwJTaW31hUleM6vJRXbq3Lj+4Lr2gviwPMGuMGoC5sqkOHi8NG47aW0eN6qj+9q/nV4epBAAAAADAOtvd0nDhqnFdNamruvfvo7p8oXZKBMwLowaA+zimHnfw0sBhY3XkfUYPG6sjq2dUY6UAAAAAADgAt1TbJ3Xd+G/HCttHdV111eF1zdm1RyYAowaAZTm6HnFEPWW0NHB44rieWB05qSd174/v/fsTq8dVB6sGAAAAADDzdrc0VLjp3r+uq24aLf14++K9Pz+p7bfX9VfUPZIB7BujBoBV9KI6/LB63N567OTev6rHjv/2x48a1aOqgyf12FEdtFiPHtUjqkdWh1eH3Pvu7vvjrzisOlRpAAAAAIAHdXd11/1+bld15/1+vHNS94zrtkntGdWOxdo1Wvp3d9z7zzuqHaPaMa5bdtWOSe24+G/fFwAr7P8HJueEyQm1dzIAAAAldEVYdGRhdGU6Y3JlYXRlADIwMjItMDQtMThUMTI6MTY6MDIrMDA6MDCZTRwPAAAAJXRFWHRkYXRlOm1vZGlmeQAyMDIyLTA0LTE4VDEyOjE2OjAyKzAwOjAw6BCkswAAAABJRU5ErkJggg==;" vertex="1" parent="1">
          <mxGeometry x="40" y="300" width="10.26" height="10" as="geometry" />
        </mxCell>
        <mxCell id="iLgsF8AlWTpj_OLjQBRI-21" value="" style="shape=image;verticalLabelPosition=bottom;labelBackgroundColor=default;verticalAlign=top;aspect=fixed;imageAspect=0;image=data:image/png,iVBORw0KGgoAAAANSUhEUgAAAgAAAAIACAMAAADDpiTIAAAAA3NCSVQICAjb4U/gAAAACXBIWXMAABApAAAQKQH1eOIPAAAAGXRFWHRTb2Z0d2FyZQB3d3cuaW5rc2NhcGUub3Jnm+48GgAAAwBQTFRF////AAAAAAAAAAAAAAAAAAAAAAAAAAAAAAAAAAAAAAAAAAAAAAAAAAAAAAAAAAAAAAAAAAAAAAAAAAAAAAAAAAAAAAAAAAAAAAAAAAAAAAAAAAAAAAAAAAAAAAAAAAAAAAAAAAAAAAAAAAAAAAAAAAAAAAAAAAAAAAAAAAAAAAAAAAAAAAAAAAAAAAAAAAAAAAAAAAAAAAAAAAAAAAAAAAAAAAAAAAAAAAAAAAAAAAAAAAAAAAAAAAAAAAAAAAAAAAAAAAAAAAAAAAAAAAAAAAAAAAAAAAAAAAAAAAAAAAAAAAAAAAAAAAAAAAAAAAAAAAAAAAAAAAAAAAAAAAAAAAAAAAAAAAAAAAAAAAAAAAAAAAAAAAAAAAAAAAAAAAAAAAAAAAAAAAAAAAAAAAAAAAAAAAAAAAAAAAAAAAAAAAAAAAAAAAAAAAAAAAAAAAAAAAAAAAAAAAAAAAAAAAAAAAAAAAAAAAAAAAAAAAAAAAAAAAAAAAAAAAAAAAAAAAAAAAAAAAAAAAAAAAAAAAAAAAAAAAAAAAAAAAAAAAAAAAAAAAAAAAAAAAAAAAAAAAAAAAAAAAAAAAAAAAAAAAAAAAAAAAAAAAAAAAAAAAAAAAAAAAAAAAAAAAAAAAAAAAAAAAAAAAAAAAAAAAAAAAAAAAAAAAAAAAAAAAAAAAAAAAAAAAAAAAAAAAAAAAAAAAAAAAAAAAAAAAAAAAAAAAAAAAAAAAAAAAAAAAAAAAAAAAAAAAAAAAAAAAAAAAAAAAAAAAAAAAAAAAAAAAAAAAAAAAAAAAAAAAAAAAAAAAAAAAAAAAAAAAAAAAAAAAAAAAAAAAAAAAAAAAAAAAAAAAAAAAAAAAAAAAAAAAAAAAAAAAAAAAAAAAAAAAAAAAAAAAAAAAAAAAAAAAAAAAAAAAAAAAAAAAAAAAAAAAAAAAAAAAAAAAAAAAAAAAAAAAAAAAAAAAAAAAAAAAAAAAAAAAAAAAAAAAAAAAAAAAAAAAAAAAAAAAAAAAAAAAAAAAAAAAAACyO34QAAAP90Uk5TAAECAwQFBgcICQoLDA0ODxAREhMUFRYXGBkaGxwdHh8gISIjJCUmJygpKissLS4vMDEyMzQ1Njc4OTo7PD0+P0BBQkNERUZHSElKS0xNTk9QUVJTVFVWV1hZWltcXV5fYGFiY2RlZmdoaWprbG1ub3BxcnN0dXZ3eHl6e3x9fn+AgYKDhIWGh4iJiouMjY6PkJGSk5SVlpeYmZqbnJ2en6ChoqOkpaanqKmqq6ytrq+wsbKztLW2t7i5uru8vb6/wMHCw8TFxsfIycrLzM3Oz9DR0tPU1dbX2Nna29zd3t/g4eLj5OXm5+jp6uvs7e7v8PHy8/T19vf4+fr7/P3+6wjZNQAAHSdJREFUGBntwQmAjeX+B/DvmX0Y+y6uJcWkst3rRqVCJColOSnRLkskxLWUErlFruUvtLi2CrnKUpIWomyVLEkkstwZhmEss5w53/+V69rmnDnv+z6/933PmefzATRN0zRN0zRN0yJXieSGTVrc1aFz194Dh40aN2X63IXLli2cO33KuFHDBvbu2qXDXS2aNEwuAS2iJFS9rm3XYZM/XLM7iyHJ2r3mw8nDura9rmoCtPBVpGGXUe9+sS2dFqRv++LdUV0aFoEWTkrd+MTYT3+nQr9/OvaJG0tBc7uKzXtO+jKVQlK/nNSzeUVorpTUbOjSI7TBkaVDmyVBc5NKHcZt8NFGvg3jOlSC5gJRdbvP3k1H7J7dvU4UNOckNhu69BgddWzp0GaJ0BxQ9pEFJ+gKJxY8UhaarZKfW51LF8ld/VwyNHtE3zT6F7rQL6NvioYmrEj7GWl0rbQZ7YtAE1Om2ydZdLmsT7qVgSYg5q5/ZTMsZP/rrhhoal0zJoVhJGXMNdCUKdljPcPO+h4loSkQffucTIalzDm3R0OzptYr+xnG9r9SC5pp8Y9+w7D3zaPx0MwoPvAAI8KBgcWhGVV5dAYjRsboytCMuGZ6NiNK9vRroIXqliWMQEtugRaC6PbrGKHWtY+GFlxitx2MYDu6JUILrMiQVEa41CFFoOUttkcKC4CUHrHQLuXx7mABscPrgXaRZutZgKxvBu189ZaygFlaD9pZ1Wb5WeD4Z1WDdlrpsVkskLLGloZWePBRFlhHBxdGweZ5/AALtAOPe1CAXb2KBd6qq1FQJY7IpsbsEYkokFrspPaHnS1Q8JSdRe1/ZpVFweJ57DC18xx+zIMCJHkFtYusSEZBkfBSFrVLZL2UgAKh2XZqedreDJGv+D+pBfTP4ohwN+6mFsTuGxHJYl70UQvK92IMIlb1b6jl65vqiFAPHqMWgmMPIhIVnUUtRLOKIuI03kUtZLsaI7JED/VRM8A3NBoRpMrX1Az6ugoihjedmmHpXkSGuKnUTJkahwhQbhU1k74ui7BXfw810/bUQ5jrcJKaBSfaI5x5hlOzxv+iB2GryIfULJtfGGGq+mZqCmysirDU9BA1JQ42QRjqnkNNkewnEG5ip1BTaEIMwkrpFdSUWl4CYaTST9QU21QeYaPGb9SU21EVYeLaf1MTsDcZYeG6w9REHGyAMND8ODUhR5vA9dpmUhNz8na43EM+aoKyO8DVevipicp9HC42mJq4fnCt16jZ4GW4U9RUaraY4IELed6hZpM34EKvU7PNKLjO89RsNBAu04uarZ6Cq3T2U7OV/wG4yN0+ajbLuQOu0TyTmu1O3QKXuO44NQdkNIQrXHOYmiPSroYLXH6AmkP2V4fjLttFzTG/VoTDSm2h5qAtpeCo+NXUHLU6Hk56h5rD3oGD+lBzXB84pqWPmuN8LeGQK49Qc4EjV8IRxbdRc4VtxeGA6E+oucQn0bDfaGquMRq260LNRbrAZo0yqblIZiPYqtIBaq5yoBJslLiBmstsSIR93qPmOu/BNt2ouVA32KT2SWoudLI2bBG/kZorbYyHHcZSc6mxsEErPzWX8reCuLIpVCXlq8nP9hs5Zd7nGw+x4Dn6+bTxIwb27NJ1wpdpVCWlLKQtoSL3F8c5V3SZutXPgiJr3cTOyR6cU/GfVGQJhD1NRX7z4CIl24z4jpFv95gb4nGxhlTlaYi6NpOKvIK81Hx+GyPZjlF/QZ62U5HMayEoYTNVqYsA6o3azcj08/C6COQFqrI5AXImUpWfEJjn+vFpjDS+D25GEFdQmYkQcweVeR5BJT7yPSPJwRGVEdwaKnMHhJQ/SGVqIj/Xv5fNCLGhSwLy8zSVOVgeMj6mMt8hBBWHHWD4y57dGCEo56MyH0NER6rTHyGJ6/gNw9uBFyogNJ9QnY4QUCKF6lRBqBpMy2TYWt0xFqHqTHVSSkC9qVRnGwwoPXAPw1HmtAYwoJyf6kyFcjf6qc4EGBJ9zwqGm9zpVWDMD1THfyMUi9tChdrCqObfMqx8XAdGvUqFtsRBrcFUyFcMxrX5nmFjfVMYdytVGgylrjhFhb6FGZ72WxkWdnTwwISEU1To1BVQ6TOqNBzmRHXaSddL7RkLc5ZSpc+gUCcqdTPMinliD13t+ItFYFZfKtUJypQ6SJVOxMG8+F5HqEzuiUOHTuRSmZw3ysO8a6nUwVJQ5W0q9SksKT+HpmTv+Xb+xMG9n3yo/R3Nr6+fXK18sTj8Ia5Y+WrJ9a9vfkf7h57sPXji/G/3ZNOUj2rCkhQq9TYUuYlqvQKL2uxhyHL2rl0wacijreqU9SBknrJ1Wj06ZNKCtXtzGLJ97WDREqp1E5SI30a1HoBVSf/IZb7SV015ulnFKFgSVbHZ01NWpTNf/v8rBqtGUq1t8VDheSp2DaxruJGBZax5u0/LSlCoUss+b6/JYGCbG8M6LxV7HgpUPEG1suOgQMyAk7xU7sbp/VtX9UCEp2rr/tM35vJSpwbHQoFkKnaiAqybQsU2QY3LP+MFcta82qY4xBVv8+qaHF7g8yuhRPQpKjYZliX7qNhsqNL5EP8ra+XLLZJgm6QWL6/M4n+lPQxV1lExXy1YtYCqDYQyZWaSPLF86M0JsF3CzUOXnyA5qwyUeZOqzYdF11O51lCo5YDGsXBMbOMBLaFQTyrXCNasonLVoAXQlMqtgCVtqV4haAEkU702sCD6Jyp3HFogJane5iiY9wTV2wUtEE8O1XsYphXaT/XWQgtoP9X7PQFmDaKARdAC+oEC+sGk0kcp4B1oAS2lgMMlYM4/KOHv0AKaQQl/hynVsyihL7SARlPCqcowYxZFPAUtoGEU8RZMqOajiJ7QAhpOEdmVYNx4yngGWkAjKONVGFbqBGX0gxbQKMo4WgxGDaWQAdACeo1C+sOgxFQKGQwtoNcpZF8cjOlKKS9AC2gcpXSBIVG/UMpwaAFNpJTNHhjRjmJegxbQVIppDSO+pZj3oAW0hGK+hAE3Us430ALaRDl/Qeg+opwD0AI6SjlzELJkP+X446EFUJSCfJcjVG9R0hXQAriakiYiRBWyKOlWaAG0oqSTpRGakRT1GLQAnqCo5xGS2FSKehlaACMoam80QtGWspZBC2AZZd2GUHxEWceioeUp+hhlzUEIyuVQWF1oeapLYZklkb++lNYNWp66UVoP5G8Lpc2ElqeZlLYB+WpIcbug5WkXxV2L/EyivArQ8lCB8l5HPhLSKa8DtDx0oLyDsQiuI20wB1oe5tAG9yC4ZbTBySRol0g6SRssRFB/yqUdHoB2iQdoh5zyCGYIbbEI2iUW0Rb9EIRnJ22RXRLaRUpm0xZbEcRNtMnj0C7yOG3yVwT2Fm2yHNpFltMmExFQVCpt8iW0i3xJm+xFQI1pkx2loF2k9E7apAECGUl7HK4J7RK1jtAewxDIFtoiuym0PDTPoS2+RwDVaY9HoeWpK+1RGXnrRVuMghbA67RFd+RtOe0w3wMtgKhFtMNS5KlYNm3wQyFoASVtoQ2yiiAvXtrg1FXQgqibRRvci7zMog2ehhZUf9pgOvIQc5jyPvVACyrqK8pLi8albqa8tIrQ8lElnfKa4FJjKO9eaPl6kPJew6V+obh/QgvB+xS3HZdIprhdRaGFoMReiquFi/WhuBbQQnInxfXBxeZT2mJoIVpOafNxsRQKy0mGFqI6uRSWgovUoLSJ0EL2FqXVwIU6U1h6aWghK59BYZ1xoakU1heaAYMpbCoutJWydsZBMyBxD2VtxQVK+imrHTRDHqAsf0mcrw1lbYBmjGcTZbXB+UZS1oPQDHqUskbifCspan8sNIMSUilqJc4Td4qiBkMz7AWKOhWHcxpR1KnS0Awrl0lRjXBOX4qaCs2EtymqL875F0XVhmbCNRT1L5yTSkmfQjNlGSWl4n9qUFQbaKbcQVE1cFZbSjocC82U2MOU1BZnDaSkd6CZ9A4lDcRZMyipNTSTWlPSDJy1noLS46CZFJdOQevxX57jFDQDmmkzKOi4B2dUoaS7oJl2FyVVwRmtKOhYAjTTEo5RUCuc8SwFzYZmwWwKehZnvElBXmgWeCnoTZyxmoIqQ7OgMgWtxhlHKOd3aJb8TjlH8IcKFPQ+NEvep6AKOK0pBfWGZklvCmqK03pQUENoljSkoB44bSLlnIqFZknsKcqZiNO+oJyV0CxaSTlf4LTdlDMKmkWjKGc3TsuinHbQLGpHOVn4j1IUdC00i+pQUCkAtSmoCDSLilJQbQDNKecgNMvSKKc5gE6UswaaZRsopxOAfpTzHjTL5lFOPwBjKGcENMtepZwxAGZTzmPQLOtGObMBfEE5zaBZdjvlfAFgG+VUg2ZZMuVsA5BOOYWhWVaSctKBRMrxe6BZFk9BiahGOSehKZBDOdXQmHIOQlMgnXIaox3l/AZNgX2U0w7dKWcrNAV+ppzuGEQ566Ap8B3lDMJLlPMVNAVWUs5LeJVylkBT4GPKeRXjKWceNAXmUc54TKWcedAUmEc5UzGDchZBU2AR5czAXMpZDk2B5ZQzFwspZxU0BVZRzkIso5wN0BTYQDnLsIJytkBTYAvlrMBaytkJTYGdlLMWP1LOPmgK7KOcH7Gdcg5DUyCNcrZjD+WchKbACcrZg1TKyYWmQC7lpOIYBcVBsyyOgo4hm4KKQrOsKAVlI5eCykGzrBwF5eI4BV0DzbKrKSgDBymoBTTLbqWgVOymoC7QLOtMQb9hGwUNhGbZAAraiu8paBw0y8ZR0AasoqB50CybS0Er8RkFrYJm2dcUtBQLKehXaJb9SkELMIeCTkGz7BQFzcY0SioBzaLilPQmJlHSVdAsuoqSxmMMJTWHZlEzShqF4ZTUGZpFD1HS8xhESa9As2gkJfVHH0paDM2iRZTUA10p6XdoFv1GSY+gM0UVh2ZJUYry4j6KuhGaJY0p6i7cQVHdoFnyJEXdimYUNQmaJRMo6npcS1FfQ7PkK4q6EiUoKh2aJWkUVQjIoKg/QbPgMoo6BGArRbWGZkFLivoewCcU9TdoFvSjqI8ATKWopdAs+IiiJgIYSlEn46GZFnOMogYA6EJZTaGZ1piyHgDQjLJGQDNtCGU1AXAFZa2FZtpXlFUNQCJl5ZaAZlLhLIryx+E/UimrHTSTbqOsAzhtA2VNgmbSa5S1FqctoKxfoJn0A2V9gNPGUVhVaKaU8VPWWJzWj8Ieg2ZKBwp7Fqd1oLDF0EyZSWH34bTGFJZTBpoJhY5TWCOcVpnSukMz4X5Kq4TTon0UthqaCQspzBeNP2yjtGrQDCuVTWHbcMZsShsEzbAnKW02zuhHaVuhGfYVpfXDGc0orh40gyr7Ka0ZzihBca9BM6g/xZXAf+2itL1R0Iz5gdJ24awPKO42aIZcS3Ef4KxBFLcUmiHvUNwgnHU75V0NzYAKWRR3O84qT3lvQTNgBOWVx//sp7jMstBCVvgwxe3HOYso7wVoIetJeYtwzouUl5oALUTROynvRZxzN23wGLQQ3Usb3I1zqtAGWzzQQvMNbVAF50mjDVpDC8kNtEEazreMNtgcDS0UX9MGy3C+UbRDV2ghaE87jML5vLRDSlFo+YrfRTt4cb4atMUr0PL1HG1RAxfYTTtkVoWWj7LHaIfduNBk2uI9aPmYTFtMxoXuoT0aQQvqGh9tcTcuVDSHtvgmClowy2iLnKK4yAraox+0IB6hPVbgYoNoj6x60AKqeZz2+Bsu1oA22ZoILYC472iT+riYJ5U2+T9oAYyhTVI8uMRM2qUNtDzd5qdNZuBSD9IuKeWg5aFcCu3yAC5V1k+7LIZ2Kc8ntIu/DPKwgbYZAe0SI2ibdcjLy7RPV2gX6UX7DEdebqR9fHdAu0BHP+1zA/ISc5T2OdEQ2nlaZtM+6THI03zaKPVyaP/T8DhtNA95e4J2+qU0tP+qdYh2egx5q0JbrSsF7Q81dtNWlRHAVtpqa2Vo//HnVNpqMwIZSnvtqQUNLTJor78hkKp+2utQQxR4HbNpL/+fENBXtFnGrSjg+vhps+UI7BHaLes+FGSeV2m7hxBYkZO0W+6QKBRYRefSdhmFEcQs2u/Tsiig6u+g/aYhmBZ0wP6bUCB1z6QDmiKYqH10gG+QBwVOsbl0wm4PghpFR3xSBgXMn3fSEcMRXG06Y19LFCTRfbPojCuRj/V0yPsVUGA0+oEOWY38PE2nHO0ehQKh5BQ/ndIV+SmdTcesrY/I5+lykI7JLI58fUjn+MYWQYSrvYIOmoP83UMn7X0sBhGs3LgcOqk18heXRkdtv9+DCFVi5Ak66t8xCMFEOmzjnYhESYPT6bDRCEVDOu7bZog0Cc+k0nF1EJKNdN7nzRFJCvX4nc5bg9B0pGk5mVTlh06xiBDlX06jG7RDaGJ20bDto1v/tVbFwvBUavrU60t2+KnA3v7FEQGufjuLrrA9CiHqQYMm18SFqgzcTAUyxlZFmGv+Md3icYQqMZWG/B15qPvqXlrn+/i+eIStis9to2sciEfIhtCIw8hbVNPZflqXNqEBwlHcvYt9dJHnELqSGTTgFAK6bh1V+PGZMggz9cYdoqscLQYDxtCIaxFQ1KMpVMG3ol8thIvYpq/vpNuMghGVsmnAmigEVuz1HKqxffTNMXC9Eh3fTaf7ZFWAIdNoRG8Ec9UyqnL4g343FoJrVWj7yoocutKbMOYqPw04XhVB3b2L6uR8N6lzTQ9cJuH6PnN207Vya8KgD2nEJwiu6FyqdeSTYa1KwiWueHDCumy62nwY1YiGTI5CcL2zqdz26d0blYaToqveNnTJIbrfX2HYChoyNw7BNf6dIo5umDPi0ZsqeWCr+Fqte41b8nM2w8OXMK41jVmWhODKrKSgU1s+HNOt5eUxEJZUt91zUz7fncuw0grGeX6kMWtLI7hCyyguZ20xCGpygOFoI8x4kAbtaYLgEhZR2slGEPWEn2HoAZgR8xsNyh1ZCEHFzqMsXxsIe9zPsPNbDEx5kobtezgKwUS/T1GPQNyjfoabJ2FO9CYat/EGBBO/ioIGwQa9GGY2RcOkFjQhpy+CKbOLYibAFu8xvLSAaYtpxrwiCKL2UQqZGwVbJP3EcLIY5iXn0Ixt1RDEbT6K2F8UNql9nOEjJxkWjKcpe2ogiKEU8QBs8yDDx3hYUeoITdlXC4HFfE8BX8FGixkujpSCJc/QnH9fjcDqZFO5nGtgoyuyGCaegTWxv9Cc/ZchsBeo3FjYaiTDwy+xsKgtTfquEAKK3UjF/l0Utiq8l2GhLSz7nCbN9yCgBj6q1Qk268hw8Dmsq5tLk0YgsNep1Newm2cb3S+3LhR4i2a1Q0BJe6jS3bBdd7rfW1ChfAZNOlQBAd1JhQ7GwnZJ6XS7jPJQYhDN+hiBzac64+CAMXS7QVAjYTfN6oaALjtGZerDAdVz6W67E6DI/TTrRE0E1J2qbIIjFtPd7ocqnm9o1toYBDSHivSFIx6mq33jgTK1M2nWMARUeDOV8JWHI8rm0sUya0Oh/jTL91cEVOMIVVgMh6ymi/WHSlGradb2wgiotZ8KtIdDBtC9VkdBqStP0qxRCGworctNgkNq07VOXgnFetGsk5chIM9MWrYFjvmVbtULqnm+pFlTEFj0TFo1HY6ZTpf60gPlqmXQpJwrEVj0TFr0NBzTk+6UUQ0CutKsOQgieiataQzHNKI7dYWIT2mSvwGCiJ5JK3yF4JjEHLrRp5BROZ0mfYpgokf4ad4mOOgHulB6ZQh5mGY1RVCtD9O0d+CgN+lCD0PMIpq0EsFVXUezesBB3eg+iyCnQhpNaoDg4ifRpOvgoNZ0nbQKENSRJk1Hfm7fRjPWJcJB19J1OkLUBzQnqzzyE9v7CA069kY9OKok3eYDyCqTSnOGIX+lJ/lowPrHk+C0E3SX1DIQdg/NSYlHCK56I4Oh2Tq2AVzgZ7rLPRA3luZ0RkiKdt/C/KTM6nIZ3OEzuspYyItZQVO+R6humrjZzwCOfTenX10PXGMa3WRFDGxQbh9NuQGhK33PP9buzeRZuRkpu76b8/LDN5SHy4yji+wrB1s0yqIZ78KoItX+0rjulZVKJsC1RtE9shrBJk/RjOzyiDzD6B5PwTbTaMZQRJ6BdI1psE/CBpqwLwYR5xm6xYYE2KjKIZrQHhHnKbrEoSqw1a25NG5LLCJNF7pD7q2w2UCa0A+R5n66w0DYzTOfxh2vjAjjpSvM98B2RbbRuHmIMF66wbYicEDyMRp3GyKLly5wLBmOaEfjdpZARPHSBdrBIa/QuM9iEEm8dN4rcEr0Mhr3BiKJl45bFg3HFPuexj2NCOKl074vBgeV20HDfLchcnjpsB3l4KjqB2jYsVsQMbx01oHqcFiddBqW1RGRwktHpdeB45qcomH+5xAhvHTSqSZwgTt9NG5iFCKClw7y3QlXeJgmLCyNSOClgx6GS/SnCSl3IwJ46Zz+cI3XaMbMEgh7XjrmNbiHZxrN2N8a4c5Lp0zzwEViFtKUxfUQ3rx0yMIYuEriSprin1ML4cxLZ6xMhMsU/5Hm+KZdjvDlpSN+LA7XqfArTfIvf7AQwpSXTvi1Alyoxn6adnRKI4QlLx2wrwZcqfpOWrB/Ts+6UQg3XtpvZzW4VIXNtCZ9yctdbiiHUJW+5empjeEoL223qQJcq+QaKnDsu/eHd7m+LAJLSm7x2OhPD/A/7oGjvLTbtyXhYknLqcyxnd998eH08cP7P+lt1bRlm3s6dHqka89nh7yx+McjPKcdHOWlzT5LgqvFL6C92sNRXtprfjxcLmY6bXUfHOWlrd6Jhut5xtNOXjjKSzu97kE4eIk26ghHeWmjoQgTfWifB+AoL23j74mw8YiPdukER3lpl5xOCCP3ZtEmD8FRXtok8y6ElZYnaI8ucJSX9si4BWGm8RHa4hE4yktbHPoLws5V22mHR+EoL+2w5QqEoWILaYPH4SgvbfBBEsKSZ5if4p6Eo7wUlzvIg3B151FK6wpHeSntSCuEsZo/UVg3OMpLYZtqIKwV+RdldYejvJQ1NwlhzjM4l5J6wlFeSsodgAhw+xEK6gVHeSnocEtEhBqbKKc3HOWlnB+rI0IUnkMxfeAoL8W8XxiR47lcCukLR3kpxNcPEeXWNMroB0d5KSPtVkSYqiso4jk4yksRX1VFxInqfZICBsBRXgo42cuDSHTlaqr3NzjKS/VWXYEIFd0/k6oNhqO8VO1U3yhErqvWUbEhcJSXiq2phYgWMzibSj0PR3mpVOaAaES6Oj9QpWFwlJcqra+NAiD2xRyq8xIc5aU62UNiUDA02ExlXoajvFTm+zooMOJf8VGRkXCUl4rkDItFQXLdNqrxdzjKSzU21UcBk/j8CarwGhzlpQpHB8Sh4Kn4Ti6tGwNHeWmd742yKJjqfUHLxsJRXlq29GoUXHf9TIvGw1FeWrS1FQq02F5ptGQiHOWlJQe7xaCgKzEmmxZMgqO8tCDr1WLQgBrzad5kOMpL8+ZVh3ZGk/U0ayoc5aVZ626A9j+eh/bSnLfhKC/N+b2TB9r5Cg3NoBnT4CgvzcgYkgjtYiUGpdC46XCUl8alDCoBLS8JT+2gUTPhKC+N2tE1AVog0fdtoDGz4agONGZ9+yhoQTVfRiMmw1GtaMTSZtDyV/99H0P2AhxVlyHzvVsXWmgun3SKIXocjirDEJ2cUA1a6MoOP8yQ1ISzfmYo0oaVhmZMUp/fmb+f4LDRzN/uXoWhGRd73xIf8zEEDmvIfOQsbBcDzaQK/bYwmH2F4bQFDGbTs+WgWfLnCWkM6CE47qpsBnJoXH1o1sW1W5jDPI2DC3RhnnI+uicOmiLl+vzIS82JghsM46U2PlMWmlL1/3GQF8jsFwV36JTOCxwcWw+aerFtF2TzrIx5V8E1/jQznWdlL2gbC01ImTu7jZz50YwJL90eD1eJbfHi+BkfzRzZ7c4y0DRN0zRN0zRNc7H/B5My2wke0lCHAAAAAElFTkSuQmCC;" vertex="1" parent="1">
          <mxGeometry x="360" y="300" width="10" height="10" as="geometry" />
        </mxCell>
        <mxCell id="iLgsF8AlWTpj_OLjQBRI-22" value="" style="shape=image;verticalLabelPosition=bottom;labelBackgroundColor=default;verticalAlign=top;aspect=fixed;imageAspect=0;image=data:image/png,iVBORw0KGgoAAAANSUhEUgAACgAAAAOjCAYAAAB3RF1LAAAABGdBTUEAALGPC/xhBQAAACBjSFJNAAB6JgAAgIQAAPoAAACA6AAAdTAAAOpgAAA6mAAAF3CculE8AAAABmJLR0QA/wD/AP+gvaeTAACAAElEQVR42uzdd5jld133/9fnzJZTZnbK7iYQQgsgiNIFgYSWTHZBihSxgu3+iQVE9EZR7A1BuSkCdgWslFtR8E4ogVBVLFhAESsi0pLdmd2dc87s7sz5/P5IkBCT7OzuzJ4yj8d1cV0k05/fc74l532+n6kAAACMsf37M90qzYc2d+18WnvXzufv3rnrU6snT35EGQAAAAAAACbdDgkAAIBxcmHS6s607pdBLq4pi2u9+rAkO5OkJimpj0zyRqUAAAAAAACYdAYAAQCAUTc1227fu1HqYk1Z7KZekkGaSVJS/+dnlzxSMgAAAAAAALaDIgEAADBqZpvNi6YajcVa6mKSy5PMnc7XD3YM7nzkyPF/VRIAAAAAAIBJ5g6AAADA0N1o4O8RSfbVm7q73wY11qcOJvkFZQEAAAAAAJhkBgABAIBzbn+nc6v1MnhITV1MLQeT3P5sBv7+p3ogBgABAAAAAACYcJYABgAAttzMzMy+HevrD0qpF5dksSb33eLrkWNL3f7eJCfVBwAAAAAAYFIZAAQAADbd+UlnrdN80CBl8fqBv/skaZzTX6JRH7p0bPU9tgYAAAAAAACTyhLAAADAplxbzLbb92qUulhTFk+kPjTJriSburDv6Si1cSCJAUAAAAAAAAAmljsAAgAAZ2Jqtt2+92cH/krqxUlao/QL1uQvlrv9B9hUAAAAAAAATCoDgAAAwIbMNpsXTTUai7XUxSSLSeZH/FcenCxTt1pZWbnG1gMAAAAAAGASWQIYAAC4SbPN5kVlKpeUkotTy6OT3KYObUHfM9LYlfVLk7zW1gQAAAAAAGASGQAEAACSJOd1OuevlcFDa+piajmQ5A5JMl4zf59vcN3fYQAQAAAAAACAiWQAEAAAtql9+zJT+80vHaQslmTxZAb3TU1JysT8jSX1YK77g6otDgAAAAAAwKQpEgAAwPZwQdI+3mk++LMDfzW5T5LGxF/0lKkvPryy8vceAQAAAAAAAEwadwAEAIAJPt+fbbfv1Sh1saYs9lMfkmR3ss1uh1fXDyQxAAgAAAAAAMDEcQdAAACYHFOz7fa9S6mXlOTipBxM6h5Z6puXuquP0gEAAAAAAIBJYwAQAADG2GyzedFUo7FYS11MclmSBVX+h36n29/78aQvBQAAAAAAAJPEACAAAIyRfe32BYNGvbimLqaWRyW5rSobufAZHDjcPf42JQAAAAAAAJgkOyQAAIDRNT09fd6urD+spi4mZXG91otSE+/lOT01jQNJDAACAAAAAAAwUbxqCAAAI2T//kwPes0HDlIWS7JYk/s6b98Uf7fU7d9LBgAAAAAAACaJFxIBAGCILkjaxzvNB9fSuGRQc3FJfViSncpsujpVy4XX9nqfkAIAAAAAAIBJYQlgAAA4x+fgs+32vRqlLtaUxX7qQ5LsTq3enbO1yloZXJ7k1VIAAAAAAAAwKQwAAgDA1mosTE9/YQaDi2upi0kOJHU2SUqqOudQSTkQA4AAAAAAAABMEAOAAACwyWabzYumGo3F6wf+Lq11fa/b+42EA0kaSQZSAAAAAAAAMAm8DAkAAGdpX7t960GjXlJTF1PLI5PcTpXRNKjlfkd6vQ8oAQAAAAAAwCRwB0AAADhN09PT+3dl/eGpuSTJxeup97tuNV/vrxl1jTI4mMQAIAAAAAAAABPBK5QAAHAK+/dnetBrPnCQsliSxZrc17n02HrnUrf/CBkAAAAAAACYBF60BACAG7kwaXVnWvfLIBfXlMWS+rAkO5WZCCd2tPt7r7kmK1IAAAAAAAAw7gwAAgBAMjXbbt+7Ueri9QN/lyRpyjKhannsUq/3x0IAAAAAAAAw7nZIAADAdjTbbF401Wgs1lIXk1ye1LkkKaniTLx6IIkBQAAAAAAAAMaeAUAAALaFGw38PSLJvmrYb1uqJQdVAAAAAAAAYBJYAhgAgIm0v9O51XoZPKSmLqaWg0lurwqfNVivFx1ZXf13JQAAAAAAABhn7gAIAMBEmJmZ2bdjff1BKfXikiyuZXDf1BTveeGmTDUalyf5FSUAAAAAAAAYZwYAAQAYS+cnnbVO80GDlMWSLNbB2n1S0khiYV9OaZB6IAYAAQAAAAAAGHNuhwIAwLjYMdtu36tR6mJNWSypD02ySxbO0PJSt78/yZoUAAAAAAAAjCsDgAAAjKqp2Xb73jcY+Ls4SUsWNu1iaJCLD/f7f6IEAAAAAAAA48oSwAAAjIzZZvOiqUZjsZa6mGQxqfNJUizqy1aYKgeSGAAEAAAAAABgbLkDIAAAQzPbbF5UpnJJKbk4tTw6yW1U4RxeDf3p0kr/wUIAAAAAAAAwrgwAAgBwzpzX6Zy/VgYPramLqeVAkjuowhCtr0/tPO/o0aOHpQAAAAAAAGAcWQIYAIAts29fZmq/+aWDlMWSLJ7M4L6pKd6HwoiY2jE4eWmS/ysFAAAAAAAA48gAIAAAm+aCpH2803zwZwf+1vu5T5JGklR5GEE19UAMAAIAAAAAADCmDAACAHBW55Oz7fa9GqUu1pTFfupDkuxODPwxJmp5lAgAAAAAAACMK2uvAQBwOqZm2+17l1IvKcnFSTmY1D2yMNYP6sbgbtceO/4RJQAAAAAAABg37gAIAMAtmm02L5pqNBZrqYtJLkvqwuc+6j5/jL+12jiYxAAgAAAAAAAAY8cAIAAAn2dfu33BoFEvrqmL1y+Pettq0I8JVmoOJPl5JQAAAAAAABg3lgAGANjmpqenz9uV9YfV1MWkLKbmIlXYZrpL3f7eJMelAAAAAAAAYJwYAAQA2Gb278/0oNd84CBlsSSLNbmv80K2u1rqpcsrq1crAQAAAAAAwDixBDAAwIS7IGkf7zQfXEvjkkHNxWu9+rAkO5NY2BeuV2o5kMQAIAAAAAAAAGPFnV4AACbPjtl2+16NUhdrymJJfUiS3bLALfrrpW7/vjIAAAAAAAAwTgwAAgCMv8bC9PQXZjC4uJa6mORAkllZ4LTUHWlccE23+ykpAAAAAAAAGBeWAAYAGEOzzeZFU43G4vUDf5fWur7XWzvgrJS1rF+W5HekAAAAAAAAYFwYAAQAGAP72u1bDxr1kpq6mFoemeR2NVUY2FSNAzEACAAAAAAAwBgxAAgAMIKmp6f378r6w1NzSZKL11Pvd928n9v8wdapB65/kpmuBQAAAAAAYCx4BRkAYAScn3TWOs0HDVIWS7JYk/s6V4Nzr6Zx7+Vu92+VAAAAAAAAYBy4AyAAwBBcmLS6M637ZZCLa8riidSHJtmVuPUYDFPJ4GASA4AAAAAAAACMBXeVAQA4N6Zm2+17N0pdrCmLJfWSJE1ZYOQukN5+uNtfVAIAAAAAAIBxYAAQAGCLzDabF001Gou11MUklyeZUwVG3old3f7Cp5OuFAAAAAAAAIw6A4AAAJvkBgN/lyS5LMkFqsAYquXLlnq9K4UAAAAAAABg1O2QAADgzOzvdG61XgYPqamLqeVgktvXVGFgzJVSDyQxAAgAAAAAAMDIMwAIALBBMzMz+3asrz8opV5cksW1DO6bmuKmyjBZaspBFQAAAAAAABgHXq0GALgZ5yedtU7zQYOUxZIs1uQ+SRrKwDYwyO2X+v2PCQEAAAAAAMAocwdAAIAbnBvNttv3apS6WFMWT6Q+NMmuJBb2hW2mlHp5kl9XAgAAAAAAgFFmABAA2M6mZtvte3924K+kXpzUVpIUI3+wrdVSDsQAIAAAAAAAACPOEsAAwLYy22xeNNVoLNZSF5MsJplXBbgJS0vd/v4k61IAAAAAAAAwqgwAAgATbbbZvKhM5ZJScnFqeXSS26gCbERjkAce6vffrwQAAAAAAACjyhLAAMBEOa/TOX+tDB5aUxdTy4Ekd0gSK/oCp2u91ANJDAACAAAAAAAwstwBEAAYa/v2Zab2m186SFksyWJN7uscB9gUNe9d6vUfIgQAAAAAAACjyovjAMBYuSBpH+80H3yDgb/7JGkoA2yBtexq7ltaWjoiBQAAAAAAAKPIEsAAwMifr8y22/dqlLpYUxb7qQ9Jsjuxqi+w9fufurp6aZI3SAEAAAAAAMAoMgAIAIyaqdl2+96l1EtKcnFSDiZ1T5IUI3/AOVam6oEYAAQAAAAAAGBEGQAEAIZuttm8aKrRWKylLia5LKkLn/uooT9giGp5pAgAAAAAAACMqiIBAHCu7Wu3Lxg06sU1dTG1PCrJbVUBRtX61OAuR48e/xclAAAAAAAAGDXuAAgAbLnp6enzdmX9YTV1MSmL67VedN2N/bwXARh9U4Opg0kMAAIAAAAAADByDAACAJtu//5MD3rNBw5SFkuyWOv6fWtSDPwB46keSPIKHQAAAAAAABg1XoUHAM7aBUn7eKf54FoalwxqLi6pD0uyUxlgQhxb6vb3JjkpBQAAAAAAAKPEACAAcCZ2zLbb92qUulhTFkvqQ5LslgWYVLXUhy2vrL5bCQAAAAAAAEaJJYABgI1oLExPf2EGg4trqYtJDiR1NklKqjrAxCtpHEhiABAAAAAAAICR4g6AAMBNmm02L5pqNBavH/i7NMleVYBtfOH0l4e7/fsrAQAAAAAAwCgxAAgAJEn2tdu3HjTqJTV1MbU8MsntVAH4b4OTZepWKysr10gBAAAAAADAqLAEMABsU9PT0/t3Zf3hqbkkycXrqfe7bjVf7w8AuAmNnVm/LMlrpAAAAAAAAGBUGAAEgG3i/KSz1mk+aJCyWJLFWtfvW037AWxYqeVADAACAAAAAAAwQgwAAsCEujBpdWda98sgF9eUxROpD02yK8l1N/oD4LTU1AO5bnDabhQAAAAAAICR4K4/ADA5pmbb7Xs3Sl2sKYsl9ZIkTVkANvMKauoeSysrHxICAAAAAACAUeAOgAAwxmabzYumGo3FWupiksuTOpckxc2pALZEqesHkhgABAAAAAAAYCS4AyAAjJEbDPxdkuSyJBeoAnAu1bcsdVcfqQMAAAAAAACjwAAgAIyw/Z3OrdbL4CE1dTG1HExye1UAhmq10+0vfDzpSwEAAAAAAMCwGQAEgBEyMzOzb8f6+oNS6sUlWazJfR2vAUbtImpw8HD3+FuVAAAAAAAAYNh2SAAAw3N+0lnrNB80SFksyWIdrN0nJY0kqfIAjKRBGgeSGAAEAAAAAABg6AwAAsA5PvbOttv3apS6WFMWT6Q+NMmuxMAfwLgoyQEVAAAAAAAAGAWWFASArTU1227f+7MDfyX14iQtWQDG/EJqkNse7vc/rgQAAAAAAADD5A6AALDJZpvNi6YajcVa6mKSxaTOJ0lxjz+AiTFo1MUkr1ICAAAAAACAYTIACABnabbZvKhM5ZJScnFqeXSS21TDfgATraQciAFAAAAAAAAAhswAIACcpvM6nfPXyuChNXUxtVye5I5JYuYPYFu5PEkjyUAKAAAAAAAAhqVIAAC3bN++zNR+80sHKYslWazJfR1DARjU8iVHer2/UgIAAAAAAIBhcQdAALiRC5L28U7zwZ8d+Fvv5z657i5PbvIHwH9rZHAwiQFAAAAAAAAAhsbdiwAg2THbbt+rUepiTVksqQ9JslsWAE7hXUvd/sNlAAAAAAAAYFgMAAKwHU3Nttv3LqVeUpKLk3IwqXtkAeA0nSy7+/sOH85RKQAAAAAAABgGSwADsK3sbbVuM2jkb5K673P/1sK+AJyRnYPV9sOT3hulAAAAAAAAYBgaEgCwnQwa+bkk+5QAYDOU1MtVAAAAAAAAYFgMAAKwbSy0Wg9O8tVKALBZSslBFQAAAAAAABgWA4AAbJ9jXiMvTVKkAGCz1OQus83mRUoAAAAAAAAwDAYAAdgW5tvtb6nJlygBwKZfVDUalgEGAAAAAABgKAwAAjDxZmdn51PqTyoBwFYoqQdUAAAAAAAAYBgMAAIw8abWTvxYkv1KALAVaimLSXYqAQAAAAAAwLlmABCAibYwvevuNfl2JQDYOnXP/EzrAToAAAAAAABwrhkABGCi1dp4UdyVCYAtVmqxDDAAAAAAAADnnAFAACbWwnTrSUk5qAQAW62mGgAEAAAAAADgnCsSADCJ7pA0j3Ra/5DkjmoAcA6sr0/tPO/o0aOHpQAAAAAAAOBccQdAACbScrv5fTH8B8C5M7VjcPIyGQAAAAAAADiXDAACMHEWWq0LSynfpwQA59LAMsAAAAAAAACcYwYAAZg4tZEXJukoAcC5VGp5pAoAAAAAAACcS0UCACbJ/Ezr4gzyHsc4AIahUdbvfmjlxIeVAAAAAAAA4FxwB0AAJslUBnlFDP8BMCTrdcoywAAAAAAAAJwzBgABmBjz0+2nJbmXEgAMS0k1AAgAAAAAAMA54w5JAEyE2dnZ+cbaiX9Ksk8NAIaot9TtLyQ5LgUAAAAAAABbzR0AAZiMA9rJEz8Zw38ADF97ttO8RAYAAAAAAADOBQOAAIy9henpL0rJtyoBwGhcZBXLAAMAAAAAAHBOGAAEYOwN6uDFSXYoAcCIMAAIAAAAAADAOWEAEICxtjDdenJJvVwJAEbIvfa127eWAQAAAAAAgK1mABCAsXVh0qo1P6sEACOmrJXBogwAAAAAAABsNQOAAIyt3nT7OUnuoAQAo6akWAYYAAAAAACALVckAGAcLbRat62NfDhJRw0ARk1NPr3c7d/6uv8LAAAAAAAAW8MdAAEYS7WR/xPDfwCMqJKcP9fp3EsJAAAAAAAAtpIBQADGzvxM65IkX6EEAKOsZHBQBQAAAAAAALaSAUAAxs1UBnl5LGMPwIgryQEVAAAAAAAA2EoGAAEYK/PT7W9LYklFAEZeTS7Zvz/TSgAAAAAAALBVDAACMDb27NmzkFp/TAkAxsSutW77oTIAAAAAAACwVQwAAjA2ptZO/lSSfUoAMC5KqZYBBgAAAAAAYMsYAARgLCxMT39RSr5FCQDGSU0OqgAAAAAAAMBWMQAIwFiodf3lSXYoAcCYudt8q3U7GQAAAAAAANgKBgABGHkL062vSvJwJQAYR6UUywADAAAAAACwJQwAAjDSLkxateYFSgAwrmqpBgABAAAAAADYEgYAARhpven29ye5vRIAjLHFJFMyAAAAAAAAsNmKBACMqoVW67a1kX9M0lYDgLG+8BrkQYf7/T9TAgAAAAAAgM3kDoAAjKxByYtj+A+AiTimWQYYAAAAAACAzWcAEICRNDvdvLSUPEkJACZBSTEACAAAAAAAwKYzAAjAKNrRqOUlMgA34RNJfjcpH5aCsVLypXNzc3NCAAAAAAAAsJkMAAIwcuamW9+e5B5KADX5dJLX1+RZg1q+ZKnbv7CUqecl9c7qMGZ2ZO34pTIAAAAAAACwmXZIAMAo2bNnz0JZP/mjSsD2VJLP1ORdNXlfreW9R3q9DySpN/ycWtdflmSnWozf47seSPIHSgAAAAAAALBZDAACMFKmBieel5S9SsD2sJGBvxua77S+JskjlGMs1XJQBAAAAAAAADZTkQCAUTHX6dy7ZPCXSabUgIk9+fxMTf48yXsHtVx1qoG/G9q/P9NrvdY/JrmNkoyr9anBFxw9evyflQAAAAAAAGAzuAMgACOjZPCSGP6DCXten/nA342t9Vo/HMN/jLmpQeNgEgOAAAAAAAAAbAp3AARgJFy/rOfvKgFj75ok788mDPzd0J49u+8ytd74YJLdEjPm3rTU7T9OBgAAAAAAADaDOwACMHQXJq1u8jNKwFjakoG/G5taLy+N4T8mw6XXP5aPSwEAAAAAAMDZMgAIwND1ptvPTa23VwLGwo0H/v46yWArf+DcdOuJqXmU9EyIztx084HLK6vvkgIAAAAAAICzZQAQgKGabTbvWGt9thIwso7VlPeX1KvO1cDfDV2YtLo1L7QZmCQljQNJDAACAAAAAABw1gwAAjBUUzvK/6k1TSVgZAx14O/GetPtH0itd7RZmCSl1oNJflAJAAAAAAAAzlaRAIBhme00L2ukXKUEDNVIDfx93j6i2byoMVX+PjEkzMQZnCxTt15ZWfmMFAAAAAAAAJwNdwAEYGjHoEbKi2WAc25kB/5urDFVXhLDf0ymxs66flmS35MCAAAAAACAs2EAEIChmOu0npHkHkrAlhubgb8bWujsPlCTx9p8TKqSciAGAAEAAAAAADhLlgAG4JybmZnZu2Ow9k9JFtSATVazUkv5s3Eb+LuRXXOd1gdL8gU2KBPsU0vd/gVJqhQAAAAAAACcKXcABODcH3zqyZ9JiuE/2Aw3GPhLI+9bOtZ/f5KT4/wnzbWb32f4j23gVvOdzhcvdbsflAIAAAAAAIAzZQAQgHNqrt2+T2r9ZiXgDE3gwN8NLbRat60l329Dsx2UDA4kMQAIAAAAAADAGTMACMC5VEqpL0kyJQVs0IQP/N3YoORFJenY8GyPp3c5kOT/KAEAAAAAAMCZKhIAcK7Md5pfl5TfVgJuwTYb+Luh2U7zskbKVR4EbCOrrW5/7yeSnhQAAAAAAACcCQOAAJwTFyTtfqf14SS3UwM+T7em/Ol2HPi7kR3zndYHktzDQ4LtdUHWeOThbvctSgAAAAAAAHAmLAEMwDnR77R/KKmG/+D6gb9GyftKHbz3UHf13UlObPcoC53Ws6rhP7ahQQYHkhgABAAAAAAA4Iy4AyAAW2622byoMVX+PklTDbYhA3+nsL/TudVaBv+YZFYNtp/6oaXuquFXAAAAAAAAzog7AAKw5Ro7yotTDf+xbRj4O01rGbwwhv/YtsoXL7Ratz3c7/+nFgAAAAAAAJwuA4AAbKm9nebioOZxSjDBDPydhfmZ1sUZ5GuVYDsbNOpiklcqAQAAAAAAwOkyAAjAlh5nBsmLZWDC9GrKnxj42xRTGeQVSYoUbGcl5UAMAAIAAAAAAHAGDAACsGUWOq1n1uSLlWDM3Xjg7z1Jjsty9uamW9+RmnspAbk8SSPJQAoAAAAAAABOh7utALAlpqenz9tZ1z+SZE4NxkwvNX+dkvc2Uq8y8Lel+4h/TDKvBiSDWu5/pNf7SyUAAAAAAAA4He4ACMDWHGDq4Hkx/Md4MPA3nH3Ez8TwH/y3RgYHkxgABAAAAAAA4LS4AyAAm2623b5vo9S/yHXLGcKoMfA3/H3ElzRKfb99BHyedy91+w+TAQAAAAAAgNNhABCATT+2zHda70ryECkYEf3UfMDA38hozHVaf1qSB0gBn2ctu5r7lpaWjkgBAAAAAADARlkCGIBNNd9pfl0M/zFc/ZL86aDWd5apvHPp2Or7k5yQZTQstNv/q6Ya/oObuDarx48/PMkfSQEAAACbZ2669Z2p5XFKbK2SfGKp2/sGJU7ffKf1vTXlgBJb/Bgtg39fWll9mhIATCIDgABsmv37M73WKy9QgnNsrSR/W5OrGqlXzXRX3/vRZFWW0TM7Oztf1078tBJw00rqgRgABAAAgM293h7kril1UYktVvOvIpzhYzTl7onH6NY/RssHRQBgUhkABGDTrPVaP5TkAiXY6ofaLQ38HdJnZDVOnvjplOxXAm6Wd3oDAAAAAABwWgwAArApZmd33ylreZYSbAEDfxNgrt2+T0q1vALckpI7z87uvtORI8e9Yx4AAAAAAIANMQAIwKZorDVekmS3EmyCzxv4a3VX3/fxpP/ZDxr4G0ullPqSJFNSwCmOp+tTB5L8ohIAAAAAAABshAFAAM7aQmf35TV5jBKcoVsc+GP8zXWaX5/koUrARlQDgAAAAAAAAGyYAUAAztbOmsbLZOA0GPjbRvbty8x6v/yMErBBNZcl2ZnkpBgAAAAAAACcigFAAM7KQqf1XTW5qxLcgv8e+Est7yvN3rsOH85RWbaHQb/1E0lurQRs2Mz8TOtLl4713ysFAAAAAAAAp2IAEIAzNj09fV6t6z+kBDdyywN/PYG2i4XpXXevNU9XAk5PqeVAEgOAAAAAAAAAnJIBQADO2K46eH5NZpXY9gz8cZNqnXp5rlvKFDgNg1oPJvkRJQAAAAAAADgVA4AAnJHZdvt+NfUblNiWPm/gL7t3v/vw0tKR//6ogT+SzE+3vjo1j1ACTl9J7jczM7P32LFjh9QAAAAAAADglhgABOBMlEajvjw1DSm2hfWS/M3ND/yZ+OPzXZC0+zXPVwLO2NTOunZZktdJAQAAAAAAwC0xAAjAaZvrNL8+NQ9UYmKtl+RvkrwvJe+tO5tvNfDH6eh3Wj+S5PZKwJkb1HIgBgABAAAAAAA4BQOAAJyWffsys94vz1NionzewN9gx+63LS0vL3/uw32F2LA9e3bfOet5lhJwdkrqQRUAAAAAAAA4FQOAAJyW9X7rh5NcoMR4b0YDf2yVqfXy80l2KwFn7cKF6V13P7xy4h+kAAAAAAAA4OYYAARgw66/s9czlRg7Bv44J+ZarSckeZQSsDkGdepAEgOAAAAAAAAA3CwDgABs2NR64yVxZ69xsFaTD5TkXanlnVPt3nuuvTbHPvdhA39svguTVreRFykxVj6W5HYyjK7rlwF+iRIAAAAAAADcHAOAAGzIQmf3gZo8WomRtJ6Uj6QM3ltSrlqf2nXVkSNHlv77oz2B2Hq96fZzUusdlBgbn2rU8hWDUv9cilFWHnZh0vq4yW0AAAAAAABuhgFAADZiV03j52UYGbc88GdOhHNsvtW6Xa31e5UYJ/XZh3r9v5hvt/41JXfSY2S1+p3mxemuXiUFAAAAAAAAN8UAIACnNN9pPSvJXZUYGgN/jLapvCw1bSHGRM37lnqrv3v9P12Z5BmijK5ByoEkBgABAAAAAAC4SQYAAbhF53U655/M4LlKnFODpPzjZwf+1ho733706NHDn/uwgT9Gx0Jn94Fa8zglxsZ6LY2nJ6nX/WO5MqkGAEfbgSTfJwMAAAAAAAA3xQAgALdoLfUFSWaV2FIG/hhXlgcfNzW/sNzr/u1n/7HT613d7bT6SVrijKx77mu3b31tr/dJKQAAAAAAALgxA4AA3KzZdvtLaupTldgCJf+W1KsM/DHO5tvNZ8fy4OPk0NrUjh+/4b/4eNKfT31XUh4pz+geMdbK4PIkvykFAAAAAAAAN2YAEICb0yilviJJQ4pNcIOBv5NlxzuOHTt26HMfNPDH+FlotS6syQ8oMUa7oVq/7/P3PdeppVxZagwAjvQhpByIAUAAAAAAAABuggFAAG7SQrv5jTV5gBJn6BYH/mD81UZelGRaiXHZJeUvD/dWX3WT23Kt/nGZKi9VaaQdzHUD+QMpAAAAAAAAuCEDgAD8D/v2ZWa9X35KidNg4I9tZHa6eWlqnqzE2BiUQZ6emxkeO7K6+m/z7da/pOTOUo3uoXmu3b7Xcq/311IAAAAAAABwQwYAgU21t9X60jTqzP/4wKAcXStl/Ra/eDBYuqUPl2RQd+8+ckufs2vXkZPXXJMVW+LsrPdbP5Lk1krcrJrkQyW5ejDIO9d37Hi3gT+2kZ2N2njZdU8DxkKpv36ov/rnt/gpJVfU5JlijfBmLPVgEgOAAAAAAAAAfB4DgMCmme+0vm+QvCAp//ODjaRxqmGRqXLKn1HWTtzix9fWWpnvnPLbrCbpn+Jzeik5foufUXOsJGun+D7Lg5Rb+sNrSV0+xfdYS6nHbvEzBuV4Snq3+OvW2i+lrN5y4LJSU6dSDYH8j62dfCg176yNvHO97Hj3sWPHrpWF7Wih0/rOmnp3JcbG4bWy87nXHfpuSePKZGDfP9oOJHm+DAAAAAAAANyQAUBgU8x3Ws/J+Lwo3bz+f7f4J23k5lYbuf9V2Yy7ZNVyqh9y6t+jbOCTat3It9oePn9J36sN/EFyXqdz/skMfkSJcdqXlR/ayP5rT7f7ziOdVi9JW7SRdfH+/Zl2p2MAAAAAAABuyAAgcNYWpts/Xms1EMJ4u37gr9a8b2pQ3n6o3/8vUeDznczghUlmlRgbf7200vuVjXziR5PV+dR3JeVRso2sXWvd9sOS3v+TAgAAAAAAgM8yAAiclfnp9k/VWn9QCcbODQb+GoPyjsP9/sdFgVvY38+0Ls4gX6fE2Ki11GclWd/wF5RyZakxADjKh65SDyQxAAgAAAAAAMB/MwAInKmy0Gm9uNb6XVIwHo9YA39wFqYyyMsTq4SPzy6v/ObSSv/dp/M1da3+cZkqP6/e6KrJQRUAAAAAAAC4IQOAwJko8+3Wz9fkGVIwuo/Szxv4u/pwv/+fosCZmZ9ufXtq7q3E2DjWqPmB0/2iI6ur/77Qaf1zTe4i4ci662yzeccjq6v/LgUAAAAAAACJAUDg9E0tdNq/WlO/SQpGioE/2BIzMzN7M1j7MSXGR01+5Npe75Nn+OVXJHF331E+EWs0FpP8qhIAAAAAAAAkBgCB0zM132n/Rk39eikYupJ/S837Si3vTa1XGviDLdrx15PPT8peJcZm5/gPy93eK8786xtXJgMDgCNskHogBgABAAAAAAC4ngFAYKN2zrVbv5vUr5CCobjBwF+t9c1L/f7HRIGtNdtu36/U+s1KjI9aBs9IcvJMv35Pt/uuI51WL0lbzRE9HJYsXn8dt6YGAAAAAAAABgCBjdi1MN16Ta15ghScMwb+YNgajVJfkaQhxdh4zfLK6tVn8w0+mqzOJ1cnebScI2tuodW6/+F+/0+lAAAAAAAAwAAgcCq756dbr6s1j5OCLXWDgb/BYPCW5dXV/xAFhmeh3f5fNfVLlRgbvbpev39z9sflytRqAHCEDUo9kMQAIAAAAAAAAAYAgZt3QdLuddp/mFovV4NNZ+APRtbs7Ox8XTvx00qMlZ/crP3oYG1wRWOqKDrSh9ByIMmPKwEAAAAAAIABQOAmnZ90VjutN5bUS9Vgk3wyyXtLLVcNBoO3Lq+uflQSGE2Nkyd+MiX7lRgTNf+y1Ou/eLO+3ZHV1X+f77Q+kuSu4o6oki/ds2fPwtGjRw+LAQAAAAAAsL0ZAAT+h/n5+dkTx1evSPJgNTgLBv5gHI8Bnc49ksG3KjFOyjOTHN/U75hcWQ0AjrKpHYOTj0jy+1IAAAAAAABsbwYAgc8zNzc3lxOrb07Jl6rBaTLwB+OvJIOXO0ccow1W8obD3d6Vm/+dB1cmjWcpPLpq6oEYAAQAAAAAANj2vLgL/LeZmZl95eTxtyW5txpswEdLytWDDN5ZBuWdS/3+xySB8TbXaT4lyUOVGBv9wVr9nq34xoe7x98132l1k3RkHlG1HBQBAAAAAAAAA4BAkmR6evq8HYO1q5LcQw024DVL3f5Tk6xJAZNh377MrPfL85UYH7XWF2zh3VaPJ7k6yWOUHlm33zez+wuuPXb8n6QAAAAAAADYvhoSAPs7nVvtrGvviOE/Nub3DP/B5Fnrt34syQVKjI2PtXurP7elP6GUK2Ue8edtbbgLIAAAAAAAwDZnABC2uYVW67ZrdfCepHyRGpxKTfmNpW7/KTH8B5N1LJjedfeSfKcSY7Q/ruU7P5H0tvRnrA2uUHq0lZoDKgAAAAAAAGxvBgBhG5trNm9fS65OyZ3V4FRqyq8vd3vfkmSgBkzY87s2XpRkpxLjorx1udd741b/lOuXF/5HvUfaI5LslgEAAAAAAGD7MgAI29Rss3nHMlWuTsmd1OCUSv3V5W7vaTH8BxNnYbr1VUmxjOj4ODHVWH/mufphNXEXwNHWmZtuPkgGAAAAAACA7csAIGxD+2Z237UxVd6T5I5qcEql/srSyuq3xfAfTJwLknateYES47RPLi+89tjxj5yrHzeVeqXoo36YblgGGAAAAAAAYBszAAjbzN7pXV+4PmhcneQ2anBKpf6y4T+YXP1O+4eS3F6JsfHxHa3ez5zLH3iou/ruJMekH2XVHTwBAAAAAAC2MQOAsI3MdTr3HtSpdye5tRqcUqm/tLSy+u1Jqhgwefbs2X3npH6PEmO0Wy75nmuuyco5/rEnUnK1+iPtPtPT0+fJAAAAAAAAsD0ZAIRtYrbdvl/J4Kok+9TgVGryIsN/MNmm1stLk+xWYjyU5B2HV/qvH8oPHxTLAI/4w2NnXV+UAQAAAAAAYHsyAAjbwPxM6+JGyTuS7FWDDXjhcrf/v2WAyTXXbn95Ur5MibGxVtN41rB+eKn1/9kEo65YBhgAAAAAAGCbMgAIE25+pvmQDHJlUveowQb83FK3/70ywOS6MGmVUl+sxPioyUuXut0PDuvnH+73/zMp/2BLjPSj5ECSogMAAAAAAMD2YwAQJtjcdPNhWS9XJJlRgw14wVK3/30ywGTrTbefk+SOSoyHmny67Gr+5PB/j2oZ4NF2q/lO5x4yAAAAAAAAbD8GAGFCzbfbjyq1XJmSaTXYgBcsdfvfLwNM+LGh1bpdrdVdPsdK/d6lpaUjQ/8tDACOgYFlgAEAAAAAALYhA4Awgebb7Uen1D9I0lKDU6m1/pjhP9gmpvLSJG0hxmUHnfctd1d/exR+lSPd1fckOWajjPLDpRxQAQAAAAAAYPsxAAgTZmG69eSU+oYkTTU4lVrrjyz3Vn9cCdgGx4fO7stT83glxsZ6LY1nJKkj8vucSMk7bJbRVVIvucCALwAAAAAAwLZjABAmyPx066trze8m2akGp1Jr/eHl3upPKgHbwq6axstkGKeddH5xudv9m5H6nQbFMsCjrbna6TxUBgAAAAAAgO3FACBMiPlO8+tS81tJdqjBKdX6g8u91Z8SArbNMeJ/J7mrEmPj0NrUjh8btV+q1Pr/bJrRNsjAMsAAAAAAAADbjAFAmAAL7fa3JOU3Y/iPDanPXeqtPk8H2CbHiFbrwtTyXCXGR6nl+48dO3Zo1H6vw/3+x5P6IVtohB87KQdVAAAAAAAA2F4MAMKYm2+3v62W+suez2xArcmzlrqrPyMFbKMnfiMvTMm0EuOhJH91uNf7jRH+DS0DPNrP+LsvtFq31QEAAAAAAGD7MDAEY2yh03p2Sv3FJEUNTqHWku9a7vZfKgVsH/MzzYck+UolxsagDPL0JIORPZiUagBw1JV6uQgAAAAAAADbhwFAGFPzndZzavJzSrABNSXPXF7pv0wK2FZ2ZFBeHkPi46PUXz/U779/lH/F5ZXV9yY5YmON8EG/lAMqAAAAAAAAbB8GAGEMLUy3fyzJ85VgA2pKecbSSv/lUsA2O1Z0Ws9Mck8lxsbSyez4wTH4PU+WknfYXCPtQJIpGQAAAAAAALYHA4AwZham2z9Za/1RJdiAmlKevrTS+wUpYHs5r9M5vyY/osQYKeWHV1ZWrhmL33VQLAM82ub3tlr3kwEAAAAAAGB7MAAI46MsdFovrrX+kBRswKCmfvPSSu8XpYDt52TqzyaZVWJc1A8trfR+eXx+3Xplkmq7ja71Ui0DDAAAAAAAsE0YAITxUObbrZ+vybOkYAPWa+o3L3dXXyUFbD8LrdaDk/pUJcZGrSXPSLI2Lr/w4X7/40k+ZNON8IljKQYAAQAAAAAAtgkDgDAGz9O5TvvXct1wAJzKek39puXu6qulgO15zBg08pIkRYpxUX5reWX1XWP4i1sGeLQ9aH5+3l1AAQAAAAAAtgEDgDDaphY67d8oqd8sBRuwntRvXO6u/pYUsD3NT7e/vST3V2JsHJuq+YFx/MVrqQYAR9uOevz4I2QAAAAAAACYfAYAYXRNzXdar6qp3yAFG7Ce1G9Y6q7+thSwPe3Zs2chtf64EuOjJD92ba/3iXH83ZdXVt+b5IitOMqPr2oZYAAAAAAAgG3AACCMpl0L063XJ3mKFGzAepKnLnVXf0cK2L6mBieen2SvEuOi/MPhbv9lY/wHrNWaq2zHUX6I5ZEiAAAAAAAATD4DgDB6ds9Pt15fa54gBRtwsg7y5KVu//ekgO1rtt2+X2r5X0qMj5LyPUlOjveFhGWAR9wdZ2d330kGAAAAAACAyWYAEEbIBUl7rtN+U2oepwYbcKLW8pXL/f4bpIDtfT7XaNSXO68bK6873O2+ZfwvJBpXJKk25whvo/WpgyoAAAAAAABMth0SwGjYvz/T/V7rTSX14WqwAcdTy1cs93p/LAVsbwvt5jfVmgcqMTa6ZZBnT8Ifcm2v98n5TuvvktzLZh1V9UCSX9ABAACAbX11nPK2krqixBYrOSQCAMBwGACEEbB/f6bXeq03JXm4GmzAdXf+M/wH297s7Ox8XTvxM0qMk/rTh/ur/zlBf9CVMQA4wg+3XJpkZ8Z8uWkAAAA4G8u93h8l+SMlAACYVJaKgyGbm5ubW+u33hbDf2zM8dTypOVe741SAI2TJ34iyX4lxkTNvyx1V180UX9SqVfasCNtZn6m6Q6hAAAAAAAAE8wAIAzR7OzsfE4ef2ss3cjG9EsGj11y5z8gyfz09Ben5NuUGCflu5Icn6S/aHll9U+SLNu2I/yoq40DKgAAAAAAAEwuA4AwJNPT0+c11k68syT3V4MN6DVSH3e4e/xtUgBJSur6y5PskGJsttgfLfV6V0zgX7ZWa66ygUfXoNaDKgAAAAAAAEwuA4AwBOd1OufvrGtvT3JPNdiA3qDUxx7qrhqwAJIk853m1yV5mBJjoz9Yq98zuRcUlgEeZSW53/T0tKXCAQAAAAAAJpQBQDjHFlqt265l8J6kfLEabEC3lvqYIyur75ACSJJ9+zKTlBcoMT5KKT97ZHX13yb3gqJxZZJqS4/uJtqV9UtlAAAAAAAAmEwGAOEcmms2b19Lrq7JXdRgA7q11Mcsr6xeLQXwWWv91o8muUCJsfGx5krvZyf5D7y21/tkkr+1qUfXoJYDKgAAAAAAAEwmA4Bwjsw1m3coU+XqlNxJDU6pZqWW+ujlldV3igF81t7pXV9YkmcqMUa781q+6xNJb+L/0FKusLVHePOkHkxSlAAAAAAAAJg8BgDhHNg3s/uuZaq8N8kd1WADjpSay5dXVt8lBXBDg9p4cZKdSoyHmvK25V7vD7fFH1vqlbb4SLvNwvT03WUAAAAAAACYPAYAYYvtnd71heuDxjuS3EYNNuBIY5CDh/v9P5MCuKGF6daTk3JQibFxYkdj/Tu3yx+7dKz/p0kO2+wjrK5bBhgAAAAAAGACGQCELTTX6dx7UKfeleQCNdiA5cYgBw71+++XArihC5J2rflZJcZJ+T/XHjv+kW30B68nucp2H1011QAgAAAAAADABDIACFtktt2+b8ngqiT71WADlhu1HDjU7/+5FMCN9afbP5jkDkqMjY/vaPeet93+6BrLAI+28rALk5YOAAAAAAAAk8UAIGyB2Xb7Sxqlvi3JXjXYgKVBLZcf6vX+QgrgfxxTZnffKbV+jxLjo5Q8+5prsrLd/u6dmXpzkuoRMLJavc7uS2QAAAAAAACYLAYAYZPNz7QuaZT6jiQLarAB1ySNhx/p9f5SCuAmT9bWGi9N0lRibLzn8Er/ddvygNbtfirJX3sIjK6ahmWAAQAAAAAAJowBQNhEc9PNh2U9VyaZUYNTKclnksZlS93u36kB3ORxpd1+XJJHKzE21pLGM7Kd74JXimWAR5sBQAAAAAAAgAljABA2yUKn88hSy5UpmVaDUynJZ2qZumyp2/2gGsDN2N0o9YUyjI+avGzbD3WXagBwtN1jX7t9gQwAAAAAAACTwwAgbIL5dvvRNYM3JGmpwanU5NMpU5curax8SA3g5sy1m8+pyV2UGJ99e9nV/PHt3mHpWP/PkhzyiBhZZa0MLpcBAAAAAABgchgAhLO0MN36ipT6hiRNNdiATzXK+qWHV1b+Xgrg5sy3WrcrpXyfEuOkft/S0tIRHbKe5CoZRldJsQwwAAAAAADABDEACGdhYbr1VbXm95LsVIMNuH7478Q/SAHckjKVlyTpKDEmav5kubv6W0J8NodlgEfcAdeBAAAAAAAAk8MLP3CG5jutr601v51khxpswH+uTw0ecmjlxIelAG7J3k5zsdY8QYmxMWikPCtJleI6a2XHFUkGSoysfbPt9r1lAAAAAAAAmAwGAOEMLLTb35Lkt2L4j4352GDH4BFHjx7/FymAU9g1SHmZDGOk5pcO9Xp/IcTnrKysXFOSv1ZihC8Cy+CgCgAAAAAAAJPBACCcpvl2+9tqqb/k+cMGfWywXh9x5Mjxf5UCOOUxptP67iR3U2JsHF6b2vGjMtyEUq4QYaQ30AENAAAAAAAAJoMBJjgNC53W/06pv+C5wwb9x2C9PvzI6uq/SQGcyv5O51ZJea4S46PU8v3Hjh27VombsF6vFGGkPXj//kzLAAAAAAAAMP4MMcEGzXdaz6nJC5MUNdiAj9brhv/+XQpgI9YyeHFS9ygxHkryV4d7vV9X4qYd7vf/PMkhJUbWrrVu++EyAAAAAAAAjD8DgLAB853Wc5I8Xwk2oiT/XAZ5yPLq6kfVADZ0nJlpXZLkq5QYG4MM8owkAylu1nqSt8owyqplgAEAAAAAACaAAUA4hYXp9k/E8B8bVJN/KoM84nC//3E1gA3akUFeEXeYHaN9fXnl4X7/z5Q4VSfLAI/09ik5qAIAAAAAAMD4MwAIN68sdFovrrX+sBRs0Ed21PKIQ/3+f0kBbNRcp/WMJPdUYmwsrZXGc2U4tbWy481xl8TRPdFNvmC22byjEgAAAAAAAOPNACDctDLfbr20Js+Sgg36x6laLr221/uEFMBGndfpnF+SH1VinM4Q8iMrKyufEeLUVlZWrqnJXykxuqYajctVAAAAAAAAGG8GAOF/KvPt1stT8p1SsEGG/4Azspb6giRzSoyL+qGllf4v6XAaFxulWAZ4hA1SD6gAAAAAAAAw3gwAwuebWui0X5mS75CCjSkf3pHGI67t9T6pBXA6FlqtB9XUr1dibNRa8owka1KchvVqAHCUz2JKLkuyQwkAAAAAAIDx5cUe+Jyd853Wb9XUr5KCDfqbtcbU5UvHjl0rBXCapmojL09SpBgbv7u8svouGU7P4X7/L+Y7rWuT7FNjJM3Nz7S+dOlY/31SAADAtrBrX7u9b62U/Y2snV9T9teU/aWUfal1R2raadTdSUpqmbv+a1o1pfl536XWI6VkkCQpdem6f1eOJDlUajk0aNTDST1U6tThxmBw+FC//6kk6/IDAABsDQOAcJ1dC9Ot19SaJ0jBBn1grbHjwLFjxw5JAZyu+Xb7W5J6XyXGxrGpWr5XhjOynuQtSb5OitFUajmQxAAgAABMgH37MnOy177LVKPeuQ7qXUpp3KXWeudasr8k5yeZXU9NSU29foGokiS15r//of7P9yqW1Bv/i8+50efXUlPqZz9pkEEjme+0Tib5ryT/kZT/KCUfzWDwH+uNfHR3nfr7z3S7n7b1AAAAzpwBQLa9OyTNI53W62vNY9RgI0ryV+s7dl1+7MiRJTWA0zUzM7M3g7WfVmKs9vs/Yan3s1GvTIoBwFHdOqkHkvyoEgAAMD4uSNr9mdZ9yiAPGKR8cUm9S02+YL2f8xulXjfPV64b80sZieUHdia5w3X/+9zv16jJyQwy32ldW5K/qzV/X1I+lFo/ODXd/+A112TF1gYAADg1A4Bsaxck7SOd9hty3QufsBEfWJvaeeCo4T/gTE++6snnJWVBiXFRPny423upDmdurbHzLTsGa4Pk+ttLMFpq7r9nz56Fo0ePHhYDAABG0tTC9PTdBnXtfo2U+9Wa+/VLviSD7K753N35ynj/jftqcmlKLv3s0OJar7U+3ykfSepflVrem0bjfYdXVv4hufHtCAEAADAAyLZ1ftLpd1pvSuoj1GBDSv4sO5uPPLq0dEQM4EzMttv3S63/nxLjo5HBM5OcVOLMHTt27Nr5TusvknypGiNpasfg5KVJ/q8UAAAwGuY7nXsmg4MlOViTB9a63imfHfUr2ybDVFLvnuTutdSnpq5nvtP6VKn5k5rytjoYvHl5dfWjHi0AAAAGANmmzk86JzqtNyUx/MfG1PxJ2d1/1OHD/aNiAGeoNBr15anugjZGXn+ou3qVDJvw4C/lzbVWA4Aje5pTD8QAIAAADM3+/Zle67YfkcbgManlUcngttedq3Mjt6olT0zqE8tUyfx069+SelVJuarR7L/52mtzTCIAAGA7MgDItjM3Nzd34uTxN8ddaNiomvdOtftf5j8gAWd1/Ok0vzE1D1RibPQyyLNl2BxlvV5RG/lRJUb1XKccFAEAAM6t+Vbrdmnka1Ly+LVe7p9Sp1KLMKd1LZOLkvK0mjxtvd/qz0/nLal53Y52/03XXJMVgQAAgO3CACDbyuzs7HyuG/57gBpsiOE/YBMsLGRPPV5+Wolx2v/X5y31Vz8mxOY41O//5UKn9ZmanKfGSLrd3plddzt07MQ/SgEAAFtnbm5uLidXH5c0nprUS5M03OZv07RS8/gkj1/rtVbnO7mqpr5+Z3v1DwwDAgAAk84SdGwb09PT5zXWTryzGP5j4965q9d/pOE/4Kwdb/1kklsLMSZq/mWpt/pCITbVoCZvlWF0rdepAyoAAMDmu0PSXJhuPXl+uvWH5eTxT5WUV5fUxXh9Zis1kzympLx6rdv65EKn/aqFVuvBsgAAAJPKBSbbwr52+9Y76+DqJPdUg40oyTta3f6jP5101QDOxnync8+afIcSY3UUeFaS4zpsuislGOFHfa2WAQYAgE0012zeYb7T+rkjndYna83rUvPlSXYrc64vdjJdU7+hNvK++U7zg3PTre+cm5ubEwYAAJisSx+YcAut1oWDRt5eki9Qg42oKW+b7va+/ONJXw3gbM+15jutdyZ5qBRj401L3f7jZNh8MzMze3cM1j6dZEqNkdRd6vb3xvArnLHZ2d13aqw1vkWJrdcY5GWH+v3/UoLTNT/TuiSDPEaJrbfU7T83yWDsHiPt5g+mlBlbcIsukJPPHO72XzT5+5rmQ+p6+a5S8njXPyOrX1Jet17zsiO93l/JMfnm2u0vL6U+SIktd2ip2/+5c7ZdO61nleRWE9Luy5Lcw0Noy31wqdt3s5jNfB5Ot55YqtX3hqt+cKm7+js6MEznJx03VhqJa26Y4JOOZvP2ZUd5R2ouUoMNniS9pdNdfYLhP2AzzHdaX5vEhdf4WB2s1y86srr6b1Js0XNiuvWnqXmgEqNpUOplR1ZW36EEnJnZ6ealjVrersQ52F/V8iVerOdMLHRa312TFymx9Za6/Z1J1sbwGu4TSW5tC26V8uGlbu/uE/rH7Z7rNL+qpHxXkvva1mP0qEzengx+9nD3+FvVmFzz7dbLU/J0JbZYzb8u9fp3PofH7b+LoTlOz5EkE7+/L8knD3f733Uuftb1A9Z/6KE1VIeWuv0LkpyQgmFZmG7/ZK31rkoM9Tzs2h0qMKlmZ3ffqayVt6fm9mqwwb3ilbPd1Sd+NFnVAjhb+/ZlZr2fn1NifJRSfu7Iat/w31YeaQf1ylKKAcAR1ajlQBIDgAAAsHG75zqtbyvJ92dy7kK1va5Tk8uSxmXzndbfJPnZpW7/9RnDAWYANmQ2yZO3wd/5z0nOyQDgcq93xUKn9ZmanOfhNTR759rtL1vu9f5QCoZkqtb6rUn2SzFEjforDRWYRPtmdt+1sdZ4V2L4jw3746Xu6hM+avgP2CTr/dYPJ7lAibHxH82V3vNl2Fo1jStUGGkHJQAAgA3ZsdBufvN8p/VPJXlJDP9Ngnsn+d35Tuuf5jrNb4zlmwFgI04Okt+WYdjqUzRgWOammw+J4b/h7wWS1xgAZOLsndl1t/VB4x1JbqMGG9wdXjHb7T85yXEtgM2wZ8/uuyR5phJjdCQY5Ls/kfSU2FpHer0P1OTTSoyse+1rty15BwAAN6/Mt9uPne+0PlBL+fUkt5Nk4tyxpLxyvtP60MJ068lJiiQAcAsnR2XqlSoMexvksXv27FlQgqE8/gblSSoM3SeXV1bfbQCQiTLX6dxrMJh6d9xxiQ0fkfKH7vwHbLbG+tQrkuxWYmwOBm9d7vffoMM5MSgpb5FhdJ8M62VwmQwAAPA/zbfbj5rvtP4qpb4xyT0UmXh3qzWvm+u0/mx2unmpHABw05ZWVj5Ukr9UYqh27Vhb+woZGIKSksfLMOyNkNcnWTcAyMSYbbfvVzJ4R9xelA2qNb+/tNL/yiQn1AA2y8J060kl9XIlxsaJqca6uzWe0yuReqUII72BDmgAAACfM9ds3n5+uvVHKfWKJPdRZJtdISUPaNTy9vlO84rrV3wAAG6klvIqFYa9DSwDzLm3t9V6QJILlRiyQV6TJAYAmQiz7faXNEp9axK3tmVjJ0E1/3e51/+aJCfVADbLhUmr1rxQibHy4muPHf+IDOfwOmRq11uSrCsxoudIyYFY4goAAJJk51yn9V2lUT6UmsfJsd2VR02tN/5+odN66f79mdYDAD5nvbHj92K1tWG7ZLbZvEgGzqVBI09UYeg+drjf/7PEACATYH6mdUmj5O0x/MfGvc7wH7AVetPt5ya5gxJj41Nld/95MpxbR44cWUrJnysxmkpy/lync08lAADYzuZnmg+Z7zQ/UJKXpBj24r/trMkz13qtf5zrNL9eDgC4ztGjRw8neaMSQ1VKI18rA+dSjeV/R8DvXrcpDAAy5manm5dmkDcndY8abNDvLHX7X5tkTQpgU49Js7vvVGt9thJj5XsOH85RGYZwUTioV6gwukoGB1UAAGA7mp6e3r/Qab8qg/KupHyxItyM25SUV893mlcstFq3lQMAkpLGK1UY8jYoxTLAnDPznc49S/IFSgxXreV1n/3/BgAZWwudzsFGLX+cpKMGG/SapW7/G2PZQWALNNYaL0nSVGJczojz3qVu/zVCDCt/40oVRle5bhlgAADYVhY6uy/fWdf/pqZ+w3WnxXDKq6dH1Ub50EK7/TQtANjuDne7b03yn0oM1V33ttv3l4FzciZcquV/h+8jy73eX3/2HwwAMpbm2+0vqxn8YZKWGmzQ7y11+0+JO/8BW3NcemySxygxNtZSGk/P9bfE5tw70ut9IMknlRhNNXnI+d5kAwDANnGHpDnfaT2/pvHmJBcowmleQe2ppf7yfKd55d5W6zZ6ALCNDZLy2zIM+cykVHcB5Nw81qoBwGErpXzejU4MADJ25qZbT0ypb4i7LLHRg0/Kr18//OfOf8Cmu0PSTOqLlRijE+LkFUvd7t8pMdzDc0l5qwwja9eJdvthMgAAMOnmp6e/+Ein9edJnhOvl3BWyiMHjfztwnTrq7QAYLuaaqy/Kt54P1Q1+ZokO5VgK+3Zs/suSe6hxJCvQLL22hv+swtaxsrCdOsrS81rkuxSgw2d5JT6a8vd3tOSDNQAtsJyu/m9KbmTEuNyMpzPDHbu/jElRmFjVMsAj/LmKfVyFQAAmORT3oV2+2mp6++PF67YPHtrzWvmO63fvCBpywHAdnPtseP/lJo/UWKo9s+32wdkYCtNrTeepMLQ/c2hlRMfvuG/MADI2JjrNL++1vxuTKyzUaX+0vLKquE/YOuOTc3m7Usp36/E+BikPmd5eXlZieFbn9r11iRrSoymmnJQBQAAJvJafm5ubr7TemMt9ZdjSIut8dR+p/Wn+2Z2f4EUAGw3JfWVKgx7I9SnisAWe7wEw1Zfd+N/YwCQsbDQbv9/JeWVSabUYIMnNr+ytLL6HXGbaWALNRrlRfFiwRgdG/Kny93VVwsxGo4cObKUmvcrMbIXj18432rdTgcAACbJnj2771xOnviTJI9Rgy12z/VB4y/np1tfLQUA28lUZ/W1qVlRYqi+fH5+flYGtsJCq3VhkgcoMVyDHQYAGUPz0+2n11J/xeOVjSrJzy+trH5bDP8BW3mC29l9eS15ohJjY30wKM9wbBg19QoNRvicqhRLRQAAMEHX8Z1HTq03/iKpX6gG58hMan5vvt16WaxsBMA2cc01WUkpf6DEUDXL8b4lWtkSg6k8IUlRYqjef+TI8X+98b80UMVIm59uf0dqfZkdCBtVkxcf7vafFQMewNbaVdP4eRnG6gDxK0d6vQ8IMWIXimm8WYURftqUerkKAABMgoV2+2k1gzclmVODc67kGfPt1jtmZmb2iQHAdlDL4FUqDHsblKeowJac2tYYLh328zt5zU39ewOAjKz5Tuv7UusrYviPje/oXrTc7X9PDP8BW3+MelaSuykxNg6vTe34ERlGz5Fe76+TfEKJkXV5kikZAAAYY7sXOu1X1lJ/OckOORiakkt2rK/96b6Z3XcVA4BJt7yy+s7U/KsSQ/WwhVbrtjKwma5/Q8vFSgzVYGqQ19/UBwwAMpLm2s0fTfICJTgNL1ju9v+3DMBW29duX5Dkh5QYI7U899ixY9cKMaJbJ+UtMoys+b2t1pfIAADAOJqZmdk7P916Z039RjUYCSV3Xh803jc33XyoGABMuFpTf0uGoWrURr5OBjbTzvX1x8cbq4btPYf6/f+6ySe9Noya+U77eaWUH1OCDSvleUvd/vcLAZwL66X+XJIZJcbkEJH81VKv96tKjPJGqleKMNL7vIMqAAAwbva12xfsGJx8V2oeqAYjZm+p5W1zneZTpQBgog3y6iQDIYapWgaYzX1ElcETVRiyUl57cx8yAMhIPVTnOq0XJfUHpOA0vGBppfeDMgDnwvxM65IkX6PE+FyLZJBnxH9kGO2NtLP51iQnlRjRE/SUy1UAAGCczDWbd1hPfVdSvkgNRtSukvLqhU7ru6UAYFItr65+tCTvVGKYyhfNtdv30YHNMD8/P5uUy5QYqrWTafz+zX3QACAjc/RZ6LReUhIXvJyOF7jzH3AOTWWQlycpUoyHmvLKw/3+nykx2paWlo6k5v1KjOpZeh543YU9AACMvoXpXXcvU+W9KbmzGoz61VZNXjTfaT1fCgAmVU19pQpDP+Nw12E2x4n+Y5PsEmKoe9WrVlZWPnNzHzUAyEgcdubbrZfV5JlSsOFdW60/avgPOJfmOq1nJLmXEmNzenF0R80P6TA2R3bLAI+uHXV19VIZAAAYdXvb7fvXOvWuJLdRgzHynPl26+fjDacATKBOd/X3kywrMTyN5OuS7FCCs1VKsfzvkNXktad4vsNQTc132q9KydOl4DR2bc9d7q3+hA7AuTI9PX1eSX5MiTE6UpT6w9f2ep9UYly219QVKozwhf1UPaACAACjbLbTvGyQ+o4k+9Rg/C668p3z081fjNfsAJgwH0/6KfX1SgxPTc5b6HQWleBsXJC0a81BJYbqeHY2//CWPsHFBMM0Nd9pvTKpXy8FGz9LqT+01F39GSGAc2lXHTw/yZwSY3Ow+Pvllf4v6jA+lrvdv03yX0qM6lOqPFIEAABG1UKr9eBGyh+lZFoNxvi661sXOu1fizsBAjBhynqxDPCwTzMyeIoKnI3V6dajkrSVGObONFcuLy8v39KnGABkWHbOtVuvTWLNeU7j7KT+4FJv9aeFAM6lve32/WvqNygxRoeLkmckOanEmB3lU94iw8i6w549u+8sAwAAI3fN3mo9oDby5iQdNRj7C+PUb1rotF6iBACT5HC//6dJ/lGJoXrCvn2ZkYEzPk+tsfzv8L32VJ9gAJBh2DU/3XpdKXmSFGz8mJLvXuqtPk8K4BxrrJf6cudMY+V3lldW3ynDGD7ZSr1ShdE1NZhye38AAEbKfKdzj0EjVyRezGRy1OSZC9Ptn1ACgAnzagmGqr3Wbz5BBs7QziRfJsNQ9Xa0+n98qk/yYjbn2u75Tuv/pubxUrBBtZY8a7nbf4kUwLk2324/rSQPUGJsHGsM8hwZxtSu/lvjzo2jfEp2QAMAAEbFnj2775IM3ppkrxpM3NVXrT8832l9vxIATIqpWn4zyboSw9SwDDBnZL7dvjzJnBJD9cZrrsnKKZ/lOnGunJ90FjqtK5I8Vg02qKaUZyyv9H9eCuBcm5mZ2ZtSf0qJsfKTh/r9/5JhPB0+nKNJ/lSJkT0re0Sue6cfAAAM1VyzeYep9cbbk9xKDSbYz8y3298qAwCT4Npe7xNJfYsSw1NSL93Xbl+gBKerNgbuHjnsbTDI6zbyeQYAOSf27cvMiU7ryppcqgYb3Y+llm9fWun9ghTAMOyoJ38q7iQwTv5xqdt/qQxj7woJRtbM3HTzwTIAADBM+zudW5VGuSrJbdVg4pX68oVO55FCADARh7VSXqXCUE0NSv1aGTjdx02p5ctlGKojc/3+lRv5RAOAbLn5+fnZ9dXWW5I8RA02qKaUZyz1er8sBTAMc+32fVLLtygxRv/xII3vTnJCiXE/AWi8WYWRfp5drgIAAMNyYdJaK4M3pOROarBN7KgZvG6u07mXFACMu8Mr/T9Kcq0Sw1MTywBzWuammw9Nsl+J4Skpb/hosrqRzzUAyNbuEObm5uqJ1bem5kFqsOFzj1Ke7s5/wDDPpUqpL00yJcWYHDhqfv9wt2twbAIsd7t/l8QyzqO6c6z1oAoAAAzrdLTbaf16ah4oBdvMTMng/y20WhdKAcCYO5Ga18gwVPea73TuKQMbvggbFMv/Dn8rvHajn2kAkC0zPT29v5w8/s6SPEANNmhQU795aaX3i1IAwzLXaX5j3LV2nPQzqM+WYWLUmmKYc1Q3TnLf6elp7/YDAOCcm59u/1SSr1GCbeo2tZE/Oj/pSAHAOBukvFKFoW8FdwFko0pKHi/DUF17uNt9+0Y/2QAgW2J/p3OrnXXt6iRuTc9GrdfUb1zurr5KCmBY5ufnZ5PyM0qMj1rr85ZXVz+qxCRdUtYrRBhZjZ11fVEGAADOpblO8+tT63OVYJu774lO6zdkAGCcHen1PpDkb5UYqq+NFbDYgL2t1gOS3FaJISr195Oc3OinGwBk0+3vdG61lvWrkvJFarBB6zX1m5a7q78lBTDU86gTqz9ekvOVGBM1/zrXW32hEJOlsat/1elc0HCO95Mpl6sAAMC5Mj/TuqSk/IoSkCT5yrlO67tkAGCc1eRVKgzVbfZ2mo+QgVMZNPJEFYa+vzytZdMNALKp5lut263VwXsN/3Ea1krJ1xn+A4Z+DOt07lGTpysxTsqzPpqs6jBZDh/O0STvU2JULzjrwSRFCQAAttrs7O47ZZA3JNmtBlynJD+30Go9WAkAxtVamfqdJCeUGJ6ahmWA2ch55xNUGKpPLq+svvt0vsAAIJtmrtm8faZydUrupAYbtJ7kGw6v9F8rBTB8g5cm2aHD2FyivmWp1/tjHSbWlRKMrAvmp6e92QcAgC11h6TZWGv83yT71IDPs7M28vv72u1bSwHAOFpZWbmmlPw/JYanpn7F/v2ZVoKbM9/p3LMmd1FieEry2iSD0/kaA4Bsin0zu7+gTJX3puYiNdigk7XkK5e6/d+VAhj+iWzra5K45fn4OD7VqM+UYZI1DACO8oVnXT+gAgAAW+lop/0LSe6tBNykW62X+jtJpqQAYBzVQXmlCkPVWeu1HicDN6eUavnfYRvktG+iZQCQs7Ywvevu64PGO5NcqAYbdKLW8pXLK/0/kAIYtuvf5fRzSozThUf5uWuPHf8nJSbXUrf7wST/qcRoqikHVQAAYKsstJvfXFO/SQm4RY+Yazd/QAYAxtFSr3dlkk8pMUz1qRpws4+OWi3/O1wfPdzvv/90v8gAIGdlYXrX3WuduiqJ282zUSdqLV+13Ov9oRTAKFjrtX44yW2UGBv/uXOl93wZtoFS3yzCyF7+P/TCpKUDAACbbX56+otrKS9TAjZw2VzKj+5ttR6gBABjaK0mvyPDUM8kFvd3OrfSgRvbs2f3XZLcU4mhek2SerpfZACQMzbXbt+n1ql3xfAfG3ei1vJkw3/AiJ3EfpcSY3RJWvLdn066Sky+ul4sAzy6mr3O7ofIAADAZtq/P9Opg9claasBG7Jj0MirvUELgHHUKFOWAR7yecTJDL5aBm5sar3xJBWGq6bx2jP5OgOAnJHZdvt+pdSrkuxTgw06nlq+YrnXe6MUwOicxJaXJtmtxHgoydsPr/R/X4ntYUenf1WSE0qMpkEaB1QAAGAzrfVav5TUL1QCTsvdep3Wz8gAwLg5vLLy9zX5CyWGp5E8RQVurCaW/x2ujyx3u39zhs9pOD3zM61LGiXvSLKgBhvULxk8bqnXe5MUwKiYm249MSmPUmJsnCiN9WfIsH1ce22OleS9SoymknpQBQAANsv8dPvpSb5OCTh9NXnmbKd5mRIAjJtSy2+oMNRziPstTO+6uxJ81kKrdWFJ7q/EEPeLpbzmTL/WACCnZW66+YgM8uak7lGDDeo1Uh93uHv8rVIAo+KCpF1qXqTEWHnpoWMn/lGGbccywKN7GfpFe1ut2+gAAMDZ2juz626p9eeUgDO/QGuk/Mb+/ZmWAoBxUnftek2SVSWGuA3qDncB5L8NpvKEJEWJIZ7YZ+21Z/q1BgDZsLnp5sPLoLwxSUcNNqg3SH3coe7qVVIAo2R1uv39SW6vxNj4VNnd/ykZtp9apt6swuheh6436uUyAABwlnasD6ZenaQlBZyV253stX5cBgDGyfLy8nKSP1RimOrXxdwQ1ys1T1JhqP7m0MqJD5/pF3sisyHz7fajSi1XpngHGRvWG5T62CPd1bdLAYyS2Wbzolrr9yoxVv734cM5KsP2s7Sy8qEk/6HEiP7HgJQDKgAAcDbm2s0fLMkDlIDNuEbLd8212/dRAoDxOn4NXqnCUN1ubrr5UBmYmZnZl+RiJYbqtWfzxQYAOaX5dvsxKfUNSZpqsEHdWupjjqysvkMKYNQ0pspLHNPGSM17l7r93xNiGyvVXQBH1+WuKQEAOFNz7fZ9Sik/qARsmqmU+stJpqQAYFwc7h6/KsnHlBii2rAMMNm5vv6EJDuUGJ7BjsHrz+brvVjDLVqYbn1lSv2DJLvVYIO6tdTHLK+sXi0FMHLHtc7uA0keq8TYWK+l8YwkVYrtqw4aV6owsvbNttv3lQEAgDOwu5T66iQ7pYDNU5L7z0+3v1UJAMbIIKX8lgxDPX948oVJS4ntrZbBE1UY6hPxz44cOf6vZ/MtDABys+Y6zafWmt+N/wjDxvdKR8sgly+vrL5TC2AE7a618QoZxuqi8xXL3e7fKrG97ez03p7khBKjqZGBZYABADht853WTyW5hxKwBWp93v5O51ZCADAu1hvrr4obAQzz5GFPb7rl5hnb+fpsfn42KZcqMcxT+LNb/jcxAMjNWGg3/1dJeVXcKp6NO9IY1AOH+/0/lQIYyZPXdvPZKbmzEuOhJJ8Z7Nz9o0pwzTVZKcl7lBjVJ2sxAAgAwAbV5my7fb+F6dZXJvkePWDLzK6V9Z+QAYBxcfTo8X9J8l4lhnimXvNUFbaxE/3HJNklxNAMpgZ5/dl+EwOA/A8L7fbTaim/4vHBaVhuDHLwUL//fimAkTy2tVq3TSk/oMQYnemmfv/y8vKyElzPMsCj68ELC9kjAwAAG3DHRql/ef2dDfy3Z9hKtXzz/PT0FwsBwLgotb5KhaF65HmdzvkybNPnXylPUmGo3n2o3/+vs/0mLrL5PPPT7W+vpf6SxwanwfAfMPIGJS9K0lFiTC40kr9c7q6+Wgk+96BYNwA4unYOVtsPlwEAAGCkTKWuP18GAMbmwNVZfV1qVpQYmh0ny+DJMmw/FyTtWmOln2Gq5bWb8W0MefHf5jut702tv5CkqMEGLTVqOXCo3/9zKYBRNdtpXlZKvkKJsTEogzw9yUAKPuvwyol/SPJRJUZTSfUfBwAAAEbPo/d2mosyADAOrrkmK6WU31dieCwDvD2tTrceFTdRGaa1k43GH2zGNzIASJJkvtN6TpKfVYLTsDSo5cChXu8vpABG2I5GyotlGCOl/qrBcm7msfFmEUZ00xTvDgQAABhFg5QXxmuBAIzLcasMXqnC8JTkAftmdt9Vie2l1jxBhaFugatWVlY+sxnfyUk/mZ9u/3QSt4LndFyTNB52pNf7SymAUbbQaT0ryT2UGBuH18rOH5SBmzRoXCHCiF6eJneZbTYvUgIAAGDk3Gt+uvWVMgAwDpZXVt+dmn9VYngGdeopKmwru5I8RobhqclrN+t7GQDc5uan2z+VWp+rBBtVks8kjcuWut0PqgGMsv2dzq1q8kNKjNNZbvnBY8eOHRKCm7wK7fXekeS4EqOp0Wi4CyAAAMAoquVH4vVAAMbkqFVTXy3DMDdAfWqSosT2MN9uLyaZVWJojmdn8w8365s54d++ykKn9ZLU6i47bPyAn3y6linDf8BYWMvghU5ax8pfL/V6vyoDN+fTSbemvEeJEb24aFQDgAAAACOpfuHCdOuJOgAwDhq1vDLJuhJDc/v5mdbFMmyTs8TGwPK/w1Ry5fLy8vKm7T8V3Z4Po/l262U1+S4p2PDOP/l0o0xdtrSy8iE1gFF3/cXJ1yoxRoeZRv0uF/Wc+uKlXqnCiD6Ja7ksyU4lAAAARvGarf5YvCYIwBg43O9/vKZcrcRQTxwsA7w9TDVqeZwMQ/XazfxmTva34ZN4odP+9ZQ8XQpOw6caZf3Swysrfy8FMA7HugzyirhF+dgoKa9eOrbqzm6c+rFS1g0Ajqy6Z36m9QAdAAAARvKK+ovm2u3H6gDAWBy1Ul+pwhDV8pVJdgsx2eammw+tyXlKDE1vR6v/x5v5DQ0Abi9T8532b9TUb5KC0/Dx9anBQw6vnPgHKYDxOGFtfUeSeykxNpfyRxs1z9WBjTi0cuLDKfk3JUb02VyLZYABAABG9Zqt1B+NN8wCMAZmu/0/SLKsxNDMz023Hi3DhJ8bDorlf4frjddck5XN/IYGALePnXPt1muS+vVScBo+NtgxePjRo8f/RQpgHExPT59Xan5CifFRU3/k2l7vk0qwYYO8WYQRfT7XelAFAACAkXWfhc7uRRkAGHUfTVZT6muVGJ6SPFWFCd/EJY+XYXhqLZu+jzMAuD3smp9uva6UfIUUnIaPDXYMLj1y5Pi/SgGMix118DNJ5pQYm9Pbv1/u9n9BB07zutQywKPrS/bs2bMgAwAAwGiqaTxTBQDGQWO9WAZ4uCcNXzYzM7NXiMm0t9V6QJLbKjEs5ehcr7fpN7swADj5ds9Pt16fanqX0/KxwXp9hOE/YJzMtttfUlK/UYkxun4s+c4kJ5XgdOzq9a5OsqrESJraMTh5mQwAAAAj69H7ZnZ/gQwAjLpD/f77k/IPSgzNrh3r60+WYTINGnmiCsNTkj/46Ba8zmUAcIJdkLTnOu03peZxanAa/mOwXh9+ZHX136QAxkijlPoK5zZj5feWV1avloHT9emkm5R3KzGi/+Eg9YAKAAAAI6sMBo3vkAGA8VBfrcFQ+1sGeFK3bNxAbMin5FuyxPkOYSfTvn2Z6fdbf1xSH6oGp7Gn/5dSc+mR1dX/FAMYJwvt9v+qqQ9QYmyONyuNmu8VgjN/CNUrS2LQbBQvW2s5qAIAAMAoX1OXb9q3Lz987bU5pgbjrGTw7JTG7EQ8L2u+I8nDbVX4fDvS+M21DH465lqGtaN90Ozs7jtZNXCyzHc690gG7gg9PNce7nbfvjX7TCbvCTs/P7veW70iJQ9Wg41f9OefpmouPdTv/5cawDjZs2fPQl0/+Twlxuqi8acO9RxvOIuLmMbgyvVB48VKjKTb7p3e9YWHVk58WAoAAIBRVPesrba+Mem/TAvG2eHu8bdOyt+y0Gl/WU21Ubd895d/GaR89aT/mY1G4/ik/C3XdLufmu+03pzkMR7AQ1HKyfKUJD8uxQTtCuv6E0spQgztWVV/P8nJrfjWBgAnzOzs7Hw9sfqWUnJ/NTgNH9lRy6XX9nufkAIYN1NrJ38qJfuUGJ9jzlK3b3CLs3LtseMfmZ9u/VtqLlJj9KzXqQNJDAACAACMqFLLtycxAAhss51f+ke6vb8SYrzUkleWagBweE+b8pQkP5GYUp6YbVrKE1UY4j4tec1Wfe+GvJNjdnZ2vqydeEuJ4T9Oy0emarn02p7hP2D8zLXb90nJ05QYq6v1705yQgjO2iBXijCaSqrlmQEAAEZa/cK9rdaX6gDAqFte6f9xkmuUGJKSOy84Z5gYe/bsvnOSeyoxNJ9cXll9z1Z9cwOAE2J6evq8xtqJdxn+4zT941QtjzD8B4zrZUcp9SVJpqQYkw1W8wdLvZ6hLTbrEeWxNLrb5uFJdusAAAAwugYl36ACAGPgREl+T4bhqSVPUWEyTK03nqTC8JTktUnWt+r7GwCcAPs7nVvtrGvvSHIPNTiN3cuHr7/z3ye1AMbRXKf59UkeqsTY6K8P6rNlYLN0er13JOkrMZLas53mJTIAAACMsJKvvTBpCQHAqKtp/JoKQz1n+Joku4SYhOdSLP87TIO8diu/vQHAMbfQat12rQ7ek5QvUoPT8LcnS+Nhhv+AsT3+LWRPSfkZJcbooqLW5x9ZXf13JdgsH0/6SX23EqOpkWIZYAAAgNE2251ufbkMAIy6pW73g0n+RomhWZhrtx8pw3jb22rdxoqiQ/Wxw/3++7fyBxgAHGNzzebta8nVKbmzGpyGv1lr7FhcWVm5RgpgbB1v/XiSWwsxJkr+ba63+rNCsNmqZYBHmQFAAACAkb+wrt8oAgBjccgqeaUKQ90CT9VgvK1P5UlJihJD87tJ6lb+AAOAY2rPnt13KVPlPSm5kxqchg+sT+287NixY9dKAYyrhenpL6rJM5QYI4PyrI8mq0Kw6Q+tqcEVKoyse+3vdG4lAwAAwCgri/va7Qt0AGDUrZcdv5PkhBJDOmMoeczc3NycEmO8DWueoMLw1DReu9U/wwDgGNo3s/uuU+uNq5PcVg1OwwfWGjsOHD169LAUwFifINX1lyXZocTYXFK8danXe5MObIWjR4//c2r+RYnRfPKfzPrlMgAAAIy0qfVGHi8DAKPu2LFjh2qN1xqGp9k4ceIrZBhPMzMz+5JcosTQfGS52/2brf4hXjwfM/Odzj0Gg8FVSc5Tg42qyZ9n5+6Dx5aXl9UAxtnCdOuras0jlBgbx9en1p8uA1vsyiTfKcPoKSkHkvyWEgAAcLPWanKopBxK6qGUHErNyZLSrWXwuTvc1DJba3aklNmSuqsknZrSTuqeJOfHaz2czbVbrU9K8gtKADDyx6yUVyb1SUoMRy31qUl+TYnxs3N9/fG1uGYY2r6rlNeci59jA4+RuXb7PsngrTXZpwancSb0Z2Vn85FLS0tHxADG2f79mV7r5YVKjNUZ7f85evS4u7Ox1Q+0K5NqAHAE1eTyJOW6/wsAANvax5L8XUr5u1oH/5ySf89aPrq8uvrxJOtne1G0v9M5/2Ryfmq9Y6PUO9VS71xr486N1HtWNxPg1NduD52Zmdl37Nixa9UAYJQt9Xpvme+0Ppnk1moMxUPmms07LK+uflSKMTvfK4MnXvef6hmGkrXXnoufYwBwTOxttR4wKPXNSebV4DSu3P+k7O4/6vDh/lExgHG31mv9YJILlRgbH9u10nueDGy1Tq/3zm6n1U/SUmPULmpz/ly7fe/lXu+v1QAAYBvpJXl/KeU9qevvW9/R/IsjR44sbeHPq9d0u59K8qkkf3vjD57X6Zy/lrV71pQvScqDkzwoyV6biRvYsXP95OOS/IYUAIy4tVy34sj3STEUpTTydUl+WorxMT8/P5sTq5cpMTR/e2jlxIfPyUm91mPwhJxpXTwYlCuuv50/bEzNe6fa/S+79tocEwMYd/tmdn/B+iDfo8Q4XQXm2Z9Oukqw1T6e9OdT35mUR6kxivuCeiCJAUAAACZaTf4pyZtqqVccWVl9T5KTn/vo8aH+bp/pdj+d5G3X/y9Jyt7pXXdbz9RiqTmQmoenZNpW3OaP4ZInxQAgAGOgUdZfNahTBgCHpZSnxADgeDnRf0xSdgkxNK85Vz+oofVom5tuPjzrebPhP07Tu3Z0+o8y/AdMivVB+fkkTk7H5fovefvhlf7rleBcqaVcqcLI7g8OqAAAwISe6/5zKeXHpxqDuy13+3dd7vaffWRl9R35vOG/0byEOrRy4sPLK/2XLXX7j13q9feWNB6ZUn+1JJ+xZbftI/qyhYV4HQqAkXdo5cSHU/JnSgzN3fa22/eXYYzO8mp5ogrDu/YarNfXnqsfZgBwhC10dl9eavl/3n3Habp6V7f/6GuuyYoUwCSYa7cfn5SDSoyNkynrz5SBc3oFNTW4QoUR3TbJxecnHSUAAJiQE9yVlPpLjVoecLjb/4LDK70fu/bY8Y+M+V914nC3+5alldWnHe72L2ikXp7kt3PdUsZsH7sH/Zal4QAYC2VQXqnCEE+JS32KCuPhgqRdSx6pxND8+ZHV1X8/Vz/MAOCImm+3v6ym8cYkbTXY8MlO8vZWt/8YSy4Ck+LCpFVKfbESY3Thl/z84ZUT/6AE59KRI8f/tST/rMRI2n2i3X64DAAAjLmP1JJnZnfzwqWV1W8/1Ov9xYT+neuHuqtXLXX7Ty27+7cutXxrkg/a/NtDmaru4A7AWKi7d782SV+JofnqJDtkGH29VutgzBwNb191Dpf/TQwAjqS5dvvxKfUNSZpqsPGdR3lbu9t/7Ce8MxOYpBPT6fZzktxBibHxyR2t/o/LwJC4C+CIKsWLSAAAjK0PlJKvWOr277680n/Z0tLSke3yhx8+nKOHe71fWer271lLvTQlb0xSPSQm+urNtRsAY+H6c7I/UGI4anLefLtt5a5xOLtr5EkqDM1gapDXn8sfaABwxCxMt55cSn1dkl1qcBqH2TfPdXuP+7h3OgATZLbZvKjW+n1KjNXx6PuuvTbHdGA4GldqMKJ7hsSLSAAAjJu/Ti1fttTt3+/wSv/3kwy2c4zlldWrl1b6X5407p3ktdu9xwRfvF20Z8/uOwsBwDhopL5KhSGyDPA42JXk0TIMzXsO9fv/dW73i4yM+U7z62rN7yXZqQancVV+xWx39QkfTVa1ACbq4m1HeXGSlhLjcyK71F39HRkYlj3d7rviTsij6m5zzebtZQAAYAx8LKlPXer2v2Sp1/MmoxtZ6nb/bqnb/+pS1u+R5I8VmTxTgylv4AJgLBzqrr4jyX8oMTRfvrCQPTKMroVO59Ikc0oMSS2vOdc/0gDgiJjrNL8pKa9OMqUGp+GPl7qrT/yo4T9gwsy3249KzeOUGBvrNY3vjKWAGKLrz4euVmI0NRoNLyIBADDKVmutPzrb7d91qbv623GHu1t0eOXEPyx1+4+tpV6a5K8VmSTVtRsA42JQSvlNGYamNTjetLzsKJ/VlfUnqjA0aycbjd8/1z/UAOAImG+3v62k/FoM/3E6Sv5oqdt/UpLjYgATZncp9aUyjNNVRH5xudv9WyEY/vlRcYeO0T13fbAIAACM5iVtedv61OAey73Vn/ioN1qfluWV1auXuv371+RZSTmqyEQ8IR4er1UBMCbW1wavihsTDE0jxTLAo2uq1PLlMgztpPrtKysr15z75yRDNTfdemZK/QXbgtNRSt6wtNL/yiQn1AAmzXyn+T01uYsSY+Oawc5dPyIDo2CwNjAAOKJXu7VRf00GAABGSzlaU79puds7cPTo8X/R44ytL3f7L52q+cIkb5Jj7M3OdTpfLAMA4+DI6uq/JXm3EsNRk4cvtFq3VWL0zE03L6nJeUoM7bnxmmH8XENnQ7TQaT271Lw0SVGDDe8sav7v4ZX+V8XwHzCJx8ZW68L8/+zdd5wkdZ3/8fenenamq7tnZ3p2FwRRMGcxYUQkKSwYMEd+hjOLIia8EwOmU4wgZzhPCYqwIIKi5Ch6ImL2FBOsCOiyO909O11VPaHr8/sDVDLbs9PdVd2v5+Nxv995wkz361tdVd+Z79TX7T8okR/m/u8zMzN1SiALZlqtq1z6AyUydp6QHV+fTX5ICQAAAGToJvWydqH96EbUOpYYy2NTHF9fj5JnuvzlkmYpkuOPh/sTqAAAyAuXH0OFvgk80EvIkMH7udTYnrl/5rSieHpfPpC074/JUvEwlz5BCXTo5EacvFjSAikADORELdCnZKpQIjd+XItbTK6RKYF0JhUypTEiO5QMAAAAyIjU3d9fbya78tS/Lk0AotbxadsfYdIV1MgpEwsAAQC5MRa1vin++KCP/EAaZPBuznQAGfpW/+xGo9Hox7dmAWAfTFVKHzCzD1ECHTq5HiUvlbRICgCDaKJS3FPSCyiRG2mQ6i2SUlIgY4cm2wBniJved0MUbaAEAAAAMmDaFOzXiFsflNQmR/fMtFpX1aJkV5OOokYeJ3L+RCIAAPJigxS57BRK9Is9ZLJcfgQdsmNVGD5WElsz989J/frGLADssWo5PMLd308JdOiEepS8RCz+AzC4VgQefI4MeZrT+Vemk+RyQiBrVkZz35cUUSITftVoJl8gAwAAADLg5972R9ei6BxS9MxcLUoONvd/Ezva5IvpvpVKZRtCAAByc+kK2Aa4v1KeApil0Qj0bCr0TTTaTM7o1zdnAWAPrztT5fAzkt5JCnTopHqUvEL8VSqAATZVDt8i+YMpkRv1BY28hwzIovVSS9JFlOg7d/O3iD9gAQAAQN/ZuTaW7N5otf5Ci96rxa2vpub7SmpQIz9G0pRtgAEAuVGfTX4g6feU6JuXShohQza4WADYR2ds6OMDKlgA2KPO1Urx8y69lRTohMmOYdtfAINudam0ncveR4k8XaDssGazuZEQyPAxyjbA/ff1RrN1CRkAAADQ37mBf6kexfvXatpMjP6ZabYuNGs/SdJ11MjJRyfQLlQAAOSK+/FE6NN9g7TtVLm8FyX6r1ouP8yk+1OiX6chW9fP788CwB40niyXviy315MCHZ0cZF+pRfGrJaXUADDI2uZHSL6SErnx83oz/hIZkGXpYsoCwP6aLbi9mwwAAADos4/Xm63Xiz+uzoRac/633vZd5fozNXLA/eFEAADkSeB2nNhRr3+3DkpfRoX+M/PnUqFv9TdPxvHZfT0PMghdVaiWw+NN/ipSoLNzg/93I4pfIxb/ARhw1fFwV934aHDkZQ4X6M1MopF1M63W1ZL9jhL9OlHofZvi+HpKAAAAoH83pX5YPUr4o5SMabRa6821h1x/okbmsQAQAJAr00lyneTnU6Jvnr1mjSpk6Pc0yNn+t09MOm291Orna2ABYPesqJbDE8WiBnR8VtYXbvrLVCcGgAFXUKrP3XhPhJzcvn6tPpv8kA7Ixy2V8xTA/pT/TSNKjqYDAAAA+jZzld5Zj1sfoUQ21ZLkr576UyVdS41Mu+fk5OQkGQAA+boRtGOJ0DflhbjI4rM+Wrly7L7ijzj6eQI6qd+vgAWA3TE6VQnXSXo+KdDZOcG/VI+TN4nFfwCGQLUSvkHSIyiRG7MFF09PQG4ESs+mQu+56S1iizUAAAD0iZkdXouST1Ii2xqt1vp2Id3TpQ3UyPDHqd16GBkAAHky0UxOl1SnRJ9uHhSwDXAfFdoB2//2z6ZaFPX9CaQsAFx+Y9VKeIq7WN2MDq+I/sV6s/UGsfgPwBAYHx9fJdcHKJGniZvevymO/0YJ5EUtmrtEriYleuqERrN1ERkAAADQF67P15rxBwiRD5s3z/3R3Z4uKaFGVj9TAU+QAQDkynqpJddJlOjbzcPeq8Lw7nTo13RIz6FC3+Kfogw8GIEFgMtoe6k0WS6dIdczqYEOT8afZvEfgGFS8IWPSVpFidxcqf6vxpaeyJ95BbqQDD0zW3B7FxkAAADQJyfV4+TNZMiXmTi+QvLXip+LZ1TKEwABALkTyI6hQv/ye6AXkaH3psJwB5N2oUR/eOAnZ+P8h2WxZo0qSTk80+RPpQY69IlGlLydDACGxaowfKy5vYoSObpxNb1Z0gIlkDupnUWE3jDp8E1xfD0lAAAA0Ieb0csmouSVklJi5E89an1d0hGUyCC3BxEBAJA303H8E8l/Q4k+3T5IB1Kh99KCni3JKNEX1zeare9n4YWwAHAZrFmjymIcniHpKdRAhz5RjxKelAJgmARpoKO4B8mVk9jSE3ll7t+jQk9K/7YWJUfRAQAAAH3wlxUeHLBeapEiv+pR8h4TT3DPoHuTAACQRyY7lgp9s3O1XOYpwr0+5l3PpUJ/uLROGfljNH75vpUmJiaqC3F4gaTdqYHOzsL2ERb/ARg2U6XSqyQ9jhK5uWttWqp3EgJ5VUuSv0r2W0p0+VRh6UHiKaEAAADovcQVPOuGKNpAitxrW6r/J2kjKTLl7jtIIRkAAHkzouDr4ueVfZS+jAa9U6lU1kjalRL9EaQ6OTOvheFYuvHx8dXB4vwFJj2WGuiEmX2w3owPowSAYTIxMVF1849SIk8XLH2kliTXEgJ55nK2Ae4unhIKAACA/kxZ3Q9qRNEvKTEYppPkOnd7DSWy9TFLKqM7kQEAkDc3RNEGmfi5cP+8RKxF6pnRdPGZkgqU6Iv1tST5cVZeDB+6JapUKtuMpIsXSHokNdAJd/9ArRm/nxIAhk2wMP8hSWsokZcLlv5Uj5LPEAL5P5RZANjFuM0g1TsIAQAAgD74Ri1ufZUMg6URx9+W9A1KZEeajrANMAAgl7ytY6nQNztMlIt7kKFHx7qx/W//2ImSPCuvhgWAS7C6VNpuhacXS3o4NdDZ2dcPa8StwwkBYNhMlsuPkOn1lMjRLasFb5Y0Rwnk3UzUulTSLCW6caLQB6eT5DpCAAAAoMeuDKOEJ8UNqMVg5C0usa1zRnjg96ECACCPGknyXZNuoER/FBQcSIXuq1arE5LtRYk+3SvLTs7S62EBYIemwvAeqfklkj+IGujow+/+3nrc+gglAAwhM6VHisdP52jEdHotis4mBAbEvEwXkmG5J7b6Qz1KjqIEAAAAemwxSPWK66WYFINpdnZ2WvJDKZENgYsnAAIA8mpBPFm4b9z9udtKZUp02XzyDEmjhOiLKxtR9ItM3bszJltusljcyQNd4tL9qIEOvasRtz5MBgBDef0sF18maTdK5EaSLvrbyIBBYqmdSYXl5fI3iqeEAgAAoNf39mb/OZ0kP6bEYGtEreNl+hElMjD3M+1IBQBAbq9jCo6hQr9u3FWZL4fPJESXj3G3A6jQt7npuqy9JhYAbqGVK8fuawW7RNK9qIHOrm16ez1KPkEJAMNoakorTXYEJfI0WfCPz7RaV1MCA3Zc80TL5XXyTNS6gAwAAADosV/WmvGHyDAc07g0tbdISknRd3cjAQAgr+pR9CuTfkqJvt3SsQ1wF20vlcy0LyX6w2zxpKy9JhYAboHV42MPKLSDiyXdkxro5Irm0ltrUfJpUgAYVulc+H7xg8I8uaYUt1i0joFTT5JrJP8/SiyL2Nv+LjIAAACgx1JL9QbduJUbhsBMHF8h6VRK9JlrWyIAAHJ9KTMdS4V+saeuKZf5HWGXxJVwX7HNcr/8fHp2/sqsvSgWAN6FVZXRB7XT4EJJd6cGOrmXcNNbG1FyJCkADKupyuiDTXozJXJ18XrL9VJMCQwmO4sGy+KDjVbrL2QAAABAb2/n/Su1JGFL2CFTCNLDJC1Soq+2IwEAIM/awYpvSJqjRF+MLCh9IRm6NUXSc6jQN+uy+KJYAHgnJsvlR6Re+L6k7amBDrjM3tRoJkeRAsBwnw0Ln5O0ghC5GbCzGnH8bTpgYI9w8zOpsNV+X4+Sz5ABAAAAPbZp0Vb8OxmGcOBn5/4g6URK9FWxWq1OkAEAkFebN2+uSeJ3H30SSGwD3B2jkvYnQ1942vaTM/p5w+2ZKJUeZUrPl7SaGujkwy6zN9eb8RdIAWCYTVXCF7q0JyVyY74Q+CFkwCBrNFs/kDRDia2507VDJM0TAgAAAD1lOnx2dnaaEMM6/oUjJDkh+qewGLMNMAAg39yOJUKf0kuPnqpUHkKJ5VUtlfaSNEmJvsxPL5tpta7O4ktjAeDtmCiVHhOYnydpFTXQ0fXL7KB6M/4vUgAYZttLJXd9nBJ5ulm1T26anfs9ITDgFmS6iAxLvNF1fbMex2yjDAAAgB7PV3VVvZn8NyGGV73Z/I3k51Cifxbd7kYFAECu7yfi+BxJf6VEf7jSl1BhmZsGKdv/9qu9Z3P7X4kFgLcxWSnuFphfKGmKGuhA6vJ/qzfjz5MCwLBLyqXDJO1Iidz462gz/igZMAwsNbYBXprIXG8nAwAAAHp+Dy8dKp5CPfQC6VNU6Gd/24YKAICcSyWdQIY+cX+pWJu0nAqB2zPJ0J9zyYjbKRmeN+EfJsrFvcztLEnj1EAH2i5/ZSNqHUMKAMNu5cqx+0n+Nkrkh5nesUGKKIGh4M4T7JbW7aP1JLmGEAAAAOjpfFW6otZMTqUEpqPWBXL9iRL9kbrzOzMAQO4VgvRYKvTNjpOV4pPJsDwmK8VdXeIPNPrj0k1xfH1WXxwLAG8yVS7vG8jOkFSiBjrQdvmrGlHreFIAgFRo22cljVEiPzeqtWZyChkwLGpJcq2kX1OiA64/1eMWT9sAAABAz6VuH5bklMCNx4HzB/j9YsYCQABA7m2anfu9TD+iRN+8jATLdGuW2nOp0K9ZiZ2Y5ZfHAkBJ1VJpf1d6mqSQGuhAW/JXsPgPAG40WSodINl+lMiNRSl4k/hlCoYPTwHsiB0saY4OAAAA6C3/v0Ycn0EH/EPgdpykNiX6MCtMeQIgAGBQrmnGHxT0q70HL9iB9TjLklKmA8jQF4sLQXBapudMwz5CU5XweTI/TVKR4xWdfLjN9NJ61Po6KQBA2kEKzfzTlMgPl46qRxFPQsPwHfvGNsBbykyn1eP4TEoAAACg9/ei9kFJKSXwD9NJcp3LLqJEXz6QLAAEAAyGYrxOUkyIfvCVcSV8Bh22zqow3EXSPSjRl2P4gmazeUOWX+FQLwCcqoQvdNeJklZwsKIDbUkvrzWTdaQAgBvFldKhku5FiZzcokobbLT4QUpgGDWarR9KmqHEXUrai/52MgAAAKAP/lJrJqeSAbdmLo6LfnBViAAAGAS1mjZL+hYl+nVLoZdSYeukgdj+t3/H74lZf41DuwCwWg5f4q6vSxrhUEUHFtz0gnqUfIMUAHDTNTUM7+nu76RErm5T31mv11kAhaG9nzPXBWS4i7OE+0dnWq2rKQEAAIBeM+losdUrbscKs9M4NvrxoeQJgACAwZGasw1wv7jWjo+PrybE1iRk+98+mbPR8PSsv8ihXAA4VSq9VtLXxOI/dGbe3Z7faCb8VQAA3FxBR0oqESI3s4MfNtjCHnwQ2Nb2zs8Tf2rErU8QAgAAAH0QtUdGv0IG3J4bomiDXD+iRG+ZOQsAAQADY6bZuljSekr0xYoRX3wRGZamWi4/zKT7U6IfN8Q6Ow8PVhm6BYCTlfDNbv5FDfn2x+jYnNye14jjb5MCAP5lqlzeV85fm+RI2y04SJKTAkM9V3M7m8/BnRY6WNIcHQAAANCHm/UTZmZm6oTAHXH5uVTocXPXKBUAAAMkNbPjyNC3m7mXEWGp92Tt51Chb07Kw4scqkVwU+Xw7eY6SpJxfKID8+72gnocn0EKALiFUVf6WTLkamL1xUYU/YIQGHbTSXKdpF9T4naYvl2PY56QCAAAgL4I2vZVKuBOjxG386jQa84DNQAAAyVdTI+VlFKiLx63enzsAWTonJk9lwp9EY82k1ysFRqam/ZqqfgfLn2SYxMdapmCZzXi+DukAIBbXVvL4dskcZOeHxvTFaPvJQPwTyxyu60kXfRDyAAAAIA+uXI6SX5MBtyZWpL8RFKDEr0UFGgAABgkjVZrvUkXU6I/Ui+8lAqdWbly7L6SHkaJvjhjgxTl4q59GEajWg4PldlHOC7RocSUPrMWRWeTAgBuaSoMd5DrPZTID3P7D7ZRAv7FzbnHu3UT94/NtFpXUwIAAAB9ciwJsAXakv+IDL1jchYAAgAGTirn3rNP3P1AsWtnRwrtgKf/9e14tRPz8loHfgFgtRx+TNLHOCzRoTiVP6MWzbGdAADc3s1OoE/KVKFETsZL+kktjtlGCbiZRrP1v5JmKHET01WTcesIQgAAAKBPUkt1AhmwJdzFkyJ72VtiASAAYOCUotapkm2mRF/sVB0Pn0SGDpgOIEJfzDTiODcPkxjkBYA2VQ4/I+lQjkl0KE7lz5yJWheQAgBuqzpefLKkF1AiN9JCqjdLSkkB3MKCu84nwz/OFHbweqlFCAAAAPSF60e1JLmWENgSgRVYANjj5CQAAAya66XYLT2ZEv26/3e2Ad5Cq8Lw7nI9jhK9Z7JvSZrjpr3P41Athf/l0ls5JNHZhUZNN9+PxX8AcIdWKNUXxKO583NpM//qdJLwg3HgdidDfiYVJEnfrcfxd8kAAACAfjHTqVTAlloIgp9QoYecJwACAAZT0LZjqNCv+wt7gaQxQty1tKBni9/L9mummqtFwoO4ADCYLJe+LNMbOBjRoVkVfL9Gs3UJKQDg9k2Vw4MkewglcqO+qJH/IANwR5Oh4GxJPuQZWmnbD+ZoAAAAQB+5pywAxJabnZ2dlvR3SvRu8kwEAMAgqiXJ/0r6PSX6YmqyEu5Phi2ZLem5ROiLTbUoytWDwwbtpr1QLYfHmvzfOBbRGdusQGvrs61LaQEAt29NuXw3l32AEnm6vNl7m83mRkIAdzB7i+PrJf1yuE8TdsRMq3UVRwMAAAD6dk8q/ayeJNdQAh36HQkAAMAyOJYE/RFIL6PCnatUKmskPZkS/Zio+qmSFnL2mRoYhWo5PFbSgRyJ6NCMpb5vfTb5ISkA4I4tyj8u+UpK5IX/pt6Mv0QH4C5ncWcN8Zu/ptiMP84xAAAAgL7OXs3OpgI6P3D0WyIAAICtFaT6mqQ2JfpwO+faf3x8fBUl7thomh4gqUCJfkw3dGLuzmeDctxPVcJTxAphdK4RpHpaLUl+RAoAuGPV8fBJkrPIPk/3pYG9QdIiKYC7mhGlQ7sA0N3ecr0UcxAAAACgvxPY9FwqoOPjxvRHKgAAgK01nSTXSc79aH+MjrTbzyfDnd3zpgdQoS+ubzTzt3voICwAHK1WwpPd9WyOQXSoEaTaZzpJLicFANz5/YKn+owkI0VufL0+m/yADMBdq8+2/ldSbfjeuZ3biONvcwQAAACgz2YbzRZ/nI0lTGn0VyIAAIBlua0wO5YK/eI85OsOVKvVCcn2pkQfjkppnaQ0b6871wsAd5DCarl0hlzP4hBEh2qp214s/gOALbjBrJReb9IulMjNVHVzwe1QOgBbrC3p/CF7z3PtQvtNDD0AAAAy4BJJC2RApzy1a6gAAACWQ62ZfFtD+UfiGWB64kSxeG9C3I751v6SRgnRe0Gqk/P4ukfyGnxbqRyVwzMk34PDD0vw18D83dVySAkAuCvuTyVCnuZKfvimOPkbJYAOTnPys0z2gqE5T5h9YvPmuT8x8gAAAMgAnl6PJWkHwTWBtwkBAACWw5xc35DpIFL0nFmgl0n6ICluyV3PMfZm64f1tST5cR5feC4XAG4rlefL4RmSWPyHpdr5pv8BAGCQ5km/rUXx5+gAdGaFCmcvKnUNx1bn16xoxh9j1AEAAJAJAQsAsTTNZnNTtRy2JRWoAQAAtlYqOzaQswCwD0x2oKQPSXJq3Gh7qZSY9qVEX47IE/N6LOZuC+DJycnJ+Up4vlj8BwAAcOtJ0tvE1klAxzZG0d8l/WIY3qu7HbxBihh1AAAAZMDcxGzyUzJgiVJJm8kAAACWw0wc/1TSLynRB6b7rgrDxxLiX+JKuK+kMiV6z2Xr8vrac7UAcHx8fJUtzF0g1+M57AAAAG7hlFoUnUMGYInMzhyCqevZjTg+ncEGAABANu7B9fP1UosQWPoURzUiAACA5bs91XFU6I/UdCAVbnYsup5Nhb64shFFuV0InJsFgJVKZZuRdPFCSY/imAMAALiFyFK9nQzAVs2ozxrwdzhXCPxgBhoAAACZkernRMBWTeNMdSoAAIDlMm+FE8QuS326sdMLJa0ghCRpVNLTydCP+UV+n/4n5WQB4Dbl8rYrfPECSQ/nkAMAALg1/0gtSf5KB2Dp6u3HHfAAAIAASURBVLPJZdIAPz3C7FObZuf+wEgDAAAgM7eosl9QAVvDpYQKAABguTSbzRtk+h4l+mJ1tVTalwxStVTaS9IkJfoxR11kAWBXP+Wl0nYL8gsleyiHGwAAwK24/lSPWp8mBLDV2pLOG9D39tfRZvxRhhgAAABZYu6/pAK26hiS5qkAAACWk6d2LBX6NkFgG2BJHqTPoUJf/Hy6Of+7PL+BTC8AnCwWd2wH/gPJH8yxBgAAcLszordImqMDsAwTaw3mNsBmOmSDFDHCAAAAyJB0JEl+QwZs5RyOn4cAAIBl1YjjM13aQIm+eMbk5OTkkDcoBG7P5FDoi5Pz/gYyuwBwYmLsPlaw78t1b44zAACA22H6Tj2OzyIEsDxGVThbkg/Se3LZebVmciqjCwAAgIz5K3+kgq1mtkAEAACwzBYkfZ0MfVEM5uefN8wBJivFXV3ahkOh5zxt+7q8v4lMLgBcPT72gGAxuFjSPTnOAAAAblcrXfRDyAAsnxuiaINJPxugtzRfCBbfwsgCAAAga1z2Rypga1mqNhUAAMByC6xwDBX6NE8wf9lQH3tubP/bl4mFLptpta7O/fGTtRe0anz0ge00uFDSDhxlAAAAd3AvavbxmVbrKkoAy/7hGqSnan56enb+SgYVAAAA2bvtTv9EBQAAAGRRrdn8P5OuoERf7DZRLN5rWKdJLh3AIdB77lo3CO8jUwsAJ8vlR6Rp4fuStucQAwAAuEPXFJvxEWQAuqDtg7IA8NqRUvIRBhQAAABZZG4sAAQAAEBmuRlPAezTVCEI9OJhfOOrwvCxYpfUfkgLqb45CG8kMwsAJ0qlx5jSCySt4fgCAAC4k4mn28HXSzElgOVXS5IfS5rO+/sw09s3blSTEQUAAEAWpaarqQAAAIDM3q8WVpwoqUWJPrBgKLcBTgM9m8Hvi+9PJ8l1g/BGMrEAcKJUekxgfo6kKY4tAACAO+ay8xpxfDolgK5pSzovz2/ApAtqzeRkhhIAAABZFbR1PRUAAACQVTMzM3VJ36ZEP/iDJkqlRw/hGz+Ase/H4WYnDcw8u98voDoe7hqYLhCL/wAAAO7K/EjQfjMZgC7P95TrbYAXXcEhjCIAAACyfc/NAkAAAABkmylgG+A+KZgfOEzvt1ouP1zSAxj5nltcCILTBuXN9HUB4GSluJvaOkvylRxXAAAAd+nTm2bnfk8GoMszPhs5S1Ka05f/mXoU/ZpRBAAAQIZ5PUk2kAEAAABZVoui8yT9lRJ98WJJI8PyZs38OQx5X6am5zWbzRsG5d30bQHgVLm8r7mdLVOFgwoAAOAuXTtSSj5CBqD7ms3mRpd+msOXfl0hTD7ECAIAACDjapLmyAAAAICMS2X2NTL0nkvbVEulpw3N+3U/gFHvy3F28iC9n74sAKyWSvu50tMkhRxSAAAAd81M79i4UU1KAD2aKJnlbhtgM7190ybNMnoAAADIMpemqQAAAIA8aAftY2+8hUXPmb9sGN7mypVj95W0MwPec3M2Gp42SG+o5wsAq6XSM2T+LUlFjicAAIAtcmmtmZxMBqCH2p63BYCcJwAAAJAXMyQAAABAHmzePPdHuX5Iib44oFqtTgz6myy0g+cy1L1npjPr9fpAzU17ugBwqhK+QOanShrjcAIAANgii1JwkPgLM6CnaknyE+XnySSLUvAmzhMAAADIB2vQAAAAALm5e5UfS4W+CH0+efYQvM9nM9R9sW7Q3lDPFgBWy+GL3XWCpBUcRwAAAFvGpc/Vo+hXlAB6ri3pnJycJ46sR9GvGTIAAADkY6LrPAEQAAAAuVEot9bJ1aRE7wWygd4GeFUY3l3SYxnpnotXNJPvDt7npQemSqXXSPq6pBGOIwAAgC32dxstHk4GoF9ysQ3w9SNhwnkCAAAAuRGY8ctTAAAA5MbGjWqa2amU6D2X9pgKwx0G9f2lBT1bkjHSPfedDVI0cHPtbn+Daqn0Ojf/onq83TAAAED+JzZ+aL1e58kIQJ8sBivOlpRm/GW+c9MmzTJaAAAAyM1c19IFKgAAACBPUkuPpUJfBB7oJYM7OdJzGeI+ZHc7aSA/LN384lPl8G0y/4JY/AcAANDpTf//NqLW1wgB9M/s7Owml67I8HniB/UoOZGRAgAAQK6kxgJAAAAA5Eqj2bpErj9Toh/s5YP4rsbHx1dL2pXx7fnxtHkyjs8ZxHfWtYV51XL4Lpc+JR5XCQAA0Kk0kL1VkpMC6POEySyr2wAvugUHcZ4AAABA3phpkQoAAADIGXf58WToS/oHT5bLOw/au1rRbh8gaYTx7fF8VDp1vdQaxPfWlQWAU5XSByR9nEMHAABgKXMZfWk6jn9CCCADk8G2n5nRSerRjSj6JSMEAACAvEklngAIAACAPN7IHnfj7Sz6EP/AQXtHbumzGdd+sJMH9Z0t+wLAqUrpg+7+fg4aAACAJaktFkbeRwYgG6aT5AqTbsjUDwakDT5a/ACjAwAAgDwyfmkKAACAHGq0Wn8x6SJK9GUO8RJJhUF5P9VqdUKyvRnZnttUi6LzB/XNLecCQJssh5929/dyzAAAACzxhsrt3bOzs5soAWRG6tJ5mTpPyN9Rr9dnGBoAAAAAAAAA6B2XH0OFvthuqjy218C8m/nk6ZJGGdaef4BPkbQ4qG9vuRYA2lQ5/KxJh3DEAAAALPGGSvppLY6/Qgkgc7PCszI0Qf1hPWqdwJgAAAAAAAAAQG+Vo9a3JDUo0Xuu4GWD8l7M7TmMaB+OocDXDfL7W44FgFYthUe79BYOFwAAgCVLleogsRUSkDmLwYpzJLUz8FLabsGbJDmjAgAAAAAAAAC9da2UyPxkSvTFc9asUSXvb2J7qeSmfRjOnvtbo9n6wSC/wa1dAFiYKpe+KtMbOVYAAACWzmXH1JLkMkoA2XPTttxX9Pt1mPRfjSj6JSMCAAAAAAAAAP1hbWMb4P4oL8bFA/L+JuJKuK+kMsPZWy6dpGw86KFrtmYBYKFaDo9x+Ss4VAAAALZqurh5hewwOgAZnhx6f7cBNumGdMXY+xkJAAAAAAAAAOifGx/mYL+jRF/kfhtgc7H9bx8UUq0b9Pe41AWAo1Ol8GRJB3KYAAAAbB03P2xjFP2dEkCGJ4cKzuzn90/l72o0Gg1GAgAAAAAAAAD6zY+lQT/Y3qtLpe1y/AZGJe3POPbc1dNJcvmgv8mlLAAcrVbCdW6sSgUAAFiGSeJvGs3kC3QAsm06jn9q0g39OU3ofxtR63hGAQAAAAAAAAD6b0TB8ZIWKdFzhcXAn5/XF18tlfaWNMkw9pqdJMkH/V12ugBwrFoOvynXARwgAAAAW83ddBCTRCAXUpfO6cP3bbsFbxqGySkAAAAAAAAA5MGNuzr5uZToPUuV2wWAbnouI9iH7rJ1w/A+t3gB4PZSabJc+q6kZ3B4AAAALIsTGs3WJWQAcuOsPsxMv9CIol+QHgAAAAAAAACyw8yOoUI/wutJU2F4jxy+8hGTP5MB7LkrG1H0y2F4o1u0AHBbqZyUw++afG+ODQAAgGUxW3A7lAxAfrQLK86R1O7ht5xeLIx8gPIAAAAAAAAAkC21ZvIdSZso0XOWBnpO3l70VHlsT0mrGb7ecveThuW93uUCwGq1OjFfCc+TtAeHBgAAwDLNTqQPborj6ykB5MfmzZtrMl3es4mp/J2zs7PTlAcAAAAAAACAzJmX60Qy9J55/rYBdjO2/+2DQpCePCzv9U4XAE5OTk76fOtcuZ7AYQEAALBsU5Pf1aLkSDoA+eOp92QbYJd+0ohax1EcAAAAAAAAALLJxTbAfWF6YjUM75mjV1wwtwMYuJ77+XRz/nfD8mbvcAFgpVJZYwtzF5v0WI4JAACA5ZyX2NskLVACyB9X0IsFgGkh1UGSUooDAAAAAAAAQDY14vjnkn5BiZ4zC5SbJ+pNVoq7ubQNw9Zz64bpzd7uAsBtyuVtV3j7Akk7czwAAAAsq1NqUXQ2GYB8monjn7q0oavfxPXF6SS5nNoAAAAAAAAAkG0uHUuFPnS3/GwDbCnb//bjEPG2D/cCwDXl8t0W5BdKehjHAwAAwLJKvO3vIgOQ70mjyc7p4tefXiyMvI/MAAAAAAAAAJB97WDk65LmKNFjrsdPFos75uCVBjI9mwHrMdNljVZr/TC95VssAKyG4T0XPb1U8gdzNAAAACz3ZMQ/Mmw3m8BgThz9rO59aT90dnZ2msgAAAAAAAAAkH2zs7PT5voeJXrOgkL2n6xXHS8+SdL2DFdvuQ/X9r/SzRYAThaLO6mgi2S6L4cCAADAct9p6s8TcetThADyLy2MniNpcbm/rklX1OLWMRQGAAAAAAAAgPxwGT/X7Uf3HGwDzPa/fZEWUn1z2N50IEmrx8fubwW7VK57cxwAAAB05Rb/4PVSiw5A/s3MzNTluny5J6SW6k2SUgoDAAAAAAAAQH7U4/hsSX+jRI+5HjdZLO6U4VdoLrb/7YNLppPkumF708Gq8dEHttPgIkk7cAwAAAB04/Ze36nHMY9/BwaIa5m3ATb/8nSSXE5ZAAAAAAAAAMidRUlfJ0PPWVCw52X1xU2F4eMl3ZNh6jG3dcP4toN2OvI5sd80AABA9+4zUx79DgwaU/CLZfxy04u24j1UBQAAAAAAAIB8MmsfS4Xec9NzMvvaAnsGI9RzC4uFwqnD+MaDdlB4kUk/5RgAAADo0g2X+WGSAkoAA8T8ycv4xX46Ozs7TVQAAAAAAAAAyKdac/63kn5MiR5zPW51qbRdRl/c/gxQz5tfMDs7u2kY33kwOzs77aPFvWT6EQcCAABAN+YeenS1VHoNJYCBsnYZzxJPq5ZK+5EUAAAAAAAAAHLM7Vgi9FzQlp6ZtRc1FYb3kPQwhqfHH0HppKH9IEhSvV6fGW0mT5V0EYcDAABAF5h/dHx8fDUhgPybCsMdJD10maelR+4kFakLAAAAAAAAADk1NnaipJgQPWbps7L2ktxsf0nG4PTUnI2Gpw/rm//nVnQbpCiMkqe77HyOCQAAgGU3NeILHyIDMADM9lv2ibvpvjOl4tuICwAAAAAAAAD5VK/XZyR9mxK9ZntOTWlltl6Ss+tPr5ObzrzpMziUgpv/h+uluBHFT5d0BocGAADAMnN77aowfCwhgJx/lANf25UvbHbYZLG4E4UBAAAAAAAAIJ9M6TFU6LkxzYdrM/V6XHswLD23bpjffHA7/7e5epQ8T6bTOTYAAACW996rHejoO7gHA5APK7o4cQ8V2CdJDAAAAAAAAAD5VIvmLpB0DSV6y12Z2QZ4qlzeQ6YKo9JT8Ypm8t1hDnBHv3yerzeTF5rrWxwjAAAAy8ekXSbLxf9HCSCfJirFJ0ua6No5wvTcaqm0ltIAAAAAAAAAkEupmR1Php7bT9JoFl6Ie7o/w9Fz394gRcMc4M6ePjNfi5MXSPo6xwkAAMBy3oDZxycnJycpAeTw8+vW9cV5Zn6kpDFqAwAAAAAAAED+tBfTr0pySvTUxFS5nJVtd/kj/x5zt3XD3uCutp9r16PkFSY7lsMFAABgmW5CpW2Chbn3UwLI5Se46xN3l+5XLYeH0BoAAAAAAAAA8mem1bpa0qWU6C239gH9fg2rKqMPkuk+jEYv2ebJOD5n2CsEW/DPtGtR/Cq5Ps9BAwAAsEyTEOmgyXJ5Z0oA+TEVhveQ7CE9+nbvnSwWd6Q6AAAAAAAAAOSPy4+hQo+buz1bW7YOqouvobAfI9FbJp26XmoNe4ctPfC9HicHmXQUhw4AAMCyGDFPj77xvhRAHrhZLyfuJSvYJ6gOAAAAAAAAAPkzFrVOkTRLid4xadupMHxsP1+DS/szEj0f+XU06Gzlq9ei5K0ufYZsAAAAyzIT2bVaDl9ECCAvs6fub/97K8+fKpf3JTwAAAAAAAAA5MsGKTLZqZToLQ/0rH5976kprZT0JEahpzbVougCMnT+6EtvRMnbJH2cdAAAAMviE2vWqEIGIPNG5dqz19/UlX5G0ij5AQAAAAAAACBfPEi/SoWeO6Bv33k+fKr4eX5vmX9T0iIhlrj3dT1K3i3p3eQDAADYandfjMPDyABk20S5+GRJ43341g+slsODGQEAAAAAAAAAyJf6bOsHcv2JEj31wJUrx+7Xj2/s8n3I3+vmOokKNwqW+i/Wo+Tjkg4lIQAAwFY7ZNX46APJAGSXydb28dt/YLJY3JFRAAAAAAAAAIBccZcfR4beGmkHT+/PaNve1O+pvzWarR+Q4UbB1vzL9Sg5wqR3SHJSAgAALNloOx35HBmA7DLZfn389iUr2McZBQAAAAAAAADIl8DtWEltSvTU/r3+hhMTY/eRdC/S985NT//js/WPc83WfoFalHxKbm+QlJITAABgaUy+92QlfA4lgOyZCsN7SP6gPr+MF05UinsyGgAAAAAAAACQH7UkudZlF1Kid1zabXJycrKX3zNYKPD0vx4rpFpHhZsdg8vxRepx/CVze51YBAgAALBk5vrstlKZEkDGflhQsKdn4XUEHnxO0gpGBAAAAAAAAADyw+THUKGnVgSLc0/t5Td0OQsAe+vq6SS5nAz/EizXF6rF8f9IOlDSIlkBAACW5B4LldK7yABkjPvajLyQB0+Vw7cwIAAAAAAAAACQHxNRcpqkOiV6yK2X2wAHZtqd6L1kJ0lyOtzsIFzOL1aPkm+Y6WWSFkgLAACwhPmI+6ErV47djxJAZozKtUdmzhHS+1eF4d0ZFgAAAAAAAADIh/VSS+ZsV9pDLt9PUqEX32tVqfRoSaup3svxNT5PtxIs9xesNZN1cnuupDnyAgAAdGys0A4+RQYgG6bKY0+RqZKhlzSeBjqCkQEAAAAAAACA/AjaxjbAvbVmKgwf24tvlFrK9r+9dWUjin5JhludY7rxRetxfIbcniOpRWIAAICOPaNaKu1PBqD/UgVrM/iyXjJZKe7B6AAAAAAAAABAPkwnyeWSfk2J3vFCb7YBNhkLAHs5ru4nUeG2gm594Xocn2kKni0pITMAAEDHt69H7iQV6QD0l0lrM/m6PDha0gpGCAAAAAAAAADywaTjqdBD7k/v9rfYSSq69ERi904hSE+mwm0F3fzitSg6283XytUkNQAAQEezwPvMlIpvJwTQPxPF4r0kPTCbr84fPFUOD2KUAAAAAAAAACAfRhR8TdICJXpm58liccdufoPN5bHdxAM9eunn083535HhtoJuf4NGs3WJClor2WZyAwAAdMDsPZPF4k6EAPo0WRrJ5Pa//+TS4atLpe0ZKQAAAAAAAADIvhuiaIOkcyjROzYS7NfNr+8K2P63t9aR4PYFvfgm9dnkB6lrL0k1kgMAAGyx0Ap2BBmAPnFfm/FXON42/zgDBQAAAAAAAAD54KZjqNDL4L5/l78DCwB7OZptZwHgHQh69Y1m4viK1G0fSXWyAwAAbLHnryoXmTwAPbbTjY/s3yMHL/Wlk5XibowYAAAAAAAAAGRfo5l8V9JGSvTMnjtIYTe+8Pj4+GpJO5O4R0w/brRa6wlx+4JefrOZOL7CFezJyQwAAGDLpQqOkrSCEkDvbC6P7SapnIcpr7k+zzkCAAAAAAAAAHJh3qRvkKFnwqhU2r0bX7jgi7upx+uuhpm7TqLCHev5gdiIol8EQXs3SdeTHwAAYItuaR80VQ4PpgPQ06nS2vy8VnvIZDl8I2MGAAAAAAAAANnnCr5ChZ4W78rP+wPXU2jbM2kh1TfJcCfHYz++6fTs/JWFIN1T0nUMAQAAwJZMBvW+1aXS9pQAejSTlPbL0+s12QdXl0rbMXIAAAAAAAAAkG31KPq1pJ9TokcC7d+NL+tiAWAPXTKdJKwxu9PDvE82zc793tu+q6SrGQYAAIC7NN42/zgZgO6bKBbvZdL98/WqfWXb9DFGDwAAAAAAAACyz03HUKFXsXXvlSvH7rucX3LlypVTkh5G3J59YNYR4c71dS/qRqu1Xql2l+vPDAUAAMBdeulkpbg7GYAuT5JGbP98vnI/cLJS5C8OAQAAAAAAACDj0mDFCZLmKNEbQRos6zbAweLik9XnNVdDZHEhCE4jw10ck/1+AfUkucZce5j0R4YDAADgTpm5HSlphBRAF7n2zfk5osAgAgBwS6tLpe0k25kSAAAAAIAs2Lx5c03SdyjRG+a+dpm/IH+M3zN+frPZvIEOdy4Tq1FrSfLXEQVPlvw3DAkAAMCdevhkJXwDGYDu2EkqStojx29h5yrnCAAAbmNRepzLX04JAAAAAEBmuB1LhF6x3beXSsv21aTdadqjj4l0EhXuWmYeR3lDFG1YsJG9JP2KYQEAALiTSYXbh9eUy3ejBLD8NpfLu2sZfwjQn9mwfeTGpxwBAIB/CAJfQQUAAAAAQJbU4/gcSddSoifCVrm823J8oWq1OiHp4STtiTkbDU8nw13L1H7UzWbzhnRkdHeXLmdoAAAA7oivXJB/mA5AN6Rr8/8efGVq+ghjCQDAza6OLhYAAgAAAACypi3pBDL0yjL9/H9ubjdJBXp2n5nOrNfrM5S4a0HWXtDMzExdK8b2kekyhgcAAOAObnjlr5wKw8dTAlh2awfhTbj8FZOV4m4MJwAA/7w2jlABAAAAAJA1hSD9qiSnRE8sy8//3fwppOyZdSTYMkEWX1Sj0WjYaLKPXD9kiAAAAO7gPi7Q57J6Pwfk0cTE2H1cut+AvB0zt8+Kv0IEAODGm2cPxqgAAAAAAMiaTbNzf+ABWb3h0v1Wrhy779Z+nUBiAWBvRCuayXfJsMXHZTbVato8Gif7mHQBwwQAAHC7E5XHTJVKr6YEsDysHew3YG/pkdVK6XWMLAAAkswniAAAAAAAyOSUNbVjqdAbhTTYd2v+/akprXTpkZTsie9skCIybJlMPzFmgxQVo+SZLjuPoQIAALgtN//IypUrpygBbD1zXztwb8r9w5VKZQ2jCwDgQm/jRAAAAAAAZJGPja2TFFOiF7G1VQsANVd+oth5pzdD5cb2vx3I/JZx10txI4qfLtO3GS4AAIDbWF1YXPgQGYCts4MUSjaIj+2vjnj6n4wwAGDoua8kAgAAAAAgi+r1+oyk0yjRE7tLGlvyv23+JBL2RKMRx2eTYcsFOXmd8/Vm8gKZTmfIAAAAbj3Z0OsmSyUeNw5shahU2l1SaTBPEf7KqTB8PKMMABhmqYwFgAAAAACADM9b/Rgq9ER5slJ8wpL/bfcnkLD7THa6pDlKbLkgR691vt5Mnifp6wwbAADALRRMfrQkIwWw5Fn72gF+c4EH+i+xLQEAYIiZfA0VAAAAAABZNRO1LpTpKkp0nyl46hL/1RF3PY6CvdA+kQadCfI2wvUoeYXJjmPoAAAAbjFbeeJkufj/CAEs2doBf3+PqpZKr2GYAQDDyqW7UQEAAAAAkOWpq8l4IFYvQrsvaQHgRKm0s0wVCnbdxlo0dyEZOjOSw9fcrkXxqybLpbbJX8UQYunsXFm6ng4AcNcnTLm9XNIoKbI+UPaxarV6er1en6EGsOVWrhy7n9q67+CfJPwj4+Pj35ydnd3EqAMAhu9eWdtSAQAAAACQZe3F9NigYO8VOz51lUmPHh8fXzU7Ozvdyb8XBP4EOf26P0B+qqRFQnRmJKevO21E8aurpTCS6c0MI5bGH9QO/E2bN8/9iRYAcOeq5bAh6Z2UyLy7+Xzr/ZLeRgqgg0l7O9hvSN7q1IgvfFTSaxl1AMCQMbEAEAAAAACQcTOt1tXVcniJpN2p0VXBCl/cS9LJHf1brieRrvtcYvvfpRzUeR7zepwcbNJRDCOW6B6FdnDhypVj9yUFANy5Qph8SNJ1lMg+k95crVQeSgmgk8+N7zs8M2f7t1Vh+FhGHQAwTCqVympJY5QAAAAAAGSdy4+hQvelbk9bwr/2BMp13XWNZusHZOhckPPX77UoOdjMPsxQYonuUWgHl66qjD6IFABwxzZt0qykd1EiF0bk7c+Lx8MDW2QHKZTsKcM0B/RAnx+AuSAAAFtsrN2+FxUAAAAAALmYw0atUyXbTInuMvk+nfzzq8Lw7pJ2pFx3ubROUkqJzg3EL31qzfi9LALEVrhb6oXzVo+P3Z8UAHDH6lFyoqRLKJELT65WwheSAbhrUam0h6RwyCbQj54qlV7N6AMAhubaVxALAAEAAAAAubBBilw6hRJdt8Oq8dEHbuk/7AW2/+2FQtrhtsz4p4F56kOtGb9X0rsZUizR3RfT4PtTldEHkwIA7vje1qzwJkkLpMjDaOmTa9aoQgjgLj8s+w3nCd3/c3x8fDXjDyCPRniKKTq97rnfmwoAAAAAgLywwI+lQve1vfDULf6HnQWA3T/wddV0klxOiKUZqB+Y1qPk42J7Qiz5XKJt3Qvnd7LKGwCGTa3Z/D+TvkCJXLj7YhweRgbgLmdEa4f0nU+N+AJPUQeQS+6+ggro6JgxsQAQAAAAAJAb9dnkhy79gRLdZa6nbek/m0pPoFiXuU6W5IRYmoH7i+l6lHxCbm/goMASbedp4ZJqpfJQUgDAHRhL3ivpb4TIhUNWj489gAzA7Vs9PvYA+RAvCHB7zaowfCxHAoC8SQs+QgV0wmQPoQIAAAAAIEfc3I8jQ9ftIWnsrv6hbaWySY8gV7cFJ9JgK+oN4puqx/EX5fZGSSlDjI6vpNI27u3z2Q4YAG5frabNLv8PSuTCaDu1I8kA3L7FNFg75AmCNNBRYitNADlTcI1SAR0wOQsAAQAAAAA5m8y6HS+pTYmuKk9Wio+/q39orlLcRRI7UnTXlfUo+hUZlm5gf9FTj+MvSjpQ0iLDjI4vptK28sJF1XL5YdQAgNtqRK3jZPoRJXJxVdtnslQ6gA7A7d3z2Voq6HFTpeIryQAgT9oelKiALTVZLO4o+UpKAAAAAADypJYk10p+PiW6K1Cw9139M5bqSZTqLnfn6X9bfSwPsHqUfEPyV4hFgFjKCUbaRkovYBEgANz+aTJN7c3iabu5YOaf2UEKKQH8y7ZSWfLdKCG52cdWrlw5RQkA+bm5SSeJgC0+XILgoVQAAAAAAORyTmt2DBW6K3XfZwsG4gmU6q6Rgq+jwtYZ+K2e6lHrBDO9WNICw40lWCOll0yUSo8mBQDc0kwc/1TmX6ZELuwUV0qHkgH4l/lSaQ9JRUpIklYXFhc+RAYAeWFmPM0NW368BNqFCgAAAACAPKo1k9MkTVOie0x69Pj4+Oo7/0fEAsDu+tmm2bnfk2HrBMPwJmvN5Jvu9nxJ8ww5lqAamJ89WS7vTAoAuKVFW/EeJh754O6HThSL96YE8M9PBdv/3pzpdROl0qMIASAXZ/DUJ6mALb8PTh9LBQAAAABATs3LdRIZuipY4Yt73tF/uaoy+kBJ7KDTXSeTYBkO5GF5o404/rYpeJakhGHHEqw2pRevKpX4q3EAuJnZ2dlpuR1GiVwoBiP2aTIA/5wJ7UuEWyiY+ReHaY4IIMencLM1VMAWMsn4WQ4AAAAAILdS2bFU6C6X732H/106siuFupvf22z/uxyG6pc7tSg625Q+S1LM0GMJJlPzs3kyCgDcUj2Ov2zSTymRixnMs6ql0n6EwLBbNT76QLl4IuatmLTLZLn4ckoAyLrUtT0VsCVWj4/dT9IqSgAAAAAA8momjq+Q9GtKdJHb0+7wvzO2/+0q048brdZ6Qmy9oXu6Qy2aO0+B7ytpluHHEkwF5hesCkO2jwGAf2mb2xskpaTIxSzmyJ2kIh0w1J+CtMBC2DucINrHJiYmqpQAkGUmFgBiy6TtwlOoAAAAAADIO5OOpUJX7bhy5dj9bu+/cDkLALvIpROpsDyGcnun+mzrUgVaK9lmDgEswWQa6Gy2AwaAf5mO45+Y7HhK5GKWeN+ZUvFthMAwS2Vs/3vHk+1tgoX5D1ICQMbvZ1gAiC27rpnvSQUAAAAAQN7NW+HrkhYo0T2FxcJet/6/TU1ppaT7U6dr0pHUvkmG5REM6xuvzyY/TF17SprmMMASVFPz81aF4eNIAQD/mHwEh0pqUCIHzN4zWSzuSAgMo22lssl3o8SdnSP0hsly+RGEAJBh95A0Sgbc5RVN2p0MAAAAAIC8azabN8h0JiW66Hb+iLA9V9xFQ7yuquvJpYs3xfH1lFgeQ32gzsTxT93tqZI2cShgCSbSQOewCBAA/jX5cOkDlMiFkhXsE2TAMJovlfaUNEaJO1UwT4++cf4NANk8T60aH703GXBnquXyQyXdjRIAAAAAgEHgqR1Dha7aU7daQxXIHkOWLh7TbidTYfkM/UrVRhz/PLD2bpL+xuGAJZhIAzt3KgzZ9x0AJDWi5GhJv6RELjx/qlzehwwYvhlQuh8RtoDpSZPl4oGEAJBVaXvkvlTAnWs/nQYAAAAAgEHRiOPvSfo7Jbpm1WS5/PCb/x/M9ViydM3iQhB8iwzLh0dVSppuzv8usPZekni0JJbAV3pgZ0+F4RNpAQBqu/nBkpwUObiCyT8taQUlMFwHvu1LhC1lR0xOTk7SAUAmz1DmD6QC7uKazwJAAAAAAMAgWXTpG2TonkDp3jf/z27ahSrd4uc3m82NdFjO4xeSblwEmLZ9V0lXUwNLODmt9EDnTlaKu9MCwLBrNFuXSDqJErm4fj14qhy+mQ4YFlOV0QdL2okSW8akbYOFucMpASCTdzHSI6iAO1KpVLaR6XGUAAAAAAAMErMC2wB3kcv3/Mf/vrpU2k7SPajSrdY6kQrLiwWANzPTal2dtn0vSeupgSUoW2pnVMeLTyYFgKG/wUj1TrmalMjDDba9/6ZJDDAEB3xhLRE6noS/sXqrbQ8A3D6T2lToafFH0gB3ZDRdfLqkAiUAAAAAAIOk3mz+xqQrKNEttttEqfSYiVLp0YuBP48eXdOy0fDbZFheLAC8lZlW62qleopcf6IGOr8eqKK2nTlZKe5GDADDbDpJrpPpQ5TIA1/ZNj+CDhgSLADs3IiUHi3JSAHcxXTQbJEKPb2HecD2UokOuD2pBS+iAgAAAABgELnZsVTomnJg/pPA/ApzHUWOLjGdXa/XZwixvFgAeDvqSXLNiAVPlvw31MASTlYVcztrolLckxgAhvp6GiWflXQlJXLhpZOV4lPIgEG2rVR2aVdKLMmTq+XiS8kA3LlgUSwA7K1CXCk+hgy4tdWl0nZ2sy17AAAAAAAYJO1g5ERJLUogr4ztf7uCBYB3YGMU/X3BRvaS9CtqYAlKgdsZE+XiXqQAMMTmA/mbyZCPe21zHS1phBQYVHOl0t6SxiixNC77ZLVanaAEcMcWzRao0OMbmFRPpgJuLTV/sdj+FwAAAAAwoDZv3lyT9B1KIKeiFc3ke2RYfiwAvBPNZvOGxWBkL0m/oAaWoBTIvsMiQADDbDpqnW+ub1EiD+yh1UrpdXTAwB7hQcr2v1vTT9rW5lsfoARwxwIWAPbj5L4bEXBrLh1IBQAAAADAIDMFx1ABOXXGBikiw/JjAeBdmJ2d3ZSOjO7p0k+ogSUoBbIzVpWLe5MCwLBKU3+bpJgSOeD+oUqlsoYQGMzj21gAuLUJpYOq5fLDKAHcvsAW2AK49/cuT5Q0Sgj8w1QYPl7SIygBAAAAABhktSg6T9K1lEDeuNtJVOgOFgBugZmZmbqNFp8q1/9SA0sQprLvVkulp5MCwDBqtFp/cfePUyIXqiNa/CgZMHAHdqXyUEn3pMRWG5Gnn5dkpABuayEwFgD2mqkyUS6yDTD+JbDXEwEAAAAAMATakn2NDMiZRiOOzyZDd7AAcAvV6/WZkXKyj6TvUwNLMCbzU6bK5X1IAWAYTcatI+T6MyWyz9xetSoMH0sJDNZx3d6XCssVU7tWy+GLCQHcVjBv81Tox2nJ9qMCJGnlypVTLn8BJQAAAAAAw6AQtI+V5JRAXpjsdElzlOgOFgB2YONGNcMoWeuy86mBJSi60tOrpRLbzwEYOuullmSHUCIf94ftQEdzn4gBw/3X8vrk6tUaJwNwS+no6CwVes+k/akASSq0F14rKaQEAAAAAGAYbJqd+wO7WCJf2P63m/jFboeul+JGFD9dpu9QA0tQlPnpk6XSM0kBYNjU4/gMSd+jRA5uv6VdpkqlV1ECg2D1ao27tCslltV2i0n4fjIAt7R58+bNVOiLB0yWyzuTYeiNSXoLGQAAAAAAw8Rkx1IBObGxFkUXkKF7WAC4NHP1ZvJ8M51GCizBqJmfMlkqPYsUAIZNOpIeLKlFiexz84+Nj4+vogTybjEK95Y0SonlZdLB1XL5YZQAbnnKkRSToR/npJStyYdctVR6haTtKAEAAAAAGCaFcnySXE1KIPNcp+jGn5+iS1gAuHTztWbyQnd9kxRYglEzP5knAQIYNjMzc3+W2acokQurRtqLHyQD8s4Kzva/3TEipUeSAbgNngLYHy+SZGQY5muSv4MMAAAAAIBhs3GjmjL7FiWQdR74yVToLhYAbp2FRpy8SLLjSYElGDXzb06G4bNJAWCYlJvxRyStp0QOmF43WS4/ghDI96zS9iFC1+xRrYQvIgNws1MOCwD7ZcdV5eJeZBhOU6XSK2S6LyUAAAAAAMPILT2WCsi46xvN1qVk6C4WAG69dj2KX2WyY0iBJVhhgdZNVsLnkALAsLhWSsz0TkrkQsE8/S/xRB3k1E1b1N6TEl3k+szUlFYSArhRwALAvmm7vY4KQ2nMzd9LBgAAAADAsGo0WxfL9WdKIKtcOklSSonuYgHg8mjXovjVMv9vUmAJVpjrpKlK+FxSABgWtWbyTZedT4kcMD1xslx8GSGQTynb/3bf3XwuPIwMwD+xALBftyymZ60pl+9GieEyWQ5fLxb7AwAAANgizh+6Y2APbpezayUyq5CK7X97gAWAyyetN1uvN+mzpMASrHDXumo5fAkpAAzNzZ4tvkXSAiXywD5RrVYn6IAcYgFgbxxy09MWgaHn0kYq9G9evWh+EBmGx8qVK6dMYhE6AAAAgC2ctFuRCBhYqY4TT1hDFpmumk6SywnRfSwAXObbhlqUHCLpk6TAEhQkHTdVCV9ACgDDYLo5/ztJR1IiD/fm2tbnW++jBPLkpm1pn0SJnhgxpZ8hAyCZtIEKfeT+ptWrNU6I4VBI5z8iaTUlAAAAAGzhpL1EBAyqRqv1F5MupgQyx3WyJCdE97EAsAvqUfJOmX2UEliCEXedUK2ELyIFgGFQCJMPSrqeEtln0punKpWHUAJ5kc6He0taQYlezeG1F3/IAkgu/zsV+mqynYSvJ8PgmyiVHiW311ACAAAAQAdCEmCQpfLjqICscQUnUaE3WADYJfVm/B5350k5WIoRub5eLYcvJgWAQbdpk2YlfxclcmGFvH0UGZCjaSXb//a6uOtTa9aoQgkMM3OeAJgB7+QpgAOvYOZf1I07KQAAAADAlmIBIAbaWNQ6VdIsJZAd9rtGFP2SDr3BAsAuasStD0k6lBJYgoKkr1XLxZeSAsCgq0etb0i6lBLZ59KePOELeZlVmhsLAHtvh8U4PIwMGO5rZcATAPtvTdoqvYMMg6taDt9u0i6UAAAAANChMbFjCAbYBiky2amUQFa4p+uo0DssAOyyepQc4dIhYk9rdK4g2XGT5eKBpAAw6Pd/UnCQpEVS5OFmXZ/aVipTAllWLZcfJunulOiLQ1aNjz6QDBhWqcQCwCzcr6T+tjXl8t0oMXhWj489QNLhlAAAAACwBDZRLO5ABgyy1NJjqYCsGCk42//2EAsAe6ARJZ+V2ZvEIkB0rmCyYybLxZeTAsAgq0fRr+T6AiVyYYf5cuk9ZEC2pTz9r39G2+kI24VjaI24swVwFpgqi0o/QYiBs6KdBsdJKpICAAAAwJKmiyO6JxUwyBrN1vclXU0JZMDPN83O/Z4MvcMCwB6pN+MvSH6gpDY10KGCyY6plkqvJwWAgZ54F5PDxFNzcsLfftPTV4Cs2o8EfTyfy586VQmfSwkMo+kk+bukeUpkwssmKsU9yTA4quXwI5IeRwkAAAAAS+YsAMTgH+Vm9jUyIAN4+l+PsQCwh+pR6wTJXyEWAaJzJvP/mioVX0UKAIOqVtNmc+fJcvkw2k7ts2RAFlWr1QlJT6BEf7nr02wXjiHVlusaMmRD4MHRO/G0uIEwVS7vK+ntlAAAAACwNcx1Dypg0LUX0+PE7pToL/e2n0yG3mIBYI/Vo9bXzfRSSQvUQKefVzf78lSp9GpSABhUtbh1rKQfUyIPbN/JUulZdEDmjsyF1lMlraBE392T7cIxvCciu4oIWeEPapTDj9Ih3yaLxR1d6fHi55gAAAAAtn7O/lAiYNDNtFpXSbqUEujfuVaXNVqt9YToLX5w1ge1ZrLOU71QbAuEJXxm3fy/p0ql15ICwIBKU7eDJKWkyMH9u/lndpBCSiBTJxG3tVTICn/b6vGx+9MBw3fo+5+JkKH7FengyUpxd0rk07ZS2Qr2bUlrqAEAAABg6+fs2oUIGAbmfhwV0LdTrWsdFXqPBYB90kiS0+R2gKQWNdDx9dr8i9VKeBApAAyimTi+Qub/Q4lcuFezVHwXGZCl+yST70OGzBhbTAtHkwHDdybS1UTIlMDcTlxdKm1Hivx9mubL4Vck7UwKAAAAAMs0Z7/P+Pj4KkJg0BXKrZPlalICfZCOuJ1Cht5jAWAf1eP4LFP6LEkxNdDx7anrqGql9EZSABhEi7biPZJqlMjBBcns0Ili8V6UQBZMlss7S7o7JTJ10/rUyTB8NiUwTNzEEwCz525t8xMkjZAiP6rl8AhJL6QEAAAAgGVkK9L5R5MBg27jRjVlOp0S6INLNsXx9WToPRYA9lktmjvXzZ/O6mss5QZV7kfzJEAAg2h2dnaTzA6jRC6EwYh9mgzIxs1Rm+1/szgugT6zvVSiBIaGB1cRIZP2mCyHHydDPlTL4aGS3kEJAAAAAMs+bVewFxUwDAKxDTD6cZI1tv/t22cefddoti5SQWsl20wNdMjkOmqyEr6FFAAGTb0Z/7ekn1MiDzfzOmCqXN6XEMjArRELALNpx1aldCgZMCzGouiPklJKZHECrbdVK6U3USLbpkqlV0v6T0oAAAAA6AaXDqAChsF01LpQ0l8pgR5aWCwUTiVDf7AAMCPqs8kPgtSfJqlBDXTIzPXZyXJ4MCkADJi2pTroxvk4si5VeqSkUUqgXyYnJyclPYES2eTuRSpgWGyQIrl4CmB2T0hHTpZKzyJENk2VSq928y9JMmoAAAAA6AaT7j9VqTyEEhgCqcy+Rgb0jp8/Ozu7iQ79wQLADJlOkh+nbntJmqYGOr1XNemzU+XwEFIAGCS1JPlfkx1PiRxciKT7V8vh2yiBvk1sFueeKmmEEtmUmp9DBQzVdTHQr6mQWQUzXzdVLu9DimypVkpvcPP/Fj+vBAAAANBlabr4HCpgGBSsfZx40AZ6xCW2/+0jfqCWMTNx/DMp2NOkG6iBJZxQPz1VDt9OCQADNTmRvVvSDCVy4bCpMNyBDOjPjRDb/2ZYNNNs/ZAMGC7GAsBsG3Olp02Ui3uRIhuq5fBQuf+XePIfAAAAgF7M2s1eLf6YGENg0+zcH+T6ESXQAy0bDU8nQ/+wADCD6lH0KwvaT5F0HTXQKZc+WS0V30MJAINiYxT93aTDKZELZQ/0STKgD8zlPMkpuy6WNEcGDNnM7Dc0yLwwkH1vqhI+jxR9VaiWwqMlfUws/gMAAADQO/ecqoTPJQOGAzttoQdHmevMer3OA136iAWAGTU9O39lIUj3lHQtNdD52dU+XC2HhxICwKCoRcnn+EV6brxwslLcgwzopclS6RGStqdENrnpXCpg+KZkbZ4AmA9j7jpxqlT8N1L03tSUVlbL4bdlehM1AAAAAPSauw6hAobiWB8dXSepRQl0VaCTidDvIUBmbZqd+0Pa9qdI+gs1sAQfq5aL/04GAANi0U1vJkM+mOtzklZQAj075pSy/W+GFazNAkAMnenZ+T9KSiiRCyNu9uVqOfxP8XOynpmqjD7Y58LLJe1PDQAAAAy7VGpToS8eVy2VmJNg4DUajYak0ymBLoqKzeQMMvQXP9jMuJlW6yql2k2uP1MDnbOPsh0wgIGZoDRbF0s6iRK5uP48ZKocHkQH9PCY248GmfWX6dn5K8mAIdSW6+dkyM+FRNK7q+XiGdVqdYIc3TVVCV/gaeHHkh5ADQAAAEAy93kq9It/VtIYHTD4h7p9nQjoou9cL8Vk6C8WAOZAPUmuGbFgV8n/jxrofNZgH54sFd9PCAADceOS6h1yNSmRg7mkdPjqUmk7SqDbJiYmqjI9jhJZvRf1c4iAob0Wmi6jQu5OWvtpvvXL6ni4Ky2W3+rVGq9Wil9y1zqZKhQBAAAAbpqJmFgA2Lf4um+1VHwHITDo6nF8jksbKIFucDce4JIBLADMiY1R9PcRFfZmESCWNnGwD0xVSh+gBIC8m06S62T6MCVyYbxt+hgZ0G2F9vzTJI1QIqP3obLzqIBhFbAAMK92VKqLbnqaPteXZTJZKe7WTsJfyu211AAAAABuycUCwL4yO2yiVHoUITDgFs11ChnQBY1GHPMggAxgAWCObIyiv6cjY0826QpqoOPJg/v7q+WQhRgAcq8eJZ+R9HtK5OLqc+BkpbgbHdDdw8zWEiGz2ovBigvJgGEVpPZDKuTWiMw+XC2HV0yUSo8hx9JNTk5OTpXDI83tQkn3oggAAABwO8wWiNBXxcD8tPHx8dWkwECfalwnUAHLzWXfkjRHif5jAWDOzMzM1BcLK/ZhESCW6NBqpcSTswDk3bwpOJgM+ZhPmttnJRVIgW4dYy7fhwxZHR1dvnnz5hohMKw2xfH1kq6lRK7tHJj/qFoOj5ia0kpydHYVmCwX/1+wMPd7l97C/SAAAABwxzxNeQJg/91zJF34mngSPAZYLUl+LNefKIHlFMhOpkJWxgK5s3nz5pqPFveW6UfUQOezCH9PtVz6KCEA5HqSEkXnmOk0SuTCI6uV0uvIgG64aWuOu1Eim0x2LhXA9IttgAfAiKR3pnPhH6ZKpdeKhWx3fX0uF/eaLIc/NtlxLm1DEQAAAODOmVlChUyMxL6TpfAkSStogQHlFhhPAcRy2liLogvIkA0sAMyper0+Uygm+0i6lBpYwrX939kOGEDepYv+Nkn8YCQXlx3/ENsnoBtMKdv/ZlnbzyEChl1g+l8qDMo1R9u6+Zeq5dKvq+XwJWIh4G2sCsPHVsvFswPZ+SbtQhEAAABgC+cbbuygkJWxMD13qhKuE4sAMaAWgzYLALF8XN+UtEiIbGABYI5t2qTZ0ShZa9KF1MASHFoth0eQAUBeNVqt9e7OYuZ8mBrxBZ4+i2VnMhYAZle9liSXkwHDzhXwF7CDN6oPknRCtRz+ZqpUfNVOUnHYi6wqF/eeKofnp4F+LNk+HCMAAABAZ1L3aSpkaNbnena1FF60KgzvTg0Mms2b5/7oEj+3xfKcLwNfR4XsYAFgzm2QolKUPF3ys6mBJXjnZDn8JBkA5NVk3DpCpqsokYdZgP3bqlKJJ8Fg2axcuXJKpsdRIqMfedcFktqUwLCrR9GvXdpAiYH0QDf7yuZy+JepSumDU2G4wzC9+W2l8lSp9OqpcnhFKjvPpb04JAAAAIAlKrAAMHNMT0oD/XyqPPY0YmAAj++vEwHL4LpGs8WOpRnCAsABcK2U1KPWAZLOoAY6v77r7ZPl8NOUAJBH66WWp3YIJfJx39k2P5r7TyyXQrrwNLH9YoYnmnYuFQBJkpvEUwAHeYClbdz9vR5ofbVcPLtaCV+0gxQO6o8QVoXh46ql8PPz5dL1bv5llx7NUQAAAABsnUAjLADMpjWu4OxqOTx+dam0PTkwKBZVWCe2bcVWculkSSklsnQ/gUExV4+S57nrVFKgUyYdMlUOP3vj/woA+dKI4+9IfhYlcnG9eexUqfhKSmB5Zpds/5tlaZqyABD4x+lKfj4VhkJBsn3kOjEqhTdUy+G6qUr4wtWrNZ73W7iJUulR1XL4sWo5vCoNdJlMb5B8JUMOAAAALI8gTWtUyO6cSNKBbfMrq6XieyYmJqokQd41m80bJD+PEtgahVRs/5u1+wkSDJT5Rpy8SNKJpECnXDqYRYAA8qpd8IMlzVEiB9cbs//khyRYjnmMyfclQ2Zd2Wi1/kIG4KYTVmosABw2poqkF7jrpHYSTlfL4SWTpeJhU2H4eEkrsv7yx8fHV01VwhdMlUtfrZbD6wLzn0o6VNJODC4AAACw/DbF8bR4ilLmp0oy+3CwOP/Xaik8evX42ANIgpw7gQRYMtNV00lyOSGyhQWAg2exHiUHmuw4UqBTLr2lWgqPEosAAeTM5s1zf5TZpyiRC2uChfkPkgFbY6JUepRL21Aiq3N/8fQ/4GZqSfJXSVdSYmitkLSbmX3IA/2oWg5nqqXw0mo5PGKqEr5g1fjoA9XfLe1HJ8vlnadKxVdNlktfqZZLvx1JFze6a53LXylpO4YQAAAA6Lp5SX8jQy6UZXpTOw2urJbDX0yWiu+rlssPIwvyZjRqnS5XkxJYErd1kpwQ2TJCgoHUrkXxq6qV4rzcXkMOdMR0ULUUBvU4OYiTNoBcTVaa8Ufny+GBku5Bjcxfa94wWS7/TyOKfkkMLO0QSvfj7xUyPPd3O4cKwG18V9IDyQBJoUy7StrVXXIvqFoOW5J+J9NfzHWNpL/K9Fe19VeT/jKdJH+X1F7qN1y9WuOaG9s+TbWjvLCjAt3T3R8g2UMlv5+UjriZjB8BAAAAAP3jWi/T3QmRKzub2c5Seni1HG6S9GN3/7Ep+IUFi39e2Zy/ar3UIhOyaIMUVU2nS3oZNdD5JcvY/jeDWAA4uNJ6s/W6aimcl+lN5EBHTG+sVopBvdl6o1gECCBHk5Up09vddTI1Mq9gnh4taTeuM1jSrUpgazlyMmtuNI4vIQNwq/NWqtM80DsogTtQlPRIuR75z8ubSwpu/P+q5XBR0qykRKaWXE2TFiTNuGxR8hnJK65ghSQF8qrLSi6fMmmqndxs22Hzm919cTEFAAAAsjNx1NWSnkSI3FotaX8z219yuRc0Uw5VvfHJjhvl2izzzZJFvXpBLv9eI2qxayDu5LQTnOBKWQCITo+c3/GAj2xiAeBg83qcHFStlGbk/h/kQGdHj71+slxa0Yji10pKCQIgD2rN5JRquXiOZPtQI/Mzy12r5eJL61Hr68RAJ1auXDml9sIulMjqR1s/2CBFlABudY+SJJdVy+HfxHaqWJoRSVVJ1X+s2fvX0j3/5xn4H0/w+8f/y7NyAQAAgPwws/Xu/JHOANpO0nY3TtB6PUuza8mPO1OLovOr5fDvku5GDWwp9/QkKmRTQILBV2/G75HsPymBjm8L5f82WSl+iXMFgFyduyx9m258IgqyP1pHTE1pJR3QiUJ7YV9JBUpkdPIvnUsF4HalMv82GQAAAAAAtz9rTNcTAUCPLZrYVQudGSk42/9mFIt6hkQ9iv/D3T9ACXTK3F49WS59mfMFgLyoNed/69JRlMiF7dK58H1kQIfWkiC7XAELAIE7nFv5aVQAAAAAANyeNNCfqACg9ycf8TQ3dOLnm2bnfk+GbGJBzxBpxK3DJb2LEuiUyV9VLYdfF0/bAZATI2FyuKTrKZGHa4wOrpbLD6MEtnT+YtLTyJBZf29E0S/JANy+WjR3kaQ6JQAAAAAAtzFS/KUk9gAG0FO1JLlM0l8ogS3EgtEMYwHgkKlHySdMehs3kFiCF0+VS18RiwAB5MCmTZqV/FBK5MKIKf0MGbAlVoXhY1zahhKZdR7zDOBOLZjsdDIAAAAAAG6t0Wg0JP2VEgB6zF36FhmwRcdK29kyOsNYADiEalHyGXN7vaSUGujojC5/ebUcniBphBoAsq4etU6QdAkl8nB90V5TlfD5lMBdHisF248KmR6hc2gA3LnU0uOpAAAAAAC4A+ysAKDnglQs6sJdc/2o0WqtJ0SGP8skGE61OP5vc3+tWASIzr2QRYAAcnMraoWDJC2SIgeD5fr0tlKZErgzqftaKmT3YzyiwgVkAO5co9m6RNLVlAAAAAAA3JqZsQAQQM/VkuTHYhtg3AUPtI4K2cYCwGE+kcetr7j8lZLa1ECHXlAth8eL7YABZFy92fyNXF+iRC7sMF8p/QcZcEcqlcoakx5Dicz6xcYo+jsZgLvkZnYCGQAAAAAAtzNl/AUNAPTj5OPSqWTAnUhHUjuFDNnGAsAh14hax5vpJZIWqIEOvbhaDk8UTwIEkPU70hWj75W0kRK5mGK+Y/X42P0Jgduzwhf3Yf6SaWz/C2yhxaB9nCSnBAAAAADg5qyty6gAoB8KbAOMO7s+SRdviuO/USLb+AUaVGsmJ8vtOZLmqIEOPX+yFJ4oaQUpAGTVzMxM3dx4slw+jLbTwufIgDuYYrL9b4a5OQsAgS20efPcn2T8UgcAAAAAcEvTSXKdTFdRAkAfzj+XS1pPCdwuN7b/zQEWAEKSVI/j78rteWIRIDpkpudNlsJviEWAADKsFsdfdelySuRiFvG0yVLpmXTArRQkPY0MWf3Yqtlotv6XEEAH86jU/4cKAAAAAIDbzBfdLqECgD5gG2DckYWFQuFbZMg+FgDin+px/F1T8CxJCTXQ0WTE9LxqOfyWpDFqAMio1N3eKCklRQ6uK4F/ZiepSAn8w1QY7iJpNSWy+qHVxZLmCQFsuVrcOsGkGygBAAAAALi5VOmlVADQD2wDjNvn583Ozm6iQ/axABC3UIuic9x8X0mz1ECHnl4th6eKRYAAMmomjn/q5l+lRB7mErp3o1R8FyHwTwW2/800E9v/Ap2bc4n7EgAAAADALfiIf58KAPphOkkuZxty3Oa6JLH9b06wABC30Wi2vq/A9xeLANG5/auVcJ2kUVIAyKJFjfyHpDolss/M3j1ZLO5ECUhS6s4CwAwrWHouFYClnNz0BUmLhAAAAAAA/MPMzNyfWYADoG9cbPWKm2vZaPhtMuQDCwBxu+qzrUtTtz0k1aiBDm8KnlUtF0/fia0bAWRQs9ncKLP3UiIXwiCwT5EBlUpljUmPpkRmrd80O/cHMgBLmHcnyTXu4gdoAAAAAIBbYK4IoF8CN7YBxj+Z68x6vT5DiZx8fkmAOzITxz9N3Z4mFgGi80vB2plyeIrYDhhABtWb8Rcl/YIS2eem50yVy/tQYriN+OK+zFsy/RMAnv4HbI3AjyYCAAAAAOAWzFkACKAvpuP4CklXUwKSpIDtf/M1XMCdmInjn7qCPSVtpAY69PRqufgtsQgQQPa0FeggSU6K7HOlR4qt5Yeaydj+N9OfUTuHCsDSNZqti126nBIAAAAAgJvNFX8gaZoSAPrAJZ1KBsjVLDaT7xIiP1gAiLu+yYyiXwZBezdJ11MDnbH9quXit3eQQloAyJL6bPJDSV+nRC48oFoODyHD0CpIehoZMqvthdGLyABs5azJ7cNUAAAAAADcTNtkLLoA0BdufgYVINN3rpdiQuQHCwCxRaZn568sBOmekq6jBjq8MuwTlYun7SQVaQEgS0YUvEuyzZTIw2xTh60Kw7sTYvhMheFjJa2iRGY/m5fNzMzUCQFsnXocf1fSLygBAAAAAPgHd51CBQD90Gi2fiieQsp1yI3tf3OGBYDYYptm537vbd9Vpquogc7YPo1y6Ts8CRBAlmyMor+b/HBK5OEyokoa6BOEGEIFtv/N9A8A5OdSAViej5OZPkIGAAAAAMA/1OP4HLE7G4D+aEs6iwxDrdG48TqEHGEBIDr7lLda69XWHnL9iRrohMmfGpXDs9esUYUaALKiFiVHSfo1JXLhxZOV4h5kGDLu+xEhuwpu/AAAWK57kmZyquS/oQQAAAAA4CaLkr5OBgD9YCa2AR5iLvuWpDlK5AsLANGxepJcY649XPoDNdCh3dpxePr2UokUADJiMTV/KxlyMuF0HSVphBLDYZtyeVuXHkmJzKpNJ8kVZACWjcuMpwACAAAAAP4psPaxVADQD76ieI6keUoM6fVHbbb/zeW4AUtQS5JrVyh4imS/pQY6ulmQ9krK4Xe3lcrUAJAFM83WhZJOpkQe2EMny+FBdBgO82rvw3wl0y7QjVtBAFgm9WayziQW1gIAAAAAJEnTzfnfyXQZJQD0Wr1en3HZ9ykxlDbWorkLyZA//EINS//UR9HfFyzYXdIvqYEO7TFfCs9evVrjpACQBZbq7XI1KZGDsZIdvrpU2o4SQzHWbP+b5fFxZ/tfYPl5av52MgAAAAAA/jVT9KOJAKAvzNkGeCivOzpFN25Dj5xhASC2SrPZ3OgrxnZ36XJqoLMbBu3ajsMzWQQIIAtqSXKt5P9JiVzMPFampo/SYeAVJO1Nhgx/Et3OowKw/BrN1vdl+g4lAAAAAACSVI9a6yRdQwkAPbfo3ybC8PHA2f43p1gAiK3WaDQaNlp8mkw/ogY6cuMiwLNYBAggC+px65OSfk+JHEw+5C+vjhefTInBVR0PHy9pFSUyexP323qS8INnoEsKlr5L0gIlAAAAAACSFk06igwAeq3Rav1F8t9QYqhc32i2fkCGfGIBIJZFvV6fGW0mT5V0ETXQEdOT2nF49tSUVhIDQJ/Nm9I3kyEnV4/UjtSNT4nDIHJbS4QsfwD9XCoA3bNpdu73cn2ZEgAAAAAASQrC5L8lNSgBoA9nILYBHiIunSQppUROP60kwHLZIEWjUfIMsQgQnTI90VvhWSwCBNBvtWjuPJl4pHk+PLJaKb2WDIM6y3QWAGZ6eIwFgECXLRZG3idpEyUAAAAAAJs2aVayL1ACQK9Z6iwAHCKFVCdTIb9YAIhltUGK6lGyVhIXAnR496Anai68cGJiokoMAH3V1lskxYTIAfePjI+PrybEYFlTLt9N0iMpkVlzo3H8fTIA3TU7Ozvt8ndSAgAAAAAgSb5i9AhJNUoA6KVakvxY0t8pMQRMV00nyeWEyC8WAKIb5upR8nxJ3yUFOpq8SI8OFufPqlarE9QA0C/1JLnGzD5BiVyojvjCR8gwWBbU3leSUSKr92t26QYpogTQfY2odZx4wj6w3Obd7dmp22Ms1RPIAQAAgNzMERuNhqQjKAGgx1JJF5BhCLitk+SEyC8WAKJb5upR8lxzfYsU6NDjNN+6cOXKlVOkANAvpWb8cUlXUyIXE5JXrwrDxxJicJiM7X8zPYH0c6gA9O4q1y6kr5PUIgWwXLeOemcjjk+fieOf1pLkZxQBAABAnkxEyZGSrqUEgF4yd/5AdThG+iQa5BsLANFN87U4eaGkdaRAhx4VtBfOZjtgAP1yrZS429sokY/72bSgI7mvHRgjkp5KhuxyBedSAeidzZvn/ujuH6MEsAzXMNepjWZyFCUAAACQV+ullrl9kBIAeqmd6kIqDDr7XT2KfkWHfOMXpei2xXqUvFTS10iBji4x0i6FxfnzWAQIoF8acXy65GdTIgdcj58qFV9BiPyrjoePl8S1P7v+Vo+iX5MB6PU9Setjkn5JCWCr7hf/bGPFfyMEAAAA8q4Wx1+R6TJKAOiVmVbraknrKTG43FOe/jcAWACIXmjXo+Tlcn2eFOjoQiM9Olicv3B8fHwVNQD05QJW8DdLmqNEDpj95+Tk5CQhci61/YiQ4Y+Z7Nwbb9EA9NicWfslkhJSAEv7DKWyF9Tr9RlSAAAAYACk8uC1khZIAaBXTMY2wAOsEKSnUCH/WACIXvF6nBxkElutoFOPGEkXzx8fH19NCgC9tnnz3J8kfYYSObjRkLYJFuYOp0TuR3ItDbL8OXO2/wX6pNac/61J76EEsJQLmL11Jo5/RggAAAAMinoU/dqlz1ECQK+kSlkAOLh+Nt2c/x0Z8o8FgOglr0XJW036LCnQIRYBAuib0Sj5sKRrKZGDGw3pjdVy+eGUyKfVpdJ2knamRGalC1Y4jwxA/9Si5LMu43MIdOaEehx/kQwAAAAYNCtKyfvFlpwAeqSQ2oVUGFjrSDAYWACIXvNalBxiZh8iBTq080ja/v6acvlupADQSxukyEzvoEQujMjT/5JkpMifVOlaxi67TPp5s9ncSAmgv/PpEdcrJE2TAtgiPwuj5LVkAAAAwCDauFFNBXqZpDY1AHTbdJJc59IfKDFw3Nt+MhkGAwsA0Re1Zvw+M/sgJdDh9edBi0rPrVQqa2gBoLfXrWSdJB5vngemXavl4ksIkT+pjO1/s3wXJmP7XyADNsXx9XJ7paSUGsCd+luQ6pnXSzEpAAAAMKjqs8kPzeyjlADQC2bOUwAHblB1WaPVWk+IwcACQPRNrRm/X9KhlECHHrbC29+/aZtAAOjhxKZ9kKQFSuRitD5ZrVYn6JArI2bamwzZ5ZaeQwUgG+pxfIaZfZgSwB1qWarnTCfJdaQAAADAoKs14w/K9CNKAOg2k/GgjAHj0klUGBwsAERf1aPkCJPeceO5BdhiD2ybzt+mXN6WFAB6pdac/61LR1MiF+6m+dZhZMiPyUrxiZImKZFZs41mix8kA5m6L4kPl/xMSgC35fLX1ZLkMkoAAABgSCymi/5SSdOkANBN8ypcJNZ1DJL2SGqnkGFwsAAQfVeLkk/J7Q1iCyN0xB+8oPSS1aXS9rQA0CsjYfJ+SX+jRC4cvKoy+iAy5IM52/9me4B0kaR5QgCZkqYjYy+T60+kAG7hE42odTwZAAAAMExmWq2rFfizxc9vAHRRs9nc6NIfKTEYTLpkUxzzO88BwgJAZEI9jr9kLAJE5x7QNr+A7YAB9MqmTZp1+bspkQsr2j5yFBlygwWA2f5RwLk0ALJnZmamLgueKymmBiBJOqMeJf9OBgAAAAyj+mzrUpneTgkA3WTS5VQYEG7riDBYWACIzKjF8X+7/FWS2tRABx7YNr+IJwEC6JVG1PqaXD+kRB4mor73VCV8LiWybVUY3l3SwymRXe2gzQJAIKPqUfQrd3sx82gMPdf/hlHyIj4LAAAAGOo5YjM5WuZfpgSArjH9mAgDYWGhUDiVDIOFBYDIlEbUOs5ML5G0QA104AGp+cU3LSAAgG5zl71Z/HIxL4P1mW2lMiUyPEZmayUZJTJr/ebNc2zrAGR5Hh3H37npifrAkLLftkdWPON6noYJAAAAqN5svcFd36QEgG4I2jwBcDD4ebOzs9N0GLDPJwmQNbVmcjKLANHxJUq6nwe6aCoMd6AGgG5rxPHP5foSJXLhHvOVElvBZVgq35cKGWZ+NhGAHMyj4/jLMvsoJTCErlXqazdv3lwjBQAAACBJak/GyYGSLiIFgOU2nSS/lDRHiXxzie1/BxALAJFJtWbyTbkdIKlFDXRwobqfB7p0sljciRoAui1dMXqYpI2UyMMFwt+5enzs/oTIpBEz7U2GDH980uAcKgD5UG/Gh5nsWEpgiMy4gqfXk+QaUgAAAAD/sl5qFcLkWSZdQQ0Ay2xO0m/JkGstGw2/TYbBwwJAZFY9js80Bc+WlFADHdjJAju/Gob3JAWAbpqZmamb23sokQuj7TT4NBmyZ7JSfJKkCUpk1qKNjfHX4kB+eC2KXyf5maTAEEgU+DMaUfRLUgAAAAC3tWmTZhcLK/Zx6SfUALCcTPYrKuR4/Exn1ev1GUoMHhYAItNqUXS2m+8rV5Ma6OCu4z4K9P2JYvFexADQ1etUHH9F0o8pkQv7V0ulp5MhY5dst/2okGGuy/hBAJA78/Wo9WxJ3yUFBtic3J5fn21dSgoAAADgjm3evLk2FiV7mHQBNQAsH2cBYL6dRILBxAJAZF6j2fq+Clor2WZqoAM7BgW7eKJYvDcpAHRRmrq9SVJKilxMSj+7k1SkQ6asJUGGPzFytv8F8mm+HiXPlfQ9UmAAzcntufU45vgGAAAAtsAGKapFyf4yfYcaAJaDsQAwz6IVzYSfqQwoFgAiF+qzyQ8s9X0l8QQSdOKeQcEu5EmAALppJo5/6rJjKJGLWel9GqXiOwmRDVNhuIOkh1Iiuwpu51IByK35cpQ832XnkwIDpGVKn8niPwAAAKBjc/Vm8nyTHUsKAFuroMKvqZBb39kgRWQYTCwARG7UkuRHqdvekmrUQAd4EiCArlu04N8l1SmRfWb27slicUdKZGIw9pVkhMis6ekk+SkZgPy6VkoqUfxMl51HDQyAlik4oBbNsTgdAAAAWJr5WhS/UtK7xY42ALbCDVG0gd0b88nd2P53gLEAELkyE8dXuIK9JG2iBjpwz6BgF09MjN2HFAC6odlsbpTpfZTIhVIQ2KfJkIWZiO9HhEw7X1KbDEC+XSsljSh+uiR+uIc8u2nxX8TW9AAAAMBWqkfJx93tueIJUAC2iv+JBrnTaMQxP1sZYCwARP7OSlH0iyBoP1nS9dRAB+4RLAYXr1w5dl9SAOiGejP5gqRfUiIH01LTc6bK5X0p0Vcr3LUnGTL8OZHzgwBgcMzXo+Qlkj5BCuRQw833ZfEfAAAAsIw32XF8ehC0HyPpV9QAsEQsAMwZl31L0hwlBhcLAJFL07PzVwZBey+xCBCd2aHQDi5euXLsfqQA0AVtBf5mSU6KPEx00s9IGqVEf0xWirtKmqBEhieKKVuGAoN26atHybt041ZP3KsgL66VFZ7caLYuIQUAAACwvKZn568Mo+QJLvsKNQB0zOyPRMiXQO11VBj0MQZyfGPaLqRPkXQNNdCBuxfawcWrx8fuTwoAy60+27pU0gmUyIUHVsvhwWTo088G3NZSIcv8/2pJci0dgAG8V4mSj7v8FeKvfZGDa5GlemK92fwNLQAAAIDuuF6KG1H8akkvldSgCIAtZSlrNHJmYy2au5AMg40FgMi1zZvn/qRUT5brz9RAB7ZfTIPvT1UqDyEFgOW2QsE7JM1QIgdc71sVhncnRF/i70eDLH80jG0WgQHWiFrHp25PEn9Mh6wy/WgxWPGUWpL8lRgAAABA99Wj5BsjCh5kptOoAWBLuHQdFXI1YCdLWiTEYGMBIPJ/U5ok15hrD5N4zCy2mEnburfPW1UZfRA1ACynG6Jog0kfokQuLgaVNNAnCNFbU2F4D8lYhJ/pSWJwLhWAwTYTxz8tuD1Bph9RA1nirm9ONJM9Z2dnp6kBAAAA9M7GKPp7rZk8R/KXSeJ+HMCdz9+l66mQo/EK/GQqDD4WAGIg1JLkryMKniw5W8OgE9u5Fy6uVioPJQWAZb0uRcmRkn5NiVx48WSluDsZejjRNOPpf9nWKkbRpWQABt+mOL6+3kx2l/mXqYEs3CJI+ngjTl64XmqRAwAAAOiPetQ6oV1YcX+TjpLUpgiA27MYBDwBMD+ubzRbPyDD4GMBIAbGDVG0YcFG9hILLtABl7Zxb5/PdsAAlnvuk8oPIUM+mNtRkkYo0asZiO9LhCzfG9ml10sxJYChMV9vtl5rbq8Vn330T80UrK1HybslpeQAAAAA+mvz5s21WpQc7G67yMWiEQC30Ww2NzGHzweX1jFWw4EFgBi0C80Ni8HIHpJ+Rg1sKZO2lbcv5EmAAJbTTNS6QNIplMiFh01WwjeSoSdG5dqLDFmeIPo5VACGTy2OvxxY+zGSfk4N9NjP07Y/phZFXH8AAACAjGnE8c/rcbKbmV4o6UqKALiZVNIsGbKvkOokKgwHFgBi4MzOzk77irG9ZLqMGthSLm0jb19YLZcfTg0Ay8VSvU1SRIkcjJXbh1aXSttRorsmysUnSxqnRIbviazAAgxgSE03539Xj5LHmdnh4q+C0RsnhFGy60yrdTUpAAAAgMzyWjM5uR4lDzHTC+T6E0kA3KROgowzXTWdJD8hxHBgASAGUqPRaNhoso9cP6QGOrBGSi+YLJd3JgWA5VBLkmvl/lFK5IGvTE2MVdcnH8b2v9l2fb3Z/D8yAENtodaMPxDI95F0PTnQJbPm9pp6lLyMbecBAACA3EhrzeSUepw82Nz/TbLfkQQYeg0SZJzbOklOiOHAAkAMrFpNm8M4eZpJF1ADHVhtSi+aKJUeQwoAy6Eetz7p0h8okYN5kPzlU2H4BEp0k+1HgwyPjuwcfhgAQJKmo9b5Gi0+2KSjxNMAsbwXmx+1C+mjanH8P8QAAAAAcmmhFre+Wo/ihwTyp0r6LkmAIeX8UV/22Yk0GB4sAMRAu16Ki1HyTJedRw10oBqYnz1ZKj2SFACWwby5HUKGfMyEFOhz3CN3x2SxuKPkD6ZEdrmce2YA/1Sv12dqUXKwAj2FJztgGbRMeke9mey6efMcW4YBAAAA+efTUev8epQ8I3V7jMy/LFeTLMAQMc0TIdMD9Lt6FP2aDsODX25i4F0vxZNR/EzJz6QGOrDKzM+fKJUeRQoAW6sex2fK9B1KZJ9Lj66WSq+hRBemmkGwlgqZli4GIywABHDb+5jZ5Af1KH6Eu79f0hxFsAQ/Mys8phYlnxJPlAQAAAAGzkwc/7TebL22UEq2l9vrTbqCKsAwMBYAZph7ehIVhgsLADEU1kutetR6tkynUwMdmApuXATIdsAAtlq66IdIalEiD3NW/8j4+PgqQiz3zMNZAJjlw1762ezs7CZKALgD84249cFCkD5cpm+TA1vkxqd//Hs9Sh5fazb/jyAAAADAYNu0SbP1OP5SLUp2KQTpA83scJP+SBlgYCf+CzTIrpGCswBwyLAAEMNkvt5MXiDpZFKgA9XA/LxVpdIupACwNWZaravM7AhK5MKqEV/4MBmW1ZhS7UmG7HKzc6gA4K5smp37Q72ZHODmu/NEB9yFk8z1oHqUfEwSvxAAAAAAhm/++PtaM/5ALUrun7rtIrOPSPoVZYBB4gUaZNbPN83O/YEMw4UFgBg2C/UoeYmkr5MCHZhMzc9dFYaPJQWArVFqxh+TtJ4SeZi32msmSqVHE2J5rCoXnyxThRIZPuSVnksFAFuq0WxdUouSx0r+MknXUAQ382s3370eJS+uJcm15AAAAAAwE8dX1JvxYfUo2Tlt+71deqvkZ0mKqAPkmYU0yCye/jeEWACIYdSuR8nLXfZVUqADk2mgc6fC8PGkALBU10qJp3obJXKhEAT+OUlGimW4+ZKx/W+2zTaarR+RAUCHvB61TpiIkgfc+MsbXUeSoVZ301vqUfKoRrN1CTkAAAAA3J6ZVuvqRpQcWY9a+9WjZMrNn2JmH5J0qaSEQkCuFEmQSe5tX0eG4cMCQAyrtBHFr5b5F0mBDkx4YOdMheETSAFgqRpJcprkbLWZiymSnjBZLr6cEFvPWACY9QG6UGzPCGCJ1kutG395k9xHbm8QTzseNnV3/4BGi/dqNJPPSVokCQAAAIAtNN9otr5fa8bvq0fJbvUomQhSPe6mPzI7yaU/SErJBGQWTwDMItNljVbrL4QYPiwAxDDzerP1RpOOJAU6OGxWemBnV8fDJ9ECwFIVAj9Y0jwlcjFT+li1Wp2gw9JNFos7Sf4gSmT6OGf7XwDLYa4ex1+sR8n9Xf4qk/5IkoFWd/f3a7R4r0bcOrxer8+QBAAAAMBWWphOkstv+iOzFzei5AEjpWRCgXaV2UFyfV6yc+X6s/jjI6DvjAWAmeRs/zu0RkiAYT//1aLkrdVyOC/pneTAFh42K5XqrOp4uF99NvkBPQB0atPs3O+r5fAzkg6lRuYnsNvafOtw3fhXp1hKw5FgrdwJkWFpoc1TSQEsp4VG1DpG0nHVUmk/WfomyZ4m/gh1UNTd/TM2Fh7VqNdnFLcogkGbAPxFbD3Xfa4aEQD09PQe2LTLr6JE1/2VBFhuGzeqKSU/lPTDW/1XK1auHNtxpD1yHze/r7vfx6T7SrqHpNU3/c8gbU+6KGlWUiJXLNO05NOSTZs0nbpPWxBMm3xTKt/gi7p2ptW6liMI3b2tV5kKmdMeSe0UMgzpPS8JgBtNVUofcvfDKIEO7mqaKvh+9dnWpcQA0Kk1a1RZjMMrJd2dGpm3KAWPqkfRr0nRuWo5/I6kZ1Ais/czf67HyX0JAaCbVq4cu99IO3ijS6+UxJN1c8l+K/Mv2GhyfK2mzQPypkYmy6WzGNvuaETxvpLalADQTZOl4vtlwa6U6K5A/ttalBxMCQB5s61UnisWVxeCYJtUWu2Wrg5kq1P3lWZ245PLzCckBebBCpdXbvw3vewKRv85GzJvyrWwBd8ylfm/no6e2rxM0T/+o7snZtaSJJMW5TabWpoEZi15sLlt7QWlwUxgNp+229FYoRDNjYzMz8zMNCTxF9bImkK1HLbEQ8ey5qJ6lOxJhuHEAkDgZqql4ntk9mFKoAORm+/faLYuIQWAjq87lfBFcp1IiVy4pB4le4gftHRqrFoOp8VfAmaX6wv1OHkjIQD0wrZSeaFUeonL/59MTxI/l8q6BUmnu/kXGs3WReQAAAAAAACStCoM754G4imTGWNur6vF8X9TYjix/QpwM/W49RFJ76IEOlA2t+9NVoq7kwJAx9edZnKSpIspkQtPqZbDF5GhM1Plsd3E4r9Mcxnb/wLomQ1SVIvjL9fj5Mlp2+/j7u+VdCVlMuc6d39/wW2nepS8gMV/AAAAAADgVtjdKnsWFgqFU8kwvFgACNxKPUo+4aaDxRN+sOXK5va9iUqRx+kC6JwV3ixpkRC58Ik1a1Qhw5ZLFaylQrZ/IBAUYxZ1AOiLmVbr6kbc+nA9Sh6Uuu1i0mclradMf7i0Qa7Pu/ke9SjZsRG3Prgpjq+nDAAAAAAAuLV2QTtQIWv8/NnZ2Wk6DC8WAAK3o9FMjpLbGySl1MAWKgVuZ0yUi3uRAkAn6s3mb0w6mhK5cPfFOHwvGbacSftRIdN+VKtpMxkA9NtMHF9Ri5JD6lFyLynYWe6HuXQ5c/KuX6dvkOsLbv+/vTuPs+wu6Lz//d2q7r5LddeSbgJhEeLCoI6EMDMRkrDl5iEs6qgEfR6XcRvRAQXHURxRwXVAHQUVxxUHlUVwYUSUhMAkMwiIgICyBBF1DJClu251d917qztd9/f8ERhZslR3V1edW/V+/wMvSNJVn3P73nO6vjmnPm5lOL7vYDR++srq2vVJ1tUBAAAA7oYBYMPU5JUq7G5FArhrC732N5eUX08yowYbNC6ZfMXy8MQbpAA2anFxcb6eXLuxJOer0XgnW631hx45ftLjCu/BfLt9YWum/J0STf4TgfpDg9HaTwoBNNWhXu/e67V+2ST1/2mVPKom91LlrEySvCfJGyel/tnR1bUbYuwHAAAAnKbFufZ/Sy3foURjrJV94/P9C/+7mwEg3IOluc7X1JrfTTKrBht0IrU8ZTAa/YkUwEYt9NrfVFJ+S4nmqynXrQxHVypxT38A0H16anV3ywab1PKvj45G71ACmBbz7faFM61Wv5Z6WZLHJLm/Kveg5CNJva7W/PlsbV3nsb4AAADA2Vrodf6iJP9GiWaoNX+wMho/RYndzQAQNmBprnN1rXlZkj1qsEFrJa2vXB4OXy8FsNHzssVu580peaQUU3AxVfLVK6vjP1Tiri32On+S5ElKNNbhwXB8fjxeE5hi583tfch6bf2rVsrDa83Dk1yUkrnde4KS1STvTvJXtdR3Zj3Xr6yt/aNXCgAAALCJZhd7nWNJOlI0Qyn5muXV8auU2OWvAwlgYxa63a8opb4qyV412KC11PLVg9HoT6UANmK+2724Verb49Hz0+AfO8PxF34sGUnx2R6YtI/2OkeSdNVorFcOhuP/VwZgh5lZmtv74EltPTwpDy2pD0ktX5CSB2bn3dX/SEneXZN3JfmrmdbkXYePn/jbGHYDAAAA59Di3NwXp67/tRINUbPaGY3P9/MqDADhdD7Mut0nptQ/SNJWgw068YkR4OukADZ24dT+b6nlO5SYghPpUn58eXX0I0p8tqVe7/E1E3fBbfSfCdRvXhmu/XclgF1i73n79164vj77L0qpX5BSPy+1XJA7HiF8nySHGvg1356af0wpH0mZfCS1fKSUfGQyKR8p+/Z9ZDAYHHVYAQAAgK220Gt/Y0l5qRKN8YrBcPz/yYABIJym83rt/iTlf8Qdbdi4E6nl6sFo9FopgHty4MCBpZn12z+U5Dw1Gm9tMjv54qNHT/ydFJ9uqdd5YU2eqURj1dYk9z8yHn9UCoAkyb75dvu+rT3lglJznzopSyl1IclCSl1ILfPJHf9ZSvbVlE5KveNfDKzZk9zpY4dXUlJrzalWcjxJas24lrJWUscl5XBNPZLkSKn1tklaR8rM5EipkyOzdc+RW4fDw0nWHRoAAACgSRZ63d8sqd+iREPU8mWD0ehPhMAAEM7A4v725ZmU1yXZrwYbdLLW8jUro9FrpADu8XOm231aSv0VJabCawfD8ZfL8OmWep0P1eTzlWisvx4Mx18iAwAAAAAAp6Es9jo3JblAikZYHgzH90lyUgpaEsDpGxxf+9+tWq5IsqwGG7S3lPqqhU7nK6UA7vFzZjT69Zq8XYmp8GWL3e6TZPhn8+32g4z/mq0m16oAAAAAAMDpmO92Hxbjv+aoeUWM//gEA0A4Q0dGo7+c1HJlkiNqsEF7Siu/tzDX+SopgHswqbU8PclEiqm4wnrRA5O2Dncos+XJKjT9InByjQoAAAAAAJyOkskTVWjQ8ah5mQp8kgEgnIWjo9G76h0jwMNqsEF7Ss0rl+Y6Xy0FcA+fMe8oKS9VYiqueD/3aLf9vUJ88oKzXqVCo427wxNvlgEAAAAAgNNRWsUAsDEHIx9ZHo/fJgSfZAAIZ2llNPqrVll/VJKPq8EG7ak1v7fYa3+dFMDdOVlaP5BkRYlpuNAqz1lotx+42zPcL+kk5TFeEE1W/9dNyVgHAAAAAAA26uD+fQ9OzZcq0Qwl5XeTVCX4JANA2ARHVk9+YKY1eWySj6rBBs0k5aWLvfbXSwHcldXV1VtryXOVmAqdtMrP7PYIw273MUm6Xg6N/kMBj/8FAAAAAOC0nJq0npakKNEMrbL+chX4tNeEBLA5Dh8/cWNdr5cl+Xs12KCZpPx3I0Dg7qysjl+c5D1KNF8pecpSr7fLH39bn+CV0PQX6sy1IgAAAAAAcBr2lcTPtBuiJn95+PiJG5XgUxkAwiZaWVv7h7peH5uav1ODDZpJyn9f6LW/QQrgLqynlWfEbbyn5KKr/lySPbs4gQFgs310eXX1/TIAAAAAALBRC732U5McUqIxXiYBn8kAEDbZytraP5aax6bmw2qwQTMl5bfcCRC4K4Pj4zcneYUS06A+ZKnXeeZu/M4PHNj3+Sn5PK+B5iop18aYGAAAAACAjSsl5VkyNMapPWn9ngx8JgNAOAeWx+N/2lNalyX1b9Rggz55J8B/JwVwZ2bT+t6kHFOi+WryIwe73Qt23YXFpOXuf01X6jUiAAAAAACwUYu9ztcmuViJpqjX3TYc3qwDn8kAEM6RW4fDW24vs1ckea8abNBMSXnJQq/9TVIAn+mOk/n6E0pMhf3rpb5gt33TpVYDwGabnMzMm2QAAAAAAGCD9qTmx2RoFI//5U4ZAMI5tLq6eutkdu9javKXarDR9+WS8pLFbvc7pAA+02A4fmFSPqDEVPi6hbn2Y3bLN3u/pJOURzvszVWTd6yurt6mBAAAAAAAG7E41/32lHyeEo0xmu2uvUYG7owBIJxjR48eHdTZvY83AuQ0lJT64qVu+1ulAD7D7SXrz5RhOt7LSy0vSjK7G77ZYbf72CQdh73BF36lXKsCAAAAAAAbsX///oO11h9WolFec9ttWZWBO2MACFvg6NGjg7K3fWVq3qIGG31/rqX82lK3+++lAD7V8vDEG2rNHygxFb5kYa7znbvjW/X438YfoTIxAAQAAAAAYEP2rJ/61ZKcr0SD1PK7InBXigSwdc5Perf3On9ck8epwUY/xlPKdw1WRy+WAvikpU7n/rWVDyTpqdH40+1jsykPvm04vHknf5eL3c6HU/K5jndzX4eD4ehgktu1AAAAAADg7iz02t9cUl6iRKN8dDAcf06SdSm4M+4ACFvolmTYHo6/rKa8QQ02qKTWX1yc6zxDCuCTlsfjf6q1vkCJaVAP3J76Ezv5Ozy4f9+Djf8afjJR6htj/AcAAAAAwD2Yb7cfVNJ6oRLNUkr5rRj/cTcMAGGLfSwZLQxHX57UP1ODjX6ep+YXFue6/0EK4JMWRms/k5oPKzEVb+LffF6nc8lO/f5OTVpXOcrNVifF438BAAAAALhbhw5lbmamvDqpB9RolMn6qclvycDdMQCEbfAPydpguPZvS8kfqcEGldT6Swtzne+WAvjkZ0kpLXcHnZJz7kkrv5xkZmd+QJUnOsQN/5OBycQAEAAAAACAu7Pn1Kj96po8XIpmqSlvOrq29hEluDsGgLB9Ti6vjq9O8jIp2KBSal640Os8UwogSZaHw2uS/IkSU+HipW73W3faN3V+0kvqoxzeBp88JH/rDwYAAAAAALgbZanX/dWkeOJPEw9Oqb+pAvfEABC21/pgOP6mJC+Xgg1/vic/v9DrPEsKIEkms5NnJVlTovlqqT954MCBpZ30PZ3sdh+TpO3oNvh1V+PufwAAAAAA3JWy2Ov8dE39Zika6chgdezJktwjA0DYfqcGw/E31pSXSMFGT8JK8vOLvfZ/lgI4evTE35VSflaJqXBw5tTtP76zvqXq8b/NP224RgMAAAAAAO7E7OJc+1eT/Ccpmqkkv5PkhBJs4LUCNOX342K38wspeYYUbFitzxmM1n5KCNjd7pd0hr3O+5M8UI3Gm7Rq+dIjo9Ff7oRvZrHb+XBKPtdhbazby77xweXlHJMCAAAAAIBPOngw+9fH7Vd57G+z1bQuWhkO36ME98QdAKFB792D0fi7U/OLUrBhpfzkYq/z/ULA7nZTMi7Fv501Leffk9QXZgf8izjn7d/7L4z/Gu8txn8AAAAAAHyq+Xb7wvVx+y3Gfw1X8jbjPzbKABCa5Y4RYCk/KQWn4QUL3fYPywC72/Lq+A+S+nolpuKC7ZELvfY3Tv1Jy2TmCQ5m44+Sx/8CAAAAAPB/LfTa39iaKe9Oyher0WxlUn9DBTbKABAaaLA6+qFSyo8qwYY//Ev5sYVu+0eUgN1tfaZ+d5ITSkzFO/cLFhYWFqb5O5ikGAA2/RjV1rUqAAAAAABwqNe792Kv88cl5aVJ9ivScDWrre7aq4Rgo2YkgGYan7z9+vae2Ukp5bFqsBGllMe298yur91+6n+pAbvTiRPry529ew4kuVSNhr9nJ3OtyXp7fPupqbxD2/lJb7J39peTzDqajXXbymj8n5JUKQAAAAAAdq09i3Pdp01S/zDJQ+WYDrVVf3t55dTvK8FGuQMgNNjKaO3HS/J9SrBRpZQfX+x1nq8E7F4znfGPJ/moElNw8ZY8Y7HX+5Jp/NpPdLtXJNnnKDbaG5JMZAAAAAAA2JVaS3Odqxe7nfen1l9OsijJ9JhZLx7/y+n9hpcAmm15OP7Zmjwr7t7Cxj17aa77PBlgdzp8OMeTfL8SU2E2mbxoGr/wknqVw9dsNdXjfwEAAAAAdp+ZpbnOUxZ77ffWmlel5PMkmTrvPTIe/4UMnA4DQJgCK8Pxi0otT4u7uLBBtdbnLvY6L1ACdqfBcPzyJNcrMRUeszTX+ZopvIp4vEPX7FOB2dp6gwwAAAAAALvDUqdzv8Ve59mLvc7f1ZpXJ+WLVJlOpZZfUoHTft1IAFP0od1tf0st5ddjvMuG3+XLTw5WRz8kBOw+i73ev0wm70oyq0bj3TTbHT/kttuyOg1f7Hlzex8yqTPvd9ga7b2D4fihMgAAAAAA7FwLCwsL5dSJq2ot31JSr4gdwU4w6AzH9/tYMpKC0+E3P0yR5dHaS1LydUlOqcGG1PqcxV7nZ4SAXXh1MBz+dUl+WYmpcL9To85zpuejZeaJDlnjXSMBAAAAAMDOszQ390WLvc6zF3rdN5TbT9ySmleU1Ctj/7NT/KbxH2fCHQBhKj/UO0+tNb+bZI8abNBPD4bjZ8sAu8vCwsJC6/YTN9bkXmo03smZ1uRLDh8/cWPjX1e97htKat8ha65W6pVHhmvXKQEAAAAAML0WO50H1FIuSiYXtVrlotRc6mc+O9pkMjv5gqNHT/ydFJwuA0CYUgudzleWVl6ZZK8abNDPDIbj75cBdtnnRa/9zSXlJUpMg3rNYLh2VZO/wkOHMndq1DmcZJ/j1Vij+eH4vH9I1qQAAAAAAGiu/fv3H5ydTO6TWu9fMrnPJLlfaeWCUsvn1eSiJEsq7Sp/MhiOv0wGzoQBIEyxxW73SSn195O01WAjavJfV4bj/6QE7K7zvcW5zltS86VSTMH79CRftTIe/1FTv76FbvcrSqmvcaQa/Sp6/WC49gQdAAAAAIDdaKnT+dJJq/x4U76eVupCklJrFtJKSc187nhc7yf/E5IkJa2rlofDa5TgTMxKANNrMBq9bmGu/YQyKa9NyZwi3PNJQ753qdeZWR6O/2OSqgjsCnUyKU9vlfr2JDNyNPx9upUXnp9ce0sybObXN3lCqn+HqNG/4VP84QAAAAAAsGvVUg6W1H5jvp5P/pcSP53l7l4p71seDq/VgTNlTQxTbmV17frM1CcmOa4GGzzJfNbiXPuX4y6wsGscHY3elVJ/Q4mp8IDb57rf19wPkXKVQ9RsM2XdABAAAAAAAKZIqfm5mIhyFgwAYQcYHF/732nlCUk5pgYbUst3LM61fyVGgLBrrLf2/mCSw0pMwVt0rT9w4MC+z2/a17U0N/dFST7HEWq0m46snvyADAAAAAAAMB1KcuuB0drLleBsGADCDjE4Pv7zSc3jkhxRgw2p5dsX59q/6rMAdodjx44tp5QfUWIq7JuZtH6mcR8bdf2JDk3TP9rr61UAAAAAAIDpMan1F/8hWVOCs2H0ATvI0dHonbWWK+MOT2xULf/+E3cC9HkAu8BgdfSrNXm7EtPw/pyvWOx2mza4e4ID0/SLu3KtCgAAAAAAMDVG6zN7fkUGzpbBB+wwK6PRXyWtK0pyqxpsyB0jwF+OxwHDbjBpTfKsJFWK5iulvjDJviZ8LQcPZn+SSx2VRls/1drzRhkAAAAAAGBKlPrbx48fd4MnzpoBIOxAg+Hwva3W5FFJPqoGG1LL0xZ63V/3uQA73/J4/NaS8lIlpuCtOfn8xW77e5vwtZwadvpJ9joqTf5DgvzlsWPHloUAAAAAAICpsL7eqj8nA5vB0AN2qMPHT9y4PjN5bJKb1GAjSuq3GgHC7nCytJ6dZEWJaXhzLs9ZaLc/Z9u/jJnq8b+N/xz3+F8AAAAAAJgirzx27MTfysBmMPKAHezYsRN/W9frZSn5iBpsREn9lqVe9zd8PsDOtrq6emtNflSJqdAtM+Wnt/2rqOXxDkXDrddrRAAAAAAAgKlQU2aeLwObxcADdriVtbV/zHoem5oPq8HGzjTqNy/2Or+bZEYN2MGfD8PxLyV5rxJT4alLvd62DfAWe71/meQBDkOTlWPL4/Ff6gAAAAAAAM1XSl4zWF39GyXYLAaAsAsMxuP/M1talyf1fWqwQf/vJ0aAs1LAjnUqrTw9SZWi+WrqzyXZsz2/+sTjf5v+BwW1XpfkdiUAAAAAAKD5yqT8FxXYTAaAsEvcNhzePJuZvhEgp+FrF3ud34o7AcKONTg+fnOSVyoxDeoXLvU6371Nv7gBYNNfHSnXqgAAAAAAANOgXHtkNPJUHzaVASDsIrcNhzdPZvddXhMfJmzU1y/2Oi+POwHCjjWb1n9MyjElmq8mzz3Y7V6wlb/m0lIOJHmk+s02mUwMAAEAAAAAYAqUSX2uCmw2A0DYZY4ePTrInn3/T5K/UIMNeqoRIOxctw2HNyf1p5SYCvvXS33+Vv6Ck5OdfpK90jdXTT50dG3t75UAAAAAAIDGe93yePw2GdhsBoCwC62srKxkb/vxKXmrGmzQ1QvdziuS7JECdp7BcPzzST6oxFT4+oW59qO37perHv/bcKXmGhUAAAAAAKDxaquWH5WBc8EAEHapwWBwdO/q+MqSvEkNNqKUPGWh23l5jABhJzrZSv0uGabk7bjml7JFd2UttTxe8sa/JDz+FwAAAAAAGq6UvObIaPSXSnAuGADCLnZLMmwPx19WU96gBhs8KXmKOwHCznRkuHZdKfkjJabi3fiLF+e6TzvXv8pir/clSe6vd6OdnO2NrpcBAAAAAAAarU5qy93/OGcMAGGX+1gymhuOviKpr1eDjSglX73U7bwyRoCw40xO1e9JMlJiGi4T64/Pzc0dOsevCI//bb633HZbVmUAAAAAAIBGe/nKcPgeGThXDACB3JSMB8O1r0jJa9RgI2rJVy32Oh9d7HVeu9jrPHu+2314kqIMTLeVtbV/rLW+QImpsDibUz91jn+NJ8rceNdIAAAAAAAAjbZW1+tzZOBcMtYAPtWehW7nFaXkq6XgDNyW5C+SvHlSy3VHR6N3JamywNTZt9Tr/HVNPl+Kxpu0JnnkkfH4Lzb7H7y0lAP1ROdw3O210WotF6+MRn+lBAAAAADAHRa73Sen1NcqQYO8YDAc/4AMnEsGgMBnmlnsdV+S1G+UgrNkEAhTaqHb/fJS6v9QYipO5t+5PBz/mySTzfznLs11nlJrXq1wsz9nB8PxvTf72AMAAAAATDMDQBpmeX1mz+cfO3ZsWQrOJY8ABj7T+mA4+paS8ltScJYOJXlykue3Sn3HYq9zi0cGw3RYGY3+OMnrlGi+mjx8qdv9ls3+505qeYK6jXdNjP8AAAAAAKCxasnzjP/YCsYXwF1pLc61fyW1/HspOEcfQLfW5IaUcn3JqeuXV09+IO4QCI1x4MC+z5tZb/1Nkn1qNN7hyezeLzh69Ohgs96iF3udm5JcIG2D/9Ag9d+tDNd+WwkAAAAAgH/mDoA0yI2D4fhfJrldCs41dwAE7spksLr2tJK8SArOhZrcK8nVqfXFtc68zx0CoVmOHTvx4ZTys0pMhYOt20/++Gb9wxZ6vYfG+K/xH6OztfUGGQAAAAAAoKFq+Z4Y/7FFjCuAe7Q41/2J1PocJdhityX5iyRvntRy3dHR6F1xh0DYUvdLOsNe5/1JHqhG463XtP7VynD47rP+3O+1/3NSfkrSRnv3YDh+mAwAAAAAAJ/OHQBpglLzh8uj8VcrwVZxB0DgHg1WRz9USvkxJdhih5I8OcnzW6W+wx0CYevdlIxLyfcrMRVmSp28eHPeG8sT5Gy8ayUAAAAAAIBGGk8m9XtlYCsZTwAbttjrPDvJ85WgIdwhELbs/b/9+qQ8Xonmq6nfuDJc+50zPtaLi/M5uXZbkj1qNtek1CuOrq69SQkAAAAAgE/nDoBst1rrD6+M1n5CCbaSASBweidMvc4PJPkvStDAD7Rba3JDSrm+5NT1y6sn368KbI7z5vY+ZFJn3hOjsGlwc9k3fvDyco6dyd+8NNe5uta8SsZGGw6G4/OSnJACAAAAAODTGQCynWryoYXh+KH/kKypwVbyCGDgtAyG4+enlKfHndZo3snUvZJcnVpfXOvM+5Y8Mhg2zZHVkx9I8iIlpsK9Jyc6zz3zN1OP/52CT7wbYvwHAAAAAABNMymt+m3/YPzHNjCGAM7IUrf77bXU/xZDYqbnA+/Wmrw9HhkMZ+TgwexfH3c+mOQCNRrvVNK6eDAc/vXpvlUu9jo3OcbNVkueubI6/gUlAAAAAAA+mzsAsm1qXjwYjZ8hBNvBABA4Y0vd9rfWUn4tRoBM5wegQSCc7kVzr/31SfkdJabC/x4Mx48+nfe1hW73YaXUd0nXbK3W+kOOHD/5QSUAAAAAAD6bASDb5KPZ2/6iwWBwVAq2g9EOcMaWR2u/meTrk5xSg2nziUcGPznJ81ulvmOp17nZI4Ph7g2Gay9LcoMSU+HypbnO1afzN5RMnihb491k/AcAAAAAAM1Sa/kPxn9sJwNA4KwMhuNXlJKvS3K7Gkz1SZlBIGzst0qZeUYMv6fkYjP/9dChzG387yhPUK3hSv0zEQAAAAAAoDlqym+ujEZ/rATbyQAQOGvLq+NXpZavSnJCDXbOiZpBINyZwerq36TmV5SYCvc7Ner+4Eb+wvn5+cWUXCJZs5WUa1UAAAAAAICGKPnIbGf0PUKw/S9FgE2y2O0+OaX+fpJ9Z/GPOZFkdA9/zSjlHsaGNcfLPdyhapIyuPs3yMl6Uo7dw9dyMqUO7/afU8uo3tM4stbjKeXu76hVy0pJ6t18R+tp3f3XO5mUkzNlcrdf76mktlJ+P8mCV/XdvcRyS0luSCk3lJy6fnn15PtVYbdYWFhYaN1+4sZPDGVpthMzrcmXHD5+4kN39xctzXWeWmt+T65GW5/M7j109OjRgRQAAAAAAHfuEz+zfq0SbIFTZZJHLY/Hb5WC7WYACGyqQ4cyd/Lk/J47+/9mZo6uLy/nmErNt9DrPLMkL1Ri4wwC2W2Wuu1vqaX8phJT8Q71+sFw7W4f77vU6/5WTf0mrRp95fbWwer4kUIAAAAAANw1A0C2SinlR5dXR89Tgka8HiUA4E7MLva670nqF0pxZgwC2QVai73OWxKPjZ2K96Ra/u3KaPQ/7uqaYLHX+ViSeyvlDxIAAAAAAKaZASBbouYtg9H40bmHpxLCVmlJAMCdODUpk++S4cyV5PwkT02tL6515n1Lvc4ti73Oaxd7nWfPd7sPjxE+028yqeXpSSZSTMF7Uqm/cEHSvbP/b77bvTjGf823Xq8RAQAAAAAAtldJbi01XxPjPxrEABCAO3V0de1NpeSPlNgcNblXkicneX6r1Hcs9To3GwQy9e8To9E7U6rHAE+HB4y67e+78wvVyRPkabyV5fH4L2UAAAAAAIBtNUkm37A8Ht8kBU1ibADAXVrsdB6QVj6Qu7hrFJv6gXxrTd6e5M2TWq47Ohq9K0lVhqY7cODA0sz67TcmOahG440n6/WLjq6t/f2nvdd3O3+ekkfK01y15vdXRuOrlQAAAAAAuHseAcy5VX9wMFz7LzrQNO4ACMBdGozH/6eU8nNKbMGp4mfcIXCh1/n4Yq/ze4tz3e9cmtv7hQrRVMeOHVtOKT+ixFTotGbLz3/q/3DgwIGllFwiTdMv2sq1KgAAAAAAwDYq+ePBcO35QtDMlycA3I37JZ1hr/OBJJ+jxrZ+YLtDIE3WWuh13laSfy3FFKjlSYPR6E+TZHGu87WpeYUozTZZrxd+5p0bAQAAAAD4bO4AyLlR35e9nUsHg8FRLWgidwAE4G7dlIxT8gNKbPMp5WfcIXCp17l5sdd57WKv8+z5bvfhMepne01akzwrRqnT8o7yoiT77viv5Ql6NN4Hjf8AAAAAAGDbfDyT8kTjP5rMABCAezRYHb8yyQ1KNIdBIE2zPB6/JSm/o8QUKPm8xV7ne5K0aurjBWn64YrH/wIAAAAAwPYYtyb5ysF4/H+koMmMAwDYkIVe76KSyTuSzKjRfDW5pSQ3pJTrS07dsLx68v2qcK4d6vXufSqTDyaZV6PxhrWWry+l/pEUTX9DL08ejEavEwIAAAAA4J55BDCbaL1OcvXKeOxnKTSeASAAGz9hnmv/t9TyHUpMn08dBLZy6vojqyc/oArnwkKv86yS/LwSU/HGsJqSOSEa7cTe4fi8W5KhFAAAAAAA98wAkE1SS63ftjxae4kUTAMDQAA27MCBA0sz67d/KMl5akz9CcCtNXl7kjdParnu6Gj0riRVGTbB7GKv884kXyIFnPV79ZuWh+MrlAAAAAAA2BgDQDZDSb5veTj+WSWYFi0JANioY8eOLdeSH1Vi+tXkXkmenOT5rVLfsdTr3LzY67x2sdd59ny3+/D4lwQ4c6fSqs+IQSlsxnv1NSoAAAAAAMDWqbU+z/iPaeOH+wCcrtnFXvuvkvLFUuzgE9s7Hhl8fUq5wSODOROLvc4rk3yNEnA278Wth60Mh+9WAgAAAABgY9wBkLP0gsFw/AMyMG0MAAE4oq6ZYQAAHy5JREFUbfNz7ce1anmjErvqhMEjgzktS53O/WrJB1IypwacvprcsjIc38d7LQAAAADAxhkAchaM/5haHgEMwGk7urr2plrzB0rsHh4ZzOlaHo9vSslPKgFnpiTXxvgPAAAAAADOuVrrDxv/Mc38sB6AM7LQbj+wzJT3J+mogUcGcxf2LvQ6f12SL5ACTvud9RsGw7Xf1QEAAAAAYOPcAZDTNEkp3z1YHb1YCqaZASAAZ2xprvujtdYfUYI7OcHwyGDueJ/o7buypnWtEnBa6kwt9z08Gn1cCgAAAACAjTMA5DQMay1fvzIavUYKpp0BIABn7H5JZ9jrvD/JA9XgHk44DAJ388X2XOePUvNvlYAN+6vBcHyxDAAAAAAAp8cAkA36+KSWLz86Gr1DCnaClgQAnKmbknEpebYS3JOa3CvJk5M8v1XqOxZ7nY8t9jqvXJzrfud5c3sfotAOP/6n6vckGSsBG+aumQAAAAAAcG68t0xyifEfO4k7AAJw1hZ7nf+Z5DFKcBYnJO4QuMMtdNvPLaU8Twm4Z7XUx62srv1PJQAAAAAATo87AHIPXrZ3OH7aLclQCnYSA0AAztrS3NwX1br+7iSzarBJJygGgTvMA5P20bnO+1JzoRpwt4aD4fi8JCekAAAAAAA4PQaA3IUTNXn2ynD8IinYiQwAAdikk+nOi1PyH5TgHLk5yQ2p5fpW69QNR1ZPfkCS6bPQ7X55KfV/KAF363WD4fjJMgAAAAAAnD4DQO7E309qufroaPROKdipDAAB2BTz8/OLrVMnP5TkoBpswQmMOwRO64V3r/26pDxRCbhzteS7V1bHv6gEAAAAAMDpMwDkM7x6Mrv3aUePHh1IwU5mAAjA5p1Qz3Wfnlp/SQm24YTGIHBKHDiw7/Nm1lt/k2SfGvDZZlqTBx8+fuJDSgAAAAAAnD4DQD7h5lrL01ZGoz+Wgt3AABCAzTSz2Ou8K8mXSMF2n9THI4Obe/Hd6/5UUv+zEvBZ/mEwHD9IBgAAAACAM2MAuOvVkvLb67N7vsdd/9hNDAAB2NyT6v2dyzLJ//IZQ8NOeG6tyQ01+fNay5vdIXB7XZB0x73O+5N8jhrwqW9W9dcGq2tPEwIAAAAA4MwYAO5q70krzxgcH79ZCnYb4wwANv/Eutd5VZKrlaDBJ0AGgdtsaa7z1Frze0rAP6slX72yOv5DJQAAAAAAzowB4K60UpPnrQzHL05ySg52IwNAADbdQrv9OWWmvD9JVw2mhEcGb4OlXueNNXmcEpAkOVX37Du0srKyIgUAAAAAwJkxANxV1kryKyfLzE+trq7eJge7mQEgAOfEQrf93FLK85RgSk+Q3CFwCyzN7f3CWmfenWSPGux6NW8ZjMaXCgEAAAAAcOYMAHeF25O8crJen3t0be3v5YCkJQEA58LcaO2nk/yjEkyjmtwrydUleWGr1Hcs9jofW+x1XrHY7X7HeXN7H6LQ5lhePfn+mvyiEpDU1GtVAAAAAACAu3Silvobk9nJQwbD8Tca/8E/cwdAAM6ZpbnOU2rNq5VgB55AuUPgJjl4MPvXx50PJrlADXb1+8okj1gej9+mBAAAAADAmXMHwB3paEleWib56SPj8UflgM9mAAjAuT3J7nXelOSxSrDD3Zzk+tRyQ2vm1PVHjp/8oCQbt9Brf0NJ+W0l2MUGg+H4UJJ1KQAAAAAAzpwB4I7ynpTya3tXRy+9JRnKAXfNABCAc2ppbu8X1jrzniSzarCLTrDcIfA0ky32Ov8zyaOlYJd69WA4fqoMAAAAAABnxwBw2pVjKZNXppTfGRwfv1kP2BhjDADOqeXVk+9f7HZ+JSXPUIPdoib3SnJ1Sa4upWax13GHwHtIVtN6VsnkHUlm5GC3KbVcqwIAAAAAALvUWkquTa2v7gzHf/ixZCQJnB53AATgnDtw4MDSzPrtNyY5qAYk8cjgO7XY7fxSSp6uBLvOJJ8zGI//jxAAAAAAAGfHHQCnxlpKrkmtry771l67vJxjksCZMwAEYGtOtue635laf1kJuNMTMo8MTjI/P7/YOnXyxiSHvCrYRe8AHxgMR1+oAwAAAADA2TMAbLCSjyT1upJyXas9fv3hwzkuCmzWby8A2Bozi73OO5JcJAXco117h8Clbvfbaqm/7iXALroge9HycPwsJQAAAAAAzp4BYGPUpHygJm9NJm9uTcp1y+PxTbLAuWEACMCWWZhrP6rUcr3PHzhtu2kQ2Frodd5akn/jsLMr1PLEwWj0Z0IAAAAAAJw9A8Bt8/Gkvjel9Y5M8tb12dm3Hjt2bFkW2BoGGABs7Ul3r/OKJF+rBJyVHT0IPK/b/deTUt+WpOVQs8Od6AzHSx9LRlIAAAAAAJw9A8BzqyS31poPl1JuTOr7Sup7TpTZ96yurt6mDmzr700A2DpLnc79aysfTNJVAzbNJweB17dmTt2wEwaBC3PtXy+1fJtDyw6/GHvj8nDcVwIAAAAAYHMYAJ6VU0luSck/Jbk5k/xTSv14KeUj65PytzPt0YeXl3NMJmgeA0AAttxCt/3DpZQfUwLOmakfBM7NzR3aU9dvTLLocLKDff9gOP4ZGQAAAAAANsf8XPtxrZRf35XffM3tJVlNklpystYyLKWupuZkSl3JpJxIqxwvtR6ZpC6ntpbLTF0udX15pu5Zvm04vDXJxKsIpo8BIABb7oFJ+2iv8/4kD1IDtuJ6L7eU5H/V5M9rLW8+Ohq9647/udkW5zrPSM0vOoLsXK2HDobD9+oAAAAAAADAmTIABGBbLMx1vqrU/IESsPWmaBA4s9jrvCPJRY4aO9DNg+H4gkzBGBcAAAAAAIDmMgAEYNss9tqvT8rjlYDt1eRB4FKn88jaypudt7LzLsTKS5eHo29SAgAAAAAAgLPhB6kAbJulub1fWOvMu5PsUQOao2mDwMVe57eTfIMjww7zdYPh+OUyAAAAAAAAcDYMAAHYVku9zotq8t1KQHNt9yDwXr3e+bdncmOSeUeDHWJye5m5z+rq6q1SAAAAAAAAcDYMAAHYVvPz84utUydvTHJIDZgO2zEIXOp1vrcmP6s+O+Qi7J3Lw/G/UgIAAAAAAICzZQAIwLZb6na/vZb6q0rAdNqiQeDsYq/zriT/UnF2wGXYfxkMRz+oAwAAAAAAAGfLABCAJmgt9DpvK8m/lgKm37kaBM7PtR/XquWNCjP1v0dKfczK6toNSgAAAAAAAHC2DAABaISlTueRtZU3+2yCnWczB4GLvc7vJXmqqkyx4WA4Pi/JCSkAAAAAAAA4W0YWADTGYq/zsiT/nxKws53NIHCp07lfLflASuaUZEq9djAcf7kMAAAAAAAAbAYDQAAa47xO576Tkg8a9sDucrqDwMVu+wdTyk8qx3RegZVnDFZHLxYCAAAAAACAzWAACECjLHbbz0kpP6EE7F4bGATuXex13pvkwWoxbdZnJl9w7NiJv1UCAAAAAACAzWAACEDT7F3qdf6mJp8vBZDc+SBwqbfvyprWNeowZf5hMBw/SAYAAAAAAAA2iwEgAI2z0O3+21LqHykB3IWPJ7k+ST/JITmYnquv+quD1bXvEAIAAAAAAIDNYgAIQCMt9tp/lpSrlABgp6iTfNXKeGzgDgAAAAAAwKZpSQBAIz+gyuQ/JrldCQB2iFOl3X6TDAAAAAAAAGwmA0AAGunI6skPlOTFSgCwI9S8bTAYHBUCAAAAAACAzWQACEBz7Rs/N8nNQgAw7WrqtSoAAAAAAACw2QwAAWis5eUcK7X8sBIATLuZWq5RAQAAAAAAgM1WJACg4VoLvc5bS/JvpABgSg0Gw/GhJOtSAAAAAAAAsJncARCAppu0JnlWkioFAFPq2hj/AQAAAAAAcA4YAALQeMvj8VuTvEwJAKZRqfVaFQAAAAAAADgXDAABmAqzaX1fUo4pAcDUqeUNIgAAAAAAAHAuGAACMBVuGw5vTibPVwKA6VLftzwe/5MOAAAAAAAAnAsGgABMjcFw7b/W5ENKADAtaorH/wIAAAAAAHDOGAACME1OppbvkwGA6bngal2jAgAAAAAAAOdKkQCAabPYa/9pUp6gBAANt9YZjs/7WDKSAgAAAAAAgHPBHQABmDrrM/WZSU4oAUCT1ZT/bfwHAAAAAADAuWQACMDUOXbsxN/W5MVKANDsi63q8b8AAAAAAACcUwaAAEyl2c74eUk+rgQATVXTulYFAAAAAAAAziUDQACm0uHDOV5q/SElAGiomwfD4d/IAAAAAAAAwLlkAAjA1Foerf33mrxdCQCapqS8PklVAgAAAAAAgHPJABCAaTaptTw9yUQKAJqkpnr8LwAAAAAAAOecASAAU+3oaPSOpPyuEgA0yOT2MvNGGQAAAAAAADjXDAABmHp7Ur4/KceUAKAJSvKu1dXVW5UAAAAAAADgXDMABGDq3Toc3pLUn1ICgCaopVyjAgAAAAAAAFvBABCAHWEwHP98khuVAGC71UyuVQEAAAAAAICtYAAIwE5xMrV8rwwAbLPjK6trb5UBAAAAAACArWAACMCOMRiNXpfUP1UCgG1T8qYktwsBAAAAAADAVjAABGBHWZ+pz0xyQgkAtkfx+F8AAAAAAAC2jAEgADvKsWMnPpzkF5QAYDtMZtavUQEAAAAAAICtUiQAYKc5eDD718edG5PcRw0AttDfD4bjC2UAAAAAAABgq7gDIAA7zuHDOV5Tf1AJALZUzetFAAAAAAAAYCsZAAKwI60M116a5C+UAGCr1BSP/wUAAAAAAGBLGQACsFPVSS1PTzKRAoAtcKrs23e9DAAAAAAAAGwlA0AAdqyjo9E7S8pvKwHAFnjrYDA4KgMAAAAAAABbyQAQgB1tNuUHkhhkAHBu1erxvwAAAAAAAGw5A0AAdrRbh8NbSvITSgBwbi+sWteqAAAAAAAAwFYrEgCwC+xd7HXem+TBUgBwDhwZDMf3SjKRAgAAAAAAgK3kDoAA7AYnSybfJQMA58gbYvwHAAAAAADANjAABGBXWB6eeEOSP1ECgM1WUz3+FwAAAAAAgG1hAAjArjGZnTwryQklANjUi6pJuU4FAAAAAAAAtoMBIAC7xtGjJ/4uyQuVAGDz1L9ZHo//SQcAAAAAAAC2gwEgALvKTGf8kyV5U5KTagBwtmqKx/8CAAAAAACwbYoEAOxGFyTdE732Iycp/ZL0a/KwGMYDcNoXVJPHLw9PGAECAAAAAACwLQwAASDJwYPZX8ftSz5lEHixz0kA7sFabzheuikZSwEAAAAAAMB2MGwAgDtxqNe793qZXF5T+6nlqiQPUAWAT1evGQzXrtIBAAAAAACA7WIACAAbMN9uXzjTavVrqf0kVyRZUgVg119Mfe/ycPxzSgAAAAAAALBdDAAB4PTNzHe7F7XuGANeluTRSfbLArDLLqbKzBcvr66+TwkAAAAAAAC2iwEgAJy92flu96GtUvs1pV9SH5VkrywAO9pHB8Px/ZNUKQAAAAAAANguBoAAsMnOT3qneu1HTFL6JenX5GKfuQA7S015ycpw9K1KAAAAAAAAsJ2MEQDgHJubm7vX3qw/uqb2U8uVSR6kCsCUX0iVfO3y6vj3lAAAAAAAAGA7GQACwBabb7cvLDO5rJRcmlqelOS+qgBMlcntZebeq6urt0kBAAAAAADAdjIABIBtNt9uXzjTavVrqf0kVyZZUAWguWry9pXh+BIlAAAAAAAA2G4GgADQLDPz3e5FrVL7NaVfUi9Psk8WgAZdRJXyE8urox9WAgAAAAAAgO1mAAgADXZB0j3Raz9yktIvSb8mD0vSUgZgG7Vy+eD4+M1CAAAAAAAAsN0MAAFgihw8mP113L7kUwaBF/s8B9hSxwfD8XlJbpcCAAAAAACA7WYwAABT7FCvd+/1Mrm8pvZTy1VJHqAKwDm9gnrNYHX8lUIAAAAAAADQBAaAALCDzLfbF860Wv1aaj/JFUmWVAHYRLV852A0+hUhAAAAAAAAaAIDQADYuWbmu92LWneMAS9L8ugk+2UBOHOT9fq5R9fWPqIEAAAAAAAATWAACAC7x+x8t/vQVqn9mtIvqY9KslcWgA2q+fBgNP58IQAAAAAAAGgKA0AA2KXOT3qneu1HTFL6JenX5GLnBgB3o+bFg9H4GUIAAAAAAADQFH7IDwAkSebm5u61N+uPrqn91HJlkgepAvDPai1fsTIa/bESAAAAAAAANIUBIABwp+bb7QvLTC4rJZemliclua8qwC52e9k3Pri8nGNSAAAAAAAA0BQGgADAhsy32xfOtFr9Wmo/yZVJFlQBdpEbBsPxY2QAAAAAAACgSQwAAYAzMTPf7V7UKrVfU/ol9fIk+2QBdqxanzMYrf2UEAAAAAAAADSJASAAcNYuSLoneu1HTlL6JenX5GFJWsoAO8Wkln91dDR6pxIAAAAAAAA0iQEgALDpDh7M/jpuX/Ipg8CLnXcAU+zwYDg+P8lECgAAAAAAAJrED+IBgHPuUK937/Uyubym9lPLVUkeoAowRV4+GI6/TgYAAAAAAACaxgAQANhy8+32hTOtVr+W2k9yRZIlVYCmqqnftDJce6kSAAAAAAAANI0BIACw3Wbmu92LWneMAS9L8ugk+2UBGqLO1HK/w6PRx6QAAAAAAACgaQwAAYCmmZ3vdh/aKrVfU/ol9VFJ9soCbJP3Dobjh8oAAAAAAABAExkAAgCNdn7SO9VrP2KS0i9JvyYXO4cBttDPDobj75MBAAAAAACAJvLDcwBgqszNzR3am/XH1NR+arkyyYNUAc6VVuqVR4Zr1ykBAAAAAABAExkAAgBTbb7dvrDM5LJScmlqeVKS+6oCbJJxbzg+76ZkLAUAAAAAAABNZAAIAOwo8+32hTOtVr+W2k9yZZIFVYAzU18/GK49QQcAAAAAAACaygAQANjJZua73YtapfZrSr+kXp5knyzARtTke1aG4xcqAQAAAAAAQFMZAAIAu8YFSfdEr/3ISUq/JP2aPCxJSxngTi+WyvoXLa+efL8SAAAAAAAANJUBIACwax08mP113L7kUwaBFzs/Aj7hpsFwfH8ZAAAAAAAAaDI/4AYA+IRDvd6918vk8praTy1XJXmAKrA71ZTfXBmOvk0JAAAAAAAAmswAEADgLsy32xfOtFr9Wmo/yRVJllSBXXKhVPI1y6vjVykBAAAAAABAkxkAAgBsTGu+231Y644x4GVJHp1kvyywI62fas2ef/z48SNSAAAAAAAA0GQGgAAAZ2Z2vtt9aKvUfk3pl9RHJdkrC+wIfzEYjr9UBgAAAAAAAJrOABAAYBOcn/RO9dqPmKT0S9KvycXOtWBKL5JK+bHl1dFzlQAAAAAAAKDp/FAaAOAcmJubO7Q364+pqf3UcmWSB6kCU6KVywbHx38uBAAAAAAAAE1nAAgAsAXm2+0Ly0wuKyWXppYnJbmvKtDIS6Rjg+HoYJLbtQAAAAAAAKDpDAABALbBfLt94Uyr1a+l9pNcmWRBFWjABVLNHy6Pxl+tBAAAAAAAANPAABAAYPvNzHe7F7VK7deUfkm9PMk+WWAb1PIdg9HoV4UAAAAAAABgGhgAAgA0zAVJ90Sv/chJSj81l6XkkiSzysC5N1mvn3t0be0jSgAAAAAAADANDAABABru4MHsr+P2JZOUfkn6NbnYeRxsvpp8aGU4frASAAAAAAAATAs/OAYAmDKHer17r5fJ5TW1n1quSvIAVWAT1PzSYDT+LiEAAAAAAACYFgaAAABTbr7dvnCm1erXUvtJrkiypAqcgVq+bDAa/YkQAAAAAAAATAsDQACAnaU13+0+rJR6WUkuTXJVkv2ywD06Odsdn3fbbVmVAgAAAAAAgGlhAAgAsLPNzne7D22V2q8p/ZL6qCR7ZYHPcv1gOH6sDAAAAAAAAEwTA0AAgF3k/KR3qtd+xCSlX5J+TS52TghJkv88GI6fLwMAAAAAAADTxA97AQB2sbm5uUN7s/6YmtpPLVcmeZAq7EaTWh5+dDR6lxIAAAAAAABMEwNAAAD+r4Pd7gWTVr30E4PAJyW5ryrsAocHw/H5SSZSAAAAAAAAME0MAAEAuEvz7faFM61Wv5baT3JlkgVV2IFeNhiOv14GAAAAAAAApo0BIAAAGzUz3+1e1Cq1X1P6JfXyJPtkYdrV1H+3Mlz7bSUAAAAAAACYNgaAAACckQuS7ole+5GTlH5qLkvJJUlmlWHK1Jla7nt4NPq4FAAAAAAAAEwbA0AAADbFwYPZX8ftSyYp/ZL0a3Kx802mwHsGw/FFMgAAAAAAADCN3KEFAIBNcfhwjidr1yW5LkkO9Xr3Xi+Ty2tqP7VcleQBKtFA10gAAAAAAADAtHJHFgAAtsR8u33hTKvVr6X2k1yRZEkVttsktX90uPZGJQAAAAAAAJhGBoAAAGyH1ny3+7BS6mUluTTJVUn2y8IWGw2G46UkJ6QAAAAAAABgGhkAAgDQBLPz3e5DW6X2a0q/pD4qyV5ZOLfqnw6Ga0/SAQAAAAAAgGllAAgAQOOcn/RO9dqPmKT0S9KvycXOXdlsNXnWynD8IiUAAAAAAACYVn6ICgBA483NzR3am/XH1NR+arkyyYNU4Wy1WusPOXL85AeVAAAAAAAAYFoZAAIAMHUOdrsXTFr10k8MAp+U5L6qcJpuGgzH95cBAAAAAACAaWYACADA1Jtvty+cabX6tdR+kiuTLKjC3aml/sbK6tq/VwIAAAAAAIBpZgAIAMBOMzPf7V7UKrVfU/ol9fIk+2Th0y6ESq5eXh3/vhIAAAAAAABMMwNAAAB2tAuS7ole+5GTlH5qLkvJJUlmldnV1tdn9tzr2LFjy1IAAAAAAAAwzQwAAQDYVQ4ezP46bl8ySemXpF+Ti50X77qroLcNVsePEAIAAAAAAIBp584nAADsKocP53iydl2S65LkUK937/Uyubym9lPLVUkeoNLOVlKuUQEAAAAAAICdwJ1OAADgU8y32xfOtFr9Wmo/yRVJllTZYRdBk1y6PB6/RQkAAAAAAACmnQEgAADctdZ8t/uwUuplJbk0KY9P6gFZptrKYDg+lOSUFAAAAAAAAEw7A0AAANi42flu96GtUvs1pV9SH5VkryzTo9b8wcpo/BQlAAAAAAAA2AkMAAEA4Aydn/RO9dqPmKT0S9KvycXOsRt+AVTLty+PRr+uBAAAAAAAADuBH04CAMAmmZubO7Q364+pqf3UcmWSB6nSLJP1euHRtbW/VwIAAAAAAICdwAAQAADOkYPd7gWTVr30E4PAJyW5ryrb6sbBcPwvZAAAAAAAAGCnMAAEAIAtMt9uXzjTavVrqf0kVyZZUGVLL35+YXk4fqYSAAAAAAAA7BQGgAAAsD1m5rvdi1ql9mtKv6RelqQtyzlUy5MHo9HrhAAAAAAAAGCnMAAEAIAGuF/SGffal05S+qm5LCWXJJlVZtOcnO2Oz7vttqxKAQAAAAAAwE5hAAgAAA108GD213H7kklKvyT9mlzs/P2sLnzetDwcX6EEAAAAAAAAO4k7igAAQAMdPpzjydp1Sa5LkkO93r3Xy+TymtpPLVcleYBKG1eTa1UAAAAAAABgp3EHEQAAmELz7faFM61Wv5baT3JFkiVV7lpN62Erw+G7lQAAAAAAAGAnMQAEAIDp15rvdh9WSr2sJJcm5fFJPSDLHWpyy8pwfJ87/isAAAAAAADsHAaAAACw88zOd7sPbZXaryn9kvqoJHt3cY/fGQzH3+hlAQAAAAAAwE5jAAgAADvc+UnvVK/9iElKvyT9mly8u64F6jcMhmu/65UAAAAAAADATmMACAAAu8zc3NyhvVl/TE3tJ6Wfmgt38LdbZ2q57+HR6OOOPAAAAAAAADuNASAAAOxyB7vdCyatemlN7aeWJyW57w769v5qMBxf7CgDAAAAAACwExkAAgAAn2a+3b5wptXq11L7Sa5MsjDF384LBsPxDziqAAAAAAAA7EQGgAAAwN2Zme92L2qV2q8p/ZJ6WZL2tHzxtdTHrayu/U+HEQAAAAAAgJ3IABAAANiw+yWdca996SSln5rLUnJJktmGfrnDwXB8XpITjhwAAAAAAAA7kQEgAABwxg4ezP46bl8ySemXpF+Tixt0nfG6wXD8ZEcJAAAAAACAncoAEAAA2DSHer17r5fJ5TW1n1oen+RztutrqSXfvbI6/kVHBQAAAAAAgJ3KABAAADhn5tvtC2darX4ttZ/kiiRLW/Vrz7Qm/+Lw8RM3OgoAAAAAAADsVAaAAADAVmnNd7sPK6VeVpJLk/L4pB44R7/WPw6G4wdKDgAAAAAAwE5mAAgAAGyX2flu96GtUvs1pV9SH5Vk7+Zc6dRfG6yuPU1iAAAAAAAAdjIDQAAAoBHOT3qneu1HTFL6JenX5OIzvWYpJU9ZXh3/gaoAAAAAAADsZAaAAABAI83NzR3am/XH1NR+UvqpuXCDf+v6+syeex07dmxZRQAAAAAAAHYyA0AAAGAqHOx2L5i06qU1tZ9anpTkvnf6F9a8ZTAaX6oYAAAAAAAAO50BIAAAMJXm2+0LZ1qtfi21n+TKJAtJUmt93spo7UcVAgAAAAAAYKczAAQAAHaC2cX9nUvqen1cKTOvGQyHfy0JAAAAAAAAAAAAAAAAAAAAAAAAAAAAAAAAAAAAAAAAAAAAAADArvT/Aw2kCh1GAD9MAAAAJXRFWHRkYXRlOmNyZWF0ZQAyMDIxLTA5LTIyVDE5OjM5OjI5KzAwOjAwPrvOsAAAACV0RVh0ZGF0ZTptb2RpZnkAMjAyMS0wOS0yMlQxOTozOToyOSswMDowME/mdgwAAAAASUVORK5CYII=;" vertex="1" parent="1">
          <mxGeometry x="680" y="300" width="27.5" height="10" as="geometry" />
        </mxCell>
      </root>
    </mxGraphModel>
  </diagram>
</mxfile>
